%TF.GenerationSoftware,Altium Limited,Altium Designer,26.9.1 (10)*%
G04 Layer_Color=8388736*
G04 Board_Origin=30650000|16550000*
%FSLAX45Y45*%
%MOMM*%
%TF.SameCoordinates,05126742-2993-4272-A15D-2DBC63916BBF*%
%TF.FilePolarity,Negative*%
%TF.FileFunction,Soldermask,Top*%
%TF.Part,Single*%
G01*
G75*
%TA.AperFunction,ConnectorPad*%
%ADD10R,1.70000X0.60000*%
%TA.AperFunction,SMDPad,CuDef*%
%ADD11O,0.55000X1.25000*%
%ADD12R,2.50000X1.70000*%
G04:AMPARAMS|DCode=13|XSize=0.80607mm|YSize=0.29247mm|CornerRadius=0.14624mm|HoleSize=0mm|Usage=FLASHONLY|Rotation=180.000|XOffset=0mm|YOffset=0mm|HoleType=Round|Shape=RoundedRectangle|*
%AMROUNDEDRECTD13*
21,1,0.80607,0.00000,0,0,180.0*
21,1,0.51360,0.29247,0,0,180.0*
1,1,0.29247,-0.25680,0.00000*
1,1,0.29247,0.25680,0.00000*
1,1,0.29247,0.25680,0.00000*
1,1,0.29247,-0.25680,0.00000*
%
%ADD13ROUNDEDRECTD13*%
%ADD14R,0.70000X0.70000*%
%ADD15R,0.60000X1.70000*%
%ADD16R,1.70000X0.60000*%
%ADD17R,1.20000X0.30000*%
%ADD19R,0.70000X0.70000*%
%ADD21R,0.30000X1.20000*%
%ADD22R,0.75000X0.85000*%
%ADD23R,1.52908X1.35890*%
%ADD24R,0.80607X0.29247*%
%ADD25R,2.70000X1.00000*%
%ADD26R,1.20000X1.20000*%
%ADD27R,1.00000X2.70000*%
%ADD28R,1.15000X1.40000*%
%ADD29R,4.80060X1.80086*%
G04:AMPARAMS|DCode=30|XSize=0.95mm|YSize=0.4mm|CornerRadius=0.05mm|HoleSize=0mm|Usage=FLASHONLY|Rotation=180.000|XOffset=0mm|YOffset=0mm|HoleType=Round|Shape=RoundedRectangle|*
%AMROUNDEDRECTD30*
21,1,0.95000,0.30000,0,0,180.0*
21,1,0.85000,0.40000,0,0,180.0*
1,1,0.10000,-0.42500,0.15000*
1,1,0.10000,0.42500,0.15000*
1,1,0.10000,0.42500,-0.15000*
1,1,0.10000,-0.42500,-0.15000*
%
%ADD30ROUNDEDRECTD30*%
%TA.AperFunction,ConnectorPad*%
%ADD32R,2.70000X1.00000*%
%TA.AperFunction,SMDPad,CuDef*%
%ADD33R,1.00000X1.70000*%
%TA.AperFunction,ComponentPad*%
%ADD43C,1.80086*%
%ADD44R,1.52908X1.52908*%
%ADD45C,1.52908*%
%ADD48R,1.80086X1.80086*%
%TA.AperFunction,ViaPad*%
%ADD49C,5.00000*%
%TA.AperFunction,SMDPad,CuDef*%
%ADD80R,0.60002X0.40002*%
%ADD81R,0.40002X0.60002*%
%TA.AperFunction,ConnectorPad*%
%ADD82R,1.20002X0.65004*%
%ADD83R,1.20002X0.40002*%
%TA.AperFunction,ComponentPad*%
%ADD84O,2.10002X1.20002*%
%ADD85O,1.90002X1.30002*%
D10*
X3658700Y3590242D02*
D03*
X3655100Y2356700D02*
D03*
Y2731700D02*
D03*
X3658700Y3965242D02*
D03*
X3655100Y2481700D02*
D03*
Y2606700D02*
D03*
X3658700Y3715242D02*
D03*
Y3840242D02*
D03*
D11*
X3289300Y2366400D02*
D03*
X3416300Y2891400D02*
D03*
X3162300Y2366400D02*
D03*
X3035300Y2891400D02*
D03*
X3289300D02*
D03*
X3162300D02*
D03*
X3416300Y2366400D02*
D03*
X3035300D02*
D03*
D12*
X2965400Y3962400D02*
D03*
X2565400D02*
D03*
D13*
X2815697Y3630700D02*
D03*
Y3760700D02*
D03*
X3026303D02*
D03*
X2815697Y3695700D02*
D03*
X3026303D02*
D03*
D14*
X2711600Y3759200D02*
D03*
X3295800Y2222500D02*
D03*
X1149500Y1968500D02*
D03*
Y3238500D02*
D03*
X2724000Y1689100D02*
D03*
X3486000Y3009900D02*
D03*
X2939900Y3238500D02*
D03*
X1009500Y1968500D02*
D03*
Y2133600D02*
D03*
Y3238500D02*
D03*
X2000400Y4025900D02*
D03*
X2864000Y1689100D02*
D03*
X3155800Y2222500D02*
D03*
X3079900Y3238500D02*
D03*
X2571600Y3759200D02*
D03*
X3626000Y3009900D02*
D03*
X1860400Y4025900D02*
D03*
X1149500Y2133600D02*
D03*
D15*
X1732700Y4734600D02*
D03*
X1357700D02*
D03*
X1482700D02*
D03*
X1607700D02*
D03*
D16*
X532300Y3668808D02*
D03*
Y1774492D02*
D03*
Y1399492D02*
D03*
Y3418808D02*
D03*
Y3543808D02*
D03*
Y1524492D02*
D03*
Y1649492D02*
D03*
D17*
X2827600Y2479200D02*
D03*
X1277600Y3079200D02*
D03*
Y2029200D02*
D03*
Y3179200D02*
D03*
X2827600Y3229200D02*
D03*
X1277600Y2929200D02*
D03*
X2827600Y2729200D02*
D03*
X1277600Y2079200D02*
D03*
Y3229200D02*
D03*
X2827600Y3179200D02*
D03*
Y2629200D02*
D03*
Y2179200D02*
D03*
Y2229200D02*
D03*
Y2129200D02*
D03*
Y2379200D02*
D03*
X1277600Y2579200D02*
D03*
Y3129200D02*
D03*
X2827600Y2579200D02*
D03*
Y2529200D02*
D03*
Y2829200D02*
D03*
Y2029200D02*
D03*
Y2979200D02*
D03*
X1277600Y3029200D02*
D03*
X2827600Y2279200D02*
D03*
X1277600Y2129200D02*
D03*
X2827600Y2079200D02*
D03*
X1277600Y2329200D02*
D03*
Y2229200D02*
D03*
X2827600Y2679200D02*
D03*
X1277600Y2179200D02*
D03*
X2827600Y2329200D02*
D03*
Y2929200D02*
D03*
X1277600Y2979200D02*
D03*
Y2529200D02*
D03*
Y2429200D02*
D03*
X2827600Y2879200D02*
D03*
X1277600Y2629200D02*
D03*
X2827600Y3129200D02*
D03*
Y3079200D02*
D03*
Y3029200D02*
D03*
Y2779200D02*
D03*
X1277600Y2279200D02*
D03*
Y2379200D02*
D03*
Y2679200D02*
D03*
Y2729200D02*
D03*
Y2779200D02*
D03*
Y2829200D02*
D03*
Y2879200D02*
D03*
X2827600Y2429200D02*
D03*
X1277600Y2479200D02*
D03*
D19*
X1562100Y3828900D02*
D03*
X1727200D02*
D03*
X2260600Y3549500D02*
D03*
X2425700D02*
D03*
X3162300Y3625700D02*
D03*
X1524000Y3702200D02*
D03*
X1562100Y3968900D02*
D03*
X2260600Y3689500D02*
D03*
X1727200Y3968900D02*
D03*
X2261108Y3956200D02*
D03*
X2590800Y1593700D02*
D03*
X2425700Y3689500D02*
D03*
X3162300Y3765700D02*
D03*
X2590800Y1733700D02*
D03*
X2261108Y3816200D02*
D03*
X1524000Y3562200D02*
D03*
D21*
X2152600Y3404200D02*
D03*
X2402600D02*
D03*
X2652600Y1854200D02*
D03*
X1752600Y3404200D02*
D03*
X2202600D02*
D03*
X2602600Y1854200D02*
D03*
X2652600Y3404200D02*
D03*
X2502600D02*
D03*
X2452600D02*
D03*
X2552600D02*
D03*
X2152600Y1854200D02*
D03*
X2202600D02*
D03*
X1852600D02*
D03*
X2302600D02*
D03*
X2102600D02*
D03*
X1902600D02*
D03*
X1952600D02*
D03*
X2052600Y3404200D02*
D03*
X1452600D02*
D03*
X2552600Y1854200D02*
D03*
X2102600Y3404200D02*
D03*
X1552600D02*
D03*
X2002600D02*
D03*
X2402600Y1854200D02*
D03*
X2002600D02*
D03*
X1452600D02*
D03*
X1602600D02*
D03*
X1552600D02*
D03*
X2452600D02*
D03*
X1702600Y3404200D02*
D03*
X1652600D02*
D03*
X1702600Y1854200D02*
D03*
X1902600Y3404200D02*
D03*
X1502600D02*
D03*
X2502600Y1854200D02*
D03*
X1652600D02*
D03*
X1502600D02*
D03*
X1802600Y3404200D02*
D03*
X1852600D02*
D03*
X1602600D02*
D03*
X2352600Y1854200D02*
D03*
X2252600D02*
D03*
X2052600D02*
D03*
X1802600D02*
D03*
X1752600D02*
D03*
X1952600Y3404200D02*
D03*
X2252600D02*
D03*
X2302600D02*
D03*
X2352600D02*
D03*
X2602600D02*
D03*
D22*
X2591800Y3619500D02*
D03*
X3137900Y1270508D02*
D03*
X3090897Y1639506D02*
D03*
X2960100Y3390900D02*
D03*
X801100Y1143000D02*
D03*
X926100D02*
D03*
X3364500Y3009900D02*
D03*
X3239500D02*
D03*
X1180100Y1143000D02*
D03*
X1434100D02*
D03*
X2704100D02*
D03*
X1942100D02*
D03*
X1688100D02*
D03*
X2196100D02*
D03*
X3085100Y3390900D02*
D03*
X2450100Y1143000D02*
D03*
X2716800Y3619500D02*
D03*
X1563100Y1143000D02*
D03*
X1055100D02*
D03*
X1309100D02*
D03*
X2071100D02*
D03*
X2579100D02*
D03*
X2325100D02*
D03*
X1817100D02*
D03*
X3215897Y1639506D02*
D03*
X3262900Y1270508D02*
D03*
D23*
X3619754Y3251200D02*
D03*
X3212592D02*
D03*
D24*
X3026303Y3630700D02*
D03*
D25*
X212300Y1214492D02*
D03*
Y1959492D02*
D03*
Y3233808D02*
D03*
Y3853808D02*
D03*
D26*
X288700Y3048000D02*
D03*
X289208Y2184400D02*
D03*
Y2400300D02*
D03*
X288700Y2832100D02*
D03*
X289208Y2616200D02*
D03*
X498700Y3048000D02*
D03*
Y2832100D02*
D03*
X499208Y2616200D02*
D03*
Y2400300D02*
D03*
Y2184400D02*
D03*
D27*
X1172700Y5054600D02*
D03*
X1917700D02*
D03*
D28*
X1939300Y3623800D02*
D03*
X2099300Y3843800D02*
D03*
X1939300D02*
D03*
X2099300Y3623800D02*
D03*
D29*
X2379980Y4673600D02*
D03*
X3258820D02*
D03*
D30*
X3014200Y1460500D02*
D03*
X3234200Y1395500D02*
D03*
Y1525500D02*
D03*
D32*
X3975100Y2171700D02*
D03*
Y2916700D02*
D03*
X3978700Y3405242D02*
D03*
Y4150242D02*
D03*
D33*
X2921000Y3695700D02*
D03*
D43*
X3429000Y838200D02*
D03*
X2921000D02*
D03*
X3429000Y584200D02*
D03*
X3175000D02*
D03*
Y838200D02*
D03*
D44*
X838200Y482600D02*
D03*
D45*
X1092200D02*
D03*
X1346200D02*
D03*
X1600200D02*
D03*
X2108200D02*
D03*
X1854200D02*
D03*
X2362200D02*
D03*
X2616200D02*
D03*
X838200Y990600D02*
D03*
X1092200D02*
D03*
X1346200D02*
D03*
X1600200D02*
D03*
X1854200D02*
D03*
X2108200D02*
D03*
X2362200D02*
D03*
X2616200D02*
D03*
X1600200Y736600D02*
D03*
X838200D02*
D03*
X1092200D02*
D03*
X1346200D02*
D03*
X1854200D02*
D03*
X2108200D02*
D03*
X2362200D02*
D03*
X2616200D02*
D03*
D48*
X2921000Y584200D02*
D03*
D49*
X3822700Y4902200D02*
D03*
X368300D02*
D03*
X3822700Y381000D02*
D03*
X355600D02*
D03*
D80*
X1640078Y3669894D02*
D03*
Y3619906D02*
D03*
X1814322D02*
D03*
Y3669894D02*
D03*
D81*
X1677213Y3731819D02*
D03*
Y3557981D02*
D03*
X1727200Y3731819D02*
D03*
X1777213D02*
D03*
X1727200Y3557981D02*
D03*
X1777213D02*
D03*
D82*
X3381997Y1178598D02*
D03*
Y1818602D02*
D03*
Y1258608D02*
D03*
Y1738617D02*
D03*
D83*
Y1523606D02*
D03*
Y1423606D02*
D03*
Y1573594D02*
D03*
Y1473594D02*
D03*
Y1323607D02*
D03*
Y1623606D02*
D03*
Y1673619D02*
D03*
Y1373619D02*
D03*
D84*
X3436988Y1066101D02*
D03*
Y1931099D02*
D03*
D85*
X3857003Y1066101D02*
D03*
Y1931099D02*
D03*
%TF.MD5,8c5a6547e228b975cf1a9f2303538f26*%
M02*
