%TF.GenerationSoftware,Altium Limited,Altium Designer,26.9.1 (10)*%
G04 Layer_Physical_Order=1*
G04 Layer_Color=255*
G04 Board_Origin=30650000|16550000*
%FSLAX45Y45*%
%MOMM*%
%TF.SameCoordinates,05126742-2993-4272-A15D-2DBC63916BBF*%
%TF.FilePolarity,Positive*%
%TF.FileFunction,Copper,L1,Top,Signal*%
%TF.Part,Single*%
G01*
G75*
%TA.AperFunction,ConnectorPad*%
%ADD10R,1.70000X0.60000*%
%TA.AperFunction,SMDPad,CuDef*%
%ADD11O,0.55000X1.25000*%
%ADD12R,2.50000X1.70000*%
G04:AMPARAMS|DCode=13|XSize=0.80607mm|YSize=0.29247mm|CornerRadius=0.14624mm|HoleSize=0mm|Usage=FLASHONLY|Rotation=180.000|XOffset=0mm|YOffset=0mm|HoleType=Round|Shape=RoundedRectangle|*
%AMROUNDEDRECTD13*
21,1,0.80607,0.00000,0,0,180.0*
21,1,0.51360,0.29247,0,0,180.0*
1,1,0.29247,-0.25680,0.00000*
1,1,0.29247,0.25680,0.00000*
1,1,0.29247,0.25680,0.00000*
1,1,0.29247,-0.25680,0.00000*
%
%ADD13ROUNDEDRECTD13*%
%ADD14R,0.70000X0.70000*%
%ADD15R,0.60000X1.70000*%
%ADD16R,1.70000X0.60000*%
%ADD17R,1.20000X0.30000*%
%ADD18R,0.50000X0.30000*%
%ADD19R,0.70000X0.70000*%
%ADD20R,0.30000X0.50000*%
%ADD21R,0.30000X1.20000*%
%ADD22R,0.75000X0.85000*%
%ADD23R,1.52908X1.35890*%
%ADD24R,0.80607X0.29247*%
%ADD25R,2.70000X1.00000*%
%ADD26R,1.20000X1.20000*%
%ADD27R,1.00000X2.70000*%
%ADD28R,1.15000X1.40000*%
%ADD29R,4.80060X1.80086*%
G04:AMPARAMS|DCode=30|XSize=0.95mm|YSize=0.4mm|CornerRadius=0.05mm|HoleSize=0mm|Usage=FLASHONLY|Rotation=180.000|XOffset=0mm|YOffset=0mm|HoleType=Round|Shape=RoundedRectangle|*
%AMROUNDEDRECTD30*
21,1,0.95000,0.30000,0,0,180.0*
21,1,0.85000,0.40000,0,0,180.0*
1,1,0.10000,-0.42500,0.15000*
1,1,0.10000,0.42500,0.15000*
1,1,0.10000,0.42500,-0.15000*
1,1,0.10000,-0.42500,-0.15000*
%
%ADD30ROUNDEDRECTD30*%
%TA.AperFunction,ConnectorPad*%
%ADD31R,1.10000X0.55001*%
%ADD32R,2.70000X1.00000*%
%TA.AperFunction,SMDPad,CuDef*%
%ADD33R,1.00000X1.70000*%
%TA.AperFunction,ConnectorPad*%
%ADD34R,1.10000X0.30000*%
%TA.AperFunction,Conductor*%
%ADD35C,0.25400*%
%ADD36C,0.50000*%
%ADD37C,1.00000*%
%ADD38C,1.50000*%
%ADD39C,0.25000*%
%ADD40C,0.60000*%
%ADD41C,0.30000*%
%ADD42C,0.20000*%
%TA.AperFunction,ComponentPad*%
%ADD43C,1.80086*%
%ADD44R,1.52908X1.52908*%
%ADD45C,1.52908*%
%ADD46O,2.00000X1.10000*%
%ADD47O,1.80000X1.20000*%
%ADD48R,1.80086X1.80086*%
%TA.AperFunction,ViaPad*%
%ADD49C,5.00000*%
%ADD50C,0.63000*%
G36*
X3892572Y5189804D02*
X3926687Y5180663D01*
X3959314Y5167148D01*
X3989900Y5149490D01*
X4017918Y5127990D01*
X4042890Y5103017D01*
X4064389Y5075000D01*
X4082048Y5044414D01*
X4095563Y5011787D01*
X4104704Y4977672D01*
X4109314Y4942658D01*
Y4925000D01*
Y4225642D01*
X3991400D01*
Y4150242D01*
Y4074842D01*
X4109314D01*
Y3645415D01*
X4100075Y3641588D01*
X4097127Y3644535D01*
X4077596Y3652625D01*
Y3596298D01*
X4052196D01*
Y3652625D01*
X4032665Y3644535D01*
X4022182Y3634052D01*
X4019464Y3634399D01*
X4012279Y3638291D01*
Y3891261D01*
X4013200Y3891877D01*
Y3949700D01*
Y4006027D01*
X3995879Y3998853D01*
X3995387Y4000039D01*
X3975351Y4026151D01*
X3975350Y4026152D01*
X3935899Y4065603D01*
X3939726Y4074842D01*
X3966000D01*
Y4150242D01*
Y4225642D01*
X3818300D01*
X3810561Y4231101D01*
X3797128Y4244535D01*
X3776214Y4253197D01*
X3753578D01*
X3732665Y4244535D01*
X3716659Y4228528D01*
X3711254Y4215479D01*
X3468963D01*
X3160124Y4524318D01*
X3163951Y4533557D01*
X3548850D01*
Y4813643D01*
X2968790D01*
Y4596479D01*
X2645410D01*
Y4660900D01*
X2379980D01*
X2114550D01*
Y4579218D01*
X2105311Y4575391D01*
X1950544Y4730158D01*
X1951858Y4734160D01*
X1952197Y4734654D01*
Y4783597D01*
X1903254D01*
X1902760Y4783259D01*
X1898758Y4781944D01*
X1858779Y4821924D01*
Y4858598D01*
X1858779Y4858600D01*
X1855409Y4884200D01*
X1863437Y4894200D01*
X1905000D01*
Y5041900D01*
X1842300D01*
Y4937529D01*
X1832300Y4934134D01*
X1821851Y4947751D01*
X1752851Y5016751D01*
X1726739Y5036787D01*
X1696332Y5049383D01*
X1663700Y5053679D01*
X1632191D01*
X1630202Y5063679D01*
X1645131Y5069863D01*
X1661137Y5085869D01*
X1669227Y5105400D01*
X1556573D01*
X1564663Y5085869D01*
X1580669Y5069863D01*
X1595598Y5063679D01*
X1593609Y5053679D01*
X1409700D01*
X1377068Y5049383D01*
X1346661Y5036787D01*
X1320549Y5016751D01*
X1300513Y4990639D01*
X1287917Y4960232D01*
X1283621Y4927600D01*
X1287917Y4894968D01*
X1300513Y4864561D01*
X1308640Y4853969D01*
X1304217Y4845000D01*
X1302300D01*
Y4818137D01*
X1286379Y4805921D01*
X1281379Y4800921D01*
X1265350Y4780032D01*
X1255274Y4755705D01*
X1251837Y4729600D01*
Y4693079D01*
X1217267Y4658509D01*
X1201238Y4637619D01*
X1191161Y4613293D01*
X1187725Y4587188D01*
X1191161Y4561082D01*
X1201238Y4536756D01*
X1217267Y4515867D01*
X1238156Y4499838D01*
X1262482Y4489762D01*
X1286642Y4486581D01*
X1291833Y4477630D01*
X1289751Y4475548D01*
X1275694Y4457228D01*
X1266857Y4435894D01*
X1265350Y4424447D01*
X1263843Y4413000D01*
Y3919808D01*
X1249862Y3905827D01*
X1241200Y3884914D01*
Y3862278D01*
X1249862Y3841365D01*
X1263843Y3827384D01*
Y3320800D01*
X1258682D01*
X1244500Y3314926D01*
X1234500Y3321607D01*
Y3323500D01*
X1172941D01*
X1172342Y3323748D01*
X1149500Y3326755D01*
X1126658Y3323748D01*
X1126059Y3323500D01*
X1086252D01*
Y3386306D01*
X1084745Y3397753D01*
X1083238Y3409200D01*
X1074401Y3430534D01*
X1060343Y3448854D01*
X1053149Y3456048D01*
X1034829Y3470106D01*
X1013495Y3478943D01*
X990601Y3481956D01*
X967706Y3478943D01*
X946372Y3470106D01*
X928052Y3456048D01*
X913995Y3437728D01*
X905158Y3416394D01*
X902144Y3393500D01*
X905158Y3370606D01*
X909338Y3360514D01*
Y3343625D01*
X900099Y3339798D01*
X837757Y3402140D01*
Y3429000D01*
X834743Y3451894D01*
X825906Y3473228D01*
X811849Y3491548D01*
X773238Y3530159D01*
X777577Y3539962D01*
X797128Y3548060D01*
X813135Y3564067D01*
X821225Y3583598D01*
X764897D01*
Y3608998D01*
X821225D01*
X813135Y3628529D01*
X797128Y3644535D01*
X776215Y3653197D01*
X767922D01*
X764095Y3662436D01*
X766979Y3665321D01*
X785724Y3688161D01*
X799652Y3714220D01*
X808230Y3742495D01*
X811126Y3771900D01*
X808230Y3801305D01*
X799652Y3829580D01*
X785724Y3855639D01*
X766979Y3878479D01*
X744139Y3897224D01*
X718080Y3911152D01*
X689805Y3919730D01*
X660400Y3922626D01*
X630995Y3919730D01*
X602720Y3911152D01*
X576661Y3897224D01*
X553821Y3878479D01*
X487226Y3811884D01*
X474620Y3808060D01*
X448561Y3794132D01*
X425721Y3775387D01*
X406976Y3752547D01*
X404978Y3748808D01*
X397300D01*
Y3734444D01*
X393047Y3726488D01*
X384470Y3698213D01*
X381574Y3668808D01*
X384470Y3639403D01*
X393047Y3611128D01*
X397300Y3603172D01*
Y3463808D01*
X421900D01*
Y3431508D01*
X532300D01*
Y3418808D01*
X545000D01*
Y3363408D01*
X554139D01*
X561363Y3345969D01*
X577369Y3329963D01*
X596900Y3321873D01*
Y3378200D01*
X622300D01*
Y3321873D01*
X641831Y3329963D01*
X653853Y3341984D01*
X656547Y3342152D01*
X665151Y3339483D01*
X672694Y3321272D01*
X686752Y3302952D01*
X882359Y3107345D01*
X881705Y3097366D01*
X872527Y3090323D01*
X858469Y3072004D01*
X849633Y3050669D01*
X846618Y3027775D01*
X849633Y3004881D01*
X858469Y2983546D01*
X872527Y2965227D01*
X890847Y2951169D01*
X893607Y2950026D01*
X924681Y2918952D01*
X943001Y2904894D01*
X964335Y2896057D01*
X977165Y2894368D01*
X983468Y2883452D01*
X982074Y2880087D01*
X978637Y2853982D01*
Y2262018D01*
X968772Y2257932D01*
X950452Y2243875D01*
X948702Y2242125D01*
X934644Y2223805D01*
X925807Y2202471D01*
X922793Y2179576D01*
Y2146892D01*
X921043Y2133600D01*
X924057Y2110706D01*
X932894Y2089372D01*
X946952Y2071052D01*
X965272Y2056994D01*
X978637Y2051458D01*
Y2038500D01*
X978843Y2036938D01*
X971515Y2028900D01*
X949100D01*
Y1908100D01*
X1052137D01*
X1052150Y1908068D01*
X1064500Y1891973D01*
Y1883500D01*
X1072973D01*
X1089068Y1871150D01*
X1113395Y1861074D01*
X1139500Y1857637D01*
X1165605Y1861074D01*
X1189931Y1871150D01*
X1206027Y1883500D01*
X1234500D01*
Y1926538D01*
X1235819Y1929722D01*
X1244540Y1938443D01*
X1275300D01*
X1286747Y1939950D01*
X1298194Y1941457D01*
X1307031Y1945118D01*
X1319528Y1950294D01*
X1337651Y1964200D01*
X1377600D01*
X1387599Y1964200D01*
X1387600Y1954200D01*
Y1913553D01*
X1375994Y1898428D01*
X1367157Y1877094D01*
X1364143Y1854200D01*
X1365293Y1845465D01*
Y1771400D01*
X1360282D01*
X1339369Y1762737D01*
X1323363Y1746731D01*
X1319725Y1737949D01*
X686981D01*
X683154Y1747188D01*
X805079Y1869113D01*
X823824Y1891954D01*
X837752Y1918012D01*
X846330Y1946287D01*
X849226Y1975692D01*
Y2032000D01*
X846330Y2061405D01*
X837752Y2089680D01*
X823824Y2115739D01*
X805079Y2138579D01*
X782239Y2157324D01*
X756180Y2171252D01*
X727905Y2179830D01*
X698500Y2182726D01*
X686825D01*
X685357Y2184400D01*
X682343Y2207294D01*
X673506Y2228629D01*
X659448Y2246948D01*
X641129Y2261006D01*
X619794Y2269843D01*
X609208Y2271236D01*
Y2313464D01*
X619794Y2314857D01*
X641129Y2323694D01*
X659448Y2337752D01*
X673506Y2356071D01*
X682343Y2377406D01*
X685357Y2400300D01*
X682343Y2423194D01*
X673506Y2444529D01*
X659448Y2462848D01*
X641129Y2476906D01*
X619794Y2485743D01*
X609208Y2487136D01*
Y2529364D01*
X619794Y2530757D01*
X641129Y2539594D01*
X659448Y2553652D01*
X673506Y2571971D01*
X682343Y2593306D01*
X685357Y2616200D01*
X682343Y2639094D01*
X673506Y2660429D01*
X659448Y2678748D01*
X641129Y2692806D01*
X619794Y2701643D01*
X609208Y2703036D01*
Y2726200D01*
X615869Y2733441D01*
X619794Y2733957D01*
X641129Y2742794D01*
X659448Y2756852D01*
X673506Y2775171D01*
X682343Y2796506D01*
X685357Y2819400D01*
X682343Y2842294D01*
X673506Y2863629D01*
X659448Y2881948D01*
X641129Y2896006D01*
X619794Y2904843D01*
X608700Y2906303D01*
Y2959543D01*
X609600D01*
X632494Y2962557D01*
X653829Y2971394D01*
X672148Y2985452D01*
X686206Y3003771D01*
X695043Y3025106D01*
X698057Y3048000D01*
X695043Y3070894D01*
X686206Y3092229D01*
X672148Y3110548D01*
X669952Y3112233D01*
X671258Y3122148D01*
X682631Y3126859D01*
X698637Y3142865D01*
X706727Y3162396D01*
X592576D01*
X589639Y3158000D01*
X388700D01*
Y3135567D01*
X378700Y3130197D01*
X374100Y3133244D01*
Y3133400D01*
X367073D01*
X364531Y3135350D01*
X340205Y3145426D01*
X317554Y3148408D01*
X318209Y3158408D01*
X372700D01*
Y3221108D01*
X212300D01*
Y3233808D01*
X199600D01*
Y3309208D01*
X70487D01*
Y3778408D01*
X199600D01*
Y3853808D01*
Y3929208D01*
X70487D01*
Y4925000D01*
Y4942658D01*
X75096Y4977672D01*
X84237Y5011787D01*
X97752Y5044414D01*
X115410Y5075000D01*
X136910Y5103017D01*
X161882Y5127990D01*
X189900Y5149489D01*
X220486Y5167148D01*
X253113Y5180663D01*
X287228Y5189804D01*
X322242Y5194414D01*
X1097300D01*
Y5067300D01*
X1172699D01*
Y5054600D01*
X1185399D01*
Y4894200D01*
X1248100D01*
Y5055331D01*
X1258481D01*
X1279394Y5063994D01*
X1295400Y5080000D01*
X1303490Y5099531D01*
X1247163D01*
Y5124931D01*
X1303490D01*
X1295400Y5144462D01*
X1279394Y5160468D01*
X1258481Y5169131D01*
X1248100D01*
Y5194414D01*
X1842300D01*
Y5067300D01*
X1917700D01*
X1993100D01*
Y5194414D01*
X3857558D01*
X3892572Y5189804D01*
D02*
G37*
G36*
X1805297Y4518801D02*
X1804734Y4505222D01*
X1794440Y4494928D01*
X1786350Y4475396D01*
X1842677D01*
Y4462696D01*
X1855377D01*
Y4406369D01*
X1874908Y4414459D01*
X1890914Y4430465D01*
X1893182Y4430916D01*
X2158748Y4165350D01*
X2158749Y4165349D01*
X2184861Y4145313D01*
X2215268Y4132717D01*
X2247900Y4128421D01*
X2413000D01*
X2445632Y4132717D01*
X2476039Y4145313D01*
X2502151Y4165349D01*
X2669393Y4332591D01*
X2679201Y4330640D01*
X2680762Y4326869D01*
X2696769Y4310863D01*
X2717682Y4302200D01*
X2740318D01*
X2761231Y4310863D01*
X2777237Y4326869D01*
X2784466Y4344321D01*
X2803534D01*
X2810763Y4326869D01*
X2826769Y4310863D01*
X2847682Y4302200D01*
X2870318D01*
X2891231Y4310863D01*
X2907238Y4326869D01*
X2914466Y4344321D01*
X2983516D01*
X3215396Y4112442D01*
X3211569Y4103203D01*
X2980126D01*
X2980124Y4103203D01*
X2947493Y4098907D01*
X2943854Y4097400D01*
X2915900D01*
Y4110418D01*
X2907238Y4131331D01*
X2891231Y4147337D01*
X2871700Y4155427D01*
Y4099100D01*
X2846300D01*
Y4155427D01*
X2826769Y4147337D01*
X2810763Y4131331D01*
X2802100Y4110418D01*
Y4104471D01*
X2799224Y4101595D01*
X2787329Y4102952D01*
X2785900Y4105536D01*
Y4110418D01*
X2777237Y4131331D01*
X2761231Y4147337D01*
X2741700Y4155427D01*
Y4099100D01*
X2716300D01*
Y4155427D01*
X2696769Y4147337D01*
X2680762Y4131331D01*
X2672100Y4110418D01*
Y4097400D01*
X2390400D01*
Y3871753D01*
X2377406Y3870043D01*
X2367314Y3865862D01*
X2348506D01*
X2346108Y3867965D01*
Y3901200D01*
X2340753D01*
X2336330Y3910168D01*
X2337714Y3911972D01*
X2346551Y3933306D01*
X2349565Y3956200D01*
X2346551Y3979094D01*
X2337714Y4000428D01*
X2323657Y4018748D01*
X2274432Y4067972D01*
X2256112Y4082030D01*
X2234779Y4090867D01*
X2211884Y4093881D01*
X2208674D01*
X2185780Y4090867D01*
X2164446Y4082030D01*
X2146126Y4067972D01*
X2132068Y4049653D01*
X2123232Y4028318D01*
X2120218Y4005424D01*
X2123232Y3982530D01*
X2132068Y3961196D01*
X2141273Y3949200D01*
X2136342Y3939200D01*
X2114300D01*
Y3948318D01*
X2105637Y3969231D01*
X2089631Y3985237D01*
X2068718Y3993900D01*
X2060800D01*
Y4013200D01*
X2000401D01*
Y4038600D01*
X2060800D01*
Y4086300D01*
X2050800D01*
Y4088018D01*
X2042137Y4108931D01*
X2026131Y4124937D01*
X2005218Y4133600D01*
X1988349D01*
X1986360Y4143600D01*
X1997128Y4148060D01*
X2013134Y4164066D01*
X2021224Y4183597D01*
X1908570D01*
X1916660Y4164066D01*
X1932666Y4148060D01*
X1953579Y4139398D01*
X1970448D01*
X1972437Y4129398D01*
X1961669Y4124937D01*
X1953125Y4116393D01*
X1945399Y4110900D01*
X1906403D01*
X1898429Y4117019D01*
X1877094Y4125856D01*
X1854200Y4128870D01*
X1831306Y4125856D01*
X1809971Y4117019D01*
X1801997Y4110900D01*
X1775400D01*
Y4079344D01*
X1769399Y4064856D01*
X1764097Y4062161D01*
X1758333Y4060743D01*
X1749128Y4067806D01*
X1736631Y4072983D01*
X1727794Y4076643D01*
X1721472Y4077475D01*
X1705403Y4089806D01*
X1684525Y4098454D01*
X1684031Y4098715D01*
X1680675Y4105181D01*
X1680196Y4109239D01*
X1689506Y4121371D01*
X1694682Y4133869D01*
X1698343Y4142706D01*
X1699850Y4154153D01*
X1701357Y4165600D01*
Y4549282D01*
X1711357Y4555693D01*
X1726558Y4549397D01*
X1749194D01*
X1767230Y4556867D01*
X1805297Y4518801D01*
D02*
G37*
G36*
X2391411Y4548157D02*
X2382666Y4544535D01*
X2366659Y4528528D01*
X2358570Y4508997D01*
X2414897D01*
Y4483597D01*
X2358570D01*
X2366659Y4464066D01*
X2382666Y4448060D01*
X2403579Y4439398D01*
X2406529D01*
X2410356Y4430159D01*
X2360776Y4380579D01*
X2300123D01*
X2131784Y4548918D01*
X2135611Y4558157D01*
X2389422D01*
X2391411Y4548157D01*
D02*
G37*
G36*
X3991399Y3329842D02*
X4109314D01*
Y2992100D01*
X3981200D01*
Y2995818D01*
X3972537Y3016731D01*
X3956531Y3032737D01*
X3937000Y3040827D01*
Y2984500D01*
X3911600D01*
Y3040827D01*
X3892069Y3032737D01*
X3876063Y3016731D01*
X3867400Y2995818D01*
Y2992100D01*
X3821796D01*
Y3007616D01*
X3813134Y3028529D01*
X3797128Y3044535D01*
X3795907Y3045041D01*
X3793843Y3060720D01*
X3790182Y3069557D01*
X3785006Y3082054D01*
X3770948Y3100374D01*
X3747757Y3123565D01*
X3746208Y3133255D01*
X3746208D01*
X3746208Y3133256D01*
Y3340543D01*
X3797300D01*
X3810781Y3342318D01*
X3818300Y3335725D01*
Y3329842D01*
X3965999D01*
Y3405242D01*
X3991399D01*
Y3329842D01*
D02*
G37*
G36*
X199746Y3148408D02*
X177095Y3145426D01*
X152769Y3135350D01*
X131879Y3119321D01*
X115850Y3098431D01*
X105774Y3074105D01*
X102337Y3048000D01*
X105774Y3021895D01*
X115850Y2997569D01*
X131879Y2976679D01*
X152769Y2960650D01*
X177095Y2950574D01*
X203200Y2947137D01*
X314100D01*
X340205Y2950574D01*
X364531Y2960650D01*
X367073Y2962600D01*
X374100D01*
Y2962756D01*
X378700Y2965803D01*
X388700Y2960433D01*
Y2919667D01*
X378700Y2914297D01*
X374100Y2917344D01*
Y2917500D01*
X367073D01*
X364531Y2919450D01*
X340205Y2929526D01*
X314100Y2932963D01*
X203200D01*
X177095Y2929526D01*
X152769Y2919450D01*
X131879Y2903421D01*
X115850Y2882531D01*
X105774Y2858205D01*
X102337Y2832100D01*
X105774Y2805995D01*
X115850Y2781669D01*
X131879Y2760779D01*
X152769Y2744750D01*
X177095Y2734674D01*
X203200Y2731237D01*
X314100D01*
X340205Y2734674D01*
X364531Y2744750D01*
X367073Y2746700D01*
X374100D01*
Y2746856D01*
X378700Y2749903D01*
X388700Y2744533D01*
Y2722100D01*
X389208D01*
Y2703767D01*
X379208Y2698397D01*
X374608Y2701444D01*
Y2701600D01*
X367581D01*
X365039Y2703550D01*
X340713Y2713626D01*
X314608Y2717063D01*
X203200D01*
X177095Y2713626D01*
X152769Y2703550D01*
X131879Y2687521D01*
X115850Y2666631D01*
X105774Y2642305D01*
X102337Y2616200D01*
X105774Y2590095D01*
X115850Y2565769D01*
X131879Y2544879D01*
X152769Y2528850D01*
X177095Y2518774D01*
X203200Y2515337D01*
X314608D01*
X340713Y2518774D01*
X365039Y2528850D01*
X367581Y2530800D01*
X374608D01*
Y2530956D01*
X379208Y2534003D01*
X389208Y2528633D01*
Y2487867D01*
X379208Y2482497D01*
X374608Y2485544D01*
Y2485700D01*
X367581D01*
X365039Y2487650D01*
X340713Y2497726D01*
X314608Y2501163D01*
X203200D01*
X177095Y2497726D01*
X152769Y2487650D01*
X131879Y2471621D01*
X115850Y2450731D01*
X105774Y2426405D01*
X102337Y2400300D01*
X105774Y2374195D01*
X115850Y2349869D01*
X131879Y2328979D01*
X152769Y2312950D01*
X177095Y2302874D01*
X203200Y2299437D01*
X314608D01*
X340713Y2302874D01*
X365039Y2312950D01*
X367581Y2314900D01*
X374608D01*
Y2315056D01*
X379208Y2318103D01*
X389208Y2312733D01*
Y2271967D01*
X379208Y2266597D01*
X374608Y2269644D01*
Y2269800D01*
X367581D01*
X365039Y2271750D01*
X340713Y2281826D01*
X314608Y2285263D01*
X203200D01*
X177095Y2281826D01*
X152769Y2271750D01*
X131879Y2255721D01*
X115850Y2234831D01*
X105774Y2210505D01*
X102337Y2184400D01*
X105774Y2158295D01*
X115850Y2133969D01*
X131879Y2113079D01*
X152769Y2097050D01*
X177095Y2086974D01*
X203200Y2083537D01*
X314608D01*
X340713Y2086974D01*
X365039Y2097050D01*
X367581Y2099000D01*
X374608D01*
Y2099156D01*
X379208Y2102203D01*
X389208Y2096833D01*
Y2074400D01*
X417123D01*
X423080Y2066368D01*
X421574Y2061405D01*
X418678Y2032000D01*
X421574Y2002595D01*
X430152Y1974320D01*
X438233Y1959200D01*
X432239Y1949200D01*
X420482D01*
X399569Y1940537D01*
X383563Y1924531D01*
X382700Y1922449D01*
X372700Y1924438D01*
Y1946792D01*
X212300D01*
Y1959492D01*
X199600D01*
Y2034892D01*
X70487D01*
Y3158408D01*
X199091D01*
X199746Y3148408D01*
D02*
G37*
G36*
X1448751Y2756852D02*
X1467071Y2742794D01*
X1488405Y2733957D01*
X1511300Y2730943D01*
X2006600D01*
X2029494Y2733957D01*
X2033243Y2735510D01*
X2038571Y2731421D01*
X2059906Y2722584D01*
X2082800Y2719570D01*
X2105694Y2722584D01*
X2127029Y2731421D01*
X2128609Y2732634D01*
X2149821Y2723847D01*
X2172715Y2720833D01*
X2182890D01*
X2194337Y2722340D01*
X2205784Y2723847D01*
X2221851Y2730502D01*
X2236582Y2724400D01*
X2241958D01*
Y2475533D01*
X2241033Y2474608D01*
X2234715Y2459355D01*
Y2442845D01*
X2241033Y2427592D01*
X2241958Y2426667D01*
Y2315804D01*
X2211057Y2284903D01*
X2208848Y2285048D01*
X2190529Y2299106D01*
X2169194Y2307943D01*
X2151847Y2310227D01*
Y2328918D01*
X2143185Y2349831D01*
X2127179Y2365837D01*
X2107648Y2373927D01*
Y2317600D01*
X2082248D01*
Y2373927D01*
X2062716Y2365837D01*
X2046710Y2349831D01*
X2038048Y2328918D01*
Y2310957D01*
X1913932D01*
X1907250Y2320957D01*
X1912977Y2334782D01*
Y2353608D01*
X1922742Y2357985D01*
X1932666Y2348061D01*
X1952197Y2339971D01*
Y2396298D01*
Y2452625D01*
X1932666Y2444535D01*
X1916660Y2428529D01*
X1907997Y2407616D01*
Y2388790D01*
X1898232Y2384413D01*
X1888308Y2394337D01*
X1868777Y2402427D01*
Y2346100D01*
X1843377D01*
Y2402427D01*
X1823846Y2394337D01*
X1807839Y2378331D01*
X1801679Y2363460D01*
X1789938Y2361059D01*
X1591960Y2559037D01*
X1594742Y2565752D01*
Y2588388D01*
X1586079Y2609301D01*
X1570073Y2625307D01*
X1549160Y2633970D01*
X1526524D01*
X1519808Y2631188D01*
X1509248Y2641748D01*
X1490928Y2655806D01*
X1469594Y2664643D01*
X1446700Y2667657D01*
X1387600D01*
Y2714200D01*
Y2803861D01*
X1397600Y2808004D01*
X1448751Y2756852D01*
D02*
G37*
G36*
X3987800Y2841300D02*
X4109314D01*
Y2247100D01*
X4068911D01*
X4064768Y2257100D01*
X4074137Y2266469D01*
X4082227Y2286000D01*
X4025900D01*
Y2298700D01*
X4013200D01*
Y2355027D01*
X4008371Y2353027D01*
X4000057Y2358583D01*
Y2743200D01*
X3997043Y2766095D01*
X3988206Y2787429D01*
X3979228Y2799129D01*
X3974149Y2805749D01*
X3947836Y2832061D01*
X3951663Y2841300D01*
X3962400D01*
Y2916700D01*
X3987800D01*
Y2841300D01*
D02*
G37*
G36*
X1740852Y2159951D02*
X1747472Y2154872D01*
X1759171Y2145894D01*
X1780505Y2137057D01*
X1803400Y2134043D01*
X2046681D01*
X2050508Y2124804D01*
X2040052Y2114348D01*
X2025994Y2096028D01*
X2020817Y2083531D01*
X2017157Y2074694D01*
X2015650Y2063247D01*
X2014143Y2051800D01*
Y1964200D01*
X1955873D01*
X1955560Y1974070D01*
X1976473Y1982732D01*
X1992479Y1998739D01*
X2000569Y2018270D01*
X1887914D01*
X1896004Y1998739D01*
X1912011Y1982732D01*
X1932923Y1974070D01*
X1932610Y1964200D01*
X1788174D01*
X1788043Y1965195D01*
X1779206Y1986529D01*
X1765148Y2004849D01*
X1692143Y2077854D01*
X1673823Y2091912D01*
X1661326Y2097088D01*
X1652489Y2100749D01*
X1637026Y2102784D01*
X1632608Y2113452D01*
X1640884Y2124239D01*
X1649721Y2145573D01*
X1652735Y2168467D01*
X1649721Y2191361D01*
X1640884Y2212696D01*
X1626827Y2231015D01*
X1608507Y2245073D01*
X1587173Y2253910D01*
X1564279Y2256924D01*
X1554104D01*
X1542657Y2255417D01*
X1531210Y2253910D01*
X1519094Y2248891D01*
X1511706Y2266728D01*
X1497648Y2285049D01*
X1490948Y2291748D01*
X1472629Y2305806D01*
X1465700Y2308676D01*
X1457043Y2313906D01*
X1459313Y2331154D01*
X1462231Y2332362D01*
X1478237Y2348369D01*
X1486899Y2369282D01*
Y2391918D01*
X1481353Y2405308D01*
X1489831Y2410973D01*
X1740852Y2159951D01*
D02*
G37*
G36*
X3987800Y2096300D02*
X4109314D01*
Y355792D01*
Y338134D01*
X4104704Y303120D01*
X4095563Y269005D01*
X4082048Y236377D01*
X4064390Y205792D01*
X4042890Y177774D01*
X4017918Y152802D01*
X3989900Y131303D01*
X3959314Y113644D01*
X3926687Y100129D01*
X3892572Y90988D01*
X3857558Y86379D01*
X322242D01*
X287228Y90988D01*
X253113Y100129D01*
X220485Y113644D01*
X189900Y131302D01*
X161882Y152802D01*
X136910Y177774D01*
X115410Y205792D01*
X97752Y236378D01*
X84237Y269005D01*
X75096Y303120D01*
X70487Y338134D01*
Y355792D01*
Y1139092D01*
X199601D01*
Y1214492D01*
Y1289892D01*
X70487D01*
Y1884092D01*
X112058D01*
Y1883267D01*
X120721Y1862354D01*
X136727Y1846348D01*
X156258Y1838258D01*
Y1894585D01*
X181658D01*
Y1838258D01*
X201189Y1846348D01*
X217195Y1862354D01*
X225858Y1883267D01*
Y1884092D01*
X372700D01*
X377014Y1875879D01*
X383563Y1860069D01*
X394532Y1849100D01*
X394470Y1848897D01*
X391574Y1819492D01*
X394470Y1790087D01*
X397300Y1780758D01*
Y1682500D01*
X382382D01*
X361469Y1673837D01*
X345463Y1657831D01*
X337373Y1638300D01*
X393700D01*
Y1612900D01*
X337373D01*
X345463Y1593369D01*
X361469Y1577363D01*
X382382Y1568700D01*
X397300D01*
Y1444492D01*
X421900D01*
Y1412192D01*
X532299D01*
Y1386792D01*
X421900D01*
Y1344092D01*
X464267D01*
X469752Y1336944D01*
X487051Y1319644D01*
X505372Y1305586D01*
X526705Y1296750D01*
X549600Y1293735D01*
X596336D01*
X614631Y1286157D01*
X626079Y1284650D01*
X637526Y1283143D01*
X647700D01*
X670594Y1286157D01*
X691929Y1294994D01*
X710248Y1309052D01*
X724306Y1327371D01*
X733143Y1348706D01*
X736157Y1371600D01*
X733143Y1394494D01*
X724306Y1415829D01*
X716474Y1426035D01*
X721405Y1436035D01*
X993073D01*
X996900Y1426796D01*
X974636Y1404533D01*
X972031Y1407137D01*
X951118Y1415800D01*
X928482D01*
X907569Y1407137D01*
X891563Y1391131D01*
X882900Y1370218D01*
Y1347582D01*
X891563Y1326669D01*
X894167Y1324064D01*
X863552Y1293448D01*
X849494Y1275129D01*
X840657Y1253795D01*
X838249Y1235500D01*
X713600D01*
Y1150267D01*
X712643Y1143000D01*
Y1062400D01*
X713600Y1055133D01*
Y1050500D01*
X714210D01*
X715657Y1039505D01*
X724494Y1018172D01*
X738552Y999852D01*
X751746Y986657D01*
Y979218D01*
X757638Y957230D01*
X769020Y937516D01*
X785116Y921420D01*
X804830Y910038D01*
X826818Y904146D01*
X848388D01*
X863600Y902143D01*
X886494Y905157D01*
X907829Y913994D01*
X926148Y928052D01*
X940206Y946371D01*
X949043Y967706D01*
X952057Y990600D01*
Y999900D01*
X949043Y1022794D01*
X941709Y1040500D01*
X946900Y1050500D01*
X968210D01*
X969657Y1039505D01*
X978494Y1018172D01*
X992552Y999852D01*
X1005746Y986657D01*
Y979218D01*
X1011638Y957230D01*
X1023020Y937516D01*
X1039116Y921420D01*
X1058830Y910038D01*
X1080818Y904146D01*
X1102388D01*
X1117600Y902143D01*
X1140494Y905157D01*
X1148322Y908400D01*
X1157997Y901583D01*
Y884980D01*
X1166660Y864067D01*
X1182666Y848061D01*
X1202197Y839971D01*
Y896298D01*
Y960134D01*
X1200678Y961997D01*
X1203043Y967706D01*
X1206057Y990600D01*
Y999900D01*
X1203043Y1022794D01*
X1195709Y1040500D01*
X1200900Y1050500D01*
X1222210D01*
X1223657Y1039505D01*
X1232494Y1018172D01*
X1246552Y999852D01*
X1259746Y986657D01*
Y979218D01*
X1265638Y957230D01*
X1277020Y937516D01*
X1293116Y921420D01*
X1312830Y910038D01*
X1334818Y904146D01*
X1356388D01*
X1371600Y902143D01*
X1394494Y905157D01*
X1415829Y913994D01*
X1434148Y928052D01*
X1448206Y946371D01*
X1457043Y967706D01*
X1460057Y990600D01*
Y999900D01*
X1457043Y1022794D01*
X1449709Y1040500D01*
X1454900Y1050500D01*
X1476210D01*
X1477657Y1039505D01*
X1486494Y1018172D01*
X1500552Y999852D01*
X1513746Y986657D01*
Y979218D01*
X1519638Y957230D01*
X1531020Y937516D01*
X1547116Y921420D01*
X1566830Y910038D01*
X1588818Y904146D01*
X1610388D01*
X1625600Y902143D01*
X1648494Y905157D01*
X1669829Y913994D01*
X1688148Y928052D01*
X1702206Y946371D01*
X1711043Y967706D01*
X1714057Y990600D01*
Y999900D01*
X1711043Y1022794D01*
X1703709Y1040500D01*
X1708900Y1050500D01*
X1730210D01*
X1731657Y1039505D01*
X1740494Y1018172D01*
X1754552Y999852D01*
X1767746Y986657D01*
Y979218D01*
X1773638Y957230D01*
X1785020Y937516D01*
X1801116Y921420D01*
X1820830Y910038D01*
X1842818Y904146D01*
X1864388D01*
X1879600Y902143D01*
X1902494Y905157D01*
X1923829Y913994D01*
X1942148Y928052D01*
X1956206Y946371D01*
X1965043Y967706D01*
X1968057Y990600D01*
Y999900D01*
X1965043Y1022794D01*
X1957709Y1040500D01*
X1962900Y1050500D01*
X1984210D01*
X1985657Y1039505D01*
X1994494Y1018172D01*
X2008552Y999852D01*
X2021746Y986657D01*
Y979218D01*
X2027638Y957230D01*
X2039020Y937516D01*
X2055116Y921420D01*
X2074830Y910038D01*
X2096818Y904146D01*
X2118388D01*
X2133600Y902143D01*
X2156494Y905157D01*
X2177829Y913994D01*
X2196148Y928052D01*
X2210206Y946371D01*
X2219043Y967706D01*
X2222057Y990600D01*
Y999900D01*
X2219043Y1022794D01*
X2211709Y1040500D01*
X2216900Y1050500D01*
X2274746D01*
Y1014997D01*
X2276224Y1003767D01*
X2275746Y1001982D01*
Y979218D01*
X2281638Y957230D01*
X2293020Y937516D01*
X2309116Y921420D01*
X2328830Y910038D01*
X2350818Y904146D01*
X2372387D01*
X2387600Y902143D01*
X2410494Y905157D01*
X2431828Y913994D01*
X2450148Y928052D01*
X2464206Y946372D01*
X2473043Y967706D01*
X2476057Y990600D01*
X2473043Y1013494D01*
X2464206Y1034828D01*
X2459062Y1041531D01*
X2463485Y1050500D01*
X2490225D01*
X2491416Y1041455D01*
X2500485Y1019561D01*
X2514911Y1000761D01*
X2529746Y985926D01*
Y979218D01*
X2535638Y957230D01*
X2547020Y937516D01*
X2563116Y921420D01*
X2582830Y910038D01*
X2604818Y904146D01*
X2615137D01*
X2618105Y902916D01*
X2641600Y899823D01*
X2665095Y902916D01*
X2686988Y911985D01*
X2705789Y926411D01*
X2720215Y945212D01*
X2729284Y967105D01*
X2732377Y990600D01*
Y1002450D01*
X2729284Y1025944D01*
X2723255Y1040500D01*
X2729937Y1050500D01*
X2791600D01*
Y1135733D01*
X2792557Y1143000D01*
Y1148000D01*
X2791600Y1155268D01*
Y1219643D01*
X2874174D01*
X2877569Y1209643D01*
X2857249Y1194051D01*
X2837213Y1167939D01*
X2824617Y1137532D01*
X2820321Y1104900D01*
X2824617Y1072268D01*
X2837213Y1041861D01*
X2857249Y1015749D01*
X2883361Y995713D01*
X2913768Y983117D01*
X2946400Y978821D01*
X3084677D01*
X3127843Y935655D01*
X3126538Y925740D01*
X3113572Y918254D01*
X3094946Y899628D01*
X3081775Y876815D01*
X3074957Y851371D01*
Y825029D01*
X3081775Y799585D01*
X3094946Y776772D01*
X3095034Y776684D01*
X3098394Y768571D01*
X3112452Y750252D01*
X3169221Y693482D01*
X3165395Y684243D01*
X3161829D01*
X3136385Y677425D01*
X3113572Y664254D01*
X3094946Y645628D01*
X3081775Y622815D01*
X3074957Y597371D01*
Y571029D01*
X3081775Y545585D01*
X3094946Y522772D01*
X3113572Y504146D01*
X3136385Y490975D01*
X3161829Y484157D01*
X3188171D01*
X3213615Y490975D01*
X3236428Y504146D01*
X3255054Y522772D01*
X3268225Y545585D01*
X3275043Y571029D01*
Y597371D01*
X3270810Y613168D01*
X3274569Y618911D01*
X3278675Y622455D01*
X3327465D01*
X3333552Y614521D01*
X3328957Y597371D01*
Y571029D01*
X3335775Y545585D01*
X3348946Y522772D01*
X3367572Y504146D01*
X3390385Y490975D01*
X3415829Y484157D01*
X3442171D01*
X3467615Y490975D01*
X3490428Y504146D01*
X3509054Y522772D01*
X3522225Y545585D01*
X3529043Y571029D01*
Y597371D01*
X3524465Y614456D01*
X3532594Y622755D01*
X3553206Y625469D01*
X3562043Y629129D01*
X3574540Y634306D01*
X3592860Y648363D01*
X3707449Y762952D01*
X3721506Y781271D01*
X3730343Y802606D01*
X3733357Y825500D01*
Y1046526D01*
X3743357Y1047182D01*
X3743801Y1043808D01*
X3752406Y1023033D01*
X3766095Y1005194D01*
X3783935Y991505D01*
X3804709Y982900D01*
X3827003Y979965D01*
X3844302D01*
Y1066102D01*
Y1152238D01*
X3827003D01*
X3804709Y1149303D01*
X3783935Y1140698D01*
X3766095Y1127009D01*
X3752406Y1109170D01*
X3743801Y1088395D01*
X3743357Y1085021D01*
X3733357Y1085677D01*
Y1738775D01*
X3741671Y1744330D01*
X3752196Y1739971D01*
Y1796298D01*
X3764896D01*
Y1808998D01*
X3821224D01*
X3813134Y1828529D01*
X3803723Y1837940D01*
X3808394Y1847412D01*
X3827003Y1844962D01*
X3844302D01*
Y1931099D01*
Y2017235D01*
X3827003D01*
X3819139Y2016200D01*
X3814468Y2025671D01*
X3872549Y2083752D01*
X3882177Y2096300D01*
X3962400D01*
Y2171700D01*
X3987800D01*
Y2096300D01*
D02*
G37*
G36*
X2313343Y1722822D02*
X2311400Y1721523D01*
Y1663700D01*
Y1605877D01*
X2313343Y1604578D01*
Y1590359D01*
X2314604Y1580777D01*
X2308011Y1573258D01*
X2221402D01*
X2209954Y1571751D01*
X2198507Y1570245D01*
X2189670Y1566584D01*
X2177173Y1561408D01*
X2168557Y1554796D01*
X2158557Y1559727D01*
Y1701800D01*
X2157050Y1713247D01*
X2155543Y1724694D01*
X2151605Y1734200D01*
X2153932Y1740413D01*
X2156463Y1744200D01*
X2313343D01*
Y1722822D01*
D02*
G37*
%LPC*%
G36*
X1625600Y5174427D02*
Y5130800D01*
X1669227D01*
X1661137Y5150331D01*
X1645131Y5166337D01*
X1625600Y5174427D01*
D02*
G37*
G36*
X1600200D02*
X1580669Y5166337D01*
X1564663Y5150331D01*
X1556573Y5130800D01*
X1600200D01*
Y5174427D01*
D02*
G37*
G36*
X2514600Y5136327D02*
Y5092700D01*
X2558227D01*
X2550137Y5112231D01*
X2534131Y5128237D01*
X2514600Y5136327D01*
D02*
G37*
G36*
X2489200D02*
X2469669Y5128237D01*
X2453663Y5112231D01*
X2445573Y5092700D01*
X2489200D01*
Y5136327D01*
D02*
G37*
G36*
X2260600D02*
Y5092700D01*
X2304227D01*
X2296137Y5112231D01*
X2280131Y5128237D01*
X2260600Y5136327D01*
D02*
G37*
G36*
X2235200D02*
X2215669Y5128237D01*
X2199663Y5112231D01*
X2191573Y5092700D01*
X2235200D01*
Y5136327D01*
D02*
G37*
G36*
X2830076Y5132524D02*
Y5088897D01*
X2873703D01*
X2865614Y5108428D01*
X2849607Y5124434D01*
X2830076Y5132524D01*
D02*
G37*
G36*
X2804676D02*
X2785145Y5124434D01*
X2769139Y5108428D01*
X2761049Y5088897D01*
X2804676D01*
Y5132524D01*
D02*
G37*
G36*
X2558227Y5067300D02*
X2514600D01*
Y5023673D01*
X2534131Y5031763D01*
X2550137Y5047769D01*
X2558227Y5067300D01*
D02*
G37*
G36*
X2489200D02*
X2445573D01*
X2453663Y5047769D01*
X2469669Y5031763D01*
X2489200Y5023673D01*
Y5067300D01*
D02*
G37*
G36*
X2304227D02*
X2260600D01*
Y5023673D01*
X2280131Y5031763D01*
X2296137Y5047769D01*
X2304227Y5067300D01*
D02*
G37*
G36*
X2235200D02*
X2191573D01*
X2199663Y5047769D01*
X2215669Y5031763D01*
X2235200Y5023673D01*
Y5067300D01*
D02*
G37*
G36*
X2873703Y5063497D02*
X2830076D01*
Y5019869D01*
X2849607Y5027959D01*
X2865614Y5043966D01*
X2873703Y5063497D01*
D02*
G37*
G36*
X2804676D02*
X2761049D01*
X2769139Y5043966D01*
X2785145Y5027959D01*
X2804676Y5019869D01*
Y5063497D01*
D02*
G37*
G36*
X1993100Y5041900D02*
X1930400D01*
Y4894200D01*
X1993100D01*
Y5041900D01*
D02*
G37*
G36*
X1159999D02*
X1097300D01*
Y4894200D01*
X1159999D01*
Y5041900D01*
D02*
G37*
G36*
X2514600Y4920427D02*
Y4876800D01*
X2558227D01*
X2550137Y4896331D01*
X2534131Y4912337D01*
X2514600Y4920427D01*
D02*
G37*
G36*
X2489200D02*
X2469669Y4912337D01*
X2453663Y4896331D01*
X2445573Y4876800D01*
X2489200D01*
Y4920427D01*
D02*
G37*
G36*
X2260600D02*
Y4876800D01*
X2304227D01*
X2296137Y4896331D01*
X2280131Y4912337D01*
X2260600Y4920427D01*
D02*
G37*
G36*
X2235200D02*
X2215669Y4912337D01*
X2199663Y4896331D01*
X2191573Y4876800D01*
X2235200D01*
Y4920427D01*
D02*
G37*
G36*
X2842776Y4853124D02*
Y4809497D01*
X2886403D01*
X2878314Y4829028D01*
X2862307Y4845034D01*
X2842776Y4853124D01*
D02*
G37*
G36*
X2817376D02*
X2797845Y4845034D01*
X2781839Y4829028D01*
X2773749Y4809497D01*
X2817376D01*
Y4853124D01*
D02*
G37*
G36*
X1977597Y4852625D02*
Y4808997D01*
X2021224D01*
X2013134Y4828528D01*
X1997128Y4844535D01*
X1977597Y4852625D01*
D02*
G37*
G36*
X1952197D02*
X1932666Y4844535D01*
X1916660Y4828528D01*
X1908570Y4808997D01*
X1952197D01*
Y4852625D01*
D02*
G37*
G36*
X777597D02*
Y4808997D01*
X821225D01*
X813135Y4828528D01*
X797128Y4844535D01*
X777597Y4852625D01*
D02*
G37*
G36*
X752197D02*
X732666Y4844535D01*
X716660Y4828528D01*
X708570Y4808997D01*
X752197D01*
Y4852625D01*
D02*
G37*
G36*
X2558227Y4851400D02*
X2514600D01*
Y4807773D01*
X2534131Y4815863D01*
X2550137Y4831869D01*
X2558227Y4851400D01*
D02*
G37*
G36*
X2489200D02*
X2445573D01*
X2453663Y4831869D01*
X2469669Y4815863D01*
X2489200Y4807773D01*
Y4851400D01*
D02*
G37*
G36*
X2304227D02*
X2260600D01*
Y4807773D01*
X2280131Y4815863D01*
X2296137Y4831869D01*
X2304227Y4851400D01*
D02*
G37*
G36*
X2235200D02*
X2191573D01*
X2199663Y4831869D01*
X2215669Y4815863D01*
X2235200Y4807773D01*
Y4851400D01*
D02*
G37*
G36*
X2886403Y4784097D02*
X2842776D01*
Y4740469D01*
X2862307Y4748559D01*
X2878314Y4764566D01*
X2886403Y4784097D01*
D02*
G37*
G36*
X2817376D02*
X2773749D01*
X2781839Y4764566D01*
X2797845Y4748559D01*
X2817376Y4740469D01*
Y4784097D01*
D02*
G37*
G36*
X2021224Y4783597D02*
X1977597D01*
Y4739970D01*
X1997128Y4748060D01*
X2013134Y4764066D01*
X2021224Y4783597D01*
D02*
G37*
G36*
X821225D02*
X777597D01*
Y4739970D01*
X797128Y4748060D01*
X813135Y4764066D01*
X821225Y4783597D01*
D02*
G37*
G36*
X752197D02*
X708570D01*
X716660Y4764066D01*
X732666Y4748060D01*
X752197Y4739970D01*
Y4783597D01*
D02*
G37*
G36*
X2645410Y4789043D02*
X2392680D01*
Y4686300D01*
X2645410D01*
Y4789043D01*
D02*
G37*
G36*
X2367280D02*
X2114550D01*
Y4686300D01*
X2367280D01*
Y4789043D01*
D02*
G37*
G36*
X3848308Y5162200D02*
X3797092D01*
X3746861Y5152208D01*
X3699544Y5132609D01*
X3656960Y5104155D01*
X3620745Y5067940D01*
X3592291Y5025356D01*
X3572692Y4978039D01*
X3562700Y4927808D01*
Y4876592D01*
X3572692Y4826361D01*
X3592291Y4779044D01*
X3620745Y4736460D01*
X3656960Y4700245D01*
X3699544Y4671791D01*
X3746861Y4652192D01*
X3797092Y4642200D01*
X3848308D01*
X3898539Y4652192D01*
X3945856Y4671791D01*
X3988440Y4700245D01*
X4024655Y4736460D01*
X4053109Y4779044D01*
X4072708Y4826361D01*
X4082700Y4876592D01*
Y4927808D01*
X4072708Y4978039D01*
X4053109Y5025356D01*
X4024655Y5067940D01*
X3988440Y5104155D01*
X3945856Y5132609D01*
X3898539Y5152208D01*
X3848308Y5162200D01*
D02*
G37*
G36*
X393908D02*
X342692D01*
X292461Y5152208D01*
X245144Y5132609D01*
X202560Y5104155D01*
X166345Y5067940D01*
X137891Y5025356D01*
X118292Y4978039D01*
X108300Y4927808D01*
Y4876592D01*
X118292Y4826361D01*
X137891Y4779044D01*
X166345Y4736460D01*
X202560Y4700245D01*
X245144Y4671791D01*
X292461Y4652192D01*
X342692Y4642200D01*
X393908D01*
X444139Y4652192D01*
X491456Y4671791D01*
X534040Y4700245D01*
X570255Y4736460D01*
X598709Y4779044D01*
X618308Y4826361D01*
X628300Y4876592D01*
Y4927808D01*
X618308Y4978039D01*
X598709Y5025356D01*
X570255Y5067940D01*
X534040Y5104155D01*
X491456Y5132609D01*
X444139Y5152208D01*
X393908Y5162200D01*
D02*
G37*
G36*
X3927596Y4552625D02*
Y4508997D01*
X3971224D01*
X3963134Y4528528D01*
X3947127Y4544535D01*
X3927596Y4552625D01*
D02*
G37*
G36*
X3902196D02*
X3882665Y4544535D01*
X3866659Y4528528D01*
X3858569Y4508997D01*
X3902196D01*
Y4552625D01*
D02*
G37*
G36*
X3627597D02*
Y4508997D01*
X3671224D01*
X3663134Y4528528D01*
X3647128Y4544535D01*
X3627597Y4552625D01*
D02*
G37*
G36*
X3602197D02*
X3582665Y4544535D01*
X3566659Y4528528D01*
X3558569Y4508997D01*
X3602197D01*
Y4552625D01*
D02*
G37*
G36*
X927597D02*
Y4508997D01*
X971225D01*
X963135Y4528528D01*
X947128Y4544535D01*
X927597Y4552625D01*
D02*
G37*
G36*
X902197D02*
X882666Y4544535D01*
X866660Y4528528D01*
X858570Y4508997D01*
X902197D01*
Y4552625D01*
D02*
G37*
G36*
X627597D02*
Y4508997D01*
X671225D01*
X663135Y4528528D01*
X647128Y4544535D01*
X627597Y4552625D01*
D02*
G37*
G36*
X602197D02*
X582666Y4544535D01*
X566660Y4528528D01*
X558570Y4508997D01*
X602197D01*
Y4552625D01*
D02*
G37*
G36*
X327598D02*
Y4508997D01*
X371225D01*
X363135Y4528528D01*
X347129Y4544535D01*
X327598Y4552625D01*
D02*
G37*
G36*
X302198D02*
X282666Y4544535D01*
X266660Y4528528D01*
X258570Y4508997D01*
X302198D01*
Y4552625D01*
D02*
G37*
G36*
X3483508Y4487715D02*
Y4444088D01*
X3527135D01*
X3519045Y4463619D01*
X3503039Y4479626D01*
X3483508Y4487715D01*
D02*
G37*
G36*
X3458108D02*
X3438577Y4479626D01*
X3422570Y4463619D01*
X3414481Y4444088D01*
X3458108D01*
Y4487715D01*
D02*
G37*
G36*
X3971224Y4483597D02*
X3927596D01*
Y4439970D01*
X3947127Y4448060D01*
X3963134Y4464066D01*
X3971224Y4483597D01*
D02*
G37*
G36*
X3902196D02*
X3858569D01*
X3866659Y4464066D01*
X3882665Y4448060D01*
X3902196Y4439970D01*
Y4483597D01*
D02*
G37*
G36*
X3671224D02*
X3627597D01*
Y4439970D01*
X3647128Y4448060D01*
X3663134Y4464066D01*
X3671224Y4483597D01*
D02*
G37*
G36*
X3602197D02*
X3558569D01*
X3566659Y4464066D01*
X3582665Y4448060D01*
X3602197Y4439970D01*
Y4483597D01*
D02*
G37*
G36*
X971225D02*
X927597D01*
Y4439970D01*
X947128Y4448060D01*
X963135Y4464066D01*
X971225Y4483597D01*
D02*
G37*
G36*
X902197D02*
X858570D01*
X866660Y4464066D01*
X882666Y4448060D01*
X902197Y4439970D01*
Y4483597D01*
D02*
G37*
G36*
X671225D02*
X627597D01*
Y4439970D01*
X647128Y4448060D01*
X663135Y4464066D01*
X671225Y4483597D01*
D02*
G37*
G36*
X602197D02*
X558570D01*
X566660Y4464066D01*
X582666Y4448060D01*
X602197Y4439970D01*
Y4483597D01*
D02*
G37*
G36*
X371225D02*
X327598D01*
Y4439970D01*
X347129Y4448060D01*
X363135Y4464066D01*
X371225Y4483597D01*
D02*
G37*
G36*
X302198D02*
X258570D01*
X266660Y4464066D01*
X282666Y4448060D01*
X302198Y4439970D01*
Y4483597D01*
D02*
G37*
G36*
X3527135Y4418688D02*
X3414481D01*
X3422570Y4399157D01*
X3438577Y4383151D01*
X3455895Y4375977D01*
X3459309Y4365249D01*
X3455530Y4361470D01*
X3447440Y4341939D01*
X3560094D01*
X3552005Y4361470D01*
X3535998Y4377476D01*
X3518680Y4384650D01*
X3515266Y4395378D01*
X3519045Y4399157D01*
X3527135Y4418688D01*
D02*
G37*
G36*
X3560094Y4316539D02*
X3516467D01*
Y4272911D01*
X3535998Y4281001D01*
X3552005Y4297008D01*
X3560094Y4316539D01*
D02*
G37*
G36*
X3491067D02*
X3447440D01*
X3455530Y4297008D01*
X3471536Y4281001D01*
X3491067Y4272911D01*
Y4316539D01*
D02*
G37*
G36*
X777597Y4252625D02*
Y4208997D01*
X821225D01*
X813135Y4228528D01*
X797128Y4244535D01*
X777597Y4252625D01*
D02*
G37*
G36*
X752197D02*
X732666Y4244535D01*
X716660Y4228528D01*
X708570Y4208997D01*
X752197D01*
Y4252625D01*
D02*
G37*
G36*
X477597D02*
Y4208997D01*
X521225D01*
X513135Y4228528D01*
X497129Y4244535D01*
X477597Y4252625D01*
D02*
G37*
G36*
X452197D02*
X432666Y4244535D01*
X416660Y4228528D01*
X408570Y4208997D01*
X452197D01*
Y4252625D01*
D02*
G37*
G36*
X821225Y4183597D02*
X777597D01*
Y4139970D01*
X797128Y4148060D01*
X813135Y4164066D01*
X821225Y4183597D01*
D02*
G37*
G36*
X752197D02*
X708570D01*
X716660Y4164066D01*
X732666Y4148060D01*
X752197Y4139970D01*
Y4183597D01*
D02*
G37*
G36*
X521225D02*
X477597D01*
Y4139970D01*
X497129Y4148060D01*
X513135Y4164066D01*
X521225Y4183597D01*
D02*
G37*
G36*
X452197D02*
X408570D01*
X416660Y4164066D01*
X432666Y4148060D01*
X452197Y4139970D01*
Y4183597D01*
D02*
G37*
G36*
X4038600Y4006027D02*
Y3962400D01*
X4082227D01*
X4074137Y3981931D01*
X4058131Y3997937D01*
X4038600Y4006027D01*
D02*
G37*
G36*
X4082227Y3937000D02*
X4038600D01*
Y3893373D01*
X4058131Y3901463D01*
X4074137Y3917469D01*
X4082227Y3937000D01*
D02*
G37*
G36*
X372700Y3929208D02*
X225000D01*
Y3866508D01*
X372700D01*
Y3929208D01*
D02*
G37*
G36*
Y3841108D02*
X225000D01*
Y3778408D01*
X372700D01*
Y3841108D01*
D02*
G37*
G36*
X942500Y3815623D02*
Y3771996D01*
X986127D01*
X978037Y3791527D01*
X962031Y3807533D01*
X942500Y3815623D01*
D02*
G37*
G36*
X917100D02*
X897568Y3807533D01*
X881562Y3791527D01*
X873472Y3771996D01*
X917100D01*
Y3815623D01*
D02*
G37*
G36*
X986127Y3746596D02*
X942500D01*
Y3702969D01*
X962031Y3711059D01*
X978037Y3727065D01*
X986127Y3746596D01*
D02*
G37*
G36*
X917100D02*
X873472D01*
X881562Y3727065D01*
X897568Y3711059D01*
X917100Y3702969D01*
Y3746596D01*
D02*
G37*
G36*
X215900Y3726627D02*
Y3683000D01*
X259527D01*
X251437Y3702531D01*
X235431Y3718537D01*
X215900Y3726627D01*
D02*
G37*
G36*
X190500D02*
X170969Y3718537D01*
X154963Y3702531D01*
X146873Y3683000D01*
X190500D01*
Y3726627D01*
D02*
G37*
G36*
X259527Y3657600D02*
X215900D01*
Y3613973D01*
X235431Y3622063D01*
X251437Y3638069D01*
X259527Y3657600D01*
D02*
G37*
G36*
X190500D02*
X146873D01*
X154963Y3638069D01*
X170969Y3622063D01*
X190500Y3613973D01*
Y3657600D01*
D02*
G37*
G36*
X215900Y3498027D02*
Y3454400D01*
X259527D01*
X251437Y3473931D01*
X235431Y3489937D01*
X215900Y3498027D01*
D02*
G37*
G36*
X190500D02*
X170969Y3489937D01*
X154963Y3473931D01*
X146873Y3454400D01*
X190500D01*
Y3498027D01*
D02*
G37*
G36*
X259527Y3429000D02*
X215900D01*
Y3385373D01*
X235431Y3393463D01*
X251437Y3409469D01*
X259527Y3429000D01*
D02*
G37*
G36*
X190500D02*
X146873D01*
X154963Y3409469D01*
X170969Y3393463D01*
X190500Y3385373D01*
Y3429000D01*
D02*
G37*
G36*
X519600Y3406108D02*
X421900D01*
Y3363408D01*
X519600D01*
Y3406108D01*
D02*
G37*
G36*
X372700Y3309208D02*
X225000D01*
Y3246508D01*
X372700D01*
Y3309208D01*
D02*
G37*
G36*
X663100Y3231423D02*
Y3187796D01*
X706727D01*
X698637Y3207327D01*
X682631Y3223333D01*
X663100Y3231423D01*
D02*
G37*
G36*
X637700D02*
X618168Y3223333D01*
X602162Y3207327D01*
X594072Y3187796D01*
X637700D01*
Y3231423D01*
D02*
G37*
G36*
X777400Y2761523D02*
Y2717896D01*
X821027D01*
X812937Y2737427D01*
X796931Y2753433D01*
X777400Y2761523D01*
D02*
G37*
G36*
X752000D02*
X732468Y2753433D01*
X716462Y2737427D01*
X708372Y2717896D01*
X752000D01*
Y2761523D01*
D02*
G37*
G36*
X821027Y2692496D02*
X777400D01*
Y2648869D01*
X796931Y2656959D01*
X812937Y2672965D01*
X821027Y2692496D01*
D02*
G37*
G36*
X752000D02*
X708372D01*
X716462Y2672965D01*
X732468Y2656959D01*
X752000Y2648869D01*
Y2692496D01*
D02*
G37*
G36*
X764700Y2342423D02*
Y2298796D01*
X808327D01*
X800237Y2318327D01*
X784231Y2334333D01*
X764700Y2342423D01*
D02*
G37*
G36*
X739300D02*
X719768Y2334333D01*
X703762Y2318327D01*
X695672Y2298796D01*
X739300D01*
Y2342423D01*
D02*
G37*
G36*
X808327Y2273396D02*
X764700D01*
Y2229769D01*
X784231Y2237859D01*
X800237Y2253865D01*
X808327Y2273396D01*
D02*
G37*
G36*
X739300D02*
X695672D01*
X703762Y2253865D01*
X719768Y2237859D01*
X739300Y2229769D01*
Y2273396D01*
D02*
G37*
G36*
X1829977Y4449996D02*
X1786350D01*
X1794440Y4430465D01*
X1810446Y4414459D01*
X1829977Y4406369D01*
Y4449996D01*
D02*
G37*
G36*
X2871700Y4285427D02*
Y4241800D01*
X2915327D01*
X2907238Y4261331D01*
X2891231Y4277337D01*
X2871700Y4285427D01*
D02*
G37*
G36*
X2846300D02*
X2826769Y4277337D01*
X2810763Y4261331D01*
X2802673Y4241800D01*
X2846300D01*
Y4285427D01*
D02*
G37*
G36*
X2741700D02*
Y4241800D01*
X2785327D01*
X2777237Y4261331D01*
X2761231Y4277337D01*
X2741700Y4285427D01*
D02*
G37*
G36*
X2716300D02*
X2696769Y4277337D01*
X2680762Y4261331D01*
X2672673Y4241800D01*
X2716300D01*
Y4285427D01*
D02*
G37*
G36*
X1977597Y4252625D02*
Y4208997D01*
X2021224D01*
X2013134Y4228528D01*
X1997128Y4244535D01*
X1977597Y4252625D01*
D02*
G37*
G36*
X1952197D02*
X1932666Y4244535D01*
X1916660Y4228528D01*
X1908570Y4208997D01*
X1952197D01*
Y4252625D01*
D02*
G37*
G36*
X2915327Y4216400D02*
X2871700D01*
Y4172773D01*
X2891231Y4180863D01*
X2907238Y4196869D01*
X2915327Y4216400D01*
D02*
G37*
G36*
X2846300D02*
X2802673D01*
X2810763Y4196869D01*
X2826769Y4180863D01*
X2846300Y4172773D01*
Y4216400D01*
D02*
G37*
G36*
X2785327D02*
X2741700D01*
Y4172773D01*
X2761231Y4180863D01*
X2777237Y4196869D01*
X2785327Y4216400D01*
D02*
G37*
G36*
X2716300D02*
X2672673D01*
X2680762Y4196869D01*
X2696769Y4180863D01*
X2716300Y4172773D01*
Y4216400D01*
D02*
G37*
G36*
X3928610Y3259823D02*
Y3216195D01*
X3972238D01*
X3964148Y3235726D01*
X3948141Y3251733D01*
X3928610Y3259823D01*
D02*
G37*
G36*
X3903210D02*
X3883679Y3251733D01*
X3867673Y3235726D01*
X3859583Y3216195D01*
X3903210D01*
Y3259823D01*
D02*
G37*
G36*
X3972238Y3190795D02*
X3928610D01*
Y3147168D01*
X3948141Y3155258D01*
X3964148Y3171264D01*
X3972238Y3190795D01*
D02*
G37*
G36*
X3903210D02*
X3859583D01*
X3867673Y3171264D01*
X3883679Y3155258D01*
X3903210Y3147168D01*
Y3190795D01*
D02*
G37*
G36*
X372700Y2034892D02*
X225000D01*
Y1972192D01*
X372700D01*
Y2034892D01*
D02*
G37*
G36*
X2070100Y2659827D02*
Y2616200D01*
X2113727D01*
X2105637Y2635731D01*
X2089631Y2651737D01*
X2070100Y2659827D01*
D02*
G37*
G36*
X2044700D02*
X2025169Y2651737D01*
X2009163Y2635731D01*
X2001073Y2616200D01*
X2044700D01*
Y2659827D01*
D02*
G37*
G36*
X2113727Y2590800D02*
X2070100D01*
Y2547173D01*
X2089631Y2555263D01*
X2105637Y2571269D01*
X2113727Y2590800D01*
D02*
G37*
G36*
X2044700D02*
X2001073D01*
X2009163Y2571269D01*
X2025169Y2555263D01*
X2044700Y2547173D01*
Y2590800D01*
D02*
G37*
G36*
X1977597Y2452625D02*
Y2408998D01*
X2021224D01*
X2013134Y2428529D01*
X1997128Y2444535D01*
X1977597Y2452625D01*
D02*
G37*
G36*
X2021224Y2383598D02*
X1977597D01*
Y2339971D01*
X1997128Y2348061D01*
X2013134Y2364067D01*
X2021224Y2383598D01*
D02*
G37*
G36*
X4038600Y2355027D02*
Y2311400D01*
X4082227D01*
X4074137Y2330931D01*
X4058131Y2346937D01*
X4038600Y2355027D01*
D02*
G37*
G36*
X1956942Y2087297D02*
Y2043670D01*
X2000569D01*
X1992479Y2063201D01*
X1976473Y2079207D01*
X1956942Y2087297D01*
D02*
G37*
G36*
X1931542D02*
X1912011Y2079207D01*
X1896004Y2063201D01*
X1887914Y2043670D01*
X1931542D01*
Y2087297D01*
D02*
G37*
G36*
X3887003Y2017235D02*
X3869702D01*
Y1943799D01*
X3971467D01*
X3970204Y1953392D01*
X3961599Y1974167D01*
X3947911Y1992006D01*
X3930071Y2005695D01*
X3909296Y2014300D01*
X3887003Y2017235D01*
D02*
G37*
G36*
X3971468Y1918399D02*
X3869702D01*
Y1844962D01*
X3887003D01*
X3909296Y1847897D01*
X3930071Y1856502D01*
X3947911Y1870191D01*
X3961599Y1888030D01*
X3970204Y1908805D01*
X3971468Y1918399D01*
D02*
G37*
G36*
X3821224Y1783598D02*
X3777596D01*
Y1739971D01*
X3797128Y1748061D01*
X3813134Y1764067D01*
X3821224Y1783598D01*
D02*
G37*
G36*
X3987800Y1783527D02*
Y1739900D01*
X4031427D01*
X4023337Y1759431D01*
X4007331Y1775437D01*
X3987800Y1783527D01*
D02*
G37*
G36*
X3962400D02*
X3942869Y1775437D01*
X3926863Y1759431D01*
X3918773Y1739900D01*
X3962400D01*
Y1783527D01*
D02*
G37*
G36*
X4031427Y1714500D02*
X3987800D01*
Y1670873D01*
X4007331Y1678963D01*
X4023337Y1694969D01*
X4031427Y1714500D01*
D02*
G37*
G36*
X3962400D02*
X3918773D01*
X3926863Y1694969D01*
X3942869Y1678963D01*
X3962400Y1670873D01*
Y1714500D01*
D02*
G37*
G36*
X168958Y1696913D02*
Y1653285D01*
X212585D01*
X204495Y1672816D01*
X188489Y1688823D01*
X168958Y1696913D01*
D02*
G37*
G36*
X143558D02*
X124027Y1688823D01*
X108021Y1672816D01*
X99931Y1653285D01*
X143558D01*
Y1696913D01*
D02*
G37*
G36*
X212585Y1627885D02*
X168958D01*
Y1584258D01*
X188489Y1592348D01*
X204495Y1608354D01*
X212585Y1627885D01*
D02*
G37*
G36*
X143558D02*
X99931D01*
X108021Y1608354D01*
X124027Y1592348D01*
X143558Y1584258D01*
Y1627885D01*
D02*
G37*
G36*
X4013200Y1351727D02*
Y1308100D01*
X4056827D01*
X4048737Y1327631D01*
X4032731Y1343637D01*
X4013200Y1351727D01*
D02*
G37*
G36*
X3987800D02*
X3968269Y1343637D01*
X3952263Y1327631D01*
X3944173Y1308100D01*
X3987800D01*
Y1351727D01*
D02*
G37*
G36*
X4056827Y1282700D02*
X4013200D01*
Y1239073D01*
X4032731Y1247163D01*
X4048737Y1263169D01*
X4056827Y1282700D01*
D02*
G37*
G36*
X3987800D02*
X3944173D01*
X3952263Y1263169D01*
X3968269Y1247163D01*
X3987800Y1239073D01*
Y1282700D01*
D02*
G37*
G36*
X372700Y1289892D02*
X225001D01*
Y1227192D01*
X372700D01*
Y1289892D01*
D02*
G37*
G36*
Y1201792D02*
X225001D01*
Y1139092D01*
X372700D01*
Y1201792D01*
D02*
G37*
G36*
X3887003Y1152238D02*
X3869702D01*
Y1078802D01*
X3971467D01*
X3970204Y1088395D01*
X3961599Y1109170D01*
X3947911Y1127009D01*
X3930071Y1140698D01*
X3909296Y1149303D01*
X3887003Y1152238D01*
D02*
G37*
G36*
X3971468Y1053402D02*
X3869702D01*
Y979965D01*
X3887003D01*
X3909296Y982900D01*
X3930071Y991505D01*
X3947911Y1005194D01*
X3961599Y1023033D01*
X3970204Y1043808D01*
X3971468Y1053402D01*
D02*
G37*
G36*
X3927596Y952626D02*
Y908998D01*
X3971224D01*
X3963134Y928530D01*
X3947127Y944536D01*
X3927596Y952626D01*
D02*
G37*
G36*
X3902196D02*
X3882665Y944536D01*
X3866659Y928530D01*
X3858569Y908998D01*
X3902196D01*
Y952626D01*
D02*
G37*
G36*
X1227597D02*
Y908998D01*
X1271225D01*
X1263135Y928530D01*
X1247128Y944536D01*
X1227597Y952626D01*
D02*
G37*
G36*
X327598D02*
Y908998D01*
X371225D01*
X363135Y928530D01*
X347129Y944536D01*
X327598Y952626D01*
D02*
G37*
G36*
X302198D02*
X282666Y944536D01*
X266660Y928530D01*
X258570Y908998D01*
X302198D01*
Y952626D01*
D02*
G37*
G36*
X2936198Y953643D02*
X2933700D01*
Y850900D01*
X3036443D01*
Y853398D01*
X3028576Y882759D01*
X3013378Y909084D01*
X2991884Y930578D01*
X2965559Y945776D01*
X2936198Y953643D01*
D02*
G37*
G36*
X2908300D02*
X2905802D01*
X2876441Y945776D01*
X2850116Y930578D01*
X2828622Y909084D01*
X2813424Y882759D01*
X2805557Y853398D01*
Y850900D01*
X2908300D01*
Y953643D01*
D02*
G37*
G36*
X3971224Y883598D02*
X3927596D01*
Y839971D01*
X3947127Y848061D01*
X3963134Y864067D01*
X3971224Y883598D01*
D02*
G37*
G36*
X3902196D02*
X3858569D01*
X3866659Y864067D01*
X3882665Y848061D01*
X3902196Y839971D01*
Y883598D01*
D02*
G37*
G36*
X1271225D02*
X1227597D01*
Y839971D01*
X1247128Y848061D01*
X1263135Y864067D01*
X1271225Y883598D01*
D02*
G37*
G36*
X371225D02*
X327598D01*
Y839971D01*
X347129Y848061D01*
X363135Y864067D01*
X371225Y883598D01*
D02*
G37*
G36*
X302198D02*
X258570D01*
X266660Y864067D01*
X282666Y848061D01*
X302198Y839971D01*
Y883598D01*
D02*
G37*
G36*
X3975100Y780227D02*
Y736600D01*
X4018727D01*
X4010637Y756131D01*
X3994631Y772137D01*
X3975100Y780227D01*
D02*
G37*
G36*
X3949700D02*
X3930169Y772137D01*
X3914163Y756131D01*
X3906073Y736600D01*
X3949700D01*
Y780227D01*
D02*
G37*
G36*
X203911Y766820D02*
Y723193D01*
X247538D01*
X239448Y742724D01*
X223442Y758731D01*
X203911Y766820D01*
D02*
G37*
G36*
X178511D02*
X158980Y758731D01*
X142974Y742724D01*
X134884Y723193D01*
X178511D01*
Y766820D01*
D02*
G37*
G36*
X3036443Y825500D02*
X2933700D01*
Y722757D01*
X2936198D01*
X2965559Y730624D01*
X2991884Y745822D01*
X3013378Y767316D01*
X3028576Y793641D01*
X3036443Y823002D01*
Y825500D01*
D02*
G37*
G36*
X2908300D02*
X2805557D01*
Y823002D01*
X2813424Y793641D01*
X2828622Y767316D01*
X2850116Y745822D01*
X2876441Y730624D01*
X2905802Y722757D01*
X2908300D01*
Y825500D01*
D02*
G37*
G36*
X4018727Y711200D02*
X3975100D01*
Y667573D01*
X3994631Y675663D01*
X4010637Y691669D01*
X4018727Y711200D01*
D02*
G37*
G36*
X3949700D02*
X3906073D01*
X3914163Y691669D01*
X3930169Y675663D01*
X3949700Y667573D01*
Y711200D01*
D02*
G37*
G36*
X247538Y697793D02*
X203911D01*
Y654166D01*
X223442Y662256D01*
X239448Y678262D01*
X247538Y697793D01*
D02*
G37*
G36*
X178511D02*
X134884D01*
X142974Y678262D01*
X158980Y662256D01*
X178511Y654166D01*
Y697793D01*
D02*
G37*
G36*
X2627582Y823054D02*
X2604818D01*
X2582830Y817162D01*
X2563116Y805780D01*
X2547020Y789684D01*
X2535638Y769970D01*
X2529746Y747982D01*
Y725218D01*
X2535638Y703230D01*
X2547020Y683516D01*
X2563116Y667420D01*
X2582830Y656038D01*
X2604818Y650146D01*
X2627582D01*
X2649570Y656038D01*
X2669284Y667420D01*
X2685380Y683516D01*
X2696762Y703230D01*
X2702654Y725218D01*
Y747982D01*
X2696762Y769970D01*
X2685380Y789684D01*
X2669284Y805780D01*
X2649570Y817162D01*
X2627582Y823054D01*
D02*
G37*
G36*
X2373582D02*
X2350818D01*
X2328830Y817162D01*
X2309116Y805780D01*
X2293020Y789684D01*
X2281638Y769970D01*
X2275746Y747982D01*
Y725218D01*
X2281638Y703230D01*
X2293020Y683516D01*
X2309116Y667420D01*
X2328830Y656038D01*
X2350818Y650146D01*
X2373582D01*
X2395570Y656038D01*
X2415284Y667420D01*
X2431380Y683516D01*
X2442762Y703230D01*
X2448654Y725218D01*
Y747982D01*
X2442762Y769970D01*
X2431380Y789684D01*
X2415284Y805780D01*
X2395570Y817162D01*
X2373582Y823054D01*
D02*
G37*
G36*
X2119582D02*
X2096818D01*
X2074830Y817162D01*
X2055116Y805780D01*
X2039020Y789684D01*
X2027638Y769970D01*
X2021746Y747982D01*
Y725218D01*
X2027638Y703230D01*
X2039020Y683516D01*
X2055116Y667420D01*
X2074830Y656038D01*
X2096818Y650146D01*
X2119582D01*
X2141570Y656038D01*
X2161284Y667420D01*
X2177380Y683516D01*
X2188762Y703230D01*
X2194654Y725218D01*
Y747982D01*
X2188762Y769970D01*
X2177380Y789684D01*
X2161284Y805780D01*
X2141570Y817162D01*
X2119582Y823054D01*
D02*
G37*
G36*
X1865582D02*
X1842818D01*
X1820830Y817162D01*
X1801116Y805780D01*
X1785020Y789684D01*
X1773638Y769970D01*
X1767746Y747982D01*
Y725218D01*
X1773638Y703230D01*
X1785020Y683516D01*
X1801116Y667420D01*
X1820830Y656038D01*
X1842818Y650146D01*
X1865582D01*
X1887570Y656038D01*
X1907284Y667420D01*
X1923380Y683516D01*
X1934762Y703230D01*
X1940654Y725218D01*
Y747982D01*
X1934762Y769970D01*
X1923380Y789684D01*
X1907284Y805780D01*
X1887570Y817162D01*
X1865582Y823054D01*
D02*
G37*
G36*
X1611582D02*
X1588818D01*
X1566830Y817162D01*
X1547116Y805780D01*
X1531020Y789684D01*
X1519638Y769970D01*
X1513746Y747982D01*
Y725218D01*
X1519638Y703230D01*
X1531020Y683516D01*
X1547116Y667420D01*
X1566830Y656038D01*
X1588818Y650146D01*
X1611582D01*
X1633570Y656038D01*
X1653284Y667420D01*
X1669380Y683516D01*
X1680762Y703230D01*
X1686654Y725218D01*
Y747982D01*
X1680762Y769970D01*
X1669380Y789684D01*
X1653284Y805780D01*
X1633570Y817162D01*
X1611582Y823054D01*
D02*
G37*
G36*
X1357582D02*
X1334818D01*
X1312830Y817162D01*
X1293116Y805780D01*
X1277020Y789684D01*
X1265638Y769970D01*
X1259746Y747982D01*
Y725218D01*
X1265638Y703230D01*
X1277020Y683516D01*
X1293116Y667420D01*
X1312830Y656038D01*
X1334818Y650146D01*
X1357582D01*
X1379570Y656038D01*
X1399284Y667420D01*
X1415380Y683516D01*
X1426762Y703230D01*
X1432654Y725218D01*
Y747982D01*
X1426762Y769970D01*
X1415380Y789684D01*
X1399284Y805780D01*
X1379570Y817162D01*
X1357582Y823054D01*
D02*
G37*
G36*
X1103582D02*
X1080818D01*
X1058830Y817162D01*
X1039116Y805780D01*
X1023020Y789684D01*
X1011638Y769970D01*
X1005746Y747982D01*
Y725218D01*
X1011638Y703230D01*
X1023020Y683516D01*
X1039116Y667420D01*
X1058830Y656038D01*
X1080818Y650146D01*
X1103582D01*
X1125570Y656038D01*
X1145284Y667420D01*
X1161380Y683516D01*
X1172762Y703230D01*
X1178654Y725218D01*
Y747982D01*
X1172762Y769970D01*
X1161380Y789684D01*
X1145284Y805780D01*
X1125570Y817162D01*
X1103582Y823054D01*
D02*
G37*
G36*
X849582D02*
X826818D01*
X804830Y817162D01*
X785116Y805780D01*
X769020Y789684D01*
X757638Y769970D01*
X751746Y747982D01*
Y725218D01*
X757638Y703230D01*
X769020Y683516D01*
X785116Y667420D01*
X804830Y656038D01*
X826818Y650146D01*
X849582D01*
X871570Y656038D01*
X891284Y667420D01*
X907380Y683516D01*
X918762Y703230D01*
X924654Y725218D01*
Y747982D01*
X918762Y769970D01*
X907380Y789684D01*
X891284Y805780D01*
X871570Y817162D01*
X849582Y823054D01*
D02*
G37*
G36*
X2629609Y584454D02*
X2628900D01*
Y495300D01*
X2718054D01*
Y496009D01*
X2711113Y521914D01*
X2697704Y545140D01*
X2678740Y564104D01*
X2655514Y577513D01*
X2629609Y584454D01*
D02*
G37*
G36*
X2603500D02*
X2602791D01*
X2576886Y577513D01*
X2553660Y564104D01*
X2534696Y545140D01*
X2521287Y521914D01*
X2514346Y496009D01*
Y495300D01*
X2603500D01*
Y584454D01*
D02*
G37*
G36*
X2375609D02*
X2374900D01*
Y495300D01*
X2464054D01*
Y496009D01*
X2457113Y521914D01*
X2443704Y545140D01*
X2424740Y564104D01*
X2401514Y577513D01*
X2375609Y584454D01*
D02*
G37*
G36*
X2349500D02*
X2348791D01*
X2322886Y577513D01*
X2299660Y564104D01*
X2280696Y545140D01*
X2267287Y521914D01*
X2260346Y496009D01*
Y495300D01*
X2349500D01*
Y584454D01*
D02*
G37*
G36*
X2121609D02*
X2120900D01*
Y495300D01*
X2210054D01*
Y496009D01*
X2203113Y521914D01*
X2189704Y545140D01*
X2170740Y564104D01*
X2147514Y577513D01*
X2121609Y584454D01*
D02*
G37*
G36*
X2095500D02*
X2094791D01*
X2068886Y577513D01*
X2045660Y564104D01*
X2026696Y545140D01*
X2013287Y521914D01*
X2006346Y496009D01*
Y495300D01*
X2095500D01*
Y584454D01*
D02*
G37*
G36*
X1867609D02*
X1866900D01*
Y495300D01*
X1956054D01*
Y496009D01*
X1949113Y521914D01*
X1935704Y545140D01*
X1916740Y564104D01*
X1893514Y577513D01*
X1867609Y584454D01*
D02*
G37*
G36*
X1841500D02*
X1840791D01*
X1814886Y577513D01*
X1791660Y564104D01*
X1772696Y545140D01*
X1759287Y521914D01*
X1752346Y496009D01*
Y495300D01*
X1841500D01*
Y584454D01*
D02*
G37*
G36*
X1613609D02*
X1612900D01*
Y495300D01*
X1702054D01*
Y496009D01*
X1695113Y521914D01*
X1681704Y545140D01*
X1662740Y564104D01*
X1639514Y577513D01*
X1613609Y584454D01*
D02*
G37*
G36*
X1587500D02*
X1586791D01*
X1560886Y577513D01*
X1537660Y564104D01*
X1518696Y545140D01*
X1505287Y521914D01*
X1498346Y496009D01*
Y495300D01*
X1587500D01*
Y584454D01*
D02*
G37*
G36*
X1359609D02*
X1358900D01*
Y495300D01*
X1448054D01*
Y496009D01*
X1441113Y521914D01*
X1427704Y545140D01*
X1408740Y564104D01*
X1385514Y577513D01*
X1359609Y584454D01*
D02*
G37*
G36*
X1333500D02*
X1332791D01*
X1306886Y577513D01*
X1283660Y564104D01*
X1264696Y545140D01*
X1251287Y521914D01*
X1244346Y496009D01*
Y495300D01*
X1333500D01*
Y584454D01*
D02*
G37*
G36*
X1105609D02*
X1104900D01*
Y495300D01*
X1194054D01*
Y496009D01*
X1187113Y521914D01*
X1173704Y545140D01*
X1154740Y564104D01*
X1131514Y577513D01*
X1105609Y584454D01*
D02*
G37*
G36*
X1079500D02*
X1078791D01*
X1052886Y577513D01*
X1029660Y564104D01*
X1010696Y545140D01*
X997287Y521914D01*
X990346Y496009D01*
Y495300D01*
X1079500D01*
Y584454D01*
D02*
G37*
G36*
X940054D02*
X850900D01*
Y495300D01*
X940054D01*
Y584454D01*
D02*
G37*
G36*
X825500D02*
X736346D01*
Y495300D01*
X825500D01*
Y584454D01*
D02*
G37*
G36*
X3021043Y684243D02*
X2820957D01*
Y484157D01*
X3021043D01*
Y684243D01*
D02*
G37*
G36*
X2718054Y469900D02*
X2628900D01*
Y380746D01*
X2629609D01*
X2655514Y387687D01*
X2678740Y401096D01*
X2697704Y420060D01*
X2711113Y443286D01*
X2718054Y469191D01*
Y469900D01*
D02*
G37*
G36*
X2603500D02*
X2514346D01*
Y469191D01*
X2521287Y443286D01*
X2534696Y420060D01*
X2553660Y401096D01*
X2576886Y387687D01*
X2602791Y380746D01*
X2603500D01*
Y469900D01*
D02*
G37*
G36*
X2464054D02*
X2374900D01*
Y380746D01*
X2375609D01*
X2401514Y387687D01*
X2424740Y401096D01*
X2443704Y420060D01*
X2457113Y443286D01*
X2464054Y469191D01*
Y469900D01*
D02*
G37*
G36*
X2349500D02*
X2260346D01*
Y469191D01*
X2267287Y443286D01*
X2280696Y420060D01*
X2299660Y401096D01*
X2322886Y387687D01*
X2348791Y380746D01*
X2349500D01*
Y469900D01*
D02*
G37*
G36*
X2210054D02*
X2120900D01*
Y380746D01*
X2121609D01*
X2147514Y387687D01*
X2170740Y401096D01*
X2189704Y420060D01*
X2203113Y443286D01*
X2210054Y469191D01*
Y469900D01*
D02*
G37*
G36*
X2095500D02*
X2006346D01*
Y469191D01*
X2013287Y443286D01*
X2026696Y420060D01*
X2045660Y401096D01*
X2068886Y387687D01*
X2094791Y380746D01*
X2095500D01*
Y469900D01*
D02*
G37*
G36*
X1956054D02*
X1866900D01*
Y380746D01*
X1867609D01*
X1893514Y387687D01*
X1916740Y401096D01*
X1935704Y420060D01*
X1949113Y443286D01*
X1956054Y469191D01*
Y469900D01*
D02*
G37*
G36*
X1841500D02*
X1752346D01*
Y469191D01*
X1759287Y443286D01*
X1772696Y420060D01*
X1791660Y401096D01*
X1814886Y387687D01*
X1840791Y380746D01*
X1841500D01*
Y469900D01*
D02*
G37*
G36*
X1702054D02*
X1612900D01*
Y380746D01*
X1613609D01*
X1639514Y387687D01*
X1662740Y401096D01*
X1681704Y420060D01*
X1695113Y443286D01*
X1702054Y469191D01*
Y469900D01*
D02*
G37*
G36*
X1587500D02*
X1498346D01*
Y469191D01*
X1505287Y443286D01*
X1518696Y420060D01*
X1537660Y401096D01*
X1560886Y387687D01*
X1586791Y380746D01*
X1587500D01*
Y469900D01*
D02*
G37*
G36*
X1448054D02*
X1358900D01*
Y380746D01*
X1359609D01*
X1385514Y387687D01*
X1408740Y401096D01*
X1427704Y420060D01*
X1441113Y443286D01*
X1448054Y469191D01*
Y469900D01*
D02*
G37*
G36*
X1333500D02*
X1244346D01*
Y469191D01*
X1251287Y443286D01*
X1264696Y420060D01*
X1283660Y401096D01*
X1306886Y387687D01*
X1332791Y380746D01*
X1333500D01*
Y469900D01*
D02*
G37*
G36*
X1194054D02*
X1104900D01*
Y380746D01*
X1105609D01*
X1131514Y387687D01*
X1154740Y401096D01*
X1173704Y420060D01*
X1187113Y443286D01*
X1194054Y469191D01*
Y469900D01*
D02*
G37*
G36*
X1079500D02*
X990346D01*
Y469191D01*
X997287Y443286D01*
X1010696Y420060D01*
X1029660Y401096D01*
X1052886Y387687D01*
X1078791Y380746D01*
X1079500D01*
Y469900D01*
D02*
G37*
G36*
X940054D02*
X850900D01*
Y380746D01*
X940054D01*
Y469900D01*
D02*
G37*
G36*
X825500D02*
X736346D01*
Y380746D01*
X825500D01*
Y469900D01*
D02*
G37*
G36*
X3327597Y352626D02*
Y308999D01*
X3371224D01*
X3363134Y328530D01*
X3347128Y344536D01*
X3327597Y352626D01*
D02*
G37*
G36*
X3302197D02*
X3282666Y344536D01*
X3266659Y328530D01*
X3258569Y308999D01*
X3302197D01*
Y352626D01*
D02*
G37*
G36*
X3027597D02*
Y308999D01*
X3071224D01*
X3063134Y328530D01*
X3047128Y344536D01*
X3027597Y352626D01*
D02*
G37*
G36*
X3002197D02*
X2982666Y344536D01*
X2966659Y328530D01*
X2958569Y308999D01*
X3002197D01*
Y352626D01*
D02*
G37*
G36*
X3371224Y283599D02*
X3327597D01*
Y239971D01*
X3347128Y248061D01*
X3363134Y264068D01*
X3371224Y283599D01*
D02*
G37*
G36*
X3302197D02*
X3258569D01*
X3266659Y264068D01*
X3282666Y248061D01*
X3302197Y239971D01*
Y283599D01*
D02*
G37*
G36*
X3071224D02*
X3027597D01*
Y239971D01*
X3047128Y248061D01*
X3063134Y264068D01*
X3071224Y283599D01*
D02*
G37*
G36*
X3002197D02*
X2958569D01*
X2966659Y264068D01*
X2982666Y248061D01*
X3002197Y239971D01*
Y283599D01*
D02*
G37*
G36*
X3200400Y221427D02*
Y177800D01*
X3244027D01*
X3235937Y197331D01*
X3219931Y213337D01*
X3200400Y221427D01*
D02*
G37*
G36*
X3175000D02*
X3155469Y213337D01*
X3139463Y197331D01*
X3131373Y177800D01*
X3175000D01*
Y221427D01*
D02*
G37*
G36*
X3848308Y641000D02*
X3797092D01*
X3746861Y631008D01*
X3699544Y611409D01*
X3656960Y582955D01*
X3620745Y546740D01*
X3592291Y504156D01*
X3572692Y456839D01*
X3562700Y406608D01*
Y355392D01*
X3572692Y305161D01*
X3592291Y257844D01*
X3620745Y215260D01*
X3656960Y179045D01*
X3699544Y150591D01*
X3746861Y130992D01*
X3797092Y121000D01*
X3848308D01*
X3898539Y130992D01*
X3945856Y150591D01*
X3988440Y179045D01*
X4024655Y215260D01*
X4053109Y257844D01*
X4072708Y305161D01*
X4082700Y355392D01*
Y406608D01*
X4072708Y456839D01*
X4053109Y504156D01*
X4024655Y546740D01*
X3988440Y582955D01*
X3945856Y611409D01*
X3898539Y631008D01*
X3848308Y641000D01*
D02*
G37*
G36*
X381208D02*
X329992D01*
X279761Y631008D01*
X232444Y611409D01*
X189860Y582955D01*
X153645Y546740D01*
X125191Y504156D01*
X105592Y456839D01*
X95600Y406608D01*
Y355392D01*
X105592Y305161D01*
X125191Y257844D01*
X153645Y215260D01*
X189860Y179045D01*
X232444Y150591D01*
X279761Y130992D01*
X329992Y121000D01*
X381208D01*
X431439Y130992D01*
X478756Y150591D01*
X521340Y179045D01*
X557555Y215260D01*
X586009Y257844D01*
X605608Y305161D01*
X615600Y355392D01*
Y406608D01*
X605608Y456839D01*
X586009Y504156D01*
X557555Y546740D01*
X521340Y582955D01*
X478756Y611409D01*
X431439Y631008D01*
X381208Y641000D01*
D02*
G37*
G36*
X3244027Y152400D02*
X3200400D01*
Y108773D01*
X3219931Y116863D01*
X3235937Y132869D01*
X3244027Y152400D01*
D02*
G37*
G36*
X3175000D02*
X3131373D01*
X3139463Y132869D01*
X3155469Y116863D01*
X3175000Y108773D01*
Y152400D01*
D02*
G37*
G36*
X2286000Y1720027D02*
X2266469Y1711937D01*
X2250463Y1695931D01*
X2242373Y1676400D01*
X2286000D01*
Y1720027D01*
D02*
G37*
G36*
Y1651000D02*
X2242373D01*
X2250463Y1631469D01*
X2266469Y1615463D01*
X2286000Y1607373D01*
Y1651000D01*
D02*
G37*
%LPD*%
D10*
X3658700Y3590242D02*
D03*
X3655100Y2356700D02*
D03*
Y2731700D02*
D03*
X3658700Y3965242D02*
D03*
X3655100Y2481700D02*
D03*
Y2606700D02*
D03*
X3658700Y3715242D02*
D03*
Y3840242D02*
D03*
D11*
X3289300Y2366400D02*
D03*
X3416300Y2891400D02*
D03*
X3162300Y2366400D02*
D03*
X3035300Y2891400D02*
D03*
X3289300D02*
D03*
X3162300D02*
D03*
X3416300Y2366400D02*
D03*
X3035300D02*
D03*
D12*
X2965400Y3962400D02*
D03*
X2565400D02*
D03*
D13*
X2815697Y3630700D02*
D03*
Y3760700D02*
D03*
X3026303D02*
D03*
X2815697Y3695700D02*
D03*
X3026303D02*
D03*
D14*
X2711600Y3759200D02*
D03*
X3295800Y2222500D02*
D03*
X1149500Y1968500D02*
D03*
Y3238500D02*
D03*
X2724000Y1689100D02*
D03*
X3486000Y3009900D02*
D03*
X2939900Y3238500D02*
D03*
X1009500Y1968500D02*
D03*
Y2133600D02*
D03*
Y3238500D02*
D03*
X2000400Y4025900D02*
D03*
X2864000Y1689100D02*
D03*
X3155800Y2222500D02*
D03*
X3079900Y3238500D02*
D03*
X2571600Y3759200D02*
D03*
X3626000Y3009900D02*
D03*
X1860400Y4025900D02*
D03*
X1149500Y2133600D02*
D03*
D15*
X1732700Y4734600D02*
D03*
X1357700D02*
D03*
X1482700D02*
D03*
X1607700D02*
D03*
D16*
X532300Y3668808D02*
D03*
Y1774492D02*
D03*
Y1399492D02*
D03*
Y3418808D02*
D03*
Y3543808D02*
D03*
Y1524492D02*
D03*
Y1649492D02*
D03*
D17*
X2827600Y2479200D02*
D03*
X1277600Y3079200D02*
D03*
Y2029200D02*
D03*
Y3179200D02*
D03*
X2827600Y3229200D02*
D03*
X1277600Y2929200D02*
D03*
X2827600Y2729200D02*
D03*
X1277600Y2079200D02*
D03*
Y3229200D02*
D03*
X2827600Y3179200D02*
D03*
Y2629200D02*
D03*
Y2179200D02*
D03*
Y2229200D02*
D03*
Y2129200D02*
D03*
Y2379200D02*
D03*
X1277600Y2579200D02*
D03*
Y3129200D02*
D03*
X2827600Y2579200D02*
D03*
Y2529200D02*
D03*
Y2829200D02*
D03*
Y2029200D02*
D03*
Y2979200D02*
D03*
X1277600Y3029200D02*
D03*
X2827600Y2279200D02*
D03*
X1277600Y2129200D02*
D03*
X2827600Y2079200D02*
D03*
X1277600Y2329200D02*
D03*
Y2229200D02*
D03*
X2827600Y2679200D02*
D03*
X1277600Y2179200D02*
D03*
X2827600Y2329200D02*
D03*
Y2929200D02*
D03*
X1277600Y2979200D02*
D03*
Y2529200D02*
D03*
Y2429200D02*
D03*
X2827600Y2879200D02*
D03*
X1277600Y2629200D02*
D03*
X2827600Y3129200D02*
D03*
Y3079200D02*
D03*
Y3029200D02*
D03*
Y2779200D02*
D03*
X1277600Y2279200D02*
D03*
Y2379200D02*
D03*
Y2679200D02*
D03*
Y2729200D02*
D03*
Y2779200D02*
D03*
Y2829200D02*
D03*
Y2879200D02*
D03*
X2827600Y2429200D02*
D03*
X1277600Y2479200D02*
D03*
D18*
X1640078Y3669894D02*
D03*
Y3619906D02*
D03*
X1814322D02*
D03*
Y3669894D02*
D03*
D19*
X1562100Y3828900D02*
D03*
X1727200D02*
D03*
X2260600Y3549500D02*
D03*
X2425700D02*
D03*
X3162300Y3625700D02*
D03*
X1524000Y3702200D02*
D03*
X1562100Y3968900D02*
D03*
X2260600Y3689500D02*
D03*
X1727200Y3968900D02*
D03*
X2261108Y3956200D02*
D03*
X2590800Y1593700D02*
D03*
X2425700Y3689500D02*
D03*
X3162300Y3765700D02*
D03*
X2590800Y1733700D02*
D03*
X2261108Y3816200D02*
D03*
X1524000Y3562200D02*
D03*
D20*
X1677213Y3731819D02*
D03*
Y3557981D02*
D03*
X1727200Y3731819D02*
D03*
X1777213D02*
D03*
X1727200Y3557981D02*
D03*
X1777213D02*
D03*
D21*
X2152600Y3404200D02*
D03*
X2402600D02*
D03*
X2652600Y1854200D02*
D03*
X1752600Y3404200D02*
D03*
X2202600D02*
D03*
X2602600Y1854200D02*
D03*
X2652600Y3404200D02*
D03*
X2502600D02*
D03*
X2452600D02*
D03*
X2552600D02*
D03*
X2152600Y1854200D02*
D03*
X2202600D02*
D03*
X1852600D02*
D03*
X2302600D02*
D03*
X2102600D02*
D03*
X1902600D02*
D03*
X1952600D02*
D03*
X2052600Y3404200D02*
D03*
X1452600D02*
D03*
X2552600Y1854200D02*
D03*
X2102600Y3404200D02*
D03*
X1552600D02*
D03*
X2002600D02*
D03*
X2402600Y1854200D02*
D03*
X2002600D02*
D03*
X1452600D02*
D03*
X1602600D02*
D03*
X1552600D02*
D03*
X2452600D02*
D03*
X1702600Y3404200D02*
D03*
X1652600D02*
D03*
X1702600Y1854200D02*
D03*
X1902600Y3404200D02*
D03*
X1502600D02*
D03*
X2502600Y1854200D02*
D03*
X1652600D02*
D03*
X1502600D02*
D03*
X1802600Y3404200D02*
D03*
X1852600D02*
D03*
X1602600D02*
D03*
X2352600Y1854200D02*
D03*
X2252600D02*
D03*
X2052600D02*
D03*
X1802600D02*
D03*
X1752600D02*
D03*
X1952600Y3404200D02*
D03*
X2252600D02*
D03*
X2302600D02*
D03*
X2352600D02*
D03*
X2602600D02*
D03*
D22*
X2591800Y3619500D02*
D03*
X3137900Y1270508D02*
D03*
X3090897Y1639506D02*
D03*
X2960100Y3390900D02*
D03*
X801100Y1143000D02*
D03*
X926100D02*
D03*
X3364500Y3009900D02*
D03*
X3239500D02*
D03*
X1180100Y1143000D02*
D03*
X1434100D02*
D03*
X2704100D02*
D03*
X1942100D02*
D03*
X1688100D02*
D03*
X2196100D02*
D03*
X3085100Y3390900D02*
D03*
X2450100Y1143000D02*
D03*
X2716800Y3619500D02*
D03*
X1563100Y1143000D02*
D03*
X1055100D02*
D03*
X1309100D02*
D03*
X2071100D02*
D03*
X2579100D02*
D03*
X2325100D02*
D03*
X1817100D02*
D03*
X3215897Y1639506D02*
D03*
X3262900Y1270508D02*
D03*
D23*
X3619754Y3251200D02*
D03*
X3212592D02*
D03*
D24*
X3026303Y3630700D02*
D03*
D25*
X212300Y1214492D02*
D03*
Y1959492D02*
D03*
Y3233808D02*
D03*
Y3853808D02*
D03*
D26*
X288700Y3048000D02*
D03*
X289208Y2184400D02*
D03*
Y2400300D02*
D03*
X288700Y2832100D02*
D03*
X289208Y2616200D02*
D03*
X498700Y3048000D02*
D03*
Y2832100D02*
D03*
X499208Y2616200D02*
D03*
Y2400300D02*
D03*
Y2184400D02*
D03*
D27*
X1172700Y5054600D02*
D03*
X1917700D02*
D03*
D28*
X1939300Y3623800D02*
D03*
X2099300Y3843800D02*
D03*
X1939300D02*
D03*
X2099300Y3623800D02*
D03*
D29*
X2379980Y4673600D02*
D03*
X3258820D02*
D03*
D30*
X3014200Y1460500D02*
D03*
X3234200Y1395500D02*
D03*
Y1525500D02*
D03*
D31*
X3381997Y1178598D02*
D03*
Y1818602D02*
D03*
Y1258608D02*
D03*
Y1738617D02*
D03*
D32*
X3975100Y2171700D02*
D03*
Y2916700D02*
D03*
X3978700Y3405242D02*
D03*
Y4150242D02*
D03*
D33*
X2921000Y3695700D02*
D03*
D34*
X3381997Y1523606D02*
D03*
Y1423606D02*
D03*
Y1573594D02*
D03*
Y1473594D02*
D03*
Y1323607D02*
D03*
Y1623606D02*
D03*
Y1673619D02*
D03*
Y1373619D02*
D03*
D35*
X3911600Y2329603D02*
Y2743200D01*
X3708400Y2946400D02*
X3911600Y2743200D01*
X3810000Y2228003D02*
X3911600Y2329603D01*
X3708400Y2946400D02*
Y3037826D01*
X3638520Y3107706D02*
X3708400Y3037826D01*
X2709362Y1587500D02*
X2796600D01*
X2633162Y1663700D02*
X2709362Y1587500D01*
X1352300Y3294064D02*
X1431320Y3215043D01*
X1352300Y3294064D02*
Y4413000D01*
X990601Y3393500D02*
X997795Y3386306D01*
Y3250205D02*
Y3386306D01*
Y3250205D02*
X1009500Y3238500D01*
X1352300Y4413000D02*
X1473200Y4533900D01*
X1431320Y3215043D02*
X1500543D01*
X3603400Y2104800D02*
X3797300Y2298700D01*
X3171397Y2104800D02*
X3603400D01*
X3797300Y2298700D02*
Y2768600D01*
X3644900Y1981200D02*
X3810000Y2146300D01*
Y2228003D01*
X3644900Y825500D02*
Y1981200D01*
X3489307Y2317866D02*
Y2441593D01*
X3482113Y2310672D02*
X3489307Y2317866D01*
X3098100Y2178097D02*
X3171397Y2104800D01*
X3289300Y2641600D02*
X3489307Y2441593D01*
X1009500Y2133600D02*
X1011250Y2135350D01*
Y2179576D01*
X1013000Y2181326D01*
X524608Y2616200D02*
X596900D01*
X499208Y2184400D02*
X596900D01*
X536800Y2819400D02*
X596900D01*
X499208Y2400300D02*
X596900D01*
X524100Y3048000D02*
X609600D01*
X524100Y2832100D02*
X536800Y2819400D01*
X2725076Y2479200D02*
X2827600D01*
X2626794Y2319480D02*
Y2380918D01*
X2725076Y2479200D01*
X2619600Y2312286D02*
X2626794Y2319480D01*
X2105945Y2841346D02*
Y2910555D01*
X2082800Y2818201D02*
X2105945Y2841346D01*
X2082800Y2808027D02*
Y2818201D01*
X1277600Y3079200D02*
X1432248D01*
X1687174Y3076500D02*
X1687474Y3076800D01*
X1434948Y3076500D02*
X1687174D01*
X1939700Y3076800D02*
X2105945Y2910555D01*
X1432248Y3079200D02*
X1434948Y3076500D01*
X1687474Y3076800D02*
X1939700D01*
X1139500Y1958500D02*
X1149500Y1968500D01*
X1207900Y2026900D02*
X1275300D01*
X1149500Y1968500D02*
X1207900Y2026900D01*
X1275300D02*
X1277600Y2029200D01*
X1401500Y2929200D02*
X1511300Y2819400D01*
X2006600D01*
X1277600Y2929200D02*
X1401500D01*
X2825300Y2726900D02*
X2827600Y2729200D01*
X2727974Y2708012D02*
X2746863Y2726900D01*
X2825300D01*
X2585294Y2709705D02*
X2611882D01*
X2578100Y2716900D02*
X2585294Y2709705D01*
X2611882D02*
X2613575Y2708012D01*
X2727974D01*
X637526Y1371600D02*
X647700D01*
X532300Y1399492D02*
X549600Y1382192D01*
X626933D01*
X637526Y1371600D01*
X1279400Y2081000D02*
X1369800D01*
X1277600Y2079200D02*
X1279400Y2081000D01*
X1369800D02*
X1371600Y2082800D01*
X1677213Y3557981D02*
X1679513Y3560281D01*
Y3587239D01*
X1687778Y3595504D01*
Y3641950D01*
X1727200Y3731819D02*
X1729500Y3729519D01*
X1752600Y3404200D02*
X1754900Y3401900D01*
X1687778Y3641950D02*
X1736639Y3690811D01*
X1764900Y3334797D02*
Y3346900D01*
X1754900Y3356900D02*
Y3401900D01*
Y3356900D02*
X1764900Y3346900D01*
X1729500Y3699205D02*
X1736639Y3692066D01*
X1729500Y3699205D02*
Y3729519D01*
X1736639Y3690811D02*
Y3692066D01*
X1727200Y3731819D02*
X1777213D01*
X1797350Y3302347D02*
X1798750D01*
X1764900Y3334797D02*
X1797350Y3302347D01*
X2222500Y3302000D02*
Y3312174D01*
X2204900Y3329775D02*
X2222500Y3312174D01*
X2202600Y3404200D02*
X2204900Y3401900D01*
Y3329775D02*
Y3401900D01*
X2211884Y4005424D02*
X2261108Y3956200D01*
X2348506Y3777406D02*
X2393106D01*
X2260600Y3689500D02*
X2348506Y3777406D01*
X2208674Y4005424D02*
X2211884D01*
X2600300Y1856500D02*
Y1929450D01*
X2592600Y1937150D02*
Y1947325D01*
Y1937150D02*
X2600300Y1929450D01*
Y1856500D02*
X2602600Y1854200D01*
X2943730Y1397000D02*
Y1407174D01*
X2964394Y1427839D01*
Y1438194D02*
X2986700Y1460500D01*
X2964394Y1427839D02*
Y1438194D01*
X2986700Y1460500D02*
X3014200D01*
X3159050Y2225750D02*
Y2363150D01*
X3155800Y2222500D02*
X3159050Y2225750D01*
X3009900Y2730500D02*
Y2740674D01*
X3035300Y2766074D02*
Y2934410D01*
X3159050Y2363150D02*
X3162300Y2366400D01*
X3009900Y2740674D02*
X3035300Y2766074D01*
X3210507Y2277208D02*
X3222006D01*
X3229200Y2284402D01*
X3655100Y2731700D02*
X3710100D01*
X2829900Y3176900D02*
X2900014D01*
X2914914Y3162000D02*
X2925089D01*
X2900014Y3176900D02*
X2914914Y3162000D01*
X2407494Y3707706D02*
X2425700Y3689500D01*
X2827600Y3179200D02*
X2829900Y3176900D01*
X2435874Y3759200D02*
X2571600D01*
X3035300Y2934410D02*
X3065884Y2964994D01*
Y3006106D01*
X3073079Y3013300D01*
X3106740Y3706299D02*
X3107097D01*
X3052339Y3760700D02*
X3106740Y3706299D01*
X3107097D02*
Y3710497D01*
X2407494Y3707706D02*
Y3777406D01*
X2393106D02*
X2400300Y3784600D01*
X2407494Y3777406D01*
X2410474Y3784600D02*
X2435874Y3759200D01*
X2400300Y3784600D02*
X2410474D01*
X3156704Y3771296D02*
Y3880028D01*
X3107097Y3710497D02*
X3162300Y3765700D01*
X3156704Y3771296D02*
X3162300Y3765700D01*
X3606800Y2921000D02*
X3613994Y2928194D01*
Y2997894D01*
X3626000Y3009900D01*
X3151108Y3885624D02*
X3156704Y3880028D01*
X1562100Y3968900D02*
X1584400Y3991200D01*
X1618826D01*
X1640826Y4013200D01*
X1704900Y3991200D02*
X1727200Y3968900D01*
X1683174Y3991200D02*
X1704900D01*
X1661174Y4013200D02*
X1683174Y3991200D01*
X1640826Y4013200D02*
X1661174D01*
X2172715Y2809290D02*
X2182890D01*
X2218400Y2844800D01*
X2738542Y2629200D02*
X2827600D01*
X2218400Y2844800D02*
X2333976D01*
X2384325Y2668662D02*
X2399600Y2653387D01*
X2333976Y2844800D02*
X2384325Y2794451D01*
Y2668662D02*
Y2794451D01*
X2706294Y2600012D02*
X2709353D01*
X2738542Y2629200D01*
X2395148Y2578100D02*
X2399600Y2582552D01*
Y2653387D01*
X3600527Y3485498D02*
X3607722Y3492693D01*
X3574398Y3485498D02*
X3600527D01*
X3378200Y3289300D02*
X3574398Y3485498D01*
X3329604Y3761341D02*
X3329832Y3761569D01*
X3329604Y3697885D02*
X3352008Y3675481D01*
X3329604Y3697885D02*
Y3761341D01*
X3244700Y3581305D02*
Y3592414D01*
X3219395Y3556000D02*
X3244700Y3581305D01*
X3293172Y3640887D02*
Y3649223D01*
X3244700Y3592414D02*
X3293172Y3640887D01*
X3229444Y3508844D02*
X3352008Y3631408D01*
X2965942Y3508844D02*
X3229444D01*
X3352008Y3631408D02*
Y3675481D01*
X3268794Y3450691D02*
X3387408Y3569305D01*
X3460792Y3715242D02*
X3658700D01*
X3387408Y3569305D02*
Y3641858D01*
X3137412Y3450691D02*
X3268794D01*
X3387408Y3641858D02*
X3460792Y3715242D01*
X3311746Y3404164D02*
X3552482Y3644900D01*
X3311746Y3151779D02*
Y3404164D01*
X3552482Y3644900D02*
X3735461D01*
X1852459Y1776259D02*
Y1854059D01*
X1104900Y1409700D02*
X1485900D01*
X1852459Y1776259D01*
X1600793Y1601243D02*
X1652600Y1653050D01*
Y1854200D01*
X1852459Y1854059D02*
X1852600Y1854200D01*
X1602600Y1704200D02*
Y1854200D01*
X1422892Y1524492D02*
X1602600Y1704200D01*
X532300Y1524492D02*
X1422892D01*
X3166437Y3102200D02*
X3201137Y3136900D01*
X3365946Y3146285D02*
Y3216331D01*
X3378200Y3228585D01*
X3201137Y3136900D02*
X3296867D01*
X3371412Y3075100D02*
X3425600Y3129288D01*
X3296867Y3136900D02*
X3311746Y3151779D01*
X3192597Y3075100D02*
X3371412D01*
X3425600Y3129288D02*
Y3233548D01*
X3085328Y3102200D02*
X3166437D01*
X3099250Y2666550D02*
X3107980D01*
X3132929Y2641600D02*
X3289300D01*
X3107980Y2666550D02*
X3132929Y2641600D01*
X2449348Y2791512D02*
X2454619Y2796782D01*
X2484748Y2205348D02*
Y2750261D01*
X2204900Y1925500D02*
X2484748Y2205348D01*
X2154900Y1989800D02*
X2449348Y2284248D01*
Y2791512D01*
X2484748Y2750261D02*
X2540987Y2806500D01*
X2523900Y2694449D02*
X2633694Y2584655D01*
X2645000D01*
X2683844Y2545812D01*
X2523900Y2694449D02*
Y2739350D01*
X926100Y1143000D02*
Y1230900D01*
X1104900Y1409700D01*
X532300Y1649492D02*
X1420892D01*
X1453750Y1761300D02*
Y1853050D01*
X1550300Y1778900D02*
Y1851900D01*
X1452600Y1854200D02*
X1453750Y1853050D01*
X1420892Y1649492D02*
X1550300Y1778900D01*
X1453750Y1761300D02*
X1454900Y1760150D01*
X1550300Y1851900D02*
X1552600Y1854200D01*
X1279700Y2177100D02*
X1364864D01*
X1277600Y2229200D02*
X1428400D01*
X1277600Y2179200D02*
X1279700Y2177100D01*
X1364864D02*
X1366964Y2175000D01*
X1428400Y2229200D02*
X1435100Y2222500D01*
X1466300Y3517797D02*
Y4019000D01*
X1612900Y4165600D01*
X1473200Y4533900D02*
Y4751697D01*
X2716800Y3619500D02*
X2741600Y3594700D01*
Y3570300D02*
X2772000Y3539900D01*
X2741600Y3570300D02*
Y3594700D01*
X2772000Y3539900D02*
X2946935D01*
X2963035Y3556000D01*
X3219395D01*
X3175000Y812800D02*
Y838200D01*
X3276889Y710911D02*
X3530311D01*
X3175000Y812800D02*
X3276889Y710911D01*
X1854200Y3928900D02*
Y4040413D01*
X1939300Y3843800D02*
Y3856300D01*
X1894500Y3901100D02*
X1939300Y3856300D01*
X1882000Y3901100D02*
X1894500D01*
X1854200Y3928900D02*
X1882000Y3901100D01*
X1466300Y3517797D02*
X1488397Y3495700D01*
X1568203D01*
X1439057Y3345657D02*
X1452600Y3359200D01*
X1439057Y3340745D02*
Y3345657D01*
X1452600Y3359200D02*
Y3404200D01*
X1612900Y4165600D02*
Y4784758D01*
X1729500Y3596561D02*
X1741978Y3609039D01*
Y3619214D01*
X1729500Y3560281D02*
Y3596561D01*
X1793936Y3531258D02*
X1797052D01*
X1777213Y3547981D02*
Y3557981D01*
Y3547981D02*
X1793936Y3531258D01*
X2289026Y3260874D02*
X2355600D01*
X2286000Y3263900D02*
X2289026Y3260874D01*
X2355600D02*
X2407059Y3209415D01*
Y3206191D02*
X2454350Y3158900D01*
X2407059Y3206191D02*
Y3209415D01*
X2652600Y3223650D02*
Y3404200D01*
X2454350Y3158900D02*
X2587850D01*
X2652600Y3223650D01*
X2502600Y3404200D02*
X2504900Y3401900D01*
Y3312204D02*
Y3401900D01*
Y3312204D02*
X2512083Y3305022D01*
X2450300Y3401900D02*
X2452600Y3404200D01*
X2450300Y3330064D02*
Y3401900D01*
X2439135Y3318899D02*
X2450300Y3330064D01*
X2439135Y3308724D02*
Y3318899D01*
X2566283Y3265941D02*
X2570704Y3261519D01*
X2566283Y3265941D02*
Y3327472D01*
X2552600Y3359200D02*
Y3404200D01*
X2554900Y3338855D02*
Y3356900D01*
X2552600Y3359200D02*
X2554900Y3356900D01*
Y3338855D02*
X2566283Y3327472D01*
X2639147Y2796996D02*
Y2936628D01*
X2610202Y2965573D02*
X2639147Y2936628D01*
X2540987Y2806500D02*
X2555973D01*
X2610202Y2965573D02*
Y3105205D01*
X2555973Y2806500D02*
X2574773Y2825300D01*
X2613250Y2771100D02*
X2639147Y2796996D01*
X2610202Y3105205D02*
X2731200Y3226203D01*
X2574773Y2825300D02*
X2584947D01*
X3043900Y2099669D02*
Y2184400D01*
X3238500Y2019300D02*
X3342626D01*
X3066350Y2238600D02*
X3098100Y2206850D01*
X2930199Y2270249D02*
X2975100D01*
X3124269Y2019300D02*
X3238500D01*
X3098100Y2178097D02*
Y2206850D01*
X2891450Y2231500D02*
X2930199Y2270249D01*
X3006749Y2238600D02*
X3066350D01*
X3043900Y2099669D02*
X3124269Y2019300D01*
X2975100Y2270249D02*
X3006749Y2238600D01*
X3368026Y2044700D02*
X3378200D01*
X3342626Y2019300D02*
X3368026Y2044700D01*
X2903150Y1863500D02*
X2957747D01*
X2982426Y1888179D01*
X2992600D01*
X2871400Y1895250D02*
Y2026900D01*
X2924993Y1918307D02*
X2925600Y1917700D01*
X2924993Y1918307D02*
Y2038910D01*
X2871400Y1895250D02*
X2903150Y1863500D01*
X2827600Y2029200D02*
X2869100D01*
X2871400Y2026900D01*
X2897003Y2066900D02*
X2924993Y2038910D01*
X2909826Y2183400D02*
X2942474Y2216049D01*
X2952649D01*
X2891324Y2331500D02*
X2905924Y2346100D01*
X2945413D01*
X2891387Y2281500D02*
X2918587Y2308700D01*
X2829900Y2231500D02*
X2891450D01*
X2829900Y2331500D02*
X2891324D01*
X2918587Y2308700D02*
X2986712D01*
X2887449Y2183400D02*
X2909826D01*
X2829900Y2281500D02*
X2891387D01*
X2829900Y2181500D02*
X2885549D01*
X2887449Y2183400D01*
X2827600Y2129200D02*
X2909899D01*
X2945413Y2346100D02*
X2965713Y2366400D01*
X2986712Y2308700D02*
X3014212Y2281200D01*
X2965713Y2366400D02*
X3035300D01*
X2829900Y2381500D02*
X2901750D01*
X3050950Y2530700D01*
X3110625D01*
X1181100Y2540000D02*
X1191274D01*
X1199775Y2531500D01*
X1230300D01*
X1232600Y2529200D02*
X1277600D01*
X1230300Y2531500D02*
X1232600Y2529200D01*
X1538507Y2152870D02*
X1554104Y2168467D01*
X1564279D01*
X1495200Y1968975D02*
Y2121155D01*
X1526915Y2152870D02*
X1538507D01*
X1495200Y2121155D02*
X1526915Y2152870D01*
X1629594Y2015306D02*
X1702600Y1942300D01*
X1562100Y2022500D02*
X1569294Y2015306D01*
X1629594D01*
X1600300Y3406500D02*
Y3451500D01*
X1627778Y3617606D02*
X1637778D01*
X1568203Y3495700D02*
X1590300Y3473603D01*
X1617015Y3588594D02*
Y3606843D01*
X1590300Y3461500D02*
Y3473603D01*
X1617015Y3606843D02*
X1627778Y3617606D01*
X1524000Y3562200D02*
X1546300Y3539900D01*
X1650300Y3356900D02*
Y3463665D01*
X1574066Y3539900D02*
X1650300Y3463665D01*
X1637778Y3617606D02*
X1640078Y3619906D01*
X1600300Y3406500D02*
X1602600Y3404200D01*
X1546300Y3539900D02*
X1574066D01*
X1590300Y3461500D02*
X1600300Y3451500D01*
X1609821Y3581400D02*
X1617015Y3588594D01*
X1500543Y3215043D02*
X1574863Y3289363D01*
Y3324834D01*
X1799100Y3026900D02*
X1803400Y3022600D01*
X1279900Y3026900D02*
X1799100D01*
X1791318Y3229738D02*
X1876138D01*
X1791307Y3229727D02*
X1791318Y3229738D01*
X2759832Y2576900D02*
X2825300D01*
X2728744Y2545812D02*
X2759832Y2576900D01*
X2683844Y2545812D02*
X2715997D01*
X2728744D01*
X2558697Y1663700D02*
X2633162D01*
X2502600Y1719797D02*
X2558697Y1663700D01*
X1446700Y2579200D02*
X1803400Y2222500D01*
X1277600Y2579200D02*
X1446700D01*
X1803400Y2222500D02*
X2146300D01*
X3098368Y2819832D02*
X3098800Y2819400D01*
X3098368Y2933461D02*
X3141507Y2976600D01*
X3098368Y2819832D02*
Y2933461D01*
X3098800Y2742750D02*
Y2819400D01*
X2897550Y2541500D02*
X3098800Y2742750D01*
X3141507Y2976600D02*
X3147421D01*
X3162300Y2991479D01*
Y2997393D02*
X3178400Y3013493D01*
X3162300Y2991479D02*
Y2997393D01*
X2983479Y3008795D02*
Y3059679D01*
X2906184Y2931500D02*
X2983479Y3008795D01*
X2906247Y2881500D02*
X3018879Y2994132D01*
Y3035750D01*
X3085328Y3102200D01*
X2983479Y3059679D02*
X3096100Y3172300D01*
X3213325Y2514825D02*
X3276375Y2577875D01*
X3126500Y2514825D02*
X3213325D01*
X3162300Y2857500D02*
Y2927700D01*
Y2857500D02*
X3535409Y2484391D01*
X3631309D02*
X3642400Y2473300D01*
X3366100Y2451600D02*
X3416300Y2401400D01*
X3098800Y2408893D02*
X3141507Y2451600D01*
X3366100D01*
X3581400Y3114900D02*
X3588594Y3107706D01*
X3425600Y3233548D02*
X3621052Y3429000D01*
X3588594Y3107706D02*
X3638520D01*
X3096100Y3172300D02*
X3125183D01*
X3621052Y3429000D02*
X3797300D01*
X3110625Y2530700D02*
X3126500Y2514825D01*
X2555650Y2771100D02*
X2613250D01*
X2523900Y2739350D02*
X2555650Y2771100D01*
X2731200Y3226203D02*
Y3274103D01*
X2884900Y2541500D02*
X2897550D01*
X2827600Y2179200D02*
X2829900Y2181500D01*
X2827600Y2229200D02*
X2829900Y2231500D01*
X2154900Y1856500D02*
Y1989800D01*
X2152600Y1854200D02*
X2154900Y1856500D01*
X2204900D02*
Y1925500D01*
X2202600Y1854200D02*
X2204900Y1856500D01*
X2827600Y2379200D02*
X2829900Y2381500D01*
X2502806Y2069194D02*
X2510000Y2062000D01*
X2552749D01*
X2595628Y2019121D02*
X2605802D01*
X2552749Y2062000D02*
X2595628Y2019121D01*
X3178400Y3013493D02*
Y3060903D01*
X3192597Y3075100D01*
X2897003Y2816900D02*
X2926506Y2787397D01*
X2872600Y2829200D02*
X2884900Y2816900D01*
X2897003D01*
X2926506Y2742594D02*
Y2787397D01*
Y2742594D02*
X2933700Y2735400D01*
X2827600Y2829200D02*
X2872600D01*
X3378200Y3228585D02*
Y3289300D01*
X2917868Y2653507D02*
X2928043D01*
X2829900Y2676900D02*
X2894475D01*
X2917868Y2653507D01*
X2181450Y2130200D02*
X2330415Y2279164D01*
Y2771710D01*
X2330125Y2772000D02*
X2330415Y2771710D01*
X2827600Y2679200D02*
X2829900Y2676900D01*
X3098800Y2323906D02*
Y2408893D01*
X3056093Y2281200D02*
X3098800Y2323906D01*
X3014212Y2281200D02*
X3056093D01*
X2884900Y2066900D02*
X2897003D01*
X2829900Y2076900D02*
X2874900D01*
X2884900Y2066900D01*
X2827600Y2079200D02*
X2829900Y2076900D01*
X1727200Y3557981D02*
X1729500Y3560281D01*
X2825300Y2576900D02*
X2827600Y2579200D01*
X2731200Y3274103D02*
X2916500Y3459403D01*
X2921000Y3072600D02*
X3009900Y3161500D01*
Y3328597D01*
X3020300Y3412826D02*
X3024900Y3417426D01*
X3009900Y3328597D02*
X3020300Y3338997D01*
Y3412826D01*
X3024900Y3417426D02*
Y3442803D01*
X3038197Y3456100D01*
X2948250Y3494076D02*
X2951174D01*
X2916500Y3462326D02*
X2948250Y3494076D01*
X2951174D02*
X2965942Y3508844D01*
X2916500Y3459403D02*
Y3462326D01*
X3038197Y3456100D02*
X3132003D01*
X1180100Y1143000D02*
Y1243600D01*
X1282700Y1346200D01*
X1562100D01*
X1854900Y3329024D02*
X1871749Y3312174D01*
X1876138Y3229738D02*
X1925949Y3279550D01*
X1871749Y3302000D02*
Y3312174D01*
X1925949Y3279550D02*
Y3323748D01*
X1902600Y3404200D02*
X1904900Y3401900D01*
Y3356900D02*
X1914900Y3346900D01*
Y3334797D02*
X1925949Y3323748D01*
X1852600Y3404200D02*
X1854900Y3401900D01*
X1914900Y3334797D02*
Y3346900D01*
X1854900Y3329024D02*
Y3401900D01*
X1904900Y3356900D02*
Y3401900D01*
X1564900Y3334797D02*
X1574863Y3324834D01*
X1629063Y3276776D02*
Y3286950D01*
X1640300Y3298187D02*
Y3346900D01*
X1629063Y3286950D02*
X1640300Y3298187D01*
X1564900Y3334797D02*
Y3346900D01*
X1554900Y3356900D02*
X1564900Y3346900D01*
X1552600Y3404200D02*
X1554900Y3401900D01*
Y3356900D02*
Y3401900D01*
X2426799Y1484802D02*
X2514600Y1397000D01*
X2221402Y1484802D02*
X2426799D01*
X2514600Y1397000D02*
X2789931D01*
X2199321Y1208721D02*
X2412775Y1422175D01*
X2401800Y1590359D02*
X2509658Y1482500D01*
X2530700Y1533300D02*
X2822343D01*
X2452600Y1611400D02*
Y1854200D01*
Y1611400D02*
X2530700Y1533300D01*
X2401800Y1590359D02*
Y1853400D01*
X2509658Y1482500D02*
X2843385D01*
X2502600Y1719797D02*
Y1854200D01*
X2401800Y1853400D02*
X2402600Y1854200D01*
X1275300Y3126900D02*
X1277600Y3129200D01*
X1028700Y3086100D02*
X1166234D01*
X749300Y3365500D02*
X1028700Y3086100D01*
X1166234D02*
X1207034Y3126900D01*
X1275300D01*
X640521Y3537779D02*
X749300Y3429000D01*
X538329Y3537779D02*
X640521D01*
X532300Y3543808D02*
X538329Y3537779D01*
X749300Y3365500D02*
Y3429000D01*
X2827600Y2529200D02*
X2829900Y2531500D01*
X2874900D01*
X2884900Y2541500D01*
X2667000Y1308100D02*
X3029906D01*
X3072191Y1350385D02*
X3082365D01*
X3029906Y1308100D02*
X3072191Y1350385D01*
X1556100Y1270000D02*
X1651000D01*
X1952600Y1571600D02*
Y1854200D01*
X1651000Y1270000D02*
X1952600Y1571600D01*
X1562100Y1346200D02*
X1900300Y1684400D01*
X1942100Y1143000D02*
X1945321Y1146221D01*
Y1208721D01*
X2221402Y1484802D01*
X2070100Y1525000D02*
Y1701800D01*
X1688100Y1148000D02*
X1712900Y1172800D01*
X1717900D01*
X1688100Y1143000D02*
Y1148000D01*
X1717900Y1172800D02*
X2070100Y1525000D01*
X1434100Y1148000D02*
X1556100Y1270000D01*
X1434100Y1143000D02*
Y1148000D01*
X2196100Y1143000D02*
X2199321Y1146221D01*
Y1208721D01*
X2704100Y1143000D02*
Y1148000D01*
X2607275Y1244825D02*
X2704100Y1148000D01*
X2527075Y1244825D02*
X2607275D01*
X2325100Y1138000D02*
Y1143000D01*
Y1138000D02*
X2363203Y1099897D01*
Y1014997D02*
Y1099897D01*
Y1014997D02*
X2387600Y990600D01*
X2071100Y1062400D02*
Y1143000D01*
Y1062400D02*
X2133600Y999900D01*
Y990600D02*
Y999900D01*
X1817100Y1062400D02*
Y1143000D01*
Y1062400D02*
X1879600Y999900D01*
Y990600D02*
Y999900D01*
X1563100Y1062400D02*
Y1143000D01*
Y1062400D02*
X1625600Y999900D01*
Y990600D02*
Y999900D01*
X1309100Y1062400D02*
Y1143000D01*
Y1062400D02*
X1371600Y999900D01*
Y990600D02*
Y999900D01*
X1055100Y1062400D02*
Y1143000D01*
Y1062400D02*
X1117600Y999900D01*
Y990600D02*
Y999900D01*
X863600Y990600D02*
Y999900D01*
X801100Y1062400D02*
X863600Y999900D01*
X801100Y1062400D02*
Y1143000D01*
X1640300Y3346900D02*
X1650300Y3356900D01*
X1277600Y3029200D02*
X1279900Y3026900D01*
X2802632Y1409701D02*
X2870201D01*
X2872232Y1411732D01*
X2789931Y1397000D02*
X2802632Y1409701D01*
X3784600Y3694039D02*
Y3769342D01*
X3713700Y3840242D02*
X3784600Y3769342D01*
X3658700Y3840242D02*
X3713700D01*
X3735461Y3644900D02*
X3784600Y3694039D01*
X2741600Y3644300D02*
Y3680821D01*
X2756479Y3695700D02*
X2815697D01*
X2741600Y3680821D02*
X2756479Y3695700D01*
X2716800Y3619500D02*
X2741600Y3644300D01*
X935075Y3027775D02*
X940954D01*
X987229Y2981500D02*
X1275300D01*
X940954Y3027775D02*
X987229Y2981500D01*
X1275300D02*
X1277600Y2979200D01*
X2102600Y2051800D02*
X2181000Y2130200D01*
X2181450D01*
X2102600Y1854200D02*
Y2051800D01*
X3132003Y3456100D02*
X3137412Y3450691D01*
X3085100Y3390900D02*
X3163444D01*
X3211978Y3342366D01*
X3530311Y710911D02*
X3644900Y825500D01*
X3283637Y2897063D02*
Y2924037D01*
X3364500Y3004900D01*
Y3009900D01*
X3640779Y2599921D02*
X3642400Y2598300D01*
X3534179Y2599921D02*
X3640779D01*
X3294963Y2839137D02*
X3534179Y2599921D01*
X3294963Y2839137D02*
Y2885736D01*
X3283637Y2897063D02*
X3294963Y2885736D01*
X3535409Y2484391D02*
X3631309D01*
X3162300Y2927700D02*
X3239500Y3004900D01*
Y3009900D01*
X3416300Y2366400D02*
Y2401400D01*
X2827600Y2879200D02*
X2829900Y2881500D01*
X2906247D01*
X2827600Y2329200D02*
X2829900Y2331500D01*
X2827600Y2279200D02*
X2829900Y2281500D01*
Y2931500D02*
X2906184D01*
X1702600Y1854200D02*
Y1942300D01*
X1502600Y1854200D02*
Y1961575D01*
X1495200Y1968975D02*
X1502600Y1961575D01*
X3125183Y3172300D02*
X3204083Y3251200D01*
X3212592D01*
X2906121Y2981500D02*
X2921000Y2996379D01*
X2829900Y2981500D02*
X2906121D01*
X2921000Y2996379D02*
Y3072600D01*
X1900300Y1684400D02*
Y1851900D01*
X1902600Y1854200D01*
X2552600D02*
X2554900Y1851900D01*
Y1769600D02*
Y1851900D01*
Y1769600D02*
X2590800Y1733700D01*
X2144100Y3699192D02*
X2261108Y3816200D01*
X2099300Y3623800D02*
X2144100Y3668600D01*
Y3699192D01*
X2025200Y3276600D02*
Y3286774D01*
X2004900Y3307074D02*
Y3401900D01*
Y3307074D02*
X2025200Y3286774D01*
X2002600Y3404200D02*
X2004900Y3401900D01*
X2827600Y2979200D02*
X2829900Y2981500D01*
X1232600Y2129200D02*
X1277600D01*
X1228200Y2133600D02*
X1232600Y2129200D01*
X1149500Y2133600D02*
X1228200D01*
X2864085Y1503200D02*
X3068174D01*
X2843385Y1482500D02*
X2864085Y1503200D01*
X3068174D02*
X3086587Y1484786D01*
Y1482819D02*
X3134306Y1435100D01*
X3086587Y1482819D02*
Y1484786D01*
X3134306Y1435100D02*
X3184521D01*
X3206700Y1395500D02*
X3261700D01*
X3459697Y1449191D02*
Y1497996D01*
X3446400Y1511294D02*
X3459697Y1497996D01*
X3446400Y1435894D02*
X3459697Y1449191D01*
X3434284Y1435894D02*
X3446400D01*
X3381997Y1523606D02*
X3421997D01*
X3434310Y1511294D02*
X3446400D01*
X3421997Y1523606D02*
X3434310Y1511294D01*
X3421997Y1423606D02*
X3434284Y1435894D01*
X3381997Y1423606D02*
X3421997D01*
X3381088Y1422697D02*
X3381997Y1423606D01*
X3288897Y1422697D02*
X3381088D01*
X3261700Y1395500D02*
X3288897Y1422697D01*
X3184521Y1435100D02*
X3199400Y1420221D01*
Y1402800D02*
X3206700Y1395500D01*
X3199400Y1402800D02*
Y1420221D01*
X1366300Y2331500D02*
X1371600Y2336800D01*
X1279900Y2331500D02*
X1366300D01*
X1277600Y2329200D02*
X1279900Y2331500D01*
X2002600Y1769300D02*
Y1854200D01*
Y1769300D02*
X2070100Y1701800D01*
X2822343Y1533300D02*
X2843043Y1554000D01*
X3089216D01*
X3137387Y1505828D01*
Y1503861D02*
X3155348Y1485900D01*
X3137387Y1503861D02*
Y1505828D01*
X3155348Y1485900D02*
X3184521D01*
X3379697Y1571294D02*
X3381997Y1573594D01*
X3307494Y1571294D02*
X3379697D01*
X3261700Y1525500D02*
X3307494Y1571294D01*
X3206700Y1525500D02*
X3234200D01*
X3269000Y1493491D02*
X3288897Y1473594D01*
X3381997D01*
X3261700Y1525500D02*
X3269000Y1518200D01*
X3199400Y1500779D02*
Y1518200D01*
X3269000Y1493491D02*
Y1518200D01*
X3199400D02*
X3206700Y1525500D01*
X3184521Y1485900D02*
X3199400Y1500779D01*
X1652600Y3404200D02*
X1702600D01*
X2827600Y2929200D02*
X2829900Y2931500D01*
X3211978Y3251814D02*
X3212592Y3251200D01*
X3211978Y3251814D02*
Y3342366D01*
X1277600Y2429200D02*
X1278082Y2429682D01*
X1372737D01*
X1373218Y2430164D01*
X1851252Y3508808D02*
Y3553708D01*
X1826622Y3578338D02*
X1851252Y3553708D01*
X1826622Y3578338D02*
Y3617606D01*
X1824322Y3619906D02*
X1826622Y3617606D01*
X1829345Y3486900D02*
X1851252Y3508808D01*
X1804900Y3463603D02*
X1828197Y3486900D01*
X1804900Y3406500D02*
Y3463603D01*
X1828197Y3486900D02*
X1829345D01*
X1814322Y3619906D02*
X1824322D01*
X1802600Y3404200D02*
X1804900Y3406500D01*
X3287700Y1331412D02*
X3327608Y1371319D01*
X3379697D01*
X3381997Y1373619D01*
X3262900Y1270508D02*
X3287700Y1295308D01*
Y1331412D01*
X3215897Y1639506D02*
X3291497D01*
X3323310Y1671319D01*
X3379697D01*
X3381997Y1673619D01*
D36*
X3492500Y2222500D02*
X3595100Y2325100D01*
X1079500Y2038500D02*
Y2853982D01*
X1130300Y2904782D01*
X1145487Y3155557D02*
X1169131Y3179200D01*
X3595100Y2325100D02*
Y2351700D01*
X3642400D01*
X3295800Y2222500D02*
X3492500D01*
X3289300Y2330047D02*
X3295800Y2323547D01*
X3289300Y2330047D02*
Y2366400D01*
X3295800Y2222500D02*
Y2323547D01*
X1079500Y2038500D02*
X1139500Y1978500D01*
X1130300Y2904782D02*
Y2908300D01*
X1139500Y1958500D02*
Y1978500D01*
X1399706Y3179200D02*
X1442005Y3136900D01*
X1277600Y3179200D02*
X1399706D01*
X1169131Y3179200D02*
X1207356D01*
X1277600D01*
X203200Y3048000D02*
X314100D01*
X2152600Y3404200D02*
X2152600Y3404200D01*
Y3478697D01*
X2178047Y3504144D01*
X2215244D01*
X2260600Y3549500D01*
X2402600Y3404200D02*
Y3526400D01*
X2425700Y3549500D01*
X2526800D01*
X2591800Y3614500D01*
X2642513Y3563787D01*
X3479527Y2886145D02*
X3482857Y2889475D01*
X3486375D01*
X2827600Y3229200D02*
X2832250Y3233850D01*
X2935250D01*
X2936187Y3299795D02*
Y3304412D01*
X2942600Y3241200D02*
Y3293382D01*
X2642513Y3520387D02*
X2645000Y3517900D01*
X2642513Y3520387D02*
Y3563787D01*
X2933700Y3306900D02*
X2936187Y3304412D01*
Y3299795D02*
X2942600Y3293382D01*
X3514900Y3038800D02*
Y3111500D01*
Y3154855D02*
X3611245Y3251200D01*
X3619754D01*
X3162300Y3625700D02*
X3172300Y3635700D01*
X3026303Y3630700D02*
X3028803Y3628200D01*
X3159800D02*
X3162300Y3625700D01*
X3028803Y3628200D02*
X3159800D01*
X3482287Y3112413D02*
X3513987D01*
X3514900Y3111500D01*
X3479800Y3114900D02*
X3482287Y3112413D01*
X2664402Y3079237D02*
Y3082755D01*
X2260600Y3549500D02*
X2425700D01*
X2664402Y3079237D02*
X2717800Y3025838D01*
Y2814500D02*
Y3025838D01*
X1891900Y3136900D02*
X1934200Y3179200D01*
X1442005Y3136900D02*
X1676400D01*
X1752600D01*
X1891900D01*
X3416300Y2925047D02*
X3418610Y2927356D01*
X3434657Y2886145D02*
X3479527D01*
X3416300Y2891400D02*
Y2925047D01*
X3418610Y2927356D02*
X3440059D01*
X3476000Y2963297D01*
Y2999900D01*
X3486000Y3009900D01*
X3514900Y3038800D01*
X2935250Y3233850D02*
X2939900Y3238500D01*
X2942600Y3241200D01*
X3514900Y3111500D02*
Y3154855D01*
X1562100Y3828900D02*
X1689100D01*
X1727200D01*
X1689100Y3810000D02*
Y3828900D01*
X1660011Y3780911D02*
X1689100Y3810000D01*
X1660011Y3699038D02*
Y3780911D01*
X1665281Y3706819D02*
Y3709981D01*
X1652578Y3684578D02*
Y3691604D01*
X1660011Y3699038D01*
X1638300Y3670300D02*
X1652578Y3684578D01*
X1934200Y3179200D02*
X2021845D01*
X2152600Y3309955D01*
Y3404200D01*
X3216796Y3644679D02*
X3220314D01*
X3207817Y3635700D02*
X3216796Y3644679D01*
X3172300Y3635700D02*
X3207817D01*
X203200Y2400300D02*
X314608D01*
X203200Y2184400D02*
X314608D01*
X203200Y2832100D02*
X314100D01*
X203200Y2616200D02*
X314608D01*
X1288587Y4587188D02*
X1352700Y4651300D01*
Y4729600D01*
X1357700Y4734600D01*
X3381997Y1818602D02*
X3406992D01*
X3409493Y1821103D01*
Y1903603D01*
X3155800Y2222500D02*
X3210507Y2277208D01*
X3409493Y1903603D02*
X3436998Y1931109D01*
X3715098Y2736698D02*
X3715100Y2736700D01*
X3654635Y2736698D02*
X3715098D01*
X3715100Y2736700D02*
Y2780822D01*
X3732007Y2797728D01*
Y2801246D01*
X3543300Y3962400D02*
X3544721Y3963821D01*
X3600121Y3965242D02*
X3658700D01*
X3598700Y3963821D02*
X3600121Y3965242D01*
X3544721Y3963821D02*
X3598700D01*
D37*
X3559601Y2252840D02*
X3604114Y2208328D01*
X3803700Y4019500D02*
Y4020095D01*
Y4019500D02*
X3886200Y3937000D01*
X3734395Y4089400D02*
X3803700Y4020095D01*
X3823084Y3572200D02*
X3886200Y3635316D01*
Y3937000D01*
X3416740Y4089400D02*
X3734395D01*
X3035740Y4470400D02*
X3416740Y4089400D01*
X3304464Y3977124D02*
X3416740Y4089400D01*
X2980124Y3977124D02*
X3304464D01*
X3693700Y3572200D02*
X3823084D01*
X2965400Y3962400D02*
X2980124Y3977124D01*
X2925400Y3962400D02*
X2965400D01*
X2853200Y3890200D02*
X2925400Y3962400D01*
X2853200Y3869200D02*
Y3890200D01*
X2737000Y3784600D02*
X2768600D01*
X2853200Y3869200D01*
X2711600Y3759200D02*
X2737000Y3784600D01*
X3363558Y878243D02*
X3367286D01*
X3136901Y1104900D02*
X3363558Y878243D01*
X3407329Y838200D02*
X3429000D01*
X3367286Y878243D02*
X3407329Y838200D01*
X2946400Y1104900D02*
X3136901D01*
X1498600Y4927600D02*
X1587500D01*
X1663700D01*
X1732700Y4858600D01*
X1409700Y4927600D02*
X1498600D01*
X2628900Y4470400D02*
X3035740D01*
X2413000Y4254500D02*
X2628900Y4470400D01*
X2247900Y4254500D02*
X2413000D01*
X1732700Y4769700D02*
Y4858600D01*
Y4769700D02*
X2247900Y4254500D01*
X1732700Y4734600D02*
Y4769700D01*
X2600400Y3927400D02*
X2676400D01*
X2565400Y3962400D02*
X2600400Y3927400D01*
X2676400D02*
X2679700Y3924100D01*
X2622700Y3945100D02*
Y3949700D01*
X2724700Y3942600D02*
X2743200Y3924100D01*
X2622700Y3945100D02*
X2640400Y3927400D01*
X2676400D01*
X2679700Y3942600D02*
X2724700D01*
X2676400Y3927400D02*
X2679700Y3924100D01*
D38*
X596900Y3708400D02*
X660400Y3771900D01*
X698500Y1975692D02*
Y2032000D01*
X569404D02*
X698500D01*
X542300Y1819492D02*
X698500Y1975692D01*
X557308Y3668808D02*
X596900Y3708400D01*
X532300Y3668808D02*
X557308D01*
D39*
X1149500Y3238500D02*
X1207356Y3180644D01*
X2652600Y1854200D02*
Y1989551D01*
X2659802Y1996753D01*
X2652600Y2048690D02*
Y2077080D01*
X2602159Y2127521D02*
X2652600Y2077080D01*
Y2048690D02*
X2659802Y2041488D01*
X2652600Y1760500D02*
Y1854200D01*
Y1760500D02*
X2724000Y1689100D01*
X2659802Y1996753D02*
Y2041488D01*
D40*
X3175000Y1219200D02*
X3175574Y1218626D01*
X3379498Y1181097D02*
X3381997Y1178598D01*
Y1105181D02*
Y1178598D01*
X3178213Y1218626D02*
X3208832Y1188008D01*
X3175574Y1218626D02*
X3178213D01*
X3335889Y1181097D02*
X3379498D01*
X3208832Y1188008D02*
X3328979D01*
X3335889Y1181097D01*
X3381997Y1105181D02*
X3421072Y1066107D01*
X3436996D01*
D41*
X1502600Y3330564D02*
Y3404200D01*
Y3330564D02*
X1514535Y3318629D01*
Y3309700D02*
Y3318629D01*
X2742600Y1970734D02*
Y2066983D01*
X2302600Y1948892D02*
X2537729Y2184021D01*
X2974717Y1738617D02*
X3162300D01*
X2742600Y1970734D02*
X2974717Y1738617D01*
X2625562Y2184021D02*
X2742600Y2066983D01*
X2302600Y1854200D02*
Y1948892D01*
X2537729Y2184021D02*
X2625562D01*
X3162300Y1738617D02*
Y1790700D01*
Y1738617D02*
X3381997D01*
X2450100Y1143000D02*
Y1262413D01*
X2400300Y1312213D02*
X2450100Y1262413D01*
X2400300Y1312213D02*
Y1320800D01*
X2579100Y1064950D02*
Y1143000D01*
Y1064950D02*
X2641600Y1002450D01*
Y990600D02*
Y1002450D01*
X3381997Y1738617D02*
X3394498Y1726117D01*
X3530600Y1364342D02*
Y1549400D01*
X3497397Y1582603D02*
X3530600Y1549400D01*
X3437366Y1271109D02*
X3530600Y1364342D01*
X3497397Y1582603D02*
Y1663574D01*
X3394498Y1271109D02*
X3437366D01*
X3381997Y1258608D02*
X3394498Y1271109D01*
Y1726117D02*
X3434854D01*
X3497397Y1663574D01*
D42*
X1939300Y3831300D02*
X2019300Y3751300D01*
Y3548016D02*
Y3751300D01*
Y3548016D02*
X2052600Y3514716D01*
Y3404200D02*
Y3514716D01*
X1939300Y3831300D02*
Y3843800D01*
X2099300Y3452500D02*
X2102600Y3449200D01*
X2099300Y3452500D02*
Y3623800D01*
X2102600Y3404200D02*
Y3449200D01*
D43*
X3429000Y838200D02*
D03*
X2921000D02*
D03*
X3429000Y584200D02*
D03*
X3175000D02*
D03*
Y838200D02*
D03*
D44*
X838200Y482600D02*
D03*
D45*
X1092200D02*
D03*
X1346200D02*
D03*
X1600200D02*
D03*
X2108200D02*
D03*
X1854200D02*
D03*
X2362200D02*
D03*
X2616200D02*
D03*
X838200Y990600D02*
D03*
X1092200D02*
D03*
X1346200D02*
D03*
X1600200D02*
D03*
X1854200D02*
D03*
X2108200D02*
D03*
X2362200D02*
D03*
X2616200D02*
D03*
X1600200Y736600D02*
D03*
X838200D02*
D03*
X1092200D02*
D03*
X1346200D02*
D03*
X1854200D02*
D03*
X2108200D02*
D03*
X2362200D02*
D03*
X2616200D02*
D03*
D46*
X3436988Y1066101D02*
D03*
Y1931099D02*
D03*
D47*
X3857003Y1066101D02*
D03*
Y1931099D02*
D03*
D48*
X2921000Y584200D02*
D03*
D49*
X3822700Y4902200D02*
D03*
X368300D02*
D03*
X3822700Y381000D02*
D03*
X355600D02*
D03*
D50*
X2796600Y1587500D02*
D03*
X2810558Y1678685D02*
D03*
X1406500Y3644900D02*
D03*
X1079500Y2311400D02*
D03*
X1163908Y2469053D02*
D03*
X1137320Y3143872D02*
D03*
X990601Y3393500D02*
D03*
X3604114Y2208328D02*
D03*
X2768600Y3784600D02*
D03*
X2810275Y3597675D02*
D03*
X2946400Y1104900D02*
D03*
X1498600Y4927600D02*
D03*
X1409700D02*
D03*
X1587500D02*
D03*
X660400Y3771900D02*
D03*
X596900Y3708400D02*
D03*
X698500Y2032000D02*
D03*
X569404D02*
D03*
X3482113Y2310672D02*
D03*
X1013000Y2181326D02*
D03*
Y1987325D02*
D03*
X431800Y1892300D02*
D03*
X3924300Y2984500D02*
D03*
X3915910Y3203495D02*
D03*
X2094948Y2317600D02*
D03*
X1856077Y2346100D02*
D03*
X3470808Y4431388D02*
D03*
X614897Y4496297D02*
D03*
X314898D02*
D03*
X3614897D02*
D03*
X1964897Y4196297D02*
D03*
X3314897Y296299D02*
D03*
X3914896Y896298D02*
D03*
X3014897Y296299D02*
D03*
X314898Y896298D02*
D03*
X3914896Y4496297D02*
D03*
X3764896Y1796298D02*
D03*
X764897Y4196297D02*
D03*
X3764896D02*
D03*
X1964897Y4796297D02*
D03*
X1214897Y896298D02*
D03*
X464897Y4196297D02*
D03*
X1964897Y2396298D02*
D03*
X4064896Y3596298D02*
D03*
X764897Y4796297D02*
D03*
X914897Y4496297D02*
D03*
X764897Y3596298D02*
D03*
X3503767Y4329239D02*
D03*
X2414897Y4496297D02*
D03*
X3764896Y2996298D02*
D03*
X596900Y2819400D02*
D03*
Y2184400D02*
D03*
Y2616200D02*
D03*
Y2400300D02*
D03*
X609600Y3378200D02*
D03*
X650400Y3175096D02*
D03*
X609600Y3048000D02*
D03*
X177800Y2400300D02*
D03*
Y2832100D02*
D03*
Y2616200D02*
D03*
Y3048000D02*
D03*
X2276215Y2451100D02*
D03*
X2619600Y2312286D02*
D03*
X2082800Y2808027D02*
D03*
X1130300Y2908300D02*
D03*
X2602159Y2127521D02*
D03*
X3486375Y2889475D02*
D03*
X2645000Y3517900D02*
D03*
X2933700Y3306900D02*
D03*
X2664402Y3082755D02*
D03*
X3479800Y3114900D02*
D03*
X2717800Y2814500D02*
D03*
X1752600Y3136900D02*
D03*
X1676400D02*
D03*
X1660011Y3709320D02*
D03*
X3220314Y3644679D02*
D03*
X2006600Y2819400D02*
D03*
X2578100Y2716900D02*
D03*
X191211Y710493D02*
D03*
X156258Y1640585D02*
D03*
X393700Y1625600D02*
D03*
X168958Y1894585D02*
D03*
X647700Y1371600D02*
D03*
X939800Y1358900D02*
D03*
X177800Y2184400D02*
D03*
X752000Y2286096D02*
D03*
X764700Y2705196D02*
D03*
X1371600Y2082800D02*
D03*
Y1714500D02*
D03*
X1536700Y1549400D02*
D03*
X1562100Y2095500D02*
D03*
X1430000Y2380600D02*
D03*
X1434254Y2146697D02*
D03*
X2298700Y1663700D02*
D03*
X1714500Y1727200D02*
D03*
X1944242Y2030970D02*
D03*
X1537842Y2577070D02*
D03*
X1612900Y2882900D02*
D03*
X1828800Y2908300D02*
D03*
X2032000Y3111500D02*
D03*
X1571035Y3203400D02*
D03*
X2057400Y2603500D02*
D03*
X2247900Y2781300D02*
D03*
X2051745Y2879900D02*
D03*
X2339009Y3200815D02*
D03*
X203200Y3670300D02*
D03*
Y3441700D02*
D03*
X929800Y3759296D02*
D03*
X1270000Y3263900D02*
D03*
X1453771Y3269243D02*
D03*
X1525293Y3642610D02*
D03*
X1286100Y4584700D02*
D03*
X1247163Y5112231D02*
D03*
X1298100Y3873596D02*
D03*
X1736639Y3692066D02*
D03*
X1798750Y3302347D02*
D03*
X2222500Y3302000D02*
D03*
X1962375Y3562575D02*
D03*
X1993900Y4076700D02*
D03*
X2146300Y3784600D02*
D03*
X2057400Y3937000D02*
D03*
X1612900Y5118100D02*
D03*
X2208674Y4005424D02*
D03*
X2247900Y5080000D02*
D03*
Y4864100D02*
D03*
Y4673600D02*
D03*
X2379980D02*
D03*
X2463800Y1358900D02*
D03*
X2539976Y1612835D02*
D03*
X2705100Y1244600D02*
D03*
X2943730Y1397000D02*
D03*
X3136897Y1638300D02*
D03*
X2592600Y1947325D02*
D03*
X2387600Y2501900D02*
D03*
X2664433Y2495207D02*
D03*
X2538948Y2596594D02*
D03*
X2510237Y2851132D02*
D03*
X2984202Y1961229D02*
D03*
X2982454Y2144987D02*
D03*
X3009900Y2730500D02*
D03*
X3073400Y2476500D02*
D03*
X3187700Y165100D02*
D03*
X3175000Y1219200D02*
D03*
X3962400Y723900D02*
D03*
X4000500Y1295400D02*
D03*
X3975100Y1727200D02*
D03*
X3229200Y2284402D02*
D03*
X3175000Y2755900D02*
D03*
X3175624Y2587400D02*
D03*
X3314700Y2514600D02*
D03*
X3469800Y2768696D02*
D03*
X4025900Y2298700D02*
D03*
X3732007Y2801246D02*
D03*
X2925089Y3162000D02*
D03*
X2509125Y3222314D02*
D03*
X3073079Y3013300D02*
D03*
X2970700Y3439876D02*
D03*
X3073400Y3302000D02*
D03*
X2400300Y3784600D02*
D03*
X2501900Y5080000D02*
D03*
Y4864100D02*
D03*
Y4673600D02*
D03*
X2859000Y4099100D02*
D03*
X2906008Y3792608D02*
D03*
X2729000Y4099100D02*
D03*
Y4359100D02*
D03*
Y4229100D02*
D03*
X2859000D02*
D03*
Y4359100D02*
D03*
X3606800Y2921000D02*
D03*
X3107097Y3706299D02*
D03*
X3151108Y3885624D02*
D03*
X4025900Y3949700D02*
D03*
X3543300Y3962400D02*
D03*
X3479800Y3657600D02*
D03*
X3270750Y3718694D02*
D03*
X1651000Y4013200D02*
D03*
X1842677Y4462696D02*
D03*
X1737876Y4606297D02*
D03*
X2830076Y4796797D02*
D03*
X2817376Y5076197D02*
D03*
X2172715Y2809290D02*
D03*
X2706294Y2600012D02*
D03*
X2395148Y2578100D02*
D03*
X3329832Y3761569D02*
D03*
X3293172Y3649223D02*
D03*
X1600793Y1601243D02*
D03*
X3365946Y3146285D02*
D03*
X2679700Y3924100D02*
D03*
X1454900Y1760150D02*
D03*
X1366964Y2175000D02*
D03*
X1435100Y2222500D02*
D03*
X3124200Y4673600D02*
D03*
X3390900D02*
D03*
X3258820D02*
D03*
X1439057Y3340745D02*
D03*
X1741978Y3619214D02*
D03*
X1797052Y3531258D02*
D03*
X2286000Y3263900D02*
D03*
X2512083Y3305022D02*
D03*
X2439135Y3308724D02*
D03*
X2570704Y3261519D02*
D03*
X2584947Y2825300D02*
D03*
X3043900Y2184400D02*
D03*
X3238500Y2019300D02*
D03*
X2992600Y1888179D02*
D03*
X2925600Y1917700D02*
D03*
X2952649Y2216049D02*
D03*
X2909899Y2129200D02*
D03*
X1181100Y2540000D02*
D03*
X1371600Y2336800D02*
D03*
X1564279Y2168467D02*
D03*
X1562100Y2022500D02*
D03*
X1609821Y3581400D02*
D03*
X1803400Y3022600D02*
D03*
X1791307Y3229727D02*
D03*
X3276375Y2577875D02*
D03*
X3581400Y3114900D02*
D03*
X3607722Y3492693D02*
D03*
X3099250Y2666550D02*
D03*
X3797300Y2768600D02*
D03*
X2454619Y2796782D02*
D03*
X3378200Y2044700D02*
D03*
X2146300Y2222500D02*
D03*
X2605802Y2019121D02*
D03*
X2502806Y2069194D02*
D03*
X2933700Y2735400D02*
D03*
X2928043Y2653507D02*
D03*
X2330125Y2772000D02*
D03*
X2536791Y1995320D02*
D03*
X3162300Y1790700D02*
D03*
X1871749Y3302000D02*
D03*
X1629063Y3276776D02*
D03*
X1514535Y3309700D02*
D03*
X2412775Y1422175D02*
D03*
X3082365Y1350385D02*
D03*
X2527075Y1244825D02*
D03*
X2667000Y1308100D02*
D03*
X2872232Y1411732D02*
D03*
X3797300Y3429000D02*
D03*
X2743200Y3924100D02*
D03*
X935075Y3027775D02*
D03*
X2400300Y1320800D02*
D03*
X2025200Y3276600D02*
D03*
X1373218Y2430164D02*
D03*
%TF.MD5,4039cd4bc8dbc08b60b1df0b5dbc9ade*%
M02*
