%TF.GenerationSoftware,Altium Limited,Altium Designer,26.9.1 (10)*%
G04 Layer_Color=32896*
G04 Board_Origin=30650000|16550000*
%FSLAX45Y45*%
%MOMM*%
%TF.SameCoordinates,05126742-2993-4272-A15D-2DBC63916BBF*%
%TF.FilePolarity,Positive*%
%TF.FileFunction,Legend,Bot*%
%TF.Part,Single*%
G01*
G75*
%TA.AperFunction,NonConductor*%
%ADD72C,0.25400*%
%ADD73C,0.25000*%
%ADD75C,0.20000*%
%ADD76C,0.15240*%
%ADD79C,0.14986*%
D72*
X642099Y3310143D02*
X741157D01*
X164579Y3372813D02*
Y3774958D01*
X216278Y3826657D01*
X341020Y3223781D02*
X765198D01*
X918957Y3386889D02*
Y3816147D01*
X313543Y3923916D02*
X381663Y3980701D01*
X762663D01*
X626857Y3866401D02*
X751319D01*
X687819Y3792743D02*
Y3934981D01*
X4081356Y2251004D02*
Y2330775D01*
X2951056Y3317240D02*
X3913193D01*
X3524423Y2110740D02*
X3958189D01*
X3154423D02*
X3378192D01*
X2951056D02*
Y2364770D01*
Y2110740D02*
X3008193D01*
X2951056Y2601003D02*
Y2961770D01*
Y3198002D02*
Y3317240D01*
X2362200Y3981958D02*
Y4045204D01*
X2108200Y3981958D02*
Y4042664D01*
X819796Y3663163D02*
Y3510813D01*
X743621D01*
X718229Y3536205D01*
Y3561596D01*
X743621Y3586988D01*
X819796D01*
X743621D01*
X718229Y3612380D01*
Y3637771D01*
X743621Y3663163D01*
X819796D01*
X667445D02*
Y3536205D01*
X642054Y3510813D01*
X591270D01*
X565878Y3536205D01*
Y3663163D01*
X515095D02*
X413527D01*
Y3637771D01*
X515095Y3536205D01*
Y3510813D01*
X413527D01*
X362744Y3663163D02*
X261177D01*
Y3637771D01*
X362744Y3536205D01*
Y3510813D01*
X261177D01*
X2758433Y4807706D02*
X2779260Y4786880D01*
Y4745226D01*
X2758433Y4724400D01*
X2675126D01*
X2654300Y4745226D01*
Y4786880D01*
X2675126Y4807706D01*
X2716780D01*
Y4766053D01*
X2654300Y4849360D02*
X2779260D01*
X2654300Y4932666D01*
X2779260D01*
Y4974319D02*
X2654300D01*
Y5036799D01*
X2675126Y5057626D01*
X2758433D01*
X2779260Y5036799D01*
Y4974319D01*
X2857500Y4737100D02*
X2982460D01*
Y4799580D01*
X2961633Y4820406D01*
X2919980D01*
X2899153Y4799580D01*
Y4737100D01*
X2982460Y4862060D02*
X2857500D01*
X2899153Y4903713D01*
X2857500Y4945366D01*
X2982460D01*
X2857500Y4987019D02*
X2982460D01*
Y5049499D01*
X2961633Y5070326D01*
X2919980D01*
X2899153Y5049499D01*
Y4987019D01*
Y5028672D02*
X2857500Y5070326D01*
X3515860Y3644900D02*
X3432553D01*
X3390900Y3686553D01*
X3432553Y3728206D01*
X3515860D01*
Y3769860D02*
Y3853166D01*
Y3811513D01*
X3390900D01*
X3515860Y3894819D02*
X3390900Y3978126D01*
X3515860D02*
X3390900Y3894819D01*
X1491494Y4587233D02*
X1512320Y4608060D01*
X1553974D01*
X1574800Y4587233D01*
Y4566406D01*
X1553974Y4545580D01*
X1512320D01*
X1491494Y4524753D01*
Y4503926D01*
X1512320Y4483100D01*
X1553974D01*
X1574800Y4503926D01*
X1449840Y4483100D02*
Y4608060D01*
X1387361D01*
X1366534Y4587233D01*
Y4545580D01*
X1387361Y4524753D01*
X1449840D01*
X1324881Y4608060D02*
X1283228D01*
X1304054D01*
Y4483100D01*
X1324881D01*
X1283228D01*
X3392940Y1727200D02*
X3497074D01*
X3517900Y1706374D01*
Y1664720D01*
X3497074Y1643894D01*
X3392940D01*
X3517900Y1602240D02*
X3434594D01*
X3392940Y1560587D01*
X3434594Y1518934D01*
X3517900D01*
X3455420D01*
Y1602240D01*
X3517900Y1477281D02*
X3392940D01*
Y1414801D01*
X3413767Y1393974D01*
X3455420D01*
X3476247Y1414801D01*
Y1477281D01*
Y1435628D02*
X3517900Y1393974D01*
X3392940Y1352321D02*
Y1269015D01*
Y1310668D01*
X3517900D01*
X751833Y1543806D02*
X772660Y1522980D01*
Y1481326D01*
X751833Y1460500D01*
X668526D01*
X647700Y1481326D01*
Y1522980D01*
X668526Y1543806D01*
X710180D01*
Y1502153D01*
X647700Y1585460D02*
X772660D01*
Y1647939D01*
X751833Y1668766D01*
X710180D01*
X689353Y1647939D01*
Y1585460D01*
X751833Y1793726D02*
X772660Y1772899D01*
Y1731246D01*
X751833Y1710419D01*
X731006D01*
X710180Y1731246D01*
Y1772899D01*
X689353Y1793726D01*
X668526D01*
X647700Y1772899D01*
Y1731246D01*
X668526Y1710419D01*
X2425675Y2514641D02*
X2298717D01*
X2273325Y2540033D01*
Y2590817D01*
X2298717Y2616208D01*
X2425675D01*
Y2768559D02*
Y2666992D01*
X2349500D01*
X2374892Y2717775D01*
Y2743167D01*
X2349500Y2768559D01*
X2298717D01*
X2273325Y2743167D01*
Y2692384D01*
X2298717Y2666992D01*
X2768567Y3784575D02*
Y3657617D01*
X2743175Y3632225D01*
X2692392D01*
X2667000Y3657617D01*
Y3784575D01*
X2616216Y3632225D02*
X2565433D01*
X2590824D01*
Y3784575D01*
X2616216Y3759183D01*
X3530249Y2773625D02*
X3555641Y2799017D01*
X3606424D01*
X3631816Y2773625D01*
Y2748234D01*
X3606424Y2722842D01*
X3555641D01*
X3530249Y2697450D01*
Y2672058D01*
X3555641Y2646667D01*
X3606424D01*
X3631816Y2672058D01*
X3479465Y2799017D02*
Y2646667D01*
X3403290D01*
X3377898Y2672058D01*
Y2773625D01*
X3403290Y2799017D01*
X3479465D01*
X1448308Y3251217D02*
Y3352783D01*
X1473700Y3378175D01*
X1524483D01*
X1549875Y3352783D01*
Y3251217D01*
X1524483Y3225825D01*
X1473700D01*
X1499091Y3276608D02*
X1448308Y3225825D01*
X1473700D02*
X1448308Y3251217D01*
X1397524Y3225825D02*
X1346741D01*
X1372132D01*
Y3378175D01*
X1397524Y3352783D01*
X3822725Y3708433D02*
X3975076D01*
Y3784608D01*
X3949684Y3810000D01*
X3898900D01*
X3873508Y3784608D01*
Y3708433D01*
X3822725Y3860783D02*
Y3911567D01*
Y3886175D01*
X3975076D01*
X3949684Y3860783D01*
X355575Y1587000D02*
Y1536217D01*
Y1561609D01*
X228617D01*
X203225Y1536217D01*
Y1510825D01*
X228617Y1485433D01*
X330183Y1637784D02*
X355575Y1663176D01*
Y1713959D01*
X330183Y1739351D01*
X304792D01*
X279400Y1713959D01*
X254008Y1739351D01*
X228617D01*
X203225Y1713959D01*
Y1663176D01*
X228617Y1637784D01*
X254008D01*
X279400Y1663176D01*
X304792Y1637784D01*
X330183D01*
X279400Y1663176D02*
Y1713959D01*
X1509092Y5058175D02*
X1559875D01*
X1534484D01*
Y4931216D01*
X1559875Y4905825D01*
X1585267D01*
X1610659Y4931216D01*
X1458308Y5058175D02*
X1356741D01*
Y5032783D01*
X1458308Y4931216D01*
Y4905825D01*
X3797325Y1498600D02*
Y1549383D01*
Y1523992D01*
X3924283D01*
X3949675Y1549383D01*
Y1574775D01*
X3924283Y1600167D01*
X3949675Y1447816D02*
Y1397033D01*
Y1422424D01*
X3797325D01*
X3822717Y1447816D01*
D73*
X674600Y1312592D02*
G03*
X674600Y1312592I-12500J0D01*
G01*
X1122400Y4595700D02*
G03*
X1122400Y4595700I-12500J0D01*
G01*
X2591600Y1892300D02*
G03*
X2591600Y1892300I-12500J0D01*
G01*
X3521200Y4060000D02*
G03*
X3521200Y4060000I-12500J0D01*
G01*
X2424500Y4356100D02*
G03*
X2424500Y4356100I-12500J0D01*
G01*
X3259000Y4419600D02*
G03*
X3259000Y4419600I-12500J0D01*
G01*
X1142800Y4190000D02*
G03*
X1142800Y4190000I-12500J0D01*
G01*
X3523500Y1698800D02*
G03*
X3523500Y1698800I-12500J0D01*
G01*
D75*
X372100Y1087592D02*
X494600D01*
X89600Y1215092D02*
Y2035092D01*
X372100Y2162592D02*
X494600D01*
Y2005092D02*
Y2162592D01*
Y1087592D02*
Y1245092D01*
X884900Y4763200D02*
X1042400D01*
X1802400D02*
X1959900D01*
Y4885700D01*
X1012400Y5168200D02*
X1832400D01*
X884900Y4763200D02*
Y4885700D01*
X2729100Y1746300D02*
X3189100D01*
Y2014800D02*
Y2038300D01*
Y1746300D02*
Y1769800D01*
X2729100Y2038300D02*
X3189100D01*
X2729100Y2014800D02*
Y2038300D01*
Y1746300D02*
Y1769800D01*
X4098700Y3530000D02*
Y4090000D01*
X3673700Y4210000D02*
X3898700D01*
X3673700Y4130000D02*
Y4210000D01*
Y3410000D02*
Y3490000D01*
Y3410000D02*
X3898700D01*
X2262000Y4478600D02*
Y4502100D01*
Y4210100D02*
Y4233600D01*
X1802000Y4210100D02*
X2262000D01*
X1802000Y4478600D02*
Y4502100D01*
Y4210100D02*
Y4233600D01*
Y4502100D02*
X2262000D01*
X2218800Y2292600D02*
Y2482600D01*
X2073800Y2292600D02*
Y2482600D01*
X1914000Y2381500D02*
Y2571500D01*
X1769000Y2381500D02*
Y2571500D01*
X2594000Y3946600D02*
X2994000D01*
X2594000Y4511600D02*
X2994000D01*
X3346700Y4194700D02*
X3536700D01*
X3346700Y4339700D02*
X3536700D01*
X3245100Y4359800D02*
X3435100D01*
X3245100Y4504800D02*
X3435100D01*
X2140200Y3806300D02*
X2330200D01*
X2140200Y3661300D02*
X2330200D01*
X2699000Y4474100D02*
X2889000D01*
X2699000Y4619100D02*
X2889000D01*
X2067420Y2850790D02*
Y3181410D01*
X2303040Y2850790D02*
Y3181410D01*
X2492900Y2876800D02*
Y3066800D01*
X2637900Y2876800D02*
Y3066800D01*
X1896000Y3080000D02*
Y3270000D01*
X2041000Y3080000D02*
Y3270000D01*
X2327800Y3029200D02*
Y3219200D01*
X2472800Y3029200D02*
Y3219200D01*
X1221208Y3273399D02*
Y3330601D01*
X1091208Y3157000D02*
X1133515D01*
X1091208Y3368399D02*
Y3447000D01*
Y3157000D02*
Y3235601D01*
Y3447000D02*
X1133515D01*
X984300Y4040000D02*
X1007800D01*
X1252800D02*
X1276300D01*
Y3580000D02*
Y4040000D01*
X984300Y3580000D02*
X1007800D01*
X1252800D02*
X1276300D01*
X984300D02*
Y4040000D01*
X2965700Y3597800D02*
X3155700D01*
X2965700Y3742800D02*
X3155700D01*
X3671000Y1923800D02*
X3793500D01*
X4076000Y1226300D02*
Y1796300D01*
X3671000Y1098800D02*
X3793500D01*
X3671000D02*
Y1256300D01*
Y1766300D02*
Y1923800D01*
X2717364Y2473685D02*
Y2663685D01*
X2862364Y2473685D02*
Y2663685D01*
X2543192Y2470400D02*
Y2660400D01*
X2688191Y2470400D02*
Y2660400D01*
D76*
X2240280Y2509012D02*
Y2533396D01*
X2165858Y2509012D02*
X2240280D01*
Y2749550D02*
Y2774188D01*
X2165858D02*
X2240280D01*
X1925066Y2509012D02*
Y2533396D01*
Y2509012D02*
X1999742D01*
X1925066Y2749550D02*
Y2774188D01*
X1999742D01*
D79*
X2262378Y2712212D02*
X2263140Y2715514D01*
X2259838Y2709418D02*
X2262378Y2712212D01*
X2256536Y2708148D02*
X2259838Y2709418D01*
X2252980Y2708656D02*
X2256536Y2708148D01*
X2250186Y2710688D02*
X2252980Y2708656D01*
X2248408Y2713736D02*
X2250186Y2710688D01*
X2248408Y2713736D02*
Y2717292D01*
X2250186Y2720594D01*
X2252980Y2722626D01*
X2256536Y2723134D01*
X2259838Y2721864D01*
X2262378Y2719070D01*
X2263140Y2715514D01*
%TF.MD5,d7616c7d8e70378e6622abee998630cc*%
M02*
