%TF.GenerationSoftware,Altium Limited,Altium Designer,26.9.1 (10)*%
G04 Layer_Color=0*
G04 Board_Origin=30650000|16550000*
%FSLAX45Y45*%
%MOMM*%
%TF.SameCoordinates,05126742-2993-4272-A15D-2DBC63916BBF*%
%TF.FilePolarity,Positive*%
%TF.FileFunction,Plated,1,4,PTH,Drill*%
%TF.Part,Single*%
G01*
G75*
%TA.AperFunction,ComponentDrill*%
%ADD90C,1.04902*%
%ADD91O,1.02616X1.02108*%
%ADD92O,1.50000X0.60000*%
%ADD93O,1.20000X0.60000*%
%ADD94O,1.50002X0.60000*%
%TA.AperFunction,OtherDrill,Pad Free-1 (38.227mm,49.022mm)*%
%ADD95C,3.20000*%
%TA.AperFunction,OtherDrill,Pad Free-1 (3.683mm,49.022mm)*%
%ADD96C,3.20000*%
%TA.AperFunction,OtherDrill,Pad Free-1 (38.227mm,3.81mm)*%
%ADD97C,3.20000*%
%TA.AperFunction,OtherDrill,Pad Free-1 (3.556mm,3.81mm)*%
%ADD98C,3.20000*%
%TA.AperFunction,ViaDrill,NotFilled*%
%ADD99C,0.33000*%
D90*
X3429000Y838200D02*
D03*
X2921000D02*
D03*
X3429000Y584200D02*
D03*
X3175000D02*
D03*
X2921000D02*
D03*
X3175000Y838200D02*
D03*
D91*
X838200Y482600D02*
D03*
X1092200D02*
D03*
X1346200D02*
D03*
X1600200D02*
D03*
X2108200D02*
D03*
X1854200D02*
D03*
X2362200D02*
D03*
X2616200D02*
D03*
X838200Y990600D02*
D03*
X1092200D02*
D03*
X1346200D02*
D03*
X1600200D02*
D03*
X1854200D02*
D03*
X2108200D02*
D03*
X2362200D02*
D03*
X2616200D02*
D03*
X1600200Y736600D02*
D03*
X838200D02*
D03*
X1092200D02*
D03*
X1346200D02*
D03*
X1854200D02*
D03*
X2108200D02*
D03*
X2362200D02*
D03*
X2616200D02*
D03*
D92*
X3436996Y1066107D02*
D03*
D93*
X3857003Y1066101D02*
D03*
Y1931099D02*
D03*
D94*
X3436998Y1931109D02*
D03*
D95*
X3822700Y4902200D02*
D03*
D96*
X368300D02*
D03*
D97*
X3822700Y381000D02*
D03*
D98*
X355600D02*
D03*
D99*
X2796600Y1587500D02*
D03*
X2810558Y1678685D02*
D03*
X1406500Y3644900D02*
D03*
X1079500Y2311400D02*
D03*
X1163908Y2469053D02*
D03*
X1137320Y3143872D02*
D03*
X990601Y3393500D02*
D03*
X3604114Y2208328D02*
D03*
X2768600Y3784600D02*
D03*
X2810275Y3597675D02*
D03*
X2946400Y1104900D02*
D03*
X1498600Y4927600D02*
D03*
X1409700D02*
D03*
X1587500D02*
D03*
X660400Y3771900D02*
D03*
X596900Y3708400D02*
D03*
X698500Y2032000D02*
D03*
X569404D02*
D03*
X3482113Y2310672D02*
D03*
X1013000Y2181326D02*
D03*
Y1987325D02*
D03*
X431800Y1892300D02*
D03*
X3924300Y2984500D02*
D03*
X3915910Y3203495D02*
D03*
X2094948Y2317600D02*
D03*
X1856077Y2346100D02*
D03*
X3470808Y4431388D02*
D03*
X614897Y4496297D02*
D03*
X314898D02*
D03*
X3614897D02*
D03*
X1964897Y4196297D02*
D03*
X3314897Y296299D02*
D03*
X3914896Y896298D02*
D03*
X3014897Y296299D02*
D03*
X314898Y896298D02*
D03*
X3914896Y4496297D02*
D03*
X3764896Y1796298D02*
D03*
X764897Y4196297D02*
D03*
X3764896D02*
D03*
X1964897Y4796297D02*
D03*
X1214897Y896298D02*
D03*
X464897Y4196297D02*
D03*
X1964897Y2396298D02*
D03*
X4064896Y3596298D02*
D03*
X764897Y4796297D02*
D03*
X914897Y4496297D02*
D03*
X764897Y3596298D02*
D03*
X3503767Y4329239D02*
D03*
X2414897Y4496297D02*
D03*
X3764896Y2996298D02*
D03*
X596900Y2819400D02*
D03*
Y2184400D02*
D03*
Y2616200D02*
D03*
Y2400300D02*
D03*
X609600Y3378200D02*
D03*
X650400Y3175096D02*
D03*
X609600Y3048000D02*
D03*
X177800Y2400300D02*
D03*
Y2832100D02*
D03*
Y2616200D02*
D03*
Y3048000D02*
D03*
X2276215Y2451100D02*
D03*
X2619600Y2312286D02*
D03*
X2082800Y2808027D02*
D03*
X1130300Y2908300D02*
D03*
X2602159Y2127521D02*
D03*
X3486375Y2889475D02*
D03*
X2645000Y3517900D02*
D03*
X2933700Y3306900D02*
D03*
X2664402Y3082755D02*
D03*
X3479800Y3114900D02*
D03*
X2717800Y2814500D02*
D03*
X1752600Y3136900D02*
D03*
X1676400D02*
D03*
X1660011Y3709320D02*
D03*
X3220314Y3644679D02*
D03*
X2006600Y2819400D02*
D03*
X2578100Y2716900D02*
D03*
X191211Y710493D02*
D03*
X156258Y1640585D02*
D03*
X393700Y1625600D02*
D03*
X168958Y1894585D02*
D03*
X647700Y1371600D02*
D03*
X939800Y1358900D02*
D03*
X177800Y2184400D02*
D03*
X752000Y2286096D02*
D03*
X764700Y2705196D02*
D03*
X1371600Y2082800D02*
D03*
Y1714500D02*
D03*
X1536700Y1549400D02*
D03*
X1562100Y2095500D02*
D03*
X1430000Y2380600D02*
D03*
X1434254Y2146697D02*
D03*
X2298700Y1663700D02*
D03*
X1714500Y1727200D02*
D03*
X1944242Y2030970D02*
D03*
X1537842Y2577070D02*
D03*
X1612900Y2882900D02*
D03*
X1828800Y2908300D02*
D03*
X2032000Y3111500D02*
D03*
X1571035Y3203400D02*
D03*
X2057400Y2603500D02*
D03*
X2247900Y2781300D02*
D03*
X2051745Y2879900D02*
D03*
X2339009Y3200815D02*
D03*
X203200Y3670300D02*
D03*
Y3441700D02*
D03*
X929800Y3759296D02*
D03*
X1270000Y3263900D02*
D03*
X1453771Y3269243D02*
D03*
X1525293Y3642610D02*
D03*
X1286100Y4584700D02*
D03*
X1247163Y5112231D02*
D03*
X1298100Y3873596D02*
D03*
X1736639Y3692066D02*
D03*
X1798750Y3302347D02*
D03*
X2222500Y3302000D02*
D03*
X1962375Y3562575D02*
D03*
X1993900Y4076700D02*
D03*
X2146300Y3784600D02*
D03*
X2057400Y3937000D02*
D03*
X1612900Y5118100D02*
D03*
X2208674Y4005424D02*
D03*
X2247900Y5080000D02*
D03*
Y4864100D02*
D03*
Y4673600D02*
D03*
X2379980D02*
D03*
X2463800Y1358900D02*
D03*
X2539976Y1612835D02*
D03*
X2705100Y1244600D02*
D03*
X2943730Y1397000D02*
D03*
X3136897Y1638300D02*
D03*
X2592600Y1947325D02*
D03*
X2387600Y2501900D02*
D03*
X2664433Y2495207D02*
D03*
X2538948Y2596594D02*
D03*
X2510237Y2851132D02*
D03*
X2984202Y1961229D02*
D03*
X2982454Y2144987D02*
D03*
X3009900Y2730500D02*
D03*
X3073400Y2476500D02*
D03*
X3187700Y165100D02*
D03*
X3175000Y1219200D02*
D03*
X3962400Y723900D02*
D03*
X4000500Y1295400D02*
D03*
X3975100Y1727200D02*
D03*
X3229200Y2284402D02*
D03*
X3175000Y2755900D02*
D03*
X3175624Y2587400D02*
D03*
X3314700Y2514600D02*
D03*
X3469800Y2768696D02*
D03*
X4025900Y2298700D02*
D03*
X3732007Y2801246D02*
D03*
X2925089Y3162000D02*
D03*
X2509125Y3222314D02*
D03*
X3073079Y3013300D02*
D03*
X2970700Y3439876D02*
D03*
X3073400Y3302000D02*
D03*
X2400300Y3784600D02*
D03*
X2501900Y5080000D02*
D03*
Y4864100D02*
D03*
Y4673600D02*
D03*
X2859000Y4099100D02*
D03*
X2906008Y3792608D02*
D03*
X2729000Y4099100D02*
D03*
Y4359100D02*
D03*
Y4229100D02*
D03*
X2859000D02*
D03*
Y4359100D02*
D03*
X3606800Y2921000D02*
D03*
X3107097Y3706299D02*
D03*
X3151108Y3885624D02*
D03*
X4025900Y3949700D02*
D03*
X3543300Y3962400D02*
D03*
X3479800Y3657600D02*
D03*
X3270750Y3718694D02*
D03*
X1651000Y4013200D02*
D03*
X1842677Y4462696D02*
D03*
X1737876Y4606297D02*
D03*
X2830076Y4796797D02*
D03*
X2817376Y5076197D02*
D03*
X2172715Y2809290D02*
D03*
X2706294Y2600012D02*
D03*
X2395148Y2578100D02*
D03*
X3329832Y3761569D02*
D03*
X3293172Y3649223D02*
D03*
X1600793Y1601243D02*
D03*
X3365946Y3146285D02*
D03*
X2679700Y3924100D02*
D03*
X1454900Y1760150D02*
D03*
X1366964Y2175000D02*
D03*
X1435100Y2222500D02*
D03*
X3124200Y4673600D02*
D03*
X3390900D02*
D03*
X3258820D02*
D03*
X1439057Y3340745D02*
D03*
X1741978Y3619214D02*
D03*
X1797052Y3531258D02*
D03*
X2286000Y3263900D02*
D03*
X2512083Y3305022D02*
D03*
X2439135Y3308724D02*
D03*
X2570704Y3261519D02*
D03*
X2584947Y2825300D02*
D03*
X3043900Y2184400D02*
D03*
X3238500Y2019300D02*
D03*
X2992600Y1888179D02*
D03*
X2925600Y1917700D02*
D03*
X2952649Y2216049D02*
D03*
X2909899Y2129200D02*
D03*
X1181100Y2540000D02*
D03*
X1371600Y2336800D02*
D03*
X1564279Y2168467D02*
D03*
X1562100Y2022500D02*
D03*
X1609821Y3581400D02*
D03*
X1803400Y3022600D02*
D03*
X1791307Y3229727D02*
D03*
X3276375Y2577875D02*
D03*
X3581400Y3114900D02*
D03*
X3607722Y3492693D02*
D03*
X3099250Y2666550D02*
D03*
X3797300Y2768600D02*
D03*
X2454619Y2796782D02*
D03*
X3378200Y2044700D02*
D03*
X2146300Y2222500D02*
D03*
X2605802Y2019121D02*
D03*
X2502806Y2069194D02*
D03*
X2933700Y2735400D02*
D03*
X2928043Y2653507D02*
D03*
X2330125Y2772000D02*
D03*
X2536791Y1995320D02*
D03*
X3162300Y1790700D02*
D03*
X1871749Y3302000D02*
D03*
X1629063Y3276776D02*
D03*
X1514535Y3309700D02*
D03*
X2412775Y1422175D02*
D03*
X3082365Y1350385D02*
D03*
X2527075Y1244825D02*
D03*
X2667000Y1308100D02*
D03*
X2872232Y1411732D02*
D03*
X3797300Y3429000D02*
D03*
X2743200Y3924100D02*
D03*
X935075Y3027775D02*
D03*
X2400300Y1320800D02*
D03*
X2025200Y3276600D02*
D03*
X1373218Y2430164D02*
D03*
%TF.MD5,84f0a0fc269045075ee2b2cb77897d37*%
M02*
