%TF.GenerationSoftware,Altium Limited,Altium Designer,26.9.1 (10)*%
G04 Layer_Physical_Order=4*
G04 Layer_Color=16711680*
G04 Board_Origin=30650000|16550000*
%FSLAX45Y45*%
%MOMM*%
%TF.SameCoordinates,05126742-2993-4272-A15D-2DBC63916BBF*%
%TF.FilePolarity,Positive*%
%TF.FileFunction,Copper,L4,Bot,Signal*%
%TF.Part,Single*%
G01*
G75*
%TA.AperFunction,ConnectorPad*%
%ADD10R,1.70000X0.60000*%
%TA.AperFunction,SMDPad,CuDef*%
%ADD12R,2.50000X1.70000*%
%ADD14R,0.70000X0.70000*%
%ADD16R,1.70000X0.60000*%
%ADD19R,0.70000X0.70000*%
%ADD22R,0.75000X0.85000*%
%ADD25R,2.70000X1.00000*%
%TA.AperFunction,ConnectorPad*%
%ADD32R,2.70000X1.00000*%
%TA.AperFunction,Conductor*%
%ADD35C,0.25400*%
%ADD36C,0.50000*%
%ADD37C,1.00000*%
%ADD38C,1.50000*%
%ADD39C,0.25000*%
%ADD41C,0.30000*%
%TA.AperFunction,ComponentPad*%
%ADD43C,1.80086*%
%ADD44R,1.52908X1.52908*%
%ADD45C,1.52908*%
%ADD46O,2.00000X1.10000*%
%ADD47O,1.80000X1.20000*%
%ADD48R,1.80086X1.80086*%
%TA.AperFunction,ViaPad*%
%ADD49C,5.00000*%
%ADD50C,0.63000*%
%TA.AperFunction,SMDPad,CuDef*%
%ADD51R,2.00000X2.00000*%
%TA.AperFunction,ConnectorPad*%
%ADD52R,0.60000X1.70000*%
%TA.AperFunction,SMDPad,CuDef*%
%ADD53R,1.70000X2.50000*%
G04:AMPARAMS|DCode=54|XSize=1.52424mm|YSize=0.57799mm|CornerRadius=0.28899mm|HoleSize=0mm|Usage=FLASHONLY|Rotation=180.000|XOffset=0mm|YOffset=0mm|HoleType=Round|Shape=RoundedRectangle|*
%AMROUNDEDRECTD54*
21,1,1.52424,0.00000,0,0,180.0*
21,1,0.94625,0.57799,0,0,180.0*
1,1,0.57799,-0.47313,0.00000*
1,1,0.57799,0.47313,0.00000*
1,1,0.57799,0.47313,0.00000*
1,1,0.57799,-0.47313,0.00000*
%
%ADD54ROUNDEDRECTD54*%
%ADD55R,0.59944X0.26924*%
%ADD56R,0.26924X0.59944*%
%ADD57R,1.55620X1.45490*%
%ADD58R,1.20000X0.70000*%
%ADD59R,0.85000X0.75000*%
%TA.AperFunction,ConnectorPad*%
%ADD60R,1.00000X2.70000*%
%TA.AperFunction,SMDPad,CuDef*%
%ADD61R,1.35001X1.90000*%
%ADD62R,1.35001X1.55001*%
%ADD63R,2.20000X0.50000*%
%TA.AperFunction,SMDPad,SMDef*%
%ADD64R,2.95000X4.90000*%
%TA.AperFunction,ConnectorPad*%
%ADD65R,1.55000X0.60000*%
%TA.AperFunction,SMDPad,CuDef*%
%ADD66R,1.80000X1.17000*%
%TA.AperFunction,ConnectorPad*%
%ADD67R,1.80000X1.20000*%
%TA.AperFunction,SMDPad,CuDef*%
%ADD68R,1.00000X1.20000*%
%ADD69R,1.52424X0.57799*%
%ADD70R,2.60096X1.30048*%
%ADD71R,5.00000X6.20000*%
G36*
X3003900Y4709812D02*
X3002417Y4706232D01*
X2998121Y4673600D01*
X3002417Y4640969D01*
X3001147Y4639192D01*
X2988081Y4638116D01*
X2978948Y4647248D01*
X2960629Y4661306D01*
X2948131Y4666482D01*
X2939294Y4670143D01*
X2927847Y4671650D01*
X2916400Y4673157D01*
X2851300D01*
X2828406Y4670143D01*
X2807072Y4661306D01*
X2788752Y4647248D01*
X2777022Y4631962D01*
X2774431Y4633950D01*
X2750105Y4644026D01*
X2724000Y4647463D01*
X2697895Y4644026D01*
X2682049Y4637463D01*
X2659504D01*
X2659502Y4637463D01*
X2657819Y4637241D01*
X2650300Y4643835D01*
Y4867300D01*
X2099500D01*
Y4544600D01*
X2368589D01*
X2372731Y4534600D01*
X2366659Y4528528D01*
X2361958Y4517179D01*
X2267002D01*
X2267000Y4517179D01*
X2234368Y4512883D01*
X2203961Y4500287D01*
X2191987Y4491100D01*
X2057000D01*
Y4233888D01*
X2055152D01*
Y4103642D01*
X2045152Y4101653D01*
X2042137Y4108931D01*
X2026131Y4124937D01*
X2005218Y4133600D01*
X1988349D01*
X1986360Y4143600D01*
X1997128Y4148060D01*
X2013134Y4164066D01*
X2021224Y4183597D01*
X1964897D01*
Y4208997D01*
X2021224D01*
X2013134Y4228528D01*
X1997128Y4244535D01*
X1982400Y4250635D01*
Y4343400D01*
X1832001D01*
Y4368800D01*
X1982400D01*
Y4466500D01*
X1899577D01*
Y4474014D01*
X1890914Y4494928D01*
X1874908Y4510934D01*
X1855377Y4519024D01*
Y4462696D01*
X1829977D01*
Y4519024D01*
X1810446Y4510934D01*
X1794440Y4494928D01*
X1785777Y4474014D01*
Y4466500D01*
X1698357D01*
Y4505427D01*
X1706671Y4510983D01*
X1711771Y4508871D01*
X1737876Y4505434D01*
X1763981Y4508871D01*
X1788307Y4518947D01*
X1809197Y4534976D01*
X1825226Y4555865D01*
X1835302Y4580191D01*
X1838739Y4606297D01*
X1837251Y4617598D01*
Y4736710D01*
X1837251Y4736712D01*
X1833814Y4762817D01*
X1823738Y4787143D01*
X1807709Y4808033D01*
X1806221Y4809521D01*
X1790300Y4821737D01*
Y4848600D01*
X1747600D01*
Y4738200D01*
X1722200D01*
Y4853409D01*
X1719941Y4857177D01*
X1726752Y4869920D01*
X1735330Y4898195D01*
X1738226Y4927600D01*
X1735330Y4957005D01*
X1726752Y4985280D01*
X1712824Y5011339D01*
X1694079Y5034179D01*
X1671239Y5052924D01*
X1652403Y5062992D01*
X1650576Y5075307D01*
X1661137Y5085869D01*
X1669227Y5105400D01*
X1556573D01*
X1563645Y5088326D01*
X1559140Y5078326D01*
X1305531D01*
X1298849Y5088326D01*
X1303490Y5099531D01*
X1190835D01*
X1195477Y5088326D01*
X1189094Y5078326D01*
X1189092Y5078326D01*
X1159687Y5075430D01*
X1131412Y5066852D01*
X1105353Y5052924D01*
X1082513Y5034179D01*
X1082511Y5034178D01*
X1013321Y4964987D01*
X1009716Y4960594D01*
X1000300Y4963963D01*
Y5045500D01*
X937600D01*
Y4897800D01*
X966706D01*
X972663Y4889768D01*
X972070Y4887813D01*
X969174Y4858408D01*
Y4810939D01*
X966876Y4808139D01*
X952948Y4782080D01*
X944370Y4753805D01*
X941474Y4724400D01*
Y4555877D01*
X933160Y4550321D01*
X927597Y4552625D01*
Y4496297D01*
Y4439970D01*
X933160Y4442274D01*
X941474Y4436718D01*
Y4125425D01*
X915501D01*
X915498Y4125426D01*
X886093Y4122529D01*
X857818Y4113952D01*
X845817Y4107537D01*
X816415Y4104642D01*
X800124Y4099700D01*
X740499D01*
Y4064424D01*
X739241Y4063391D01*
X493154Y3817304D01*
X490321Y3814979D01*
X337921Y3662579D01*
X319176Y3639739D01*
X305248Y3613680D01*
X296670Y3585405D01*
X293774Y3556000D01*
Y3399701D01*
X254735D01*
X250909Y3408940D01*
X251437Y3409469D01*
X259527Y3429000D01*
X146873D01*
X154963Y3409469D01*
X155491Y3408940D01*
X151665Y3399701D01*
X70487D01*
Y3799700D01*
X340500D01*
Y4099700D01*
X70487D01*
Y4925000D01*
Y4942658D01*
X75096Y4977672D01*
X84237Y5011787D01*
X97752Y5044414D01*
X115410Y5075000D01*
X136910Y5103017D01*
X161882Y5127990D01*
X189900Y5149489D01*
X220486Y5167148D01*
X253113Y5180663D01*
X287228Y5189804D01*
X322242Y5194414D01*
X849500D01*
Y5070900D01*
X1000300D01*
Y5194414D01*
X1844500D01*
Y5070900D01*
X1995300D01*
Y5194414D01*
X2099500D01*
Y4892700D01*
X2650300D01*
Y5194414D01*
X3003900D01*
Y4709812D01*
D02*
G37*
G36*
X1561084Y3724019D02*
X1559149Y3709320D01*
X1560307Y3700518D01*
X1551147Y3693489D01*
X1537993Y3698937D01*
Y3642610D01*
X1512593D01*
Y3698937D01*
X1493062Y3690847D01*
X1477056Y3674841D01*
X1471783Y3662111D01*
X1460959D01*
X1454737Y3677131D01*
X1438731Y3693137D01*
X1419200Y3701227D01*
Y3644900D01*
X1393800D01*
Y3706800D01*
X1346200D01*
Y3643901D01*
X1320800D01*
Y3706800D01*
X1265600D01*
X1265300Y3716676D01*
Y3785000D01*
X995300D01*
Y3775981D01*
X985300Y3773992D01*
X978794Y3789700D01*
X982929Y3799700D01*
X1040498D01*
Y3823974D01*
X1047399D01*
X1076805Y3826870D01*
X1103606Y3835000D01*
X1256227D01*
X1265868Y3825359D01*
X1285400Y3817269D01*
Y3873596D01*
Y3929923D01*
X1275300Y3925740D01*
X1265300Y3932422D01*
Y4006738D01*
X1274539Y4010565D01*
X1561084Y3724019D01*
D02*
G37*
G36*
X3892572Y5189804D02*
X3926687Y5180663D01*
X3959314Y5167148D01*
X3989900Y5149490D01*
X4017918Y5127990D01*
X4042890Y5103017D01*
X4064389Y5075000D01*
X4082048Y5044414D01*
X4095563Y5011787D01*
X4104704Y4977672D01*
X4109314Y4942658D01*
Y4925000D01*
Y4275400D01*
X4041400D01*
Y4190000D01*
Y4104600D01*
X4109314D01*
Y3645415D01*
X4100075Y3641588D01*
X4097127Y3644535D01*
X4077596Y3652625D01*
Y3596298D01*
Y3539970D01*
X4097127Y3548060D01*
X4100075Y3551007D01*
X4109314Y3547181D01*
Y3515400D01*
X4041400D01*
Y3430000D01*
X4028700D01*
Y3417300D01*
X3913300D01*
Y3344600D01*
X3915910D01*
Y3300095D01*
X4031310D01*
Y3274695D01*
X3915910D01*
Y3260395D01*
X3904592D01*
X3883679Y3251733D01*
X3867673Y3235726D01*
X3859011Y3214813D01*
Y3202539D01*
X3802706D01*
X3610702Y3394542D01*
X3614286Y3405100D01*
X3630616Y3407250D01*
X3651950Y3416087D01*
X3670270Y3430144D01*
X3684328Y3448464D01*
X3685746Y3451888D01*
X3698843Y3461938D01*
X3708843Y3457006D01*
Y3429000D01*
X3711857Y3406106D01*
X3720694Y3384771D01*
X3734752Y3366452D01*
X3753071Y3352394D01*
X3774406Y3343557D01*
X3797300Y3340543D01*
X3820194Y3343557D01*
X3841529Y3352394D01*
X3859848Y3366452D01*
X3873906Y3384771D01*
X3882743Y3406106D01*
X3885757Y3429000D01*
Y3683000D01*
X3882743Y3705894D01*
X3873906Y3727229D01*
X3859849Y3745548D01*
X3798589Y3806808D01*
X3780269Y3820865D01*
X3768700Y3825657D01*
Y3940000D01*
X3744100D01*
Y3980000D01*
X3768700D01*
Y4139398D01*
X3776214D01*
X3797128Y4148060D01*
X3813134Y4164066D01*
X3821224Y4183597D01*
X3708569D01*
X3711682Y4176081D01*
X3705586Y4170435D01*
X3703605Y4169450D01*
X3673832Y4181783D01*
X3656141Y4184112D01*
X3614465Y4225788D01*
X3605603Y4232588D01*
X3609126Y4241095D01*
X3612563Y4267200D01*
Y4351322D01*
X3686217Y4424976D01*
X3702246Y4445866D01*
X3712323Y4470192D01*
X3715760Y4496297D01*
X3712323Y4522403D01*
X3702246Y4546729D01*
X3686217Y4567618D01*
X3665328Y4583647D01*
X3641002Y4593723D01*
X3614897Y4597160D01*
X3588791Y4593723D01*
X3564465Y4583647D01*
X3543576Y4567618D01*
X3532445Y4556488D01*
X3523900Y4562085D01*
Y5194414D01*
X3857558D01*
X3892572Y5189804D01*
D02*
G37*
G36*
X872900Y3756591D02*
Y3747978D01*
X881562Y3727065D01*
X897568Y3711059D01*
X917100Y3702969D01*
Y3759296D01*
X942500D01*
Y3702969D01*
X962031Y3711059D01*
X978037Y3727065D01*
X985300Y3744600D01*
X995300Y3742611D01*
Y3650013D01*
X986113Y3638039D01*
X973517Y3607632D01*
X969221Y3575000D01*
Y3446232D01*
X958369Y3441737D01*
X942412Y3425780D01*
X940500D01*
X940498Y3425780D01*
X907867Y3421484D01*
X877459Y3408889D01*
X865485Y3399701D01*
X740499D01*
Y3140500D01*
X708481D01*
X701799Y3150500D01*
X706727Y3162396D01*
X650400D01*
Y3175096D01*
X637700D01*
Y3231423D01*
X618168Y3223333D01*
X605226Y3210391D01*
X595226Y3214533D01*
Y3319258D01*
X596900Y3320377D01*
Y3378200D01*
Y3436023D01*
X595226Y3437142D01*
Y3493567D01*
X697998Y3596339D01*
X707965Y3592210D01*
X707998Y3592175D01*
Y3584980D01*
X716660Y3564067D01*
X732666Y3548060D01*
X752197Y3539970D01*
Y3596298D01*
X764897D01*
Y3608998D01*
X821225D01*
X813135Y3628529D01*
X797128Y3644535D01*
X776215Y3653197D01*
X768430D01*
X764603Y3662436D01*
X862900Y3760733D01*
X872900Y3756591D01*
D02*
G37*
G36*
X293774Y2197992D02*
X233758D01*
X226037Y2216631D01*
X210031Y2232637D01*
X190500Y2240727D01*
Y2184400D01*
X165100D01*
Y2240727D01*
X145569Y2232637D01*
X129563Y2216631D01*
X121842Y2197992D01*
X70487D01*
Y3099702D01*
X134891D01*
X139033Y3089702D01*
X129563Y3080231D01*
X121473Y3060700D01*
X234127D01*
X226037Y3080231D01*
X216567Y3089702D01*
X220709Y3099702D01*
X293774D01*
Y2197992D01*
D02*
G37*
G36*
X3969000Y2287382D02*
X3977663Y2266469D01*
X3981603Y2262529D01*
X3977776Y2253290D01*
X3955910D01*
Y2163089D01*
X4048811D01*
Y2150389D01*
X4061511D01*
Y2047489D01*
X4109314D01*
Y1959200D01*
X3967799D01*
X3961599Y1974167D01*
X3947911Y1992006D01*
X3930071Y2005695D01*
X3909296Y2014300D01*
X3887003Y2017235D01*
X3869702D01*
Y1931099D01*
X3844302D01*
Y2017235D01*
X3827003D01*
X3804709Y2014300D01*
X3783935Y2005695D01*
X3781048Y2003480D01*
X3772079Y2007903D01*
Y2166442D01*
X3767783Y2199073D01*
X3755188Y2229481D01*
X3735151Y2255593D01*
X3693265Y2297479D01*
X3691984Y2298462D01*
X3695198Y2307932D01*
X3969000D01*
Y2287382D01*
D02*
G37*
G36*
X3228846Y1742817D02*
X3232506Y1733981D01*
X3237683Y1721483D01*
X3251740Y1703163D01*
X3408408Y1546496D01*
X3404581Y1537257D01*
X3180781D01*
X3157886Y1534243D01*
X3136553Y1525406D01*
X3121057Y1513515D01*
X3111057Y1517397D01*
Y1578416D01*
X3119371Y1583971D01*
X3124197Y1581973D01*
Y1638300D01*
Y1694627D01*
X3119371Y1692629D01*
X3111057Y1698184D01*
Y1752600D01*
X3115179Y1757300D01*
X3137010D01*
X3138792Y1755518D01*
X3154045Y1749200D01*
X3170555D01*
X3185808Y1755518D01*
X3187590Y1757300D01*
X3226939D01*
X3228846Y1742817D01*
D02*
G37*
G36*
X1972274Y2246279D02*
X1993164Y2230250D01*
X2017490Y2220174D01*
X2043595Y2216737D01*
X2043597Y2216737D01*
X2058602D01*
X2060857Y2199606D01*
X2069694Y2178272D01*
X2083752Y2159952D01*
X2237057Y2006646D01*
X2255377Y1992588D01*
X2276711Y1983752D01*
X2299606Y1980737D01*
X2388675D01*
X2392502Y1971498D01*
X2350452Y1929448D01*
X2336394Y1911129D01*
X2331218Y1898631D01*
X2327557Y1889794D01*
X2326050Y1878347D01*
X2324543Y1866900D01*
Y1723583D01*
X2316229Y1718027D01*
X2311400Y1720027D01*
Y1663700D01*
X2287224D01*
X2286692Y1664393D01*
X2286000Y1665085D01*
Y1720027D01*
X2266469Y1711937D01*
X2252805Y1698273D01*
X1975125Y1975953D01*
X1976473Y1982733D01*
X1992479Y1998739D01*
X2000569Y2018270D01*
X1944242D01*
Y2030970D01*
X1931542D01*
Y2087297D01*
X1912011Y2079207D01*
X1896005Y2063201D01*
X1889225Y2061853D01*
X1856077Y2095001D01*
Y2289200D01*
X1867395D01*
X1882447Y2295435D01*
X1923118D01*
X1972274Y2246279D01*
D02*
G37*
G36*
X2552676Y1556508D02*
X2569021Y1563278D01*
X2579021Y1558346D01*
Y1399400D01*
X2583317Y1366769D01*
X2588371Y1354568D01*
X2559941Y1326137D01*
X2549969Y1330268D01*
X2527075Y1333282D01*
X2525367Y1333057D01*
X2523683D01*
X2518127Y1341371D01*
X2520700Y1347582D01*
Y1370218D01*
X2512037Y1391131D01*
X2499050Y1404119D01*
X2501457Y1422400D01*
Y1557821D01*
X2511457Y1563061D01*
X2527276Y1556508D01*
Y1612835D01*
X2552676D01*
Y1556508D01*
D02*
G37*
G36*
X2087829Y1093152D02*
X2096141Y1086774D01*
X2096254Y1085151D01*
X2093529Y1076173D01*
X2074830Y1071162D01*
X2055116Y1059780D01*
X2039020Y1043684D01*
X2027638Y1023970D01*
X2021746Y1001982D01*
Y979218D01*
X2027638Y957230D01*
X2039020Y937516D01*
X2055116Y921420D01*
X2074830Y910038D01*
X2096818Y904146D01*
X2119582D01*
X2141570Y910038D01*
X2161284Y921420D01*
X2177380Y937516D01*
X2188762Y957230D01*
X2194654Y979218D01*
Y1001982D01*
X2188762Y1023970D01*
X2177380Y1043684D01*
X2163821Y1057243D01*
X2167409Y1067243D01*
X2302991D01*
X2306579Y1057243D01*
X2293020Y1043684D01*
X2281638Y1023970D01*
X2275746Y1001982D01*
Y979218D01*
X2281638Y957230D01*
X2293020Y937516D01*
X2309116Y921420D01*
X2328830Y910038D01*
X2350818Y904146D01*
X2373582D01*
X2395570Y910038D01*
X2415284Y921420D01*
X2431380Y937516D01*
X2442762Y957230D01*
X2448654Y979218D01*
Y1001982D01*
X2442762Y1023970D01*
X2431380Y1043684D01*
X2417821Y1057243D01*
X2421409Y1067243D01*
X2514600D01*
X2526047Y1068750D01*
X2537494Y1070257D01*
X2546331Y1073918D01*
X2558829Y1079094D01*
X2577148Y1093152D01*
X2678165Y1194169D01*
X2693782Y1187700D01*
X2716418D01*
X2732031Y1194167D01*
X2794698Y1131500D01*
X2699058Y1035861D01*
X2689144Y1037166D01*
X2685380Y1043684D01*
X2669284Y1059780D01*
X2649570Y1071162D01*
X2627582Y1077054D01*
X2604818D01*
X2582830Y1071162D01*
X2563116Y1059780D01*
X2547020Y1043684D01*
X2535638Y1023970D01*
X2529746Y1001982D01*
Y979218D01*
X2535638Y957230D01*
X2547020Y937516D01*
X2563116Y921420D01*
X2582830Y910038D01*
X2604818Y904146D01*
X2627582D01*
X2634588Y906023D01*
X2642521Y899935D01*
Y827265D01*
X2634588Y821177D01*
X2627582Y823054D01*
X2604818D01*
X2582830Y817162D01*
X2563116Y805780D01*
X2547020Y789684D01*
X2535638Y769970D01*
X2529746Y747982D01*
Y725218D01*
X2535638Y703230D01*
X2547020Y683516D01*
X2563116Y667420D01*
X2582830Y656038D01*
X2604818Y650146D01*
X2627582D01*
X2634588Y652023D01*
X2642521Y645935D01*
Y589208D01*
X2634588Y583120D01*
X2629609Y584454D01*
X2628900D01*
Y482600D01*
X2616200D01*
Y469900D01*
X2514346D01*
Y469191D01*
X2521287Y443286D01*
X2534696Y420060D01*
X2553660Y401096D01*
X2576886Y387687D01*
X2602791Y380746D01*
X2605011D01*
X2610015Y370746D01*
X2607492Y367379D01*
X890311D01*
X887789Y370746D01*
X892792Y380746D01*
X940054D01*
Y469900D01*
X838200D01*
Y482600D01*
X825500D01*
Y584454D01*
X824579D01*
Y636933D01*
X824579Y636935D01*
X824003Y641312D01*
X832926Y650146D01*
X849582D01*
X871570Y656038D01*
X891284Y667420D01*
X907380Y683516D01*
X918762Y703230D01*
X924654Y725218D01*
Y747982D01*
X918762Y769970D01*
X907380Y789684D01*
X891284Y805780D01*
X871570Y817162D01*
X849582Y823054D01*
X826818D01*
X804830Y817162D01*
X785116Y805780D01*
X769020Y789684D01*
X757638Y769970D01*
X757295Y768690D01*
X747636Y766102D01*
X658379Y855359D01*
Y1299890D01*
X658379Y1299892D01*
X656767Y1312134D01*
X659018Y1314700D01*
X679931Y1323363D01*
X695937Y1339369D01*
X699983Y1349135D01*
X882900D01*
Y1347582D01*
X891563Y1326669D01*
X907569Y1310663D01*
X928482Y1302000D01*
X951118D01*
X972031Y1310663D01*
X988037Y1326669D01*
X996700Y1347582D01*
Y1349135D01*
X1310592D01*
X1333487Y1352149D01*
X1354820Y1360986D01*
X1373140Y1375044D01*
X1501864Y1503767D01*
X1504469Y1501163D01*
X1525382Y1492500D01*
X1548018D01*
X1568931Y1501163D01*
X1582909Y1515140D01*
X1600793Y1512786D01*
X1623687Y1515800D01*
X1645021Y1524637D01*
X1651428Y1529553D01*
X2087829Y1093152D01*
D02*
G37*
G36*
X3978699Y1808400D02*
X4109314D01*
Y1214200D01*
X3962479D01*
X3957547Y1224200D01*
X3969987Y1240413D01*
X3972122Y1245566D01*
X3987800Y1239073D01*
Y1295400D01*
Y1353223D01*
X3986879Y1353839D01*
Y1640221D01*
X3983376Y1666831D01*
X3986418Y1670300D01*
X4007331Y1678963D01*
X4023337Y1694969D01*
X4031427Y1714500D01*
X3975100D01*
Y1727200D01*
X3962400D01*
Y1783527D01*
X3942869Y1775437D01*
X3929484Y1762053D01*
X3917750Y1761574D01*
X3891372Y1787951D01*
X3877756Y1798400D01*
X3881150Y1808400D01*
X3953299D01*
Y1883800D01*
X3978699D01*
Y1808400D01*
D02*
G37*
G36*
X3535600Y1336501D02*
X3646000D01*
Y1311101D01*
X3535600D01*
Y1268400D01*
X3634380D01*
X3638207Y1259161D01*
X3555749Y1176703D01*
X3535713Y1150591D01*
X3531503Y1140428D01*
X3521474Y1136770D01*
X3502977Y1144432D01*
X3499999Y1144824D01*
X3499667Y1154954D01*
X3503774Y1155771D01*
X3516638Y1161099D01*
X3523253Y1165519D01*
X3533100Y1175365D01*
X3537520Y1181981D01*
X3542848Y1194845D01*
X3544401Y1202649D01*
Y1216574D01*
X3542848Y1224377D01*
X3537520Y1237242D01*
X3533100Y1243857D01*
X3523254Y1253703D01*
X3516638Y1258124D01*
X3503774Y1263452D01*
X3495970Y1265005D01*
X3482045D01*
X3474242Y1263452D01*
X3461377Y1258124D01*
X3454762Y1253703D01*
X3444916Y1243857D01*
X3440495Y1237242D01*
X3435167Y1224377D01*
X3433614Y1216574D01*
Y1202649D01*
X3435167Y1194845D01*
X3440495Y1181981D01*
X3444916Y1175366D01*
X3454762Y1165519D01*
X3461377Y1161099D01*
X3470803Y1157195D01*
X3468814Y1147195D01*
X3449688D01*
Y1066102D01*
X3424288D01*
Y1147195D01*
X3391988D01*
X3371000Y1144432D01*
X3351442Y1136330D01*
X3334647Y1123443D01*
X3332558Y1120721D01*
X3322579Y1120067D01*
X3231900Y1210746D01*
Y1230518D01*
X3223237Y1251431D01*
X3207231Y1267437D01*
X3186318Y1276100D01*
X3166546D01*
X3149862Y1292784D01*
X3217421Y1360343D01*
X3535600D01*
Y1336501D01*
D02*
G37*
G36*
X212300Y2047192D02*
X237979D01*
X241806Y2037953D01*
X190249Y1986396D01*
X170213Y1960284D01*
X166568Y1951485D01*
X157640D01*
X136727Y1942823D01*
X120721Y1926816D01*
X112058Y1905903D01*
Y1883267D01*
X120721Y1862354D01*
X136727Y1846348D01*
X153321Y1839474D01*
Y1697485D01*
X144940D01*
X124027Y1688823D01*
X108021Y1672816D01*
X99358Y1651903D01*
Y1629267D01*
X108021Y1608354D01*
X124027Y1592348D01*
X144940Y1583685D01*
X153321D01*
Y1435100D01*
X157617Y1402468D01*
X170213Y1372061D01*
X190249Y1345949D01*
X312757Y1223441D01*
X326374Y1212992D01*
X322979Y1202992D01*
X212301D01*
Y1140292D01*
X360000D01*
Y1185651D01*
X367159Y1190435D01*
X370000Y1190714D01*
X401908Y1186513D01*
X406221Y1178334D01*
Y803135D01*
X410517Y770504D01*
X423112Y740096D01*
X443149Y713984D01*
X572421Y584712D01*
Y541716D01*
X562852Y538813D01*
X557555Y546740D01*
X521340Y582955D01*
X478756Y611409D01*
X431439Y631008D01*
X381208Y641000D01*
X329992D01*
X279761Y631008D01*
X232444Y611409D01*
X189860Y582955D01*
X153645Y546740D01*
X125191Y504156D01*
X105592Y456839D01*
X95600Y406608D01*
Y355392D01*
X105592Y305161D01*
X125191Y257844D01*
X153645Y215260D01*
X189860Y179045D01*
X232444Y150591D01*
X279761Y130992D01*
X329992Y121000D01*
X381208D01*
X431439Y130992D01*
X478756Y150591D01*
X521340Y179045D01*
X557555Y215260D01*
X586009Y257844D01*
X598188Y287246D01*
X608103Y288552D01*
X609349Y286928D01*
X744128Y152149D01*
X770239Y132113D01*
X800647Y119517D01*
X833279Y115221D01*
X2664525D01*
X2697156Y119517D01*
X2727564Y132113D01*
X2753676Y152149D01*
X2857751Y256224D01*
X2877787Y282336D01*
X2890383Y312744D01*
X2894679Y345375D01*
Y484157D01*
X3021043D01*
Y675118D01*
X3031043Y679260D01*
X3080675Y629629D01*
X3082777Y624552D01*
X3081775Y622815D01*
X3074957Y597371D01*
Y571029D01*
X3081775Y545585D01*
X3094946Y522772D01*
X3113572Y504146D01*
X3136385Y490975D01*
X3161829Y484157D01*
X3188171D01*
X3213615Y490975D01*
X3236428Y504146D01*
X3236516Y504234D01*
X3244629Y507594D01*
X3262948Y521652D01*
X3277006Y539971D01*
X3285843Y561306D01*
X3288857Y584200D01*
Y586181D01*
X3298096Y590008D01*
X3333306Y554797D01*
X3335775Y545585D01*
X3348946Y522772D01*
X3367572Y504146D01*
X3390385Y490975D01*
X3415829Y484157D01*
X3442171D01*
X3467615Y490975D01*
X3490428Y504146D01*
X3509054Y522772D01*
X3522225Y545585D01*
X3529043Y571029D01*
Y597371D01*
X3522225Y622815D01*
X3509054Y645628D01*
X3490428Y664254D01*
X3467615Y677425D01*
X3458403Y679894D01*
X3432895Y705401D01*
X3437318Y714370D01*
X3454400Y712121D01*
X3476071D01*
X3508703Y716417D01*
X3539111Y729013D01*
X3565222Y749049D01*
X3592966Y776793D01*
X3608994Y789092D01*
X3734050Y914148D01*
X3734051Y914149D01*
X3754087Y940261D01*
X3766683Y970668D01*
X3769452Y991702D01*
X3778691Y995529D01*
X3783935Y991505D01*
X3804709Y982900D01*
X3827003Y979965D01*
X3844302D01*
Y1066102D01*
X3869702D01*
Y979965D01*
X3887003D01*
X3909296Y982900D01*
X3930071Y991505D01*
X3947911Y1005194D01*
X3961599Y1023033D01*
X3970204Y1043808D01*
X3972784Y1063400D01*
X4109314D01*
Y355792D01*
Y338134D01*
X4104704Y303120D01*
X4095563Y269005D01*
X4082048Y236377D01*
X4064390Y205792D01*
X4042890Y177774D01*
X4017918Y152802D01*
X3989900Y131303D01*
X3959314Y113644D01*
X3926687Y100129D01*
X3892572Y90988D01*
X3857558Y86379D01*
X322242D01*
X287228Y90988D01*
X253113Y100129D01*
X220485Y113644D01*
X189900Y131302D01*
X161882Y152802D01*
X136910Y177774D01*
X115410Y205792D01*
X97752Y236378D01*
X84237Y269005D01*
X75096Y303120D01*
X70487Y338134D01*
Y355792D01*
Y1052192D01*
X186901D01*
Y1127592D01*
Y1202992D01*
X70487D01*
Y2047192D01*
X186900D01*
Y2122591D01*
X212300D01*
Y2047192D01*
D02*
G37*
%LPC*%
G36*
X1625600Y5174427D02*
Y5130800D01*
X1669227D01*
X1661137Y5150331D01*
X1645131Y5166337D01*
X1625600Y5174427D01*
D02*
G37*
G36*
X1600200D02*
X1580669Y5166337D01*
X1564663Y5150331D01*
X1556573Y5130800D01*
X1600200D01*
Y5174427D01*
D02*
G37*
G36*
X1259863Y5168558D02*
Y5124931D01*
X1303490D01*
X1295400Y5144462D01*
X1279394Y5160468D01*
X1259863Y5168558D01*
D02*
G37*
G36*
X1234463D02*
X1214932Y5160468D01*
X1198925Y5144462D01*
X1190835Y5124931D01*
X1234463D01*
Y5168558D01*
D02*
G37*
G36*
X2830076Y5132524D02*
Y5088897D01*
X2873703D01*
X2865614Y5108428D01*
X2849607Y5124434D01*
X2830076Y5132524D01*
D02*
G37*
G36*
X2804676D02*
X2785145Y5124434D01*
X2769139Y5108428D01*
X2761049Y5088897D01*
X2804676D01*
Y5132524D01*
D02*
G37*
G36*
X2873703Y5063497D02*
X2830076D01*
Y5019869D01*
X2849607Y5027959D01*
X2865614Y5043966D01*
X2873703Y5063497D01*
D02*
G37*
G36*
X2804676D02*
X2761049D01*
X2769139Y5043966D01*
X2785145Y5027959D01*
X2804676Y5019869D01*
Y5063497D01*
D02*
G37*
G36*
X1995300Y5045500D02*
X1932600D01*
Y4897800D01*
X1995300D01*
Y5045500D01*
D02*
G37*
G36*
X1907200D02*
X1844500D01*
Y4897800D01*
X1907200D01*
Y5045500D01*
D02*
G37*
G36*
X912200D02*
X849500D01*
Y4897800D01*
X912200D01*
Y5045500D01*
D02*
G37*
G36*
X2842776Y4853124D02*
Y4809497D01*
X2886403D01*
X2878314Y4829028D01*
X2862307Y4845034D01*
X2842776Y4853124D01*
D02*
G37*
G36*
X2817376D02*
X2797845Y4845034D01*
X2781839Y4829028D01*
X2773749Y4809497D01*
X2817376D01*
Y4853124D01*
D02*
G37*
G36*
X1977597Y4852625D02*
Y4808997D01*
X2021224D01*
X2013134Y4828528D01*
X1997128Y4844535D01*
X1977597Y4852625D01*
D02*
G37*
G36*
X1952197D02*
X1932666Y4844535D01*
X1916660Y4828528D01*
X1908570Y4808997D01*
X1952197D01*
Y4852625D01*
D02*
G37*
G36*
X777597D02*
Y4808997D01*
X821225D01*
X813135Y4828528D01*
X797128Y4844535D01*
X777597Y4852625D01*
D02*
G37*
G36*
X752197D02*
X732666Y4844535D01*
X716660Y4828528D01*
X708570Y4808997D01*
X752197D01*
Y4852625D01*
D02*
G37*
G36*
X2886403Y4784097D02*
X2842776D01*
Y4740469D01*
X2862307Y4748559D01*
X2878314Y4764566D01*
X2886403Y4784097D01*
D02*
G37*
G36*
X2817376D02*
X2773749D01*
X2781839Y4764566D01*
X2797845Y4748559D01*
X2817376Y4740469D01*
Y4784097D01*
D02*
G37*
G36*
X2021224Y4783597D02*
X1977597D01*
Y4739970D01*
X1997128Y4748060D01*
X2013134Y4764066D01*
X2021224Y4783597D01*
D02*
G37*
G36*
X1952197D02*
X1908570D01*
X1916660Y4764066D01*
X1932666Y4748060D01*
X1952197Y4739970D01*
Y4783597D01*
D02*
G37*
G36*
X821225D02*
X777597D01*
Y4739970D01*
X797128Y4748060D01*
X813135Y4764066D01*
X821225Y4783597D01*
D02*
G37*
G36*
X752197D02*
X708570D01*
X716660Y4764066D01*
X732666Y4748060D01*
X752197Y4739970D01*
Y4783597D01*
D02*
G37*
G36*
X393908Y5162200D02*
X342692D01*
X292461Y5152208D01*
X245144Y5132609D01*
X202560Y5104155D01*
X166345Y5067940D01*
X137891Y5025356D01*
X118292Y4978039D01*
X108300Y4927808D01*
Y4876592D01*
X118292Y4826361D01*
X137891Y4779044D01*
X166345Y4736460D01*
X202560Y4700245D01*
X245144Y4671791D01*
X292461Y4652192D01*
X342692Y4642200D01*
X393908D01*
X444139Y4652192D01*
X491456Y4671791D01*
X534040Y4700245D01*
X570255Y4736460D01*
X598709Y4779044D01*
X618308Y4826361D01*
X628300Y4876592D01*
Y4927808D01*
X618308Y4978039D01*
X598709Y5025356D01*
X570255Y5067940D01*
X534040Y5104155D01*
X491456Y5132609D01*
X444139Y5152208D01*
X393908Y5162200D01*
D02*
G37*
G36*
X902197Y4552625D02*
X882666Y4544535D01*
X866660Y4528528D01*
X858570Y4508997D01*
X902197D01*
Y4552625D01*
D02*
G37*
G36*
X627597D02*
Y4508997D01*
X671225D01*
X663135Y4528528D01*
X647128Y4544535D01*
X627597Y4552625D01*
D02*
G37*
G36*
X602197D02*
X582666Y4544535D01*
X566660Y4528528D01*
X558570Y4508997D01*
X602197D01*
Y4552625D01*
D02*
G37*
G36*
X327598D02*
Y4508997D01*
X371225D01*
X363135Y4528528D01*
X347129Y4544535D01*
X327598Y4552625D01*
D02*
G37*
G36*
X302198D02*
X282666Y4544535D01*
X266660Y4528528D01*
X258570Y4508997D01*
X302198D01*
Y4552625D01*
D02*
G37*
G36*
X902197Y4483597D02*
X858570D01*
X866660Y4464066D01*
X882666Y4448060D01*
X902197Y4439970D01*
Y4483597D01*
D02*
G37*
G36*
X671225D02*
X627597D01*
Y4439970D01*
X647128Y4448060D01*
X663135Y4464066D01*
X671225Y4483597D01*
D02*
G37*
G36*
X602197D02*
X558570D01*
X566660Y4464066D01*
X582666Y4448060D01*
X602197Y4439970D01*
Y4483597D01*
D02*
G37*
G36*
X371225D02*
X327598D01*
Y4439970D01*
X347129Y4448060D01*
X363135Y4464066D01*
X371225Y4483597D01*
D02*
G37*
G36*
X302198D02*
X258570D01*
X266660Y4464066D01*
X282666Y4448060D01*
X302198Y4439970D01*
Y4483597D01*
D02*
G37*
G36*
X777597Y4252625D02*
Y4208997D01*
X821225D01*
X813135Y4228528D01*
X797128Y4244535D01*
X777597Y4252625D01*
D02*
G37*
G36*
X752197D02*
X732666Y4244535D01*
X716660Y4228528D01*
X708570Y4208997D01*
X752197D01*
Y4252625D01*
D02*
G37*
G36*
X477597D02*
Y4208997D01*
X521225D01*
X513135Y4228528D01*
X497129Y4244535D01*
X477597Y4252625D01*
D02*
G37*
G36*
X452197D02*
X432666Y4244535D01*
X416660Y4228528D01*
X408570Y4208997D01*
X452197D01*
Y4252625D01*
D02*
G37*
G36*
X821225Y4183597D02*
X777597D01*
Y4139970D01*
X797128Y4148060D01*
X813135Y4164066D01*
X821225Y4183597D01*
D02*
G37*
G36*
X752197D02*
X708570D01*
X716660Y4164066D01*
X732666Y4148060D01*
X752197Y4139970D01*
Y4183597D01*
D02*
G37*
G36*
X521225D02*
X477597D01*
Y4139970D01*
X497129Y4148060D01*
X513135Y4164066D01*
X521225Y4183597D01*
D02*
G37*
G36*
X452197D02*
X408570D01*
X416660Y4164066D01*
X432666Y4148060D01*
X452197Y4139970D01*
Y4183597D01*
D02*
G37*
G36*
X215900Y3726627D02*
Y3683000D01*
X259527D01*
X251437Y3702531D01*
X235431Y3718537D01*
X215900Y3726627D01*
D02*
G37*
G36*
X190500D02*
X170969Y3718537D01*
X154963Y3702531D01*
X146873Y3683000D01*
X190500D01*
Y3726627D01*
D02*
G37*
G36*
X259527Y3657600D02*
X215900D01*
Y3613973D01*
X235431Y3622063D01*
X251437Y3638069D01*
X259527Y3657600D01*
D02*
G37*
G36*
X190500D02*
X146873D01*
X154963Y3638069D01*
X170969Y3622063D01*
X190500Y3613973D01*
Y3657600D01*
D02*
G37*
G36*
X215900Y3498027D02*
Y3454400D01*
X259527D01*
X251437Y3473931D01*
X235431Y3489937D01*
X215900Y3498027D01*
D02*
G37*
G36*
X190500D02*
X170969Y3489937D01*
X154963Y3473931D01*
X146873Y3454400D01*
X190500D01*
Y3498027D01*
D02*
G37*
G36*
X1310800Y3929923D02*
Y3886296D01*
X1354427D01*
X1346337Y3905827D01*
X1330331Y3921833D01*
X1310800Y3929923D01*
D02*
G37*
G36*
X1354427Y3860896D02*
X1310800D01*
Y3817269D01*
X1330331Y3825359D01*
X1346337Y3841365D01*
X1354427Y3860896D01*
D02*
G37*
G36*
X3848308Y5162200D02*
X3797092D01*
X3746861Y5152208D01*
X3699544Y5132609D01*
X3656960Y5104155D01*
X3620745Y5067940D01*
X3592291Y5025356D01*
X3572692Y4978039D01*
X3562700Y4927808D01*
Y4876592D01*
X3572692Y4826361D01*
X3592291Y4779044D01*
X3620745Y4736460D01*
X3656960Y4700245D01*
X3699544Y4671791D01*
X3746861Y4652192D01*
X3797092Y4642200D01*
X3848308D01*
X3898539Y4652192D01*
X3945856Y4671791D01*
X3988440Y4700245D01*
X4024655Y4736460D01*
X4053109Y4779044D01*
X4072708Y4826361D01*
X4082700Y4876592D01*
Y4927808D01*
X4072708Y4978039D01*
X4053109Y5025356D01*
X4024655Y5067940D01*
X3988440Y5104155D01*
X3945856Y5132609D01*
X3898539Y5152208D01*
X3848308Y5162200D01*
D02*
G37*
G36*
X3927596Y4552625D02*
Y4508997D01*
X3971224D01*
X3963134Y4528528D01*
X3947127Y4544535D01*
X3927596Y4552625D01*
D02*
G37*
G36*
X3902196D02*
X3882665Y4544535D01*
X3866659Y4528528D01*
X3858569Y4508997D01*
X3902196D01*
Y4552625D01*
D02*
G37*
G36*
X3971224Y4483597D02*
X3927596D01*
Y4439970D01*
X3947127Y4448060D01*
X3963134Y4464066D01*
X3971224Y4483597D01*
D02*
G37*
G36*
X3902196D02*
X3858569D01*
X3866659Y4464066D01*
X3882665Y4448060D01*
X3902196Y4439970D01*
Y4483597D01*
D02*
G37*
G36*
X3777596Y4252625D02*
Y4208997D01*
X3821224D01*
X3813134Y4228528D01*
X3797128Y4244535D01*
X3777596Y4252625D01*
D02*
G37*
G36*
X3752196D02*
X3732665Y4244535D01*
X3716659Y4228528D01*
X3708569Y4208997D01*
X3752196D01*
Y4252625D01*
D02*
G37*
G36*
X4016000Y4275400D02*
X3913300D01*
Y4202700D01*
X4016000D01*
Y4275400D01*
D02*
G37*
G36*
Y4177300D02*
X3913300D01*
Y4104600D01*
X4016000D01*
Y4177300D01*
D02*
G37*
G36*
X4038600Y4006027D02*
Y3962400D01*
X4082227D01*
X4074137Y3981931D01*
X4058131Y3997937D01*
X4038600Y4006027D01*
D02*
G37*
G36*
X4013200D02*
X3993669Y3997937D01*
X3977663Y3981931D01*
X3969573Y3962400D01*
X4013200D01*
Y4006027D01*
D02*
G37*
G36*
X4082227Y3937000D02*
X4038600D01*
Y3893373D01*
X4058131Y3901463D01*
X4074137Y3917469D01*
X4082227Y3937000D01*
D02*
G37*
G36*
X4013200D02*
X3969573D01*
X3977663Y3917469D01*
X3993669Y3901463D01*
X4013200Y3893373D01*
Y3937000D01*
D02*
G37*
G36*
X4052196Y3652625D02*
X4032665Y3644535D01*
X4016659Y3628529D01*
X4008569Y3608998D01*
X4052196D01*
Y3652625D01*
D02*
G37*
G36*
Y3583598D02*
X4008569D01*
X4016659Y3564067D01*
X4032665Y3548060D01*
X4052196Y3539970D01*
Y3583598D01*
D02*
G37*
G36*
X4016000Y3515400D02*
X3913300D01*
Y3442700D01*
X4016000D01*
Y3515400D01*
D02*
G37*
G36*
X821225Y3583598D02*
X777597D01*
Y3539970D01*
X797128Y3548060D01*
X813135Y3564067D01*
X821225Y3583598D01*
D02*
G37*
G36*
X622300Y3434527D02*
Y3390900D01*
X665927D01*
X657837Y3410431D01*
X641831Y3426437D01*
X622300Y3434527D01*
D02*
G37*
G36*
X665927Y3365500D02*
X622300D01*
Y3321873D01*
X641831Y3329963D01*
X657837Y3345969D01*
X665927Y3365500D01*
D02*
G37*
G36*
X663100Y3231423D02*
Y3187796D01*
X706727D01*
X698637Y3207327D01*
X682631Y3223333D01*
X663100Y3231423D01*
D02*
G37*
G36*
X234127Y3035300D02*
X190500D01*
Y2991673D01*
X210031Y2999763D01*
X226037Y3015769D01*
X234127Y3035300D01*
D02*
G37*
G36*
X165100D02*
X121473D01*
X129563Y3015769D01*
X145569Y2999763D01*
X165100Y2991673D01*
Y3035300D01*
D02*
G37*
G36*
X190500Y2888427D02*
Y2844800D01*
X234127D01*
X226037Y2864331D01*
X210031Y2880337D01*
X190500Y2888427D01*
D02*
G37*
G36*
X165100D02*
X145569Y2880337D01*
X129563Y2864331D01*
X121473Y2844800D01*
X165100D01*
Y2888427D01*
D02*
G37*
G36*
X234127Y2819400D02*
X190500D01*
Y2775773D01*
X210031Y2783863D01*
X226037Y2799869D01*
X234127Y2819400D01*
D02*
G37*
G36*
X165100D02*
X121473D01*
X129563Y2799869D01*
X145569Y2783863D01*
X165100Y2775773D01*
Y2819400D01*
D02*
G37*
G36*
X190500Y2672527D02*
Y2628900D01*
X234127D01*
X226037Y2648431D01*
X210031Y2664437D01*
X190500Y2672527D01*
D02*
G37*
G36*
X165100D02*
X145569Y2664437D01*
X129563Y2648431D01*
X121473Y2628900D01*
X165100D01*
Y2672527D01*
D02*
G37*
G36*
X234127Y2603500D02*
X190500D01*
Y2559873D01*
X210031Y2567963D01*
X226037Y2583969D01*
X234127Y2603500D01*
D02*
G37*
G36*
X165100D02*
X121473D01*
X129563Y2583969D01*
X145569Y2567963D01*
X165100Y2559873D01*
Y2603500D01*
D02*
G37*
G36*
X190500Y2456627D02*
Y2413000D01*
X234127D01*
X226037Y2432531D01*
X210031Y2448537D01*
X190500Y2456627D01*
D02*
G37*
G36*
X165100D02*
X145569Y2448537D01*
X129563Y2432531D01*
X121473Y2413000D01*
X165100D01*
Y2456627D01*
D02*
G37*
G36*
X234127Y2387600D02*
X190500D01*
Y2343973D01*
X210031Y2352063D01*
X226037Y2368069D01*
X234127Y2387600D01*
D02*
G37*
G36*
X165100D02*
X121473D01*
X129563Y2368069D01*
X145569Y2352063D01*
X165100Y2343973D01*
Y2387600D01*
D02*
G37*
G36*
X4036111Y2137689D02*
X3955910D01*
Y2047489D01*
X4036111D01*
Y2137689D01*
D02*
G37*
G36*
X3149597Y1694627D02*
Y1651000D01*
X3193225D01*
X3185135Y1670531D01*
X3169128Y1686537D01*
X3149597Y1694627D01*
D02*
G37*
G36*
X3193225Y1625600D02*
X3149597D01*
Y1581973D01*
X3169128Y1590063D01*
X3185135Y1606069D01*
X3193225Y1625600D01*
D02*
G37*
G36*
X1956942Y2087297D02*
Y2043670D01*
X2000569D01*
X1992479Y2063201D01*
X1976473Y2079207D01*
X1956942Y2087297D01*
D02*
G37*
G36*
X1227597Y952626D02*
Y908998D01*
X1271225D01*
X1263135Y928530D01*
X1247128Y944536D01*
X1227597Y952626D01*
D02*
G37*
G36*
X1202197D02*
X1182666Y944536D01*
X1166660Y928530D01*
X1158570Y908998D01*
X1202197D01*
Y952626D01*
D02*
G37*
G36*
X1865582Y1077054D02*
X1842818D01*
X1820830Y1071162D01*
X1801116Y1059780D01*
X1785020Y1043684D01*
X1773638Y1023970D01*
X1767746Y1001982D01*
Y979218D01*
X1773638Y957230D01*
X1785020Y937516D01*
X1801116Y921420D01*
X1820830Y910038D01*
X1842818Y904146D01*
X1865582D01*
X1887570Y910038D01*
X1907284Y921420D01*
X1923380Y937516D01*
X1934762Y957230D01*
X1940654Y979218D01*
Y1001982D01*
X1934762Y1023970D01*
X1923380Y1043684D01*
X1907284Y1059780D01*
X1887570Y1071162D01*
X1865582Y1077054D01*
D02*
G37*
G36*
X1611582D02*
X1588818D01*
X1566830Y1071162D01*
X1547116Y1059780D01*
X1531020Y1043684D01*
X1519638Y1023970D01*
X1513746Y1001982D01*
Y979218D01*
X1519638Y957230D01*
X1531020Y937516D01*
X1547116Y921420D01*
X1566830Y910038D01*
X1588818Y904146D01*
X1611582D01*
X1633570Y910038D01*
X1653284Y921420D01*
X1669380Y937516D01*
X1680762Y957230D01*
X1686654Y979218D01*
Y1001982D01*
X1680762Y1023970D01*
X1669380Y1043684D01*
X1653284Y1059780D01*
X1633570Y1071162D01*
X1611582Y1077054D01*
D02*
G37*
G36*
X1357582D02*
X1334818D01*
X1312830Y1071162D01*
X1293116Y1059780D01*
X1277020Y1043684D01*
X1265638Y1023970D01*
X1259746Y1001982D01*
Y979218D01*
X1265638Y957230D01*
X1277020Y937516D01*
X1293116Y921420D01*
X1312830Y910038D01*
X1334818Y904146D01*
X1357582D01*
X1379570Y910038D01*
X1399284Y921420D01*
X1415380Y937516D01*
X1426762Y957230D01*
X1432654Y979218D01*
Y1001982D01*
X1426762Y1023970D01*
X1415380Y1043684D01*
X1399284Y1059780D01*
X1379570Y1071162D01*
X1357582Y1077054D01*
D02*
G37*
G36*
X1103582D02*
X1080818D01*
X1058830Y1071162D01*
X1039116Y1059780D01*
X1023020Y1043684D01*
X1011638Y1023970D01*
X1005746Y1001982D01*
Y979218D01*
X1011638Y957230D01*
X1023020Y937516D01*
X1039116Y921420D01*
X1058830Y910038D01*
X1080818Y904146D01*
X1103582D01*
X1125570Y910038D01*
X1145284Y921420D01*
X1161380Y937516D01*
X1172762Y957230D01*
X1178654Y979218D01*
Y1001982D01*
X1172762Y1023970D01*
X1161380Y1043684D01*
X1145284Y1059780D01*
X1125570Y1071162D01*
X1103582Y1077054D01*
D02*
G37*
G36*
X849582D02*
X826818D01*
X804830Y1071162D01*
X785116Y1059780D01*
X769020Y1043684D01*
X757638Y1023970D01*
X751746Y1001982D01*
Y979218D01*
X757638Y957230D01*
X769020Y937516D01*
X785116Y921420D01*
X804830Y910038D01*
X826818Y904146D01*
X849582D01*
X871570Y910038D01*
X891284Y921420D01*
X907380Y937516D01*
X918762Y957230D01*
X924654Y979218D01*
Y1001982D01*
X918762Y1023970D01*
X907380Y1043684D01*
X891284Y1059780D01*
X871570Y1071162D01*
X849582Y1077054D01*
D02*
G37*
G36*
X1271225Y883598D02*
X1227597D01*
Y839971D01*
X1247128Y848061D01*
X1263135Y864067D01*
X1271225Y883598D01*
D02*
G37*
G36*
X1202197D02*
X1158570D01*
X1166660Y864067D01*
X1182666Y848061D01*
X1202197Y839971D01*
Y883598D01*
D02*
G37*
G36*
X2373582Y823054D02*
X2350818D01*
X2328830Y817162D01*
X2309116Y805780D01*
X2293020Y789684D01*
X2281638Y769970D01*
X2275746Y747982D01*
Y725218D01*
X2281638Y703230D01*
X2293020Y683516D01*
X2309116Y667420D01*
X2328830Y656038D01*
X2350818Y650146D01*
X2373582D01*
X2395570Y656038D01*
X2415284Y667420D01*
X2431380Y683516D01*
X2442762Y703230D01*
X2448654Y725218D01*
Y747982D01*
X2442762Y769970D01*
X2431380Y789684D01*
X2415284Y805780D01*
X2395570Y817162D01*
X2373582Y823054D01*
D02*
G37*
G36*
X2119582D02*
X2096818D01*
X2074830Y817162D01*
X2055116Y805780D01*
X2039020Y789684D01*
X2027638Y769970D01*
X2021746Y747982D01*
Y725218D01*
X2027638Y703230D01*
X2039020Y683516D01*
X2055116Y667420D01*
X2074830Y656038D01*
X2096818Y650146D01*
X2119582D01*
X2141570Y656038D01*
X2161284Y667420D01*
X2177380Y683516D01*
X2188762Y703230D01*
X2194654Y725218D01*
Y747982D01*
X2188762Y769970D01*
X2177380Y789684D01*
X2161284Y805780D01*
X2141570Y817162D01*
X2119582Y823054D01*
D02*
G37*
G36*
X1865582D02*
X1842818D01*
X1820830Y817162D01*
X1801116Y805780D01*
X1785020Y789684D01*
X1773638Y769970D01*
X1767746Y747982D01*
Y725218D01*
X1773638Y703230D01*
X1785020Y683516D01*
X1801116Y667420D01*
X1820830Y656038D01*
X1842818Y650146D01*
X1865582D01*
X1887570Y656038D01*
X1907284Y667420D01*
X1923380Y683516D01*
X1934762Y703230D01*
X1940654Y725218D01*
Y747982D01*
X1934762Y769970D01*
X1923380Y789684D01*
X1907284Y805780D01*
X1887570Y817162D01*
X1865582Y823054D01*
D02*
G37*
G36*
X1611582D02*
X1588818D01*
X1566830Y817162D01*
X1547116Y805780D01*
X1531020Y789684D01*
X1519638Y769970D01*
X1513746Y747982D01*
Y725218D01*
X1519638Y703230D01*
X1531020Y683516D01*
X1547116Y667420D01*
X1566830Y656038D01*
X1588818Y650146D01*
X1611582D01*
X1633570Y656038D01*
X1653284Y667420D01*
X1669380Y683516D01*
X1680762Y703230D01*
X1686654Y725218D01*
Y747982D01*
X1680762Y769970D01*
X1669380Y789684D01*
X1653284Y805780D01*
X1633570Y817162D01*
X1611582Y823054D01*
D02*
G37*
G36*
X1357582D02*
X1334818D01*
X1312830Y817162D01*
X1293116Y805780D01*
X1277020Y789684D01*
X1265638Y769970D01*
X1259746Y747982D01*
Y725218D01*
X1265638Y703230D01*
X1277020Y683516D01*
X1293116Y667420D01*
X1312830Y656038D01*
X1334818Y650146D01*
X1357582D01*
X1379570Y656038D01*
X1399284Y667420D01*
X1415380Y683516D01*
X1426762Y703230D01*
X1432654Y725218D01*
Y747982D01*
X1426762Y769970D01*
X1415380Y789684D01*
X1399284Y805780D01*
X1379570Y817162D01*
X1357582Y823054D01*
D02*
G37*
G36*
X1103582D02*
X1080818D01*
X1058830Y817162D01*
X1039116Y805780D01*
X1023020Y789684D01*
X1011638Y769970D01*
X1005746Y747982D01*
Y725218D01*
X1011638Y703230D01*
X1023020Y683516D01*
X1039116Y667420D01*
X1058830Y656038D01*
X1080818Y650146D01*
X1103582D01*
X1125570Y656038D01*
X1145284Y667420D01*
X1161380Y683516D01*
X1172762Y703230D01*
X1178654Y725218D01*
Y747982D01*
X1172762Y769970D01*
X1161380Y789684D01*
X1145284Y805780D01*
X1125570Y817162D01*
X1103582Y823054D01*
D02*
G37*
G36*
X2603500Y584454D02*
X2602791D01*
X2576886Y577513D01*
X2553660Y564104D01*
X2534696Y545140D01*
X2521287Y521914D01*
X2514346Y496009D01*
Y495300D01*
X2603500D01*
Y584454D01*
D02*
G37*
G36*
X2375609D02*
X2374900D01*
Y495300D01*
X2464054D01*
Y496009D01*
X2457113Y521914D01*
X2443704Y545140D01*
X2424740Y564104D01*
X2401514Y577513D01*
X2375609Y584454D01*
D02*
G37*
G36*
X2349500D02*
X2348791D01*
X2322886Y577513D01*
X2299660Y564104D01*
X2280696Y545140D01*
X2267287Y521914D01*
X2260346Y496009D01*
Y495300D01*
X2349500D01*
Y584454D01*
D02*
G37*
G36*
X2121609D02*
X2120900D01*
Y495300D01*
X2210054D01*
Y496009D01*
X2203113Y521914D01*
X2189704Y545140D01*
X2170740Y564104D01*
X2147514Y577513D01*
X2121609Y584454D01*
D02*
G37*
G36*
X2095500D02*
X2094791D01*
X2068886Y577513D01*
X2045660Y564104D01*
X2026696Y545140D01*
X2013287Y521914D01*
X2006346Y496009D01*
Y495300D01*
X2095500D01*
Y584454D01*
D02*
G37*
G36*
X1867609D02*
X1866900D01*
Y495300D01*
X1956054D01*
Y496009D01*
X1949113Y521914D01*
X1935704Y545140D01*
X1916740Y564104D01*
X1893514Y577513D01*
X1867609Y584454D01*
D02*
G37*
G36*
X1841500D02*
X1840791D01*
X1814886Y577513D01*
X1791660Y564104D01*
X1772696Y545140D01*
X1759287Y521914D01*
X1752346Y496009D01*
Y495300D01*
X1841500D01*
Y584454D01*
D02*
G37*
G36*
X1613609D02*
X1612900D01*
Y495300D01*
X1702054D01*
Y496009D01*
X1695113Y521914D01*
X1681704Y545140D01*
X1662740Y564104D01*
X1639514Y577513D01*
X1613609Y584454D01*
D02*
G37*
G36*
X1587500D02*
X1586791D01*
X1560886Y577513D01*
X1537660Y564104D01*
X1518696Y545140D01*
X1505287Y521914D01*
X1498346Y496009D01*
Y495300D01*
X1587500D01*
Y584454D01*
D02*
G37*
G36*
X1359609D02*
X1358900D01*
Y495300D01*
X1448054D01*
Y496009D01*
X1441113Y521914D01*
X1427704Y545140D01*
X1408740Y564104D01*
X1385514Y577513D01*
X1359609Y584454D01*
D02*
G37*
G36*
X1333500D02*
X1332791D01*
X1306886Y577513D01*
X1283660Y564104D01*
X1264696Y545140D01*
X1251287Y521914D01*
X1244346Y496009D01*
Y495300D01*
X1333500D01*
Y584454D01*
D02*
G37*
G36*
X1105609D02*
X1104900D01*
Y495300D01*
X1194054D01*
Y496009D01*
X1187113Y521914D01*
X1173704Y545140D01*
X1154740Y564104D01*
X1131514Y577513D01*
X1105609Y584454D01*
D02*
G37*
G36*
X1079500D02*
X1078791D01*
X1052886Y577513D01*
X1029660Y564104D01*
X1010696Y545140D01*
X997287Y521914D01*
X990346Y496009D01*
Y495300D01*
X1079500D01*
Y584454D01*
D02*
G37*
G36*
X940054D02*
X850900D01*
Y495300D01*
X940054D01*
Y584454D01*
D02*
G37*
G36*
X2464054Y469900D02*
X2374900D01*
Y380746D01*
X2375609D01*
X2401514Y387687D01*
X2424740Y401096D01*
X2443704Y420060D01*
X2457113Y443286D01*
X2464054Y469191D01*
Y469900D01*
D02*
G37*
G36*
X2349500D02*
X2260346D01*
Y469191D01*
X2267287Y443286D01*
X2280696Y420060D01*
X2299660Y401096D01*
X2322886Y387687D01*
X2348791Y380746D01*
X2349500D01*
Y469900D01*
D02*
G37*
G36*
X2210054D02*
X2120900D01*
Y380746D01*
X2121609D01*
X2147514Y387687D01*
X2170740Y401096D01*
X2189704Y420060D01*
X2203113Y443286D01*
X2210054Y469191D01*
Y469900D01*
D02*
G37*
G36*
X2095500D02*
X2006346D01*
Y469191D01*
X2013287Y443286D01*
X2026696Y420060D01*
X2045660Y401096D01*
X2068886Y387687D01*
X2094791Y380746D01*
X2095500D01*
Y469900D01*
D02*
G37*
G36*
X1956054D02*
X1866900D01*
Y380746D01*
X1867609D01*
X1893514Y387687D01*
X1916740Y401096D01*
X1935704Y420060D01*
X1949113Y443286D01*
X1956054Y469191D01*
Y469900D01*
D02*
G37*
G36*
X1841500D02*
X1752346D01*
Y469191D01*
X1759287Y443286D01*
X1772696Y420060D01*
X1791660Y401096D01*
X1814886Y387687D01*
X1840791Y380746D01*
X1841500D01*
Y469900D01*
D02*
G37*
G36*
X1702054D02*
X1612900D01*
Y380746D01*
X1613609D01*
X1639514Y387687D01*
X1662740Y401096D01*
X1681704Y420060D01*
X1695113Y443286D01*
X1702054Y469191D01*
Y469900D01*
D02*
G37*
G36*
X1587500D02*
X1498346D01*
Y469191D01*
X1505287Y443286D01*
X1518696Y420060D01*
X1537660Y401096D01*
X1560886Y387687D01*
X1586791Y380746D01*
X1587500D01*
Y469900D01*
D02*
G37*
G36*
X1448054D02*
X1358900D01*
Y380746D01*
X1359609D01*
X1385514Y387687D01*
X1408740Y401096D01*
X1427704Y420060D01*
X1441113Y443286D01*
X1448054Y469191D01*
Y469900D01*
D02*
G37*
G36*
X1333500D02*
X1244346D01*
Y469191D01*
X1251287Y443286D01*
X1264696Y420060D01*
X1283660Y401096D01*
X1306886Y387687D01*
X1332791Y380746D01*
X1333500D01*
Y469900D01*
D02*
G37*
G36*
X1194054D02*
X1104900D01*
Y380746D01*
X1105609D01*
X1131514Y387687D01*
X1154740Y401096D01*
X1173704Y420060D01*
X1187113Y443286D01*
X1194054Y469191D01*
Y469900D01*
D02*
G37*
G36*
X1079500D02*
X990346D01*
Y469191D01*
X997287Y443286D01*
X1010696Y420060D01*
X1029660Y401096D01*
X1052886Y387687D01*
X1078791Y380746D01*
X1079500D01*
Y469900D01*
D02*
G37*
G36*
X3987800Y1783527D02*
Y1739900D01*
X4031427D01*
X4023337Y1759431D01*
X4007331Y1775437D01*
X3987800Y1783527D01*
D02*
G37*
G36*
X4013200Y1351727D02*
Y1308100D01*
X4056827D01*
X4048737Y1327631D01*
X4032731Y1343637D01*
X4013200Y1351727D01*
D02*
G37*
G36*
X4056827Y1282700D02*
X4013200D01*
Y1239073D01*
X4032731Y1247163D01*
X4048737Y1263169D01*
X4056827Y1282700D01*
D02*
G37*
G36*
X360000Y1114892D02*
X212301D01*
Y1052192D01*
X360000D01*
Y1114892D01*
D02*
G37*
G36*
X3927596Y952626D02*
Y908998D01*
X3971224D01*
X3963134Y928530D01*
X3947127Y944536D01*
X3927596Y952626D01*
D02*
G37*
G36*
X3902196D02*
X3882665Y944536D01*
X3866659Y928530D01*
X3858569Y908998D01*
X3902196D01*
Y952626D01*
D02*
G37*
G36*
X327598D02*
Y908998D01*
X371225D01*
X363135Y928530D01*
X347129Y944536D01*
X327598Y952626D01*
D02*
G37*
G36*
X302198D02*
X282666Y944536D01*
X266660Y928530D01*
X258570Y908998D01*
X302198D01*
Y952626D01*
D02*
G37*
G36*
X3971224Y883598D02*
X3927596D01*
Y839971D01*
X3947127Y848061D01*
X3963134Y864067D01*
X3971224Y883598D01*
D02*
G37*
G36*
X3902196D02*
X3858569D01*
X3866659Y864067D01*
X3882665Y848061D01*
X3902196Y839971D01*
Y883598D01*
D02*
G37*
G36*
X371225D02*
X327598D01*
Y839971D01*
X347129Y848061D01*
X363135Y864067D01*
X371225Y883598D01*
D02*
G37*
G36*
X302198D02*
X258570D01*
X266660Y864067D01*
X282666Y848061D01*
X302198Y839971D01*
Y883598D01*
D02*
G37*
G36*
X3975100Y780227D02*
Y736600D01*
X4018727D01*
X4010637Y756131D01*
X3994631Y772137D01*
X3975100Y780227D01*
D02*
G37*
G36*
X3949700D02*
X3930169Y772137D01*
X3914163Y756131D01*
X3906073Y736600D01*
X3949700D01*
Y780227D01*
D02*
G37*
G36*
X203911Y766820D02*
Y723193D01*
X247538D01*
X239448Y742724D01*
X223442Y758731D01*
X203911Y766820D01*
D02*
G37*
G36*
X178511D02*
X158980Y758731D01*
X142974Y742724D01*
X134884Y723193D01*
X178511D01*
Y766820D01*
D02*
G37*
G36*
X4018727Y711200D02*
X3975100D01*
Y667573D01*
X3994631Y675663D01*
X4010637Y691669D01*
X4018727Y711200D01*
D02*
G37*
G36*
X3949700D02*
X3906073D01*
X3914163Y691669D01*
X3930169Y675663D01*
X3949700Y667573D01*
Y711200D01*
D02*
G37*
G36*
X247538Y697793D02*
X203911D01*
Y654166D01*
X223442Y662256D01*
X239448Y678262D01*
X247538Y697793D01*
D02*
G37*
G36*
X178511D02*
X134884D01*
X142974Y678262D01*
X158980Y662256D01*
X178511Y654166D01*
Y697793D01*
D02*
G37*
G36*
X3327597Y352626D02*
Y308999D01*
X3371224D01*
X3363134Y328530D01*
X3347128Y344536D01*
X3327597Y352626D01*
D02*
G37*
G36*
X3302197D02*
X3282666Y344536D01*
X3266659Y328530D01*
X3258569Y308999D01*
X3302197D01*
Y352626D01*
D02*
G37*
G36*
X3027597D02*
Y308999D01*
X3071224D01*
X3063134Y328530D01*
X3047128Y344536D01*
X3027597Y352626D01*
D02*
G37*
G36*
X3002197D02*
X2982666Y344536D01*
X2966659Y328530D01*
X2958569Y308999D01*
X3002197D01*
Y352626D01*
D02*
G37*
G36*
X3371224Y283599D02*
X3327597D01*
Y239971D01*
X3347128Y248061D01*
X3363134Y264068D01*
X3371224Y283599D01*
D02*
G37*
G36*
X3302197D02*
X3258569D01*
X3266659Y264068D01*
X3282666Y248061D01*
X3302197Y239971D01*
Y283599D01*
D02*
G37*
G36*
X3071224D02*
X3027597D01*
Y239971D01*
X3047128Y248061D01*
X3063134Y264068D01*
X3071224Y283599D01*
D02*
G37*
G36*
X3002197D02*
X2958569D01*
X2966659Y264068D01*
X2982666Y248061D01*
X3002197Y239971D01*
Y283599D01*
D02*
G37*
G36*
X3200400Y221427D02*
Y177800D01*
X3244027D01*
X3235937Y197331D01*
X3219931Y213337D01*
X3200400Y221427D01*
D02*
G37*
G36*
X3175000D02*
X3155469Y213337D01*
X3139463Y197331D01*
X3131373Y177800D01*
X3175000D01*
Y221427D01*
D02*
G37*
G36*
X3848308Y641000D02*
X3797092D01*
X3746861Y631008D01*
X3699544Y611409D01*
X3656960Y582955D01*
X3620745Y546740D01*
X3592291Y504156D01*
X3572692Y456839D01*
X3562700Y406608D01*
Y355392D01*
X3572692Y305161D01*
X3592291Y257844D01*
X3620745Y215260D01*
X3656960Y179045D01*
X3699544Y150591D01*
X3746861Y130992D01*
X3797092Y121000D01*
X3848308D01*
X3898539Y130992D01*
X3945856Y150591D01*
X3988440Y179045D01*
X4024655Y215260D01*
X4053109Y257844D01*
X4072708Y305161D01*
X4082700Y355392D01*
Y406608D01*
X4072708Y456839D01*
X4053109Y504156D01*
X4024655Y546740D01*
X3988440Y582955D01*
X3945856Y611409D01*
X3898539Y631008D01*
X3848308Y641000D01*
D02*
G37*
G36*
X3244027Y152400D02*
X3200400D01*
Y108773D01*
X3219931Y116863D01*
X3235937Y132869D01*
X3244027Y152400D01*
D02*
G37*
G36*
X3175000D02*
X3131373D01*
X3139463Y132869D01*
X3155469Y116863D01*
X3175000Y108773D01*
Y152400D01*
D02*
G37*
%LPD*%
D10*
X519600Y1312592D02*
D03*
Y1937592D02*
D03*
Y1437592D02*
D03*
Y1562592D02*
D03*
Y1812592D02*
D03*
Y1687592D02*
D03*
D12*
X2759100Y1892300D02*
D03*
X1832000Y4356100D02*
D03*
X3159100Y1892300D02*
D03*
X2232000Y4356100D02*
D03*
D14*
X2165200Y3733800D02*
D03*
X3130700Y3670300D02*
D03*
X3410100Y4432300D02*
D03*
X3511700Y4267200D02*
D03*
X3270100Y4432300D02*
D03*
X3371700Y4267200D02*
D03*
X2990700Y3670300D02*
D03*
X2724000Y4546600D02*
D03*
X2864000D02*
D03*
X2305200Y3733800D02*
D03*
D16*
X3646000Y1698800D02*
D03*
Y1323800D02*
D03*
Y1573800D02*
D03*
Y1448800D02*
D03*
D19*
X1841500Y2546500D02*
D03*
X2146300Y2457600D02*
D03*
X2565400Y3041800D02*
D03*
X2615691Y2635400D02*
D03*
X2789864Y2638685D02*
D03*
X1841500Y2406500D02*
D03*
X2146300Y2317600D02*
D03*
X1968500Y3105000D02*
D03*
X2615691Y2495400D02*
D03*
X2789864Y2498685D02*
D03*
X2565400Y2901800D02*
D03*
X2400300Y3194200D02*
D03*
X1968500Y3245000D02*
D03*
X2400300Y3054200D02*
D03*
D22*
X837200Y2184400D02*
D03*
Y2400300D02*
D03*
X2693400Y2120900D02*
D03*
Y2247900D02*
D03*
Y2374900D02*
D03*
X2843800Y2730500D02*
D03*
X2731500Y2857500D02*
D03*
X3328400Y3426748D02*
D03*
X2860008Y3809999D02*
D03*
X2818400Y2374900D02*
D03*
X2718800Y2730500D02*
D03*
X2818400Y2247900D02*
D03*
X3453400Y3426748D02*
D03*
X2856500Y2857500D02*
D03*
X2818400Y2120900D02*
D03*
X3213608Y3809999D02*
D03*
X3088608D02*
D03*
X2985008D02*
D03*
X838200Y2603500D02*
D03*
Y3048000D02*
D03*
X837200Y2819400D02*
D03*
X713200Y3048000D02*
D03*
X2678700Y3873500D02*
D03*
X2553700D02*
D03*
X712200Y2184400D02*
D03*
X713200Y2603500D02*
D03*
X712200Y2819400D02*
D03*
Y2400300D02*
D03*
D25*
X3966000Y1138800D02*
D03*
Y1883800D02*
D03*
D32*
X199600Y1127592D02*
D03*
Y2122592D02*
D03*
D35*
X2794000Y1413314D02*
X3048000Y1159314D01*
X2794000Y1413314D02*
Y1584900D01*
X2796600Y1587500D01*
X1364406Y2329606D02*
X1371600Y2336800D01*
X1341572Y2329606D02*
X1364406D01*
X1337921Y2325955D02*
X1341572Y2329606D01*
X1153846Y2325955D02*
X1337921D01*
X1066509Y2387891D02*
X1091909D01*
X1153846Y2325955D01*
X880700Y2573700D02*
X1066509Y2387891D01*
X863000Y2573700D02*
X880700D01*
X997036Y2545978D02*
X1112849Y2430164D01*
X1126147D01*
X1141457Y2414853D01*
X1186358D01*
X1201668Y2430164D01*
X1373218D01*
X942269Y3058796D02*
X1133875Y3250401D01*
X935075Y3027775D02*
X942269Y3034969D01*
Y3058796D01*
X1133875Y3250401D02*
X1133875D01*
X1183715Y3300241D01*
Y3380801D01*
X2872232Y1411732D02*
X2925600Y1465100D01*
Y1917700D01*
X3022600Y1294949D02*
Y1752600D01*
X2992151Y1783049D02*
Y1887730D01*
Y1783049D02*
X3022600Y1752600D01*
Y1294949D02*
X3294560Y1022989D01*
X3408824Y2237383D02*
X3482113Y2310672D01*
X3235453Y2396388D02*
X4051300D01*
X3380383Y2237383D02*
X3408824D01*
X838200Y2598500D02*
Y2603500D01*
Y2598500D02*
X863000Y2573700D01*
X997036Y2545978D02*
Y2556767D01*
X840421Y2713381D02*
Y2816179D01*
Y2713381D02*
X997036Y2556767D01*
X761617Y1812592D02*
X1126231Y2177206D01*
X1364759D01*
X519600Y1812592D02*
X761617D01*
X438994Y1911987D02*
X464600Y1937592D01*
X438994Y1899494D02*
Y1911987D01*
X431800Y1892300D02*
X438994Y1899494D01*
X3725535Y3051340D02*
X4051643D01*
X3658695Y2984500D02*
X3725535Y3051340D01*
X2286000Y1244600D02*
X2526850D01*
X1663700Y1866900D02*
Y2565400D01*
Y1866900D02*
X2286000Y1244600D01*
X596900Y2616200D02*
X607074D01*
X596900Y2819400D02*
X712200D01*
X607074Y2616200D02*
X619774Y2603500D01*
X596900Y2184400D02*
X712200D01*
X596900Y2400300D02*
X712200D01*
X619774Y2603500D02*
X713200D01*
X609600Y3048000D02*
X713200D01*
X2082800Y2733548D02*
Y2808027D01*
X2132584Y2549652D02*
X2133346Y2548890D01*
Y2470554D02*
Y2548890D01*
X2006600Y2813314D02*
Y2819400D01*
X2032762Y2733548D02*
Y2787152D01*
X2006600Y2813314D02*
X2032762Y2787152D01*
X2577730Y2716530D02*
X2578100Y2716900D01*
X2199640Y2716530D02*
X2577730D01*
X464600Y1937592D02*
X519600D01*
X1247227Y3207000D02*
X1255034D01*
X1270000Y3221966D01*
X1968500Y3105000D02*
X1971750Y3108250D01*
X2028750D01*
X2032000Y3111500D01*
X2032762Y2549652D02*
Y2566162D01*
X2050206Y2583606D01*
Y2596306D01*
X2082800Y2549652D02*
Y2566162D01*
X2064594Y2584368D02*
X2082800Y2566162D01*
X2064594Y2584368D02*
Y2596306D01*
X2050206D02*
X2057400Y2603500D01*
X2064594Y2596306D01*
X1270000Y3221966D02*
Y3263900D01*
X2510237Y2851132D02*
X2514733D01*
X2664433Y2495207D02*
X2666172Y2496946D01*
X2788125D01*
X2514733Y2851132D02*
X2565400Y2901800D01*
X2788125Y2496946D02*
X2789864Y2498685D01*
X2506500Y4292600D02*
X2730500D01*
X2794000Y4229100D01*
X3151108Y3885624D02*
X3161282D01*
X3183300Y3907642D01*
X3246242D02*
X3263900Y3925300D01*
X3183300Y3907642D02*
X3246242D01*
X2133346Y2734310D02*
Y2750820D01*
X2165521Y2782995D01*
X2132584Y2733548D02*
X2133346Y2734310D01*
X2165521Y2802095D02*
X2172715Y2809290D01*
X2165521Y2782995D02*
Y2802095D01*
X2696119Y2600012D02*
X2706294D01*
X2395148Y2578100D02*
X2405323D01*
X2422772Y2560651D01*
X2649208Y2553100D02*
X2696119Y2600012D01*
X2571289Y2553100D02*
X2649208D01*
X2425328Y2560651D02*
X2443585Y2542394D01*
X2422772Y2560651D02*
X2425328D01*
X2560583Y2542394D02*
X2571289Y2553100D01*
X2443585Y2542394D02*
X2560583D01*
X1810875Y3776675D02*
X1824926D01*
X1358900Y4228650D02*
Y4776155D01*
Y4228650D02*
X1810875Y3776675D01*
X3797300Y3429000D02*
Y3683000D01*
X3736041Y3744259D02*
X3797300Y3683000D01*
X3637890Y3744259D02*
X3736041D01*
X3622950Y3759200D02*
X3637890Y3744259D01*
X3329997Y3761404D02*
X3443904D01*
X3329832Y3761569D02*
X3329997Y3761404D01*
X3293172Y3649223D02*
X3390900Y3551495D01*
X3293172Y3649223D02*
X3293172D01*
X3540479Y3857979D02*
X3674028D01*
X3443904Y3761404D02*
X3540479Y3857979D01*
X3525314Y4046014D02*
Y4136636D01*
X2275826Y3263900D02*
X2286000D01*
X2190906Y3245610D02*
X2257535D01*
X2275826Y3263900D01*
X1824926Y3776675D02*
X2276901Y3324700D01*
X2302137D01*
X1908175Y3528341D02*
X2190906Y3245610D01*
X1908175Y3528341D02*
Y3597180D01*
X1646679Y3763521D02*
X1741834D01*
X1908175Y3597180D01*
X1598210Y1603825D02*
X1600793Y1601243D01*
X1476825Y1603825D02*
X1598210D01*
X519600Y1437592D02*
X1310592D01*
X1476825Y1603825D01*
X3298121Y3153479D02*
X3358752D01*
X3210000Y3241600D02*
X3298121Y3153479D01*
X3358752D02*
X3365946Y3146285D01*
X1517401Y1763277D02*
X1542801D01*
X1455256Y1759794D02*
X1513918D01*
X1454900Y1760150D02*
X1455256Y1759794D01*
X1513918D02*
X1517401Y1763277D01*
X1130792Y1562592D02*
X1554906Y1986706D01*
X519600Y1562592D02*
X1130792D01*
X1554906Y2015306D02*
X1562100Y2022500D01*
X1554906Y1986706D02*
Y2015306D01*
X1397000Y2019300D02*
X1489300Y2111600D01*
X519600Y1687592D02*
X938292D01*
X1270000Y2019300D02*
X1397000D01*
X938292Y1687592D02*
X1270000Y2019300D01*
X1364759Y2177206D02*
X1366964Y2175000D01*
X1489300Y2111600D02*
Y2168300D01*
X1435100Y2222500D02*
X1489300Y2168300D01*
X1542801Y1763277D02*
X2150377Y1155700D01*
X3175000Y2116501D02*
Y2335935D01*
X3153999Y2095500D02*
X3175000Y2116501D01*
Y2335935D02*
X3235453Y2396388D01*
X3153999Y2063486D02*
Y2095500D01*
X2590800Y3392600D02*
Y3540350D01*
X2709750Y3572100D02*
X2741950Y3539900D01*
X2860300D01*
X2622550Y3572100D02*
X2709750D01*
X2590800Y3540350D02*
X2622550Y3572100D01*
X2860300Y3539900D02*
X2990700Y3670300D01*
X3302000Y711200D02*
X3429000Y584200D01*
X3302000Y711200D02*
Y758810D01*
X3302000Y759004D02*
Y1015550D01*
X3302000Y758810D02*
X3302000Y759004D01*
X3294560Y1022989D02*
X3302000Y1015550D01*
X3048000Y787400D02*
X3160589Y674811D01*
X3048000Y787400D02*
Y1159314D01*
X1399570Y2829530D02*
Y3291693D01*
X1439057Y3331180D02*
Y3340745D01*
X1399570Y3291693D02*
X1439057Y3331180D01*
X1231900Y4178300D02*
Y4751610D01*
Y4178300D02*
X1646679Y3763521D01*
X1981200Y3815697D02*
Y3949700D01*
X1609900Y4321000D02*
Y4738200D01*
Y4321000D02*
X1981200Y3949700D01*
Y3815697D02*
X2230749Y3566148D01*
X1866900Y3835400D02*
Y3911600D01*
X1485900Y4292600D02*
Y4759079D01*
Y4292600D02*
X1866900Y3911600D01*
X1741978Y3395267D02*
Y3619214D01*
Y3395267D02*
X1743263Y3393982D01*
X1797052Y3445203D02*
Y3531258D01*
Y3445203D02*
X1870655Y3371600D01*
X2372313Y3254524D02*
X2461585D01*
X2512083Y3305022D01*
X2302137Y3324700D02*
X2372313Y3254524D01*
X1866900Y3835400D02*
X2392541Y3309759D01*
X2438099D01*
X2439135Y3308724D01*
X2230749Y3566148D02*
X2334056D01*
X2569085Y3263138D02*
Y3331119D01*
Y3263138D02*
X2570704Y3261519D01*
X2334056Y3566148D02*
X2569085Y3331119D01*
X2584947Y2825300D02*
X2590194D01*
X3019247Y2047671D02*
X3138184D01*
X3003432Y2063486D02*
X3019247Y2047671D01*
X2975613Y2063486D02*
X3003432D01*
X2912879Y2126220D02*
X2975613Y2063486D01*
X3138184Y2047671D02*
X3153999Y2063486D01*
X3233989Y2014789D02*
X3238500Y2019300D01*
X3156199Y2014789D02*
X3233989D01*
X3153682Y2012271D02*
X3156199Y2014789D01*
X3314289Y1765712D02*
Y2171289D01*
X3380383Y2237383D01*
X3314289Y1765712D02*
X3506200Y1573800D01*
X2912879Y2126220D02*
Y2136394D01*
X3001427Y2015429D02*
X3004584Y2012271D01*
X2961752Y2015429D02*
X3001427D01*
X3004584Y2012271D02*
X3153682D01*
X2818400Y2115900D02*
X2919511Y2014789D01*
X2961112D02*
X2961752Y2015429D01*
X2992151Y1887730D02*
X2992600Y1888179D01*
X2919511Y2014789D02*
X2961112D01*
X2902705Y2136394D02*
X2912879D01*
X2865303Y2186100D02*
X2878600Y2172803D01*
X2818400Y2247900D02*
X2843200Y2223100D01*
Y2200979D02*
Y2223100D01*
Y2200979D02*
X2858079Y2186100D01*
X2865303D01*
X2878600Y2162879D02*
Y2172803D01*
Y2162879D02*
X2902705Y2138774D01*
Y2136394D02*
Y2138774D01*
X3081299Y2122889D02*
Y2132889D01*
X2959843Y2223243D02*
Y2261094D01*
X2952649Y2216049D02*
X2959843Y2223243D01*
Y2261094D02*
X2972049Y2273300D01*
X2998131D01*
X2900249Y2345100D02*
X2972049Y2273300D01*
X2818400Y2369900D02*
X2843200Y2345100D01*
X2900249D01*
X2998131Y2273300D02*
X3064445Y2339615D01*
X1117600Y2592890D02*
X1135561Y2574930D01*
X1135996D02*
X1170926Y2540000D01*
X1181100D01*
X1135561Y2574930D02*
X1135996D01*
X1117600Y2592890D02*
Y2768600D01*
X838200Y3048000D02*
X1117600Y2768600D01*
X1564279Y2168467D02*
Y2266701D01*
X1562100Y2268879D02*
X1564279Y2266701D01*
X1562100Y2268879D02*
Y2413000D01*
X1346200Y3370792D02*
X1447907Y3472499D01*
X1500919D02*
X1609821Y3581400D01*
X1447907Y3472499D02*
X1500919D01*
X2590194Y2825300D02*
X2608517Y2843623D01*
X2609326D01*
X2629399Y2863696D01*
Y2932990D01*
X2454619Y2796782D02*
X2457126Y2794275D01*
X2524219D02*
X2547395Y2771100D01*
X2457126Y2794275D02*
X2524219D01*
X2547395Y2771100D02*
X2613250D01*
X1629063Y3184778D02*
Y3276776D01*
X1622200Y3114450D02*
X1768250Y2968400D01*
X1622200Y3114450D02*
Y3177915D01*
X1768250Y2968400D02*
X1951058D01*
X1622200Y3177915D02*
X1629063Y3184778D01*
X1823520Y3052894D02*
Y3080820D01*
X1803400Y3022600D02*
Y3032774D01*
X1951058Y2968400D02*
X2039958Y3057300D01*
X1803400Y3032774D02*
X1823520Y3052894D01*
X1791307Y3229727D02*
Y3232067D01*
X1743263Y3280112D02*
Y3393982D01*
Y3280112D02*
X1791307Y3232067D01*
X2655509Y2959100D02*
X3149600D01*
X2629399Y2932990D02*
X2655509Y2959100D01*
X2665584Y2849818D02*
Y2908821D01*
X2680463Y2923700D01*
X3355500D01*
X2655947Y2730500D02*
Y2840182D01*
X2665584Y2849818D01*
X2686852Y3028555D02*
X2765186Y3106889D01*
X2630446Y2984100D02*
X2674901Y3028555D01*
X2686852D01*
X2536032Y2984100D02*
X2630446D01*
X3355500Y2923700D02*
X3416300Y2984500D01*
X2655947Y2730500D02*
X2718800D01*
X2765186Y3106889D02*
Y3128810D01*
X3149600Y2959100D02*
X3251200Y3060700D01*
X2653850Y2730500D02*
X2655947D01*
X2613250Y2771100D02*
X2653850Y2730500D01*
X2445103Y3136900D02*
X2527300D01*
X2632300Y3241900D02*
Y3351100D01*
X2527300Y3136900D02*
X2632300Y3241900D01*
X2590800Y3392600D02*
X2632300Y3351100D01*
X3022149Y2832100D02*
X3276375Y2577875D01*
X2881300Y2832100D02*
X3022149D01*
X2856500Y2856900D02*
X2881300Y2832100D01*
X2856500Y2856900D02*
Y2857500D01*
X3558452Y2460400D02*
X3604448Y2506396D01*
X3158900Y2460400D02*
X3558452D01*
X3064445Y2365945D02*
X3158900Y2460400D01*
X3604448Y2506396D02*
X4051300D01*
X3286549Y2577875D02*
X3325052Y2616378D01*
X3276375Y2577875D02*
X3286549D01*
X3325052Y2616378D02*
X4051300D01*
X3578000Y3114900D02*
X3581400D01*
X3251200Y3060700D02*
X3644900D01*
X3390900Y3302000D02*
X3578000Y3114900D01*
X3644900Y3060700D02*
X3698282Y3114082D01*
X3446657Y3428491D02*
X3478200Y3396947D01*
X3698282Y3114082D02*
X3766066D01*
X3989121D01*
X3483200Y3396947D02*
X3766066Y3114082D01*
X3478200Y3396947D02*
X3483200D01*
X3390900Y3302000D02*
Y3551495D01*
X3625022Y3528250D02*
X3641200D01*
X3607722Y3492693D02*
Y3510950D01*
X3625022Y3528250D01*
X3064445Y2339615D02*
Y2365945D01*
X2765186Y3128810D02*
X2887976Y3251600D01*
X3053988Y3241600D02*
X3210000D01*
X3043988Y3251600D02*
X3053988Y3241600D01*
X2887976Y3251600D02*
X3043988D01*
X3098800Y2667000D02*
X3099250Y2666550D01*
X2933700Y2730050D02*
Y2735400D01*
X2996750Y2667000D02*
X3098800D01*
X2933700Y2730050D02*
X2996750Y2667000D01*
X2818400Y2369900D02*
Y2374900D01*
X3860051Y2831351D02*
X4013543D01*
X3797300Y2768600D02*
X3860051Y2831351D01*
X3416300Y2984500D02*
X3658695D01*
X4004000Y3128961D02*
Y3144089D01*
X4026300Y3166389D01*
X3989121Y3114082D02*
X4004000Y3128961D01*
X4026300Y3166389D02*
X4051300D01*
X2818400Y2115900D02*
Y2120900D01*
X2793600Y2096100D02*
X2818400Y2120900D01*
X3451301Y2122889D02*
Y2132889D01*
X3378200Y2049788D02*
X3451301Y2122889D01*
X3378200Y2044700D02*
Y2049788D01*
X2299606Y2069194D02*
X2502806D01*
X2146300Y2222500D02*
X2299606Y2069194D01*
X2793600Y2058934D02*
Y2096100D01*
X2741266Y2006600D02*
X2793600Y2058934D01*
X2675402Y2016079D02*
X2684882Y2006600D01*
X2741266D01*
X2608844Y2016079D02*
X2675402D01*
X2605802Y2019121D02*
X2608844Y2016079D01*
X2475650Y2927076D02*
X2479008D01*
X2330125Y2772000D02*
Y2778193D01*
X2443900Y2891969D01*
Y2895326D01*
X2475650Y2927076D01*
X2479008D02*
X2536032Y2984100D01*
X2886366Y2622004D02*
X2917868Y2653507D01*
X2879076Y2622004D02*
X2886366D01*
X2834383Y2556269D02*
Y2577311D01*
X2879076Y2622004D01*
X2917868Y2653507D02*
X2928043D01*
X2834383Y2556269D02*
X2847565Y2543087D01*
Y2454282D02*
Y2543087D01*
X2771497Y2440100D02*
X2833383D01*
X2847565Y2454282D01*
X2758200Y2426803D02*
X2771497Y2440100D01*
X2758200Y2073597D02*
Y2426803D01*
X2740303Y2055700D02*
X2758200Y2073597D01*
X2645873Y2055700D02*
X2740303D01*
X2536791Y1990691D02*
Y1995320D01*
X2628253Y2073321D02*
X2645873Y2055700D01*
X2583352Y2073321D02*
X2628253D01*
X2413000Y1866900D02*
X2536791Y1990691D01*
X2537946Y1995320D02*
X2543986Y2001359D01*
Y2033954D02*
X2583352Y2073321D01*
X2543986Y2001359D02*
Y2033954D01*
X1870655Y3303094D02*
Y3371600D01*
Y3303094D02*
X1871749Y3302000D01*
X1399570Y2829530D02*
X1663700Y2565400D01*
X1346200Y2628900D02*
Y3370792D01*
Y2628900D02*
X1562100Y2413000D01*
X2272442Y3204110D02*
X2285740Y3190813D01*
Y3177433D02*
Y3190813D01*
X2326273Y3136900D02*
X2355497D01*
X2061110Y3204110D02*
X2272442D01*
X2285740Y3177433D02*
X2326273Y3136900D01*
X2412775Y1422175D02*
X2413000Y1422400D01*
Y1866900D01*
X2181830Y3057300D02*
X2185230Y3060700D01*
X2039958Y3057300D02*
X2181830D01*
X3082365Y1350385D02*
X3180781Y1448800D01*
X2526850Y1244600D02*
X2527075Y1244825D01*
X1823520Y3080820D02*
X1917700Y3175000D01*
X2444703Y3136500D02*
X2445103Y3136900D01*
X2514600Y1155700D02*
X2667000Y1308100D01*
X2150377Y1155700D02*
X2514600D01*
X2355497Y3136900D02*
X2355897Y3136500D01*
X2444703D01*
X1917700Y3175000D02*
X2032000D01*
X2061110Y3204110D01*
X2185230Y3060700D02*
X2387300D01*
X3506200Y1573800D02*
X3646000D01*
X3180781Y1448800D02*
X3646000D01*
X3213608Y3809999D02*
X3289299D01*
X3525314Y4046014D01*
X1199914Y3397000D02*
X1247227D01*
X1183715Y3380801D02*
X1199914Y3397000D01*
X1990800Y3267300D02*
X2005726D01*
X2015025Y3276600D01*
X2025200D01*
X1968500Y3245000D02*
X1990800Y3267300D01*
X2985008Y3809999D02*
X3088608D01*
X2987854Y3673146D02*
X2990700Y3670300D01*
X2987854Y3673146D02*
Y3807154D01*
X2985008Y3809999D02*
X2987854Y3807154D01*
X3160589Y665869D02*
X3200400Y626058D01*
Y584200D02*
Y626058D01*
X3160589Y665869D02*
Y674811D01*
X837200Y2819400D02*
X840421Y2816179D01*
X2996500Y4419600D02*
X3081500D01*
X2984200Y4431900D02*
X2996500Y4419600D01*
X2984200Y4431900D02*
Y4516900D01*
X2916400Y4584700D02*
X2984200Y4516900D01*
X2851300Y4584700D02*
X2916400D01*
D36*
X2591500Y4468597D02*
X2659502Y4536600D01*
X2591500Y4419600D02*
Y4468597D01*
X2659502Y4536600D02*
X2714000D01*
X921100Y2311400D02*
X1079500D01*
X849700Y2382800D02*
X921100Y2311400D01*
X2810275Y3597675D02*
Y3601193D01*
X2768600Y3642868D02*
X2810275Y3601193D01*
X2768600Y3642868D02*
Y3784600D01*
X837200Y2400300D02*
X849700Y2387800D01*
Y2382800D02*
Y2387800D01*
X4041300Y2956400D02*
X4051300Y2946400D01*
X3955918Y2956400D02*
X4041300D01*
X3927818Y2984500D02*
X3955918Y2956400D01*
X3924300Y2984500D02*
X3927818D01*
X2043595Y2317600D02*
X2146300D01*
X1964897Y2396298D02*
X2043595Y2317600D01*
X1841500Y2406500D02*
X1851500Y2396500D01*
X1871501D01*
X1871702Y2396298D01*
X1964897D01*
X1929026Y2546500D02*
X1949196Y2566670D01*
X1911200Y2546500D02*
X1929026D01*
X1841500D02*
X1911200D01*
X1949196Y2566670D02*
X1965706D01*
X2146300Y2457600D02*
X2358114Y2245786D01*
X2647145D01*
X1841500Y2546500D02*
Y2781300D01*
X2006600Y2946400D01*
X2162365D02*
X2185230Y2923535D01*
X2006600Y2946400D02*
X2162365D01*
X2185230Y2923535D02*
X2389133D01*
X2497398Y3031800D01*
X2555400D01*
X2693400Y2292041D02*
Y2336800D01*
X2789864Y2638685D02*
X2843800Y2692620D01*
X3673750Y2702100D02*
X3880885D01*
X3905170Y2726385D01*
X4051300D01*
X3486375Y2889475D02*
X3673750Y2702100D01*
X2933700Y3306900D02*
X2937218D01*
X2680900Y3302200D02*
X2693400Y3314700D01*
X2645000Y3517900D02*
X2693400D01*
X2933700Y3306900D02*
Y3310418D01*
X2895857Y3348261D02*
X2933700Y3310418D01*
X2895857Y3348261D02*
Y3366740D01*
X2870397Y3392200D02*
X2895857Y3366740D01*
X3124200Y3390900D02*
X3225800Y3289300D01*
X2937218Y3306900D02*
X3021218Y3390900D01*
X3124200D01*
Y3505200D01*
X3162300Y3543300D01*
X3163790D01*
X3222329Y3601839D01*
X3225800Y3289300D02*
X3309441D01*
X2572264Y3048664D02*
X2626793D01*
X2660884Y3082755D02*
X2664402D01*
X2626793Y3048664D02*
X2660884Y3082755D01*
X2765900Y3392200D02*
X2870397D01*
X2693400Y3319700D02*
X2765900Y3392200D01*
X3309441Y3289300D02*
Y3397341D01*
X2575400Y3086699D02*
X2577902Y3089200D01*
X2566900Y3043300D02*
X2572264Y3048664D01*
X2555400Y3031800D02*
X2565400Y3041800D01*
X2575400Y3051800D02*
Y3086699D01*
X2585608Y3089200D02*
X2680900Y3184492D01*
X2577902Y3089200D02*
X2585608D01*
X2680900Y3184492D02*
Y3302200D01*
X2572264Y3048664D02*
X2575400Y3051800D01*
X2843800Y2730500D02*
Y2735500D01*
X2744000Y2835300D02*
X2843800Y2735500D01*
X2717800Y2832100D02*
X2720287Y2834587D01*
X1678887Y3139387D02*
Y3232555D01*
X1676400Y3136900D02*
X1752600D01*
X1695563Y3249230D02*
Y3333804D01*
X1678887Y3232555D02*
X1695563Y3249230D01*
X1676400Y3136900D02*
X1678887Y3139387D01*
X1675478Y3591955D02*
Y3609788D01*
X1679400Y3349967D02*
X1695563Y3333804D01*
X1675478Y3591955D02*
X1679400Y3588033D01*
Y3349967D02*
Y3588033D01*
X2717800Y2814500D02*
Y2820505D01*
Y2832100D01*
X2720287Y2820505D02*
Y2834587D01*
Y2852113D01*
X1911200Y2546500D02*
X2000100Y2457600D01*
X2717800Y2820505D02*
X2720287D01*
Y2852113D02*
X2729411Y2861237D01*
X2693400Y3319700D02*
Y3517900D01*
X1662499Y3622767D02*
Y3706833D01*
Y3622767D02*
X1675478Y3609788D01*
X1660011Y3709320D02*
X1662499Y3706833D01*
X3367176Y3231565D02*
X3374711D01*
X3432446Y3173830D01*
Y3165772D02*
X3479800Y3118418D01*
X3309441Y3289300D02*
X3367176Y3231565D01*
X3432446Y3165772D02*
Y3173830D01*
X3479800Y3114900D02*
Y3118418D01*
X3222329Y3601839D02*
Y3642664D01*
X2647145Y2245786D02*
X2693400Y2292041D01*
X2000100Y2457600D02*
X2146300D01*
X3220314Y3644679D02*
X3222329Y3642664D01*
X3511700Y4267200D02*
Y4393101D01*
X3410100Y4432300D02*
X3547381D01*
X3511700Y4393101D02*
X3614897Y4496297D01*
X3479800Y3657600D02*
X3481000Y3658800D01*
X3672163D02*
X3673363Y3660000D01*
X3481000Y3658800D02*
X3672163D01*
X1734900Y4738200D02*
X1736388Y4736712D01*
Y4607785D02*
Y4736712D01*
Y4607785D02*
X1737876Y4606297D01*
X2714000Y4536600D02*
X2724000Y4546600D01*
X1295400Y3400899D02*
Y3518900D01*
X1291501Y3397000D02*
X1295400Y3400899D01*
X1247227Y3397000D02*
X1291501D01*
X2451100Y3910600D02*
Y4013600D01*
X2476100Y4038600D01*
X2506500D01*
X2451100Y3910600D02*
X2516600D01*
X2553700Y3873500D01*
D37*
X2705100Y1399400D02*
Y1857300D01*
X2740100Y1892300D02*
X2759100D01*
X2705100Y1399400D02*
X2946400Y1158100D01*
X2705100Y1857300D02*
X2740100Y1892300D01*
X1137320Y2915320D02*
Y3143872D01*
X1095300Y3575000D02*
X1130300Y3610000D01*
X1095300Y3368799D02*
Y3575000D01*
X1026202Y3299701D02*
X1095300Y3368799D01*
X940498Y3299701D02*
X1026202D01*
X890499Y3249701D02*
X940498Y3299701D01*
X3604114Y2208328D02*
X3646000Y2166442D01*
Y1698800D02*
Y2166442D01*
X3802221Y1698800D02*
X3860800Y1640221D01*
X3646000Y1698800D02*
X3802221D01*
X3644900Y1087552D02*
X3860800Y1303452D01*
Y1640221D01*
X3519843Y878243D02*
X3644900Y1003300D01*
Y1087552D01*
X3516114Y878243D02*
X3519843D01*
X3454400Y838200D02*
X3476071D01*
X3516114Y878243D01*
X2946400Y1104900D02*
Y1158100D01*
X2768600Y927100D02*
X2946400Y1104900D01*
X2768600Y345375D02*
Y927100D01*
X837200Y2144547D02*
Y2184400D01*
X660399Y2032000D02*
X698500D01*
X724653D02*
X837200Y2144547D01*
X698500Y376079D02*
X833279Y241300D01*
X2664525D02*
X2768600Y345375D01*
X833279Y241300D02*
X2664525D01*
X698500Y2032000D02*
X724653D01*
X698500Y376079D02*
Y636935D01*
X532300Y803135D02*
X698500Y636935D01*
X569404Y2032000D02*
X660399D01*
X414155D02*
X419599D01*
X279400Y1897245D02*
X414155Y2032000D01*
X519600Y1312592D02*
Y1312592D01*
X532300Y803135D02*
Y1299892D01*
X519600Y1312592D02*
X532300Y1299892D01*
X279400Y1435100D02*
Y1897245D01*
X401908Y1312592D02*
X519600D01*
X279400Y1435100D02*
X401908Y1312592D01*
X1130300Y2908300D02*
X1137320Y2915320D01*
X3457964Y4136636D02*
X3525314D01*
X3371700Y4222900D02*
X3457964Y4136636D01*
X3371700Y4222900D02*
Y4267200D01*
X3525314Y4136636D02*
X3601950Y4060000D01*
X3641200D01*
X2678700Y3923100D02*
X2679700Y3924100D01*
X2743200D01*
X2678700Y3833647D02*
Y3923100D01*
X3124200Y4673600D02*
X3194940D01*
X3226339Y4642200D01*
X3297079D01*
X3320700Y4673600D02*
X3390900D01*
X3297079Y4459279D02*
Y4642200D01*
X2541500Y4419600D02*
X2566500Y4444600D01*
X2481500Y4394600D02*
X2506500Y4419600D01*
X2400700Y4394600D02*
X2481500D01*
X2397200Y4391100D02*
X2400700Y4394600D01*
X2267000Y4391100D02*
X2397200D01*
X2232000Y4356100D02*
X2267000Y4391100D01*
X2232000Y4356100D02*
X2233600Y4354500D01*
Y4120464D02*
Y4354500D01*
Y4120464D02*
X2235200Y4118864D01*
X3270100Y4432300D02*
X3297079Y4459279D01*
X3270100Y4310500D02*
Y4432300D01*
X2533153Y3688100D02*
X2678700Y3833647D01*
X2350900Y3688100D02*
X2533153D01*
X3340853Y4267200D02*
X3371700D01*
X3303753Y4304300D02*
X3340853Y4267200D01*
X3263900Y4304300D02*
X3270100Y4310500D01*
X3093200Y4304300D02*
X3263900D01*
X3303753D01*
X3081500Y4292600D02*
X3093200Y4304300D01*
X3095200Y4179300D02*
X3263900D01*
X3081500Y4165600D02*
X3095200Y4179300D01*
X3093200Y4050300D02*
X3263900D01*
X3081500Y4038600D02*
X3093200Y4050300D01*
X2305200Y3733800D02*
X2350900Y3688100D01*
X2305200Y3733800D02*
Y3883876D01*
X2290176Y3898900D02*
X2305200Y3883876D01*
X2235200Y3898900D02*
X2290176D01*
D38*
X1047399Y3974700D02*
X1092200Y4019500D01*
X915498Y3974700D02*
X1047399D01*
X890499Y3949700D02*
X915498Y3974700D01*
X597408Y3708400D02*
X845820Y3956812D01*
X1498600Y4927600D02*
X1587500D01*
X1409700D02*
X1498600D01*
X1189092D02*
X1409700D01*
X1119900Y4858408D02*
X1189092Y4927600D01*
X1119900Y4748200D02*
Y4858408D01*
X1109900Y4738200D02*
X1119900Y4748200D01*
X1092200Y4019500D02*
Y4724400D01*
X596900Y3708400D02*
X597408D01*
X419600Y2052591D02*
X639808D01*
X660399Y2032000D01*
X444500Y3556000D02*
X596900Y3708400D01*
X444500Y2052591D02*
Y3556000D01*
D39*
X2602159Y2127521D02*
X2681779D01*
X2699750Y2330450D02*
Y2364483D01*
X2693400Y2247900D02*
Y2284741D01*
X2615691Y2635400D02*
X2634303Y2654012D01*
X2774538D01*
X2767364Y2616185D02*
X2789864Y2638685D01*
X2774538Y2654012D02*
X2789864Y2638685D01*
X2693400Y2115900D02*
Y2120900D01*
X2681779Y2127521D02*
X2693400Y2115900D01*
X2699750Y2364483D02*
X2723000Y2387733D01*
X2693400Y2127521D02*
Y2247900D01*
Y2120900D02*
Y2127521D01*
D41*
X2214612Y2565132D02*
X2283228Y2496516D01*
X2282529Y2457414D02*
Y2495816D01*
X2283228Y2496516D01*
Y2453016D02*
X2290845Y2445400D01*
X2463850D01*
X2486409Y2422841D01*
X2573226D02*
X2613286Y2382781D01*
X2276215Y2451100D02*
X2282529Y2457414D01*
X2486409Y2422841D02*
X2573226D01*
X2613286Y2318600D02*
X2619600Y2312286D01*
X2613286Y2318600D02*
Y2382781D01*
X1514535Y3108266D02*
X1765300Y2857500D01*
X1514535Y3108266D02*
Y3309700D01*
X1765300Y2057400D02*
X2222500Y1600200D01*
Y1490914D02*
Y1600200D01*
Y1490914D02*
X2392614Y1320800D01*
X1765300Y2057400D02*
Y2857500D01*
X2392614Y1320800D02*
X2400300D01*
D43*
X3429000Y838200D02*
D03*
X2921000D02*
D03*
X3429000Y584200D02*
D03*
X3175000D02*
D03*
Y838200D02*
D03*
D44*
X838200Y482600D02*
D03*
D45*
X1092200D02*
D03*
X1346200D02*
D03*
X1600200D02*
D03*
X2108200D02*
D03*
X1854200D02*
D03*
X2362200D02*
D03*
X2616200D02*
D03*
X838200Y990600D02*
D03*
X1092200D02*
D03*
X1346200D02*
D03*
X1600200D02*
D03*
X1854200D02*
D03*
X2108200D02*
D03*
X2362200D02*
D03*
X2616200D02*
D03*
X1600200Y736600D02*
D03*
X838200D02*
D03*
X1092200D02*
D03*
X1346200D02*
D03*
X1854200D02*
D03*
X2108200D02*
D03*
X2362200D02*
D03*
X2616200D02*
D03*
D46*
X3436988Y1066101D02*
D03*
Y1931099D02*
D03*
D47*
X3857003Y1066101D02*
D03*
Y1931099D02*
D03*
D48*
X2921000Y584200D02*
D03*
D49*
X3822700Y4902200D02*
D03*
X368300D02*
D03*
X3822700Y381000D02*
D03*
X355600D02*
D03*
D50*
X2796600Y1587500D02*
D03*
X2810558Y1678685D02*
D03*
X1406500Y3644900D02*
D03*
X1079500Y2311400D02*
D03*
X1163908Y2469053D02*
D03*
X1137320Y3143872D02*
D03*
X990601Y3393500D02*
D03*
X3604114Y2208328D02*
D03*
X2768600Y3784600D02*
D03*
X2810275Y3597675D02*
D03*
X2946400Y1104900D02*
D03*
X1498600Y4927600D02*
D03*
X1409700D02*
D03*
X1587500D02*
D03*
X660400Y3771900D02*
D03*
X596900Y3708400D02*
D03*
X698500Y2032000D02*
D03*
X569404D02*
D03*
X3482113Y2310672D02*
D03*
X1013000Y2181326D02*
D03*
Y1987325D02*
D03*
X431800Y1892300D02*
D03*
X3924300Y2984500D02*
D03*
X3915910Y3203495D02*
D03*
X2094948Y2317600D02*
D03*
X1856077Y2346100D02*
D03*
X3470808Y4431388D02*
D03*
X614897Y4496297D02*
D03*
X314898D02*
D03*
X3614897D02*
D03*
X1964897Y4196297D02*
D03*
X3314897Y296299D02*
D03*
X3914896Y896298D02*
D03*
X3014897Y296299D02*
D03*
X314898Y896298D02*
D03*
X3914896Y4496297D02*
D03*
X3764896Y1796298D02*
D03*
X764897Y4196297D02*
D03*
X3764896D02*
D03*
X1964897Y4796297D02*
D03*
X1214897Y896298D02*
D03*
X464897Y4196297D02*
D03*
X1964897Y2396298D02*
D03*
X4064896Y3596298D02*
D03*
X764897Y4796297D02*
D03*
X914897Y4496297D02*
D03*
X764897Y3596298D02*
D03*
X3503767Y4329239D02*
D03*
X2414897Y4496297D02*
D03*
X3764896Y2996298D02*
D03*
X596900Y2819400D02*
D03*
Y2184400D02*
D03*
Y2616200D02*
D03*
Y2400300D02*
D03*
X609600Y3378200D02*
D03*
X650400Y3175096D02*
D03*
X609600Y3048000D02*
D03*
X177800Y2400300D02*
D03*
Y2832100D02*
D03*
Y2616200D02*
D03*
Y3048000D02*
D03*
X2276215Y2451100D02*
D03*
X2619600Y2312286D02*
D03*
X2082800Y2808027D02*
D03*
X1130300Y2908300D02*
D03*
X2602159Y2127521D02*
D03*
X3486375Y2889475D02*
D03*
X2645000Y3517900D02*
D03*
X2933700Y3306900D02*
D03*
X2664402Y3082755D02*
D03*
X3479800Y3114900D02*
D03*
X2717800Y2814500D02*
D03*
X1752600Y3136900D02*
D03*
X1676400D02*
D03*
X1660011Y3709320D02*
D03*
X3220314Y3644679D02*
D03*
X2006600Y2819400D02*
D03*
X2578100Y2716900D02*
D03*
X191211Y710493D02*
D03*
X156258Y1640585D02*
D03*
X393700Y1625600D02*
D03*
X168958Y1894585D02*
D03*
X647700Y1371600D02*
D03*
X939800Y1358900D02*
D03*
X177800Y2184400D02*
D03*
X752000Y2286096D02*
D03*
X764700Y2705196D02*
D03*
X1371600Y2082800D02*
D03*
Y1714500D02*
D03*
X1536700Y1549400D02*
D03*
X1562100Y2095500D02*
D03*
X1430000Y2380600D02*
D03*
X1434254Y2146697D02*
D03*
X2298700Y1663700D02*
D03*
X1714500Y1727200D02*
D03*
X1944242Y2030970D02*
D03*
X1537842Y2577070D02*
D03*
X1612900Y2882900D02*
D03*
X1828800Y2908300D02*
D03*
X2032000Y3111500D02*
D03*
X1571035Y3203400D02*
D03*
X2057400Y2603500D02*
D03*
X2247900Y2781300D02*
D03*
X2051745Y2879900D02*
D03*
X2339009Y3200815D02*
D03*
X203200Y3670300D02*
D03*
Y3441700D02*
D03*
X929800Y3759296D02*
D03*
X1270000Y3263900D02*
D03*
X1453771Y3269243D02*
D03*
X1525293Y3642610D02*
D03*
X1286100Y4584700D02*
D03*
X1247163Y5112231D02*
D03*
X1298100Y3873596D02*
D03*
X1736639Y3692066D02*
D03*
X1798750Y3302347D02*
D03*
X2222500Y3302000D02*
D03*
X1962375Y3562575D02*
D03*
X1993900Y4076700D02*
D03*
X2146300Y3784600D02*
D03*
X2057400Y3937000D02*
D03*
X1612900Y5118100D02*
D03*
X2208674Y4005424D02*
D03*
X2247900Y5080000D02*
D03*
Y4864100D02*
D03*
Y4673600D02*
D03*
X2379980D02*
D03*
X2463800Y1358900D02*
D03*
X2539976Y1612835D02*
D03*
X2705100Y1244600D02*
D03*
X2943730Y1397000D02*
D03*
X3136897Y1638300D02*
D03*
X2592600Y1947325D02*
D03*
X2387600Y2501900D02*
D03*
X2664433Y2495207D02*
D03*
X2538948Y2596594D02*
D03*
X2510237Y2851132D02*
D03*
X2984202Y1961229D02*
D03*
X2982454Y2144987D02*
D03*
X3009900Y2730500D02*
D03*
X3073400Y2476500D02*
D03*
X3187700Y165100D02*
D03*
X3175000Y1219200D02*
D03*
X3962400Y723900D02*
D03*
X4000500Y1295400D02*
D03*
X3975100Y1727200D02*
D03*
X3229200Y2284402D02*
D03*
X3175000Y2755900D02*
D03*
X3175624Y2587400D02*
D03*
X3314700Y2514600D02*
D03*
X3469800Y2768696D02*
D03*
X4025900Y2298700D02*
D03*
X3732007Y2801246D02*
D03*
X2925089Y3162000D02*
D03*
X2509125Y3222314D02*
D03*
X3073079Y3013300D02*
D03*
X2970700Y3439876D02*
D03*
X3073400Y3302000D02*
D03*
X2400300Y3784600D02*
D03*
X2501900Y5080000D02*
D03*
Y4864100D02*
D03*
Y4673600D02*
D03*
X2859000Y4099100D02*
D03*
X2906008Y3792608D02*
D03*
X2729000Y4099100D02*
D03*
Y4359100D02*
D03*
Y4229100D02*
D03*
X2859000D02*
D03*
Y4359100D02*
D03*
X3606800Y2921000D02*
D03*
X3107097Y3706299D02*
D03*
X3151108Y3885624D02*
D03*
X4025900Y3949700D02*
D03*
X3543300Y3962400D02*
D03*
X3479800Y3657600D02*
D03*
X3270750Y3718694D02*
D03*
X1651000Y4013200D02*
D03*
X1842677Y4462696D02*
D03*
X1737876Y4606297D02*
D03*
X2830076Y4796797D02*
D03*
X2817376Y5076197D02*
D03*
X2172715Y2809290D02*
D03*
X2706294Y2600012D02*
D03*
X2395148Y2578100D02*
D03*
X3329832Y3761569D02*
D03*
X3293172Y3649223D02*
D03*
X1600793Y1601243D02*
D03*
X3365946Y3146285D02*
D03*
X2679700Y3924100D02*
D03*
X1454900Y1760150D02*
D03*
X1366964Y2175000D02*
D03*
X1435100Y2222500D02*
D03*
X3124200Y4673600D02*
D03*
X3390900D02*
D03*
X3258820D02*
D03*
X1439057Y3340745D02*
D03*
X1741978Y3619214D02*
D03*
X1797052Y3531258D02*
D03*
X2286000Y3263900D02*
D03*
X2512083Y3305022D02*
D03*
X2439135Y3308724D02*
D03*
X2570704Y3261519D02*
D03*
X2584947Y2825300D02*
D03*
X3043900Y2184400D02*
D03*
X3238500Y2019300D02*
D03*
X2992600Y1888179D02*
D03*
X2925600Y1917700D02*
D03*
X2952649Y2216049D02*
D03*
X2909899Y2129200D02*
D03*
X1181100Y2540000D02*
D03*
X1371600Y2336800D02*
D03*
X1564279Y2168467D02*
D03*
X1562100Y2022500D02*
D03*
X1609821Y3581400D02*
D03*
X1803400Y3022600D02*
D03*
X1791307Y3229727D02*
D03*
X3276375Y2577875D02*
D03*
X3581400Y3114900D02*
D03*
X3607722Y3492693D02*
D03*
X3099250Y2666550D02*
D03*
X3797300Y2768600D02*
D03*
X2454619Y2796782D02*
D03*
X3378200Y2044700D02*
D03*
X2146300Y2222500D02*
D03*
X2605802Y2019121D02*
D03*
X2502806Y2069194D02*
D03*
X2933700Y2735400D02*
D03*
X2928043Y2653507D02*
D03*
X2330125Y2772000D02*
D03*
X2536791Y1995320D02*
D03*
X3162300Y1790700D02*
D03*
X1871749Y3302000D02*
D03*
X1629063Y3276776D02*
D03*
X1514535Y3309700D02*
D03*
X2412775Y1422175D02*
D03*
X3082365Y1350385D02*
D03*
X2527075Y1244825D02*
D03*
X2667000Y1308100D02*
D03*
X2872232Y1411732D02*
D03*
X3797300Y3429000D02*
D03*
X2743200Y3924100D02*
D03*
X935075Y3027775D02*
D03*
X2400300Y1320800D02*
D03*
X2025200Y3276600D02*
D03*
X1373218Y2430164D02*
D03*
D51*
X890499Y3949700D02*
D03*
X190500D02*
D03*
Y3249701D02*
D03*
X890499D02*
D03*
D52*
X1109900Y4738200D02*
D03*
X1734900D02*
D03*
X1359900D02*
D03*
X1234900D02*
D03*
X1609900D02*
D03*
X1484900D02*
D03*
D53*
X1130300Y4010000D02*
D03*
Y3610000D02*
D03*
D54*
X1065189Y3302000D02*
D03*
X1247227Y3207000D02*
D03*
D55*
X1965706Y2716530D02*
D03*
Y2666492D02*
D03*
Y2616454D02*
D03*
X2199640D02*
D03*
Y2666492D02*
D03*
Y2716530D02*
D03*
Y2566670D02*
D03*
X1965706D02*
D03*
D56*
X2132584Y2733548D02*
D03*
X2032762D02*
D03*
X2082800D02*
D03*
X2132584Y2549652D02*
D03*
X2032762D02*
D03*
X2082800D02*
D03*
D57*
X2185230Y2923535D02*
D03*
Y3108665D02*
D03*
D58*
X4051300Y2726385D02*
D03*
Y2946400D02*
D03*
Y3166389D02*
D03*
Y2396388D02*
D03*
Y3056382D02*
D03*
Y2836393D02*
D03*
Y2506396D02*
D03*
Y2616378D02*
D03*
D59*
X1333500Y3643900D02*
D03*
X2451100Y3785600D02*
D03*
X3263900Y3925300D02*
D03*
Y4304300D02*
D03*
X1333500Y3518900D02*
D03*
X2451100Y3910600D02*
D03*
X3263900Y4050300D02*
D03*
Y4179300D02*
D03*
D60*
X924900Y5058200D02*
D03*
X1919900D02*
D03*
D61*
X2983814Y2482875D02*
D03*
Y3079877D02*
D03*
D62*
X4048811Y2150389D02*
D03*
D63*
X2506500Y4292600D02*
D03*
X3081500D02*
D03*
X2506500Y4419600D02*
D03*
Y4038600D02*
D03*
Y4165600D02*
D03*
X3081500Y4038600D02*
D03*
Y4165600D02*
D03*
Y4419600D02*
D03*
D64*
X2794000Y4229100D02*
D03*
D65*
X3641200Y3660000D02*
D03*
Y3960000D02*
D03*
Y4060000D02*
D03*
Y3560000D02*
D03*
Y3860000D02*
D03*
Y3760000D02*
D03*
D66*
X4031310Y3287395D02*
D03*
D67*
X4028700Y3430000D02*
D03*
Y4190000D02*
D03*
D68*
X3451301Y2132889D02*
D03*
X3081299D02*
D03*
D69*
X1247227Y3397000D02*
D03*
D70*
X2235200Y4118864D02*
D03*
Y3898900D02*
D03*
D71*
X2374900Y4880000D02*
D03*
X3263900D02*
D03*
%TF.MD5,cb8134c502d69b6143cab00f0dcf0636*%
M02*
