%TF.GenerationSoftware,Altium Limited,Altium Designer,26.9.1 (10)*%
G04 Layer_Physical_Order=2*
G04 Layer_Color=36540*
G04 Board_Origin=30650000|16550000*
%FSLAX45Y45*%
%MOMM*%
%TF.SameCoordinates,05126742-2993-4272-A15D-2DBC63916BBF*%
%TF.FilePolarity,Positive*%
%TF.FileFunction,Copper,L2,Inr,Signal*%
%TF.Part,Single*%
G01*
G75*
%TA.AperFunction,ComponentPad*%
%ADD43C,1.80086*%
%ADD44R,1.52908X1.52908*%
%ADD45C,1.52908*%
%ADD46O,2.00000X1.10000*%
%ADD47O,1.80000X1.20000*%
%TA.AperFunction,ViaPad*%
%ADD50C,0.63000*%
G36*
X3892572Y5189804D02*
X3926687Y5180663D01*
X3959314Y5167148D01*
X3989900Y5149490D01*
X4017918Y5127990D01*
X4042890Y5103017D01*
X4064389Y5075000D01*
X4082048Y5044414D01*
X4095563Y5011787D01*
X4104704Y4977672D01*
X4109314Y4942658D01*
Y4925000D01*
Y3645415D01*
X4100075Y3641588D01*
X4097127Y3644535D01*
X4077596Y3652625D01*
Y3596298D01*
Y3539970D01*
X4097127Y3548060D01*
X4100075Y3551007D01*
X4109314Y3547181D01*
Y355792D01*
Y338134D01*
X4104704Y303120D01*
X4095563Y269005D01*
X4082048Y236377D01*
X4064390Y205792D01*
X4042890Y177774D01*
X4017918Y152802D01*
X3989900Y131303D01*
X3959314Y113644D01*
X3926687Y100129D01*
X3892572Y90988D01*
X3857558Y86379D01*
X322242D01*
X287228Y90988D01*
X253113Y100129D01*
X220485Y113644D01*
X189900Y131302D01*
X161882Y152802D01*
X136910Y177774D01*
X115410Y205792D01*
X97752Y236378D01*
X84237Y269005D01*
X75096Y303120D01*
X70487Y338134D01*
Y355792D01*
Y4925000D01*
Y4942658D01*
X75096Y4977672D01*
X84237Y5011787D01*
X97752Y5044414D01*
X115410Y5075000D01*
X136910Y5103017D01*
X161882Y5127990D01*
X189900Y5149489D01*
X220486Y5167148D01*
X253113Y5180663D01*
X287228Y5189804D01*
X322242Y5194414D01*
X3857558D01*
X3892572Y5189804D01*
D02*
G37*
%LPC*%
G36*
X1625600Y5174427D02*
Y5130800D01*
X1669227D01*
X1661137Y5150331D01*
X1645131Y5166337D01*
X1625600Y5174427D01*
D02*
G37*
G36*
X1600200D02*
X1580669Y5166337D01*
X1564663Y5150331D01*
X1556573Y5130800D01*
X1600200D01*
Y5174427D01*
D02*
G37*
G36*
X1259863Y5168558D02*
Y5124931D01*
X1303490D01*
X1295400Y5144462D01*
X1279394Y5160468D01*
X1259863Y5168558D01*
D02*
G37*
G36*
X1234463D02*
X1214932Y5160468D01*
X1198925Y5144462D01*
X1190835Y5124931D01*
X1234463D01*
Y5168558D01*
D02*
G37*
G36*
X2514600Y5136327D02*
Y5092700D01*
X2558227D01*
X2550137Y5112231D01*
X2534131Y5128237D01*
X2514600Y5136327D01*
D02*
G37*
G36*
X2489200D02*
X2469669Y5128237D01*
X2453663Y5112231D01*
X2445573Y5092700D01*
X2489200D01*
Y5136327D01*
D02*
G37*
G36*
X2260600D02*
Y5092700D01*
X2304227D01*
X2296137Y5112231D01*
X2280131Y5128237D01*
X2260600Y5136327D01*
D02*
G37*
G36*
X2235200D02*
X2215669Y5128237D01*
X2199663Y5112231D01*
X2191573Y5092700D01*
X2235200D01*
Y5136327D01*
D02*
G37*
G36*
X2830076Y5132524D02*
Y5088897D01*
X2873703D01*
X2865614Y5108428D01*
X2849607Y5124434D01*
X2830076Y5132524D01*
D02*
G37*
G36*
X2804676D02*
X2785145Y5124434D01*
X2769139Y5108428D01*
X2761049Y5088897D01*
X2804676D01*
Y5132524D01*
D02*
G37*
G36*
X1669227Y5105400D02*
X1625600D01*
Y5061773D01*
X1645131Y5069863D01*
X1661137Y5085869D01*
X1669227Y5105400D01*
D02*
G37*
G36*
X1600200D02*
X1556573D01*
X1564663Y5085869D01*
X1580669Y5069863D01*
X1600200Y5061773D01*
Y5105400D01*
D02*
G37*
G36*
X1303490Y5099531D02*
X1259863D01*
Y5055904D01*
X1279394Y5063994D01*
X1295400Y5080000D01*
X1303490Y5099531D01*
D02*
G37*
G36*
X1234463D02*
X1190835D01*
X1198925Y5080000D01*
X1214932Y5063994D01*
X1234463Y5055904D01*
Y5099531D01*
D02*
G37*
G36*
X2558227Y5067300D02*
X2514600D01*
Y5023673D01*
X2534131Y5031763D01*
X2550137Y5047769D01*
X2558227Y5067300D01*
D02*
G37*
G36*
X2489200D02*
X2445573D01*
X2453663Y5047769D01*
X2469669Y5031763D01*
X2489200Y5023673D01*
Y5067300D01*
D02*
G37*
G36*
X2304227D02*
X2260600D01*
Y5023673D01*
X2280131Y5031763D01*
X2296137Y5047769D01*
X2304227Y5067300D01*
D02*
G37*
G36*
X2235200D02*
X2191573D01*
X2199663Y5047769D01*
X2215669Y5031763D01*
X2235200Y5023673D01*
Y5067300D01*
D02*
G37*
G36*
X2873703Y5063497D02*
X2830076D01*
Y5019869D01*
X2849607Y5027959D01*
X2865614Y5043966D01*
X2873703Y5063497D01*
D02*
G37*
G36*
X2804676D02*
X2761049D01*
X2769139Y5043966D01*
X2785145Y5027959D01*
X2804676Y5019869D01*
Y5063497D01*
D02*
G37*
G36*
X1595755Y4969100D02*
X1579245D01*
X1563992Y4962782D01*
X1552318Y4951108D01*
X1548462Y4941798D01*
X1537638D01*
X1533782Y4951108D01*
X1522108Y4962782D01*
X1506855Y4969100D01*
X1490345D01*
X1475092Y4962782D01*
X1463418Y4951108D01*
X1459562Y4941798D01*
X1448738D01*
X1444882Y4951108D01*
X1433208Y4962782D01*
X1417955Y4969100D01*
X1401445D01*
X1386192Y4962782D01*
X1374518Y4951108D01*
X1368200Y4935855D01*
Y4919345D01*
X1374518Y4904092D01*
X1386192Y4892418D01*
X1401445Y4886100D01*
X1417955D01*
X1433208Y4892418D01*
X1444882Y4904092D01*
X1448738Y4913402D01*
X1459562D01*
X1463418Y4904092D01*
X1475092Y4892418D01*
X1490345Y4886100D01*
X1506855D01*
X1522108Y4892418D01*
X1533782Y4904092D01*
X1537638Y4913402D01*
X1548462D01*
X1552318Y4904092D01*
X1563992Y4892418D01*
X1579245Y4886100D01*
X1595755D01*
X1611008Y4892418D01*
X1622682Y4904092D01*
X1629000Y4919345D01*
Y4935855D01*
X1622682Y4951108D01*
X1611008Y4962782D01*
X1595755Y4969100D01*
D02*
G37*
G36*
X2514600Y4920427D02*
Y4876800D01*
X2558227D01*
X2550137Y4896331D01*
X2534131Y4912337D01*
X2514600Y4920427D01*
D02*
G37*
G36*
X2489200D02*
X2469669Y4912337D01*
X2453663Y4896331D01*
X2445573Y4876800D01*
X2489200D01*
Y4920427D01*
D02*
G37*
G36*
X2260600D02*
Y4876800D01*
X2304227D01*
X2296137Y4896331D01*
X2280131Y4912337D01*
X2260600Y4920427D01*
D02*
G37*
G36*
X2235200D02*
X2215669Y4912337D01*
X2199663Y4896331D01*
X2191573Y4876800D01*
X2235200D01*
Y4920427D01*
D02*
G37*
G36*
X2842776Y4853124D02*
Y4809497D01*
X2886403D01*
X2878314Y4829028D01*
X2862307Y4845034D01*
X2842776Y4853124D01*
D02*
G37*
G36*
X2817376D02*
X2797845Y4845034D01*
X2781839Y4829028D01*
X2773749Y4809497D01*
X2817376D01*
Y4853124D01*
D02*
G37*
G36*
X1977597Y4852625D02*
Y4808997D01*
X2021224D01*
X2013134Y4828528D01*
X1997128Y4844535D01*
X1977597Y4852625D01*
D02*
G37*
G36*
X1952197D02*
X1932666Y4844535D01*
X1916660Y4828528D01*
X1908570Y4808997D01*
X1952197D01*
Y4852625D01*
D02*
G37*
G36*
X777597D02*
Y4808997D01*
X821225D01*
X813135Y4828528D01*
X797128Y4844535D01*
X777597Y4852625D01*
D02*
G37*
G36*
X752197D02*
X732666Y4844535D01*
X716660Y4828528D01*
X708570Y4808997D01*
X752197D01*
Y4852625D01*
D02*
G37*
G36*
X2558227Y4851400D02*
X2514600D01*
Y4807773D01*
X2534131Y4815863D01*
X2550137Y4831869D01*
X2558227Y4851400D01*
D02*
G37*
G36*
X2489200D02*
X2445573D01*
X2453663Y4831869D01*
X2469669Y4815863D01*
X2489200Y4807773D01*
Y4851400D01*
D02*
G37*
G36*
X2304227D02*
X2260600D01*
Y4807773D01*
X2280131Y4815863D01*
X2296137Y4831869D01*
X2304227Y4851400D01*
D02*
G37*
G36*
X2235200D02*
X2191573D01*
X2199663Y4831869D01*
X2215669Y4815863D01*
X2235200Y4807773D01*
Y4851400D01*
D02*
G37*
G36*
X2886403Y4784097D02*
X2842776D01*
Y4740469D01*
X2862307Y4748559D01*
X2878314Y4764566D01*
X2886403Y4784097D01*
D02*
G37*
G36*
X2817376D02*
X2773749D01*
X2781839Y4764566D01*
X2797845Y4748559D01*
X2817376Y4740469D01*
Y4784097D01*
D02*
G37*
G36*
X2021224Y4783597D02*
X1977597D01*
Y4739970D01*
X1997128Y4748060D01*
X2013134Y4764066D01*
X2021224Y4783597D01*
D02*
G37*
G36*
X1952197D02*
X1908570D01*
X1916660Y4764066D01*
X1932666Y4748060D01*
X1952197Y4739970D01*
Y4783597D01*
D02*
G37*
G36*
X821225D02*
X777597D01*
Y4739970D01*
X797128Y4748060D01*
X813135Y4764066D01*
X821225Y4783597D01*
D02*
G37*
G36*
X752197D02*
X708570D01*
X716660Y4764066D01*
X732666Y4748060D01*
X752197Y4739970D01*
Y4783597D01*
D02*
G37*
G36*
X2489200Y4729927D02*
X2469669Y4721837D01*
X2453663Y4705831D01*
X2446119Y4687618D01*
X2435761D01*
X2428217Y4705831D01*
X2412211Y4721837D01*
X2392680Y4729927D01*
Y4673600D01*
Y4617273D01*
X2412211Y4625363D01*
X2428217Y4641369D01*
X2435761Y4659582D01*
X2446119D01*
X2453663Y4641369D01*
X2469669Y4625363D01*
X2489200Y4617273D01*
Y4673600D01*
Y4729927D01*
D02*
G37*
G36*
X2514600D02*
Y4686300D01*
X2558227D01*
X2550137Y4705831D01*
X2534131Y4721837D01*
X2514600Y4729927D01*
D02*
G37*
G36*
X2367280D02*
X2347749Y4721837D01*
X2331743Y4705831D01*
X2323653Y4686300D01*
X2367280D01*
Y4729927D01*
D02*
G37*
G36*
X2260600D02*
Y4686300D01*
X2304227D01*
X2296137Y4705831D01*
X2280131Y4721837D01*
X2260600Y4729927D01*
D02*
G37*
G36*
X2235200D02*
X2215669Y4721837D01*
X2199663Y4705831D01*
X2191573Y4686300D01*
X2235200D01*
Y4729927D01*
D02*
G37*
G36*
X3848308Y5162200D02*
X3797092D01*
X3746861Y5152208D01*
X3699544Y5132609D01*
X3656960Y5104155D01*
X3620745Y5067940D01*
X3592291Y5025356D01*
X3572692Y4978039D01*
X3562700Y4927808D01*
Y4876592D01*
X3572692Y4826361D01*
X3592291Y4779044D01*
X3620745Y4736460D01*
X3656960Y4700245D01*
X3699544Y4671791D01*
X3746861Y4652192D01*
X3797092Y4642200D01*
X3848308D01*
X3898539Y4652192D01*
X3945856Y4671791D01*
X3988440Y4700245D01*
X4024655Y4736460D01*
X4053109Y4779044D01*
X4072708Y4826361D01*
X4082700Y4876592D01*
Y4927808D01*
X4072708Y4978039D01*
X4053109Y5025356D01*
X4024655Y5067940D01*
X3988440Y5104155D01*
X3945856Y5132609D01*
X3898539Y5152208D01*
X3848308Y5162200D01*
D02*
G37*
G36*
X393908D02*
X342692D01*
X292461Y5152208D01*
X245144Y5132609D01*
X202560Y5104155D01*
X166345Y5067940D01*
X137891Y5025356D01*
X118292Y4978039D01*
X108300Y4927808D01*
Y4876592D01*
X118292Y4826361D01*
X137891Y4779044D01*
X166345Y4736460D01*
X202560Y4700245D01*
X245144Y4671791D01*
X292461Y4652192D01*
X342692Y4642200D01*
X393908D01*
X444139Y4652192D01*
X491456Y4671791D01*
X534040Y4700245D01*
X570255Y4736460D01*
X598709Y4779044D01*
X618308Y4826361D01*
X628300Y4876592D01*
Y4927808D01*
X618308Y4978039D01*
X598709Y5025356D01*
X570255Y5067940D01*
X534040Y5104155D01*
X491456Y5132609D01*
X444139Y5152208D01*
X393908Y5162200D01*
D02*
G37*
G36*
X3399155Y4715100D02*
X3382645D01*
X3367392Y4708782D01*
X3355718Y4697108D01*
X3349400Y4681855D01*
Y4665345D01*
X3355718Y4650092D01*
X3367392Y4638418D01*
X3382645Y4632100D01*
X3399155D01*
X3414408Y4638418D01*
X3426082Y4650092D01*
X3432400Y4665345D01*
Y4681855D01*
X3426082Y4697108D01*
X3414408Y4708782D01*
X3399155Y4715100D01*
D02*
G37*
G36*
X3267075D02*
X3250565D01*
X3235312Y4708782D01*
X3223638Y4697108D01*
X3217320Y4681855D01*
Y4665345D01*
X3223638Y4650092D01*
X3235312Y4638418D01*
X3250565Y4632100D01*
X3267075D01*
X3282328Y4638418D01*
X3294002Y4650092D01*
X3300320Y4665345D01*
Y4681855D01*
X3294002Y4697108D01*
X3282328Y4708782D01*
X3267075Y4715100D01*
D02*
G37*
G36*
X3132455D02*
X3115945D01*
X3100692Y4708782D01*
X3089018Y4697108D01*
X3082700Y4681855D01*
Y4665345D01*
X3089018Y4650092D01*
X3100692Y4638418D01*
X3115945Y4632100D01*
X3132455D01*
X3147708Y4638418D01*
X3159382Y4650092D01*
X3165700Y4665345D01*
Y4681855D01*
X3159382Y4697108D01*
X3147708Y4708782D01*
X3132455Y4715100D01*
D02*
G37*
G36*
X1750576Y4662624D02*
Y4618997D01*
X1794203D01*
X1786114Y4638528D01*
X1770107Y4654534D01*
X1750576Y4662624D01*
D02*
G37*
G36*
X1725176D02*
X1705645Y4654534D01*
X1689639Y4638528D01*
X1681549Y4618997D01*
X1725176D01*
Y4662624D01*
D02*
G37*
G36*
X2558227Y4660900D02*
X2514600D01*
Y4617273D01*
X2534131Y4625363D01*
X2550137Y4641369D01*
X2558227Y4660900D01*
D02*
G37*
G36*
X2367280D02*
X2323653D01*
X2331743Y4641369D01*
X2347749Y4625363D01*
X2367280Y4617273D01*
Y4660900D01*
D02*
G37*
G36*
X2304227D02*
X2260600D01*
Y4617273D01*
X2280131Y4625363D01*
X2296137Y4641369D01*
X2304227Y4660900D01*
D02*
G37*
G36*
X2235200D02*
X2191573D01*
X2199663Y4641369D01*
X2215669Y4625363D01*
X2235200Y4617273D01*
Y4660900D01*
D02*
G37*
G36*
X1298800Y4641027D02*
Y4597400D01*
X1342427D01*
X1334337Y4616931D01*
X1318331Y4632937D01*
X1298800Y4641027D01*
D02*
G37*
G36*
X1273400D02*
X1253869Y4632937D01*
X1237863Y4616931D01*
X1229773Y4597400D01*
X1273400D01*
Y4641027D01*
D02*
G37*
G36*
X1794203Y4593597D02*
X1750576D01*
Y4549969D01*
X1770107Y4558059D01*
X1786114Y4574066D01*
X1794203Y4593597D01*
D02*
G37*
G36*
X1725176D02*
X1681549D01*
X1689639Y4574066D01*
X1705645Y4558059D01*
X1725176Y4549969D01*
Y4593597D01*
D02*
G37*
G36*
X1342427Y4572000D02*
X1298800D01*
Y4528373D01*
X1318331Y4536463D01*
X1334337Y4552469D01*
X1342427Y4572000D01*
D02*
G37*
G36*
X1273400D02*
X1229773D01*
X1237863Y4552469D01*
X1253869Y4536463D01*
X1273400Y4528373D01*
Y4572000D01*
D02*
G37*
G36*
X3927596Y4552625D02*
Y4508997D01*
X3971224D01*
X3963134Y4528528D01*
X3947127Y4544535D01*
X3927596Y4552625D01*
D02*
G37*
G36*
X3902196D02*
X3882665Y4544535D01*
X3866659Y4528528D01*
X3858569Y4508997D01*
X3902196D01*
Y4552625D01*
D02*
G37*
G36*
X3627597D02*
Y4508997D01*
X3671224D01*
X3663134Y4528528D01*
X3647128Y4544535D01*
X3627597Y4552625D01*
D02*
G37*
G36*
X3602197D02*
X3582665Y4544535D01*
X3566659Y4528528D01*
X3558569Y4508997D01*
X3602197D01*
Y4552625D01*
D02*
G37*
G36*
X2427597D02*
Y4508997D01*
X2471224D01*
X2463134Y4528528D01*
X2447128Y4544535D01*
X2427597Y4552625D01*
D02*
G37*
G36*
X2402197D02*
X2382666Y4544535D01*
X2366659Y4528528D01*
X2358570Y4508997D01*
X2402197D01*
Y4552625D01*
D02*
G37*
G36*
X927597D02*
Y4508997D01*
X971225D01*
X963135Y4528528D01*
X947128Y4544535D01*
X927597Y4552625D01*
D02*
G37*
G36*
X902197D02*
X882666Y4544535D01*
X866660Y4528528D01*
X858570Y4508997D01*
X902197D01*
Y4552625D01*
D02*
G37*
G36*
X627597D02*
Y4508997D01*
X671225D01*
X663135Y4528528D01*
X647128Y4544535D01*
X627597Y4552625D01*
D02*
G37*
G36*
X602197D02*
X582666Y4544535D01*
X566660Y4528528D01*
X558570Y4508997D01*
X602197D01*
Y4552625D01*
D02*
G37*
G36*
X327598D02*
Y4508997D01*
X371225D01*
X363135Y4528528D01*
X347129Y4544535D01*
X327598Y4552625D01*
D02*
G37*
G36*
X302198D02*
X282666Y4544535D01*
X266660Y4528528D01*
X258570Y4508997D01*
X302198D01*
Y4552625D01*
D02*
G37*
G36*
X1855377Y4519024D02*
Y4475396D01*
X1899004D01*
X1890914Y4494928D01*
X1874908Y4510934D01*
X1855377Y4519024D01*
D02*
G37*
G36*
X1829977D02*
X1810446Y4510934D01*
X1794440Y4494928D01*
X1786350Y4475396D01*
X1829977D01*
Y4519024D01*
D02*
G37*
G36*
X3483508Y4487715D02*
Y4444088D01*
X3527135D01*
X3519045Y4463619D01*
X3503039Y4479626D01*
X3483508Y4487715D01*
D02*
G37*
G36*
X3458108D02*
X3438577Y4479626D01*
X3422570Y4463619D01*
X3414481Y4444088D01*
X3458108D01*
Y4487715D01*
D02*
G37*
G36*
X3971224Y4483597D02*
X3927596D01*
Y4439970D01*
X3947127Y4448060D01*
X3963134Y4464066D01*
X3971224Y4483597D01*
D02*
G37*
G36*
X3902196D02*
X3858569D01*
X3866659Y4464066D01*
X3882665Y4448060D01*
X3902196Y4439970D01*
Y4483597D01*
D02*
G37*
G36*
X3671224D02*
X3627597D01*
Y4439970D01*
X3647128Y4448060D01*
X3663134Y4464066D01*
X3671224Y4483597D01*
D02*
G37*
G36*
X3602197D02*
X3558569D01*
X3566659Y4464066D01*
X3582665Y4448060D01*
X3602197Y4439970D01*
Y4483597D01*
D02*
G37*
G36*
X2471224D02*
X2427597D01*
Y4439970D01*
X2447128Y4448060D01*
X2463134Y4464066D01*
X2471224Y4483597D01*
D02*
G37*
G36*
X2402197D02*
X2358570D01*
X2366659Y4464066D01*
X2382666Y4448060D01*
X2402197Y4439970D01*
Y4483597D01*
D02*
G37*
G36*
X971225D02*
X927597D01*
Y4439970D01*
X947128Y4448060D01*
X963135Y4464066D01*
X971225Y4483597D01*
D02*
G37*
G36*
X902197D02*
X858570D01*
X866660Y4464066D01*
X882666Y4448060D01*
X902197Y4439970D01*
Y4483597D01*
D02*
G37*
G36*
X671225D02*
X627597D01*
Y4439970D01*
X647128Y4448060D01*
X663135Y4464066D01*
X671225Y4483597D01*
D02*
G37*
G36*
X602197D02*
X558570D01*
X566660Y4464066D01*
X582666Y4448060D01*
X602197Y4439970D01*
Y4483597D01*
D02*
G37*
G36*
X371225D02*
X327598D01*
Y4439970D01*
X347129Y4448060D01*
X363135Y4464066D01*
X371225Y4483597D01*
D02*
G37*
G36*
X302198D02*
X258570D01*
X266660Y4464066D01*
X282666Y4448060D01*
X302198Y4439970D01*
Y4483597D01*
D02*
G37*
G36*
X1899004Y4449996D02*
X1855377D01*
Y4406369D01*
X1874908Y4414459D01*
X1890914Y4430465D01*
X1899004Y4449996D01*
D02*
G37*
G36*
X1829977D02*
X1786350D01*
X1794440Y4430465D01*
X1810446Y4414459D01*
X1829977Y4406369D01*
Y4449996D01*
D02*
G37*
G36*
X2871700Y4415427D02*
Y4371800D01*
X2915327D01*
X2907238Y4391331D01*
X2891231Y4407337D01*
X2871700Y4415427D01*
D02*
G37*
G36*
X2846300D02*
X2826769Y4407337D01*
X2810763Y4391331D01*
X2802673Y4371800D01*
X2846300D01*
Y4415427D01*
D02*
G37*
G36*
X2741700D02*
Y4371800D01*
X2785327D01*
X2777237Y4391331D01*
X2761231Y4407337D01*
X2741700Y4415427D01*
D02*
G37*
G36*
X2716300D02*
X2696769Y4407337D01*
X2680762Y4391331D01*
X2672673Y4371800D01*
X2716300D01*
Y4415427D01*
D02*
G37*
G36*
X3527135Y4418688D02*
X3414481D01*
X3422570Y4399157D01*
X3438577Y4383151D01*
X3455895Y4375977D01*
X3459309Y4365249D01*
X3455530Y4361470D01*
X3447440Y4341939D01*
X3560094D01*
X3552005Y4361470D01*
X3535998Y4377476D01*
X3518680Y4384650D01*
X3515266Y4395378D01*
X3519045Y4399157D01*
X3527135Y4418688D01*
D02*
G37*
G36*
X2915327Y4346400D02*
X2871700D01*
Y4302773D01*
X2891231Y4310863D01*
X2907238Y4326869D01*
X2915327Y4346400D01*
D02*
G37*
G36*
X2846300D02*
X2802673D01*
X2810763Y4326869D01*
X2826769Y4310863D01*
X2846300Y4302773D01*
Y4346400D01*
D02*
G37*
G36*
X2785327D02*
X2741700D01*
Y4302773D01*
X2761231Y4310863D01*
X2777237Y4326869D01*
X2785327Y4346400D01*
D02*
G37*
G36*
X2716300D02*
X2672673D01*
X2680762Y4326869D01*
X2696769Y4310863D01*
X2716300Y4302773D01*
Y4346400D01*
D02*
G37*
G36*
X3560094Y4316539D02*
X3516467D01*
Y4272911D01*
X3535998Y4281001D01*
X3552005Y4297008D01*
X3560094Y4316539D01*
D02*
G37*
G36*
X3491067D02*
X3447440D01*
X3455530Y4297008D01*
X3471536Y4281001D01*
X3491067Y4272911D01*
Y4316539D01*
D02*
G37*
G36*
X2871700Y4285427D02*
Y4241800D01*
X2915327D01*
X2907238Y4261331D01*
X2891231Y4277337D01*
X2871700Y4285427D01*
D02*
G37*
G36*
X2846300D02*
X2826769Y4277337D01*
X2810763Y4261331D01*
X2802673Y4241800D01*
X2846300D01*
Y4285427D01*
D02*
G37*
G36*
X2741700D02*
Y4241800D01*
X2785327D01*
X2777237Y4261331D01*
X2761231Y4277337D01*
X2741700Y4285427D01*
D02*
G37*
G36*
X2716300D02*
X2696769Y4277337D01*
X2680762Y4261331D01*
X2672673Y4241800D01*
X2716300D01*
Y4285427D01*
D02*
G37*
G36*
X3777596Y4252625D02*
Y4208997D01*
X3821224D01*
X3813134Y4228528D01*
X3797128Y4244535D01*
X3777596Y4252625D01*
D02*
G37*
G36*
X3752196D02*
X3732665Y4244535D01*
X3716659Y4228528D01*
X3708569Y4208997D01*
X3752196D01*
Y4252625D01*
D02*
G37*
G36*
X1977597D02*
Y4208997D01*
X2021224D01*
X2013134Y4228528D01*
X1997128Y4244535D01*
X1977597Y4252625D01*
D02*
G37*
G36*
X1952197D02*
X1932666Y4244535D01*
X1916660Y4228528D01*
X1908570Y4208997D01*
X1952197D01*
Y4252625D01*
D02*
G37*
G36*
X777597D02*
Y4208997D01*
X821225D01*
X813135Y4228528D01*
X797128Y4244535D01*
X777597Y4252625D01*
D02*
G37*
G36*
X752197D02*
X732666Y4244535D01*
X716660Y4228528D01*
X708570Y4208997D01*
X752197D01*
Y4252625D01*
D02*
G37*
G36*
X477597D02*
Y4208997D01*
X521225D01*
X513135Y4228528D01*
X497129Y4244535D01*
X477597Y4252625D01*
D02*
G37*
G36*
X452197D02*
X432666Y4244535D01*
X416660Y4228528D01*
X408570Y4208997D01*
X452197D01*
Y4252625D01*
D02*
G37*
G36*
X2915327Y4216400D02*
X2871700D01*
Y4172773D01*
X2891231Y4180863D01*
X2907238Y4196869D01*
X2915327Y4216400D01*
D02*
G37*
G36*
X2846300D02*
X2802673D01*
X2810763Y4196869D01*
X2826769Y4180863D01*
X2846300Y4172773D01*
Y4216400D01*
D02*
G37*
G36*
X2785327D02*
X2741700D01*
Y4172773D01*
X2761231Y4180863D01*
X2777237Y4196869D01*
X2785327Y4216400D01*
D02*
G37*
G36*
X2716300D02*
X2672673D01*
X2680762Y4196869D01*
X2696769Y4180863D01*
X2716300Y4172773D01*
Y4216400D01*
D02*
G37*
G36*
X3821224Y4183597D02*
X3777596D01*
Y4139970D01*
X3797128Y4148060D01*
X3813134Y4164066D01*
X3821224Y4183597D01*
D02*
G37*
G36*
X3752196D02*
X3708569D01*
X3716659Y4164066D01*
X3732665Y4148060D01*
X3752196Y4139970D01*
Y4183597D01*
D02*
G37*
G36*
X821225D02*
X777597D01*
Y4139970D01*
X797128Y4148060D01*
X813135Y4164066D01*
X821225Y4183597D01*
D02*
G37*
G36*
X752197D02*
X708570D01*
X716660Y4164066D01*
X732666Y4148060D01*
X752197Y4139970D01*
Y4183597D01*
D02*
G37*
G36*
X521225D02*
X477597D01*
Y4139970D01*
X497129Y4148060D01*
X513135Y4164066D01*
X521225Y4183597D01*
D02*
G37*
G36*
X452197D02*
X408570D01*
X416660Y4164066D01*
X432666Y4148060D01*
X452197Y4139970D01*
Y4183597D01*
D02*
G37*
G36*
X2871700Y4155427D02*
Y4111800D01*
X2915327D01*
X2907238Y4131331D01*
X2891231Y4147337D01*
X2871700Y4155427D01*
D02*
G37*
G36*
X2846300D02*
X2826769Y4147337D01*
X2810763Y4131331D01*
X2802673Y4111800D01*
X2846300D01*
Y4155427D01*
D02*
G37*
G36*
X2741700D02*
Y4111800D01*
X2785327D01*
X2777237Y4131331D01*
X2761231Y4147337D01*
X2741700Y4155427D01*
D02*
G37*
G36*
X2716300D02*
X2696769Y4147337D01*
X2680762Y4131331D01*
X2672673Y4111800D01*
X2716300D01*
Y4155427D01*
D02*
G37*
G36*
X2021224Y4183597D02*
X1908570D01*
X1916660Y4164066D01*
X1932666Y4148060D01*
X1953579Y4139398D01*
X1970448D01*
X1972437Y4129398D01*
X1961669Y4124937D01*
X1945663Y4108931D01*
X1937573Y4089400D01*
X2050227D01*
X2042137Y4108931D01*
X2026131Y4124937D01*
X2005218Y4133600D01*
X1988349D01*
X1986360Y4143600D01*
X1997128Y4148060D01*
X2013134Y4164066D01*
X2021224Y4183597D01*
D02*
G37*
G36*
X2915327Y4086400D02*
X2871700D01*
Y4042773D01*
X2891231Y4050863D01*
X2907238Y4066869D01*
X2915327Y4086400D01*
D02*
G37*
G36*
X2846300D02*
X2802673D01*
X2810763Y4066869D01*
X2826769Y4050863D01*
X2846300Y4042773D01*
Y4086400D01*
D02*
G37*
G36*
X2785327D02*
X2741700D01*
Y4042773D01*
X2761231Y4050863D01*
X2777237Y4066869D01*
X2785327Y4086400D01*
D02*
G37*
G36*
X2716300D02*
X2672673D01*
X2680762Y4066869D01*
X2696769Y4050863D01*
X2716300Y4042773D01*
Y4086400D01*
D02*
G37*
G36*
X1663700Y4069527D02*
Y4025900D01*
X1707327D01*
X1699237Y4045431D01*
X1683231Y4061437D01*
X1663700Y4069527D01*
D02*
G37*
G36*
X1638300D02*
X1618769Y4061437D01*
X1602763Y4045431D01*
X1594673Y4025900D01*
X1638300D01*
Y4069527D01*
D02*
G37*
G36*
X2050227Y4064000D02*
X2006600D01*
Y4020373D01*
X2026131Y4028463D01*
X2042137Y4044469D01*
X2050227Y4064000D01*
D02*
G37*
G36*
X1981200D02*
X1937573D01*
X1945663Y4044469D01*
X1961669Y4028463D01*
X1981200Y4020373D01*
Y4064000D01*
D02*
G37*
G36*
X2221374Y4061751D02*
Y4018124D01*
X2265002D01*
X2256912Y4037655D01*
X2240905Y4053661D01*
X2221374Y4061751D01*
D02*
G37*
G36*
X2195974D02*
X2176443Y4053661D01*
X2160437Y4037655D01*
X2152347Y4018124D01*
X2195974D01*
Y4061751D01*
D02*
G37*
G36*
X3556000Y4018727D02*
Y3975100D01*
X3599627D01*
X3591537Y3994631D01*
X3575531Y4010637D01*
X3556000Y4018727D01*
D02*
G37*
G36*
X3530600D02*
X3511069Y4010637D01*
X3495063Y3994631D01*
X3486973Y3975100D01*
X3530600D01*
Y4018727D01*
D02*
G37*
G36*
X4038600Y4006027D02*
Y3962400D01*
X4082227D01*
X4074137Y3981931D01*
X4058131Y3997937D01*
X4038600Y4006027D01*
D02*
G37*
G36*
X4013200D02*
X3993669Y3997937D01*
X3977663Y3981931D01*
X3969573Y3962400D01*
X4013200D01*
Y4006027D01*
D02*
G37*
G36*
X1707327Y4000500D02*
X1663700D01*
Y3956873D01*
X1683231Y3964963D01*
X1699237Y3980969D01*
X1707327Y4000500D01*
D02*
G37*
G36*
X1638300D02*
X1594673D01*
X1602763Y3980969D01*
X1618769Y3964963D01*
X1638300Y3956873D01*
Y4000500D01*
D02*
G37*
G36*
X2751455Y3965600D02*
X2734945D01*
X2719692Y3959282D01*
X2711450Y3951039D01*
X2703208Y3959282D01*
X2687955Y3965600D01*
X2671445D01*
X2656192Y3959282D01*
X2644518Y3947608D01*
X2638200Y3932355D01*
Y3915845D01*
X2644518Y3900592D01*
X2656192Y3888918D01*
X2671445Y3882600D01*
X2687955D01*
X2703208Y3888918D01*
X2711450Y3897160D01*
X2719692Y3888918D01*
X2734945Y3882600D01*
X2751455D01*
X2766708Y3888918D01*
X2778382Y3900592D01*
X2784700Y3915845D01*
Y3932355D01*
X2778382Y3947608D01*
X2766708Y3959282D01*
X2751455Y3965600D01*
D02*
G37*
G36*
X2070100Y3993327D02*
Y3949700D01*
X2113727D01*
X2105637Y3969231D01*
X2089631Y3985237D01*
X2070100Y3993327D01*
D02*
G37*
G36*
X2044700D02*
X2025169Y3985237D01*
X2009163Y3969231D01*
X2001073Y3949700D01*
X2044700D01*
Y3993327D01*
D02*
G37*
G36*
X2265002Y3992724D02*
X2221374D01*
Y3949097D01*
X2240905Y3957187D01*
X2256912Y3973193D01*
X2265002Y3992724D01*
D02*
G37*
G36*
X2195974D02*
X2152347D01*
X2160437Y3973193D01*
X2176443Y3957187D01*
X2195974Y3949097D01*
Y3992724D01*
D02*
G37*
G36*
X3599627Y3949700D02*
X3556000D01*
Y3906073D01*
X3575531Y3914163D01*
X3591537Y3930169D01*
X3599627Y3949700D01*
D02*
G37*
G36*
X3530600D02*
X3486973D01*
X3495063Y3930169D01*
X3511069Y3914163D01*
X3530600Y3906073D01*
Y3949700D01*
D02*
G37*
G36*
X3163808Y3941951D02*
Y3898324D01*
X3207435D01*
X3199345Y3917855D01*
X3183339Y3933862D01*
X3163808Y3941951D01*
D02*
G37*
G36*
X3138408D02*
X3118877Y3933862D01*
X3102871Y3917855D01*
X3094781Y3898324D01*
X3138408D01*
Y3941951D01*
D02*
G37*
G36*
X4082227Y3937000D02*
X4038600D01*
Y3893373D01*
X4058131Y3901463D01*
X4074137Y3917469D01*
X4082227Y3937000D01*
D02*
G37*
G36*
X4013200D02*
X3969573D01*
X3977663Y3917469D01*
X3993669Y3901463D01*
X4013200Y3893373D01*
Y3937000D01*
D02*
G37*
G36*
X1310800Y3929923D02*
Y3886296D01*
X1354427D01*
X1346337Y3905827D01*
X1330331Y3921833D01*
X1310800Y3929923D01*
D02*
G37*
G36*
X1285400D02*
X1265868Y3921833D01*
X1249862Y3905827D01*
X1241772Y3886296D01*
X1285400D01*
Y3929923D01*
D02*
G37*
G36*
X2113727Y3924300D02*
X2070100D01*
Y3880673D01*
X2089631Y3888763D01*
X2105637Y3904769D01*
X2113727Y3924300D01*
D02*
G37*
G36*
X2044700D02*
X2001073D01*
X2009163Y3904769D01*
X2025169Y3888763D01*
X2044700Y3880673D01*
Y3924300D01*
D02*
G37*
G36*
X3207435Y3872924D02*
X3163808D01*
Y3829297D01*
X3183339Y3837387D01*
X3199345Y3853393D01*
X3207435Y3872924D01*
D02*
G37*
G36*
X3138408D02*
X3094781D01*
X3102871Y3853393D01*
X3118877Y3837387D01*
X3138408Y3829297D01*
Y3872924D01*
D02*
G37*
G36*
X1354427Y3860896D02*
X1310800D01*
Y3817269D01*
X1330331Y3825359D01*
X1346337Y3841365D01*
X1354427Y3860896D01*
D02*
G37*
G36*
X1285400D02*
X1241772D01*
X1249862Y3841365D01*
X1265868Y3825359D01*
X1285400Y3817269D01*
Y3860896D01*
D02*
G37*
G36*
X2918708Y3848935D02*
Y3805308D01*
X2962335D01*
X2954245Y3824839D01*
X2938239Y3840845D01*
X2918708Y3848935D01*
D02*
G37*
G36*
X2893308D02*
X2873777Y3840845D01*
X2857771Y3824839D01*
X2849681Y3805308D01*
X2893308D01*
Y3848935D01*
D02*
G37*
G36*
X2413000Y3840927D02*
Y3797300D01*
X2456627D01*
X2448537Y3816831D01*
X2432531Y3832837D01*
X2413000Y3840927D01*
D02*
G37*
G36*
X2387600D02*
X2368069Y3832837D01*
X2352063Y3816831D01*
X2343973Y3797300D01*
X2387600D01*
Y3840927D01*
D02*
G37*
G36*
X2159000D02*
Y3797300D01*
X2202627D01*
X2194537Y3816831D01*
X2178531Y3832837D01*
X2159000Y3840927D01*
D02*
G37*
G36*
X2133600D02*
X2114069Y3832837D01*
X2098063Y3816831D01*
X2089973Y3797300D01*
X2133600D01*
Y3840927D01*
D02*
G37*
G36*
X3338087Y3803069D02*
X3321577D01*
X3306324Y3796751D01*
X3294650Y3785077D01*
X3289454Y3772534D01*
X3283450Y3775021D01*
Y3718694D01*
X3270750D01*
Y3705994D01*
X3214423D01*
X3218488Y3696179D01*
X3212059Y3686179D01*
X3196806Y3679861D01*
X3185132Y3668187D01*
X3178814Y3652934D01*
Y3636424D01*
X3185132Y3621171D01*
X3196806Y3609497D01*
X3212059Y3603179D01*
X3228569D01*
X3243822Y3609497D01*
X3252482Y3618158D01*
X3255496Y3621171D01*
X3265211Y3618494D01*
X3269665Y3614041D01*
X3284917Y3607723D01*
X3301427D01*
X3316680Y3614041D01*
X3328354Y3625715D01*
X3334672Y3640968D01*
Y3657477D01*
X3328354Y3672730D01*
X3316805Y3684280D01*
X3318988Y3686463D01*
X3327650Y3707376D01*
Y3720070D01*
X3338087D01*
X3353339Y3726388D01*
X3365014Y3738062D01*
X3371332Y3753315D01*
Y3769824D01*
X3365014Y3785077D01*
X3353339Y3796751D01*
X3338087Y3803069D01*
D02*
G37*
G36*
X942500Y3815623D02*
Y3771996D01*
X986127D01*
X978037Y3791527D01*
X962031Y3807533D01*
X942500Y3815623D01*
D02*
G37*
G36*
X917100D02*
X897568Y3807533D01*
X881562Y3791527D01*
X873472Y3771996D01*
X917100D01*
Y3815623D01*
D02*
G37*
G36*
X668655Y3813400D02*
X652145D01*
X636892Y3807082D01*
X625218Y3795408D01*
X618900Y3780155D01*
Y3763645D01*
X623208Y3753246D01*
X615554Y3745592D01*
X605155Y3749900D01*
X588645D01*
X573392Y3743582D01*
X561718Y3731908D01*
X555400Y3716655D01*
Y3700145D01*
X561718Y3684892D01*
X573392Y3673218D01*
X588645Y3666900D01*
X605155D01*
X620408Y3673218D01*
X632082Y3684892D01*
X638400Y3700145D01*
Y3716655D01*
X634092Y3727054D01*
X641746Y3734708D01*
X652145Y3730400D01*
X668655D01*
X683908Y3736718D01*
X695582Y3748392D01*
X701900Y3763645D01*
Y3780155D01*
X695582Y3795408D01*
X683908Y3807082D01*
X668655Y3813400D01*
D02*
G37*
G36*
X2776855Y3826100D02*
X2760345D01*
X2745092Y3819782D01*
X2733418Y3808108D01*
X2727100Y3792855D01*
Y3776345D01*
X2733418Y3761092D01*
X2745092Y3749418D01*
X2760345Y3743100D01*
X2776855D01*
X2792108Y3749418D01*
X2803782Y3761092D01*
X2810100Y3776345D01*
Y3792855D01*
X2803782Y3808108D01*
X2792108Y3819782D01*
X2776855Y3826100D01*
D02*
G37*
G36*
X2962335Y3779908D02*
X2918708D01*
Y3736280D01*
X2938239Y3744370D01*
X2954245Y3760377D01*
X2962335Y3779908D01*
D02*
G37*
G36*
X2893308D02*
X2849681D01*
X2857771Y3760377D01*
X2873777Y3744370D01*
X2893308Y3736280D01*
Y3779908D01*
D02*
G37*
G36*
X3258050Y3775021D02*
X3238519Y3766931D01*
X3222513Y3750925D01*
X3214423Y3731394D01*
X3258050D01*
Y3775021D01*
D02*
G37*
G36*
X2456627Y3771900D02*
X2413000D01*
Y3728273D01*
X2432531Y3736363D01*
X2448537Y3752369D01*
X2456627Y3771900D01*
D02*
G37*
G36*
X2387600D02*
X2343973D01*
X2352063Y3752369D01*
X2368069Y3736363D01*
X2387600Y3728273D01*
Y3771900D01*
D02*
G37*
G36*
X2202627D02*
X2159000D01*
Y3728273D01*
X2178531Y3736363D01*
X2194537Y3752369D01*
X2202627Y3771900D01*
D02*
G37*
G36*
X2133600D02*
X2089973D01*
X2098063Y3752369D01*
X2114069Y3736363D01*
X2133600Y3728273D01*
Y3771900D01*
D02*
G37*
G36*
X3119797Y3762627D02*
Y3718999D01*
X3163424D01*
X3155334Y3738530D01*
X3139328Y3754537D01*
X3119797Y3762627D01*
D02*
G37*
G36*
X3094397D02*
X3074866Y3754537D01*
X3058859Y3738530D01*
X3050769Y3718999D01*
X3094397D01*
Y3762627D01*
D02*
G37*
G36*
X1749339Y3748393D02*
Y3704766D01*
X1792966D01*
X1784876Y3724297D01*
X1768870Y3740303D01*
X1749339Y3748393D01*
D02*
G37*
G36*
X986127Y3746596D02*
X942500D01*
Y3702969D01*
X962031Y3711059D01*
X978037Y3727065D01*
X986127Y3746596D01*
D02*
G37*
G36*
X917100D02*
X873472D01*
X881562Y3727065D01*
X897568Y3711059D01*
X917100Y3702969D01*
Y3746596D01*
D02*
G37*
G36*
X215900Y3726627D02*
Y3683000D01*
X259527D01*
X251437Y3702531D01*
X235431Y3718537D01*
X215900Y3726627D01*
D02*
G37*
G36*
X190500D02*
X170969Y3718537D01*
X154963Y3702531D01*
X146873Y3683000D01*
X190500D01*
Y3726627D01*
D02*
G37*
G36*
X3492500Y3713927D02*
Y3670300D01*
X3536127D01*
X3528037Y3689831D01*
X3512031Y3705837D01*
X3492500Y3713927D01*
D02*
G37*
G36*
X3467100D02*
X3447569Y3705837D01*
X3431563Y3689831D01*
X3423473Y3670300D01*
X3467100D01*
Y3713927D01*
D02*
G37*
G36*
X1393800Y3701227D02*
X1374269Y3693137D01*
X1358262Y3677131D01*
X1350172Y3657600D01*
X1393800D01*
Y3701227D01*
D02*
G37*
G36*
X1537993Y3698937D02*
Y3655310D01*
X1581620D01*
X1573531Y3674841D01*
X1557524Y3690847D01*
X1537993Y3698937D01*
D02*
G37*
G36*
X3163424Y3693599D02*
X3119797D01*
Y3649972D01*
X3139328Y3658062D01*
X3155334Y3674068D01*
X3163424Y3693599D01*
D02*
G37*
G36*
X3094397D02*
X3050769D01*
X3058859Y3674068D01*
X3074866Y3658062D01*
X3094397Y3649972D01*
Y3693599D01*
D02*
G37*
G36*
X259527Y3657600D02*
X215900D01*
Y3613973D01*
X235431Y3622063D01*
X251437Y3638069D01*
X259527Y3657600D01*
D02*
G37*
G36*
X190500D02*
X146873D01*
X154963Y3638069D01*
X170969Y3622063D01*
X190500Y3613973D01*
Y3657600D01*
D02*
G37*
G36*
X4052196Y3652625D02*
X4032665Y3644535D01*
X4016659Y3628529D01*
X4008569Y3608998D01*
X4052196D01*
Y3652625D01*
D02*
G37*
G36*
X777597D02*
Y3608998D01*
X821225D01*
X813135Y3628529D01*
X797128Y3644535D01*
X777597Y3652625D01*
D02*
G37*
G36*
X752197D02*
X732666Y3644535D01*
X716660Y3628529D01*
X708570Y3608998D01*
X752197D01*
Y3652625D01*
D02*
G37*
G36*
X3536127Y3644900D02*
X3492500D01*
Y3601273D01*
X3512031Y3609363D01*
X3528037Y3625369D01*
X3536127Y3644900D01*
D02*
G37*
G36*
X3467100D02*
X3423473D01*
X3431563Y3625369D01*
X3447569Y3609363D01*
X3467100Y3601273D01*
Y3644900D01*
D02*
G37*
G36*
X1393800Y3632200D02*
X1350172D01*
X1358262Y3612669D01*
X1374269Y3596663D01*
X1393800Y3588573D01*
Y3632200D01*
D02*
G37*
G36*
X1419200Y3701227D02*
Y3644900D01*
Y3588573D01*
X1438731Y3596663D01*
X1454737Y3612669D01*
X1460010Y3625399D01*
X1470834D01*
X1477056Y3610379D01*
X1493062Y3594372D01*
X1512593Y3586282D01*
Y3642610D01*
Y3698937D01*
X1493062Y3690847D01*
X1477056Y3674841D01*
X1471783Y3662111D01*
X1460959D01*
X1454737Y3677131D01*
X1438731Y3693137D01*
X1419200Y3701227D01*
D02*
G37*
G36*
X1668266Y3750820D02*
X1651757D01*
X1636504Y3744502D01*
X1624830Y3732828D01*
X1618512Y3717575D01*
Y3701066D01*
X1624830Y3685813D01*
X1636504Y3674139D01*
X1651757Y3667821D01*
X1668266D01*
X1682629Y3673770D01*
X1688401Y3659835D01*
X1704407Y3643829D01*
X1703011Y3633583D01*
X1700478Y3627468D01*
Y3610959D01*
X1706796Y3595706D01*
X1718470Y3584032D01*
X1733723Y3577714D01*
X1750233D01*
X1765486Y3584032D01*
X1777160Y3595706D01*
X1783478Y3610959D01*
Y3627468D01*
X1777160Y3642721D01*
X1772461Y3647420D01*
X1784876Y3659835D01*
X1792966Y3679366D01*
X1736639D01*
Y3692066D01*
X1723939D01*
Y3748393D01*
X1704408Y3740303D01*
X1696644Y3732540D01*
X1695193Y3732828D01*
X1683519Y3744502D01*
X1668266Y3750820D01*
D02*
G37*
G36*
X1975075Y3618903D02*
Y3575275D01*
X2018703D01*
X2010613Y3594806D01*
X1994606Y3610813D01*
X1975075Y3618903D01*
D02*
G37*
G36*
X1949675D02*
X1930144Y3610813D01*
X1914138Y3594806D01*
X1906048Y3575275D01*
X1949675D01*
Y3618903D01*
D02*
G37*
G36*
X2818530Y3639175D02*
X2802020D01*
X2786767Y3632857D01*
X2775093Y3621183D01*
X2768775Y3605930D01*
Y3589420D01*
X2775093Y3574167D01*
X2786767Y3562493D01*
X2802020Y3556175D01*
X2818530D01*
X2833783Y3562493D01*
X2845457Y3574167D01*
X2851775Y3589420D01*
Y3605930D01*
X2845457Y3621183D01*
X2833783Y3632857D01*
X2818530Y3639175D01*
D02*
G37*
G36*
X4052196Y3583598D02*
X4008569D01*
X4016659Y3564067D01*
X4032665Y3548060D01*
X4052196Y3539970D01*
Y3583598D01*
D02*
G37*
G36*
X821225D02*
X777597D01*
Y3539970D01*
X797128Y3548060D01*
X813135Y3564067D01*
X821225Y3583598D01*
D02*
G37*
G36*
X752197D02*
X708570D01*
X716660Y3564067D01*
X732666Y3548060D01*
X752197Y3539970D01*
Y3583598D01*
D02*
G37*
G36*
X1581620Y3629910D02*
X1537993D01*
Y3586282D01*
X1557524Y3594372D01*
X1560813Y3597662D01*
X1569291Y3591997D01*
X1568321Y3589655D01*
Y3573145D01*
X1574639Y3557892D01*
X1586313Y3546218D01*
X1601566Y3539900D01*
X1618076D01*
X1633328Y3546218D01*
X1645003Y3557892D01*
X1651321Y3573145D01*
Y3589655D01*
X1645003Y3604908D01*
X1633328Y3616582D01*
X1618076Y3622900D01*
X1601566D01*
X1587050Y3616887D01*
X1584570Y3618155D01*
X1578878Y3623289D01*
X1581620Y3629910D01*
D02*
G37*
G36*
X2018703Y3549875D02*
X1975075D01*
Y3506248D01*
X1994606Y3514338D01*
X2010613Y3530344D01*
X2018703Y3549875D01*
D02*
G37*
G36*
X1949675D02*
X1906048D01*
X1914138Y3530344D01*
X1930144Y3514338D01*
X1949675Y3506248D01*
Y3549875D01*
D02*
G37*
G36*
X1805307Y3572758D02*
X1788797D01*
X1773544Y3566440D01*
X1761870Y3554766D01*
X1755552Y3539513D01*
Y3523003D01*
X1761870Y3507750D01*
X1773544Y3496076D01*
X1788797Y3489758D01*
X1805307D01*
X1820560Y3496076D01*
X1832234Y3507750D01*
X1838552Y3523003D01*
Y3539513D01*
X1832234Y3554766D01*
X1820560Y3566440D01*
X1805307Y3572758D01*
D02*
G37*
G36*
X2653255Y3559400D02*
X2636745D01*
X2621492Y3553082D01*
X2609818Y3541408D01*
X2603500Y3526155D01*
Y3509645D01*
X2609818Y3494392D01*
X2621492Y3482718D01*
X2636745Y3476400D01*
X2653255D01*
X2668508Y3482718D01*
X2680182Y3494392D01*
X2686500Y3509645D01*
Y3526155D01*
X2680182Y3541408D01*
X2668508Y3553082D01*
X2653255Y3559400D01*
D02*
G37*
G36*
X215900Y3498027D02*
Y3454400D01*
X259527D01*
X251437Y3473931D01*
X235431Y3489937D01*
X215900Y3498027D01*
D02*
G37*
G36*
X190500D02*
X170969Y3489937D01*
X154963Y3473931D01*
X146873Y3454400D01*
X190500D01*
Y3498027D01*
D02*
G37*
G36*
X2983400Y3496203D02*
Y3452576D01*
X3027027D01*
X3018937Y3472107D01*
X3002931Y3488113D01*
X2983400Y3496203D01*
D02*
G37*
G36*
X2958000D02*
X2938469Y3488113D01*
X2922463Y3472107D01*
X2914373Y3452576D01*
X2958000D01*
Y3496203D01*
D02*
G37*
G36*
X3615977Y3534192D02*
X3599467D01*
X3584214Y3527874D01*
X3572540Y3516200D01*
X3566222Y3500947D01*
Y3484438D01*
X3572540Y3469185D01*
X3584214Y3457511D01*
X3599467Y3451193D01*
X3615977D01*
X3631229Y3457511D01*
X3642904Y3469185D01*
X3649222Y3484438D01*
Y3500947D01*
X3642904Y3516200D01*
X3631229Y3527874D01*
X3615977Y3534192D01*
D02*
G37*
G36*
X1003301Y3449827D02*
Y3406200D01*
X1046928D01*
X1038838Y3425731D01*
X1022832Y3441737D01*
X1003301Y3449827D01*
D02*
G37*
G36*
X977901D02*
X958369Y3441737D01*
X942363Y3425731D01*
X934273Y3406200D01*
X977901D01*
Y3449827D01*
D02*
G37*
G36*
X622300Y3434527D02*
Y3390900D01*
X665927D01*
X657837Y3410431D01*
X641831Y3426437D01*
X622300Y3434527D01*
D02*
G37*
G36*
X596900D02*
X577369Y3426437D01*
X561363Y3410431D01*
X553273Y3390900D01*
X596900D01*
Y3434527D01*
D02*
G37*
G36*
X3805555Y3470500D02*
X3789045D01*
X3773792Y3464182D01*
X3762118Y3452508D01*
X3755800Y3437255D01*
Y3420745D01*
X3762118Y3405492D01*
X3773792Y3393818D01*
X3789045Y3387500D01*
X3805555D01*
X3820808Y3393818D01*
X3832482Y3405492D01*
X3838800Y3420745D01*
Y3437255D01*
X3832482Y3452508D01*
X3820808Y3464182D01*
X3805555Y3470500D01*
D02*
G37*
G36*
X259527Y3429000D02*
X215900D01*
Y3385373D01*
X235431Y3393463D01*
X251437Y3409469D01*
X259527Y3429000D01*
D02*
G37*
G36*
X190500D02*
X146873D01*
X154963Y3409469D01*
X170969Y3393463D01*
X190500Y3385373D01*
Y3429000D01*
D02*
G37*
G36*
X3027027Y3427176D02*
X2983400D01*
Y3383549D01*
X3002931Y3391639D01*
X3018937Y3407645D01*
X3027027Y3427176D01*
D02*
G37*
G36*
X2958000D02*
X2914373D01*
X2922463Y3407645D01*
X2938469Y3391639D01*
X2958000Y3383549D01*
Y3427176D01*
D02*
G37*
G36*
X1046928Y3380800D02*
X1003301D01*
Y3337173D01*
X1022832Y3345263D01*
X1038838Y3361269D01*
X1046928Y3380800D01*
D02*
G37*
G36*
X977901D02*
X934273D01*
X942363Y3361269D01*
X958369Y3345263D01*
X977901Y3337173D01*
Y3380800D01*
D02*
G37*
G36*
X665927Y3365500D02*
X622300D01*
Y3321873D01*
X641831Y3329963D01*
X657837Y3345969D01*
X665927Y3365500D01*
D02*
G37*
G36*
X596900D02*
X553273D01*
X561363Y3345969D01*
X577369Y3329963D01*
X596900Y3321873D01*
Y3365500D01*
D02*
G37*
G36*
X1786050Y3358674D02*
X1766519Y3350584D01*
X1750513Y3334578D01*
X1742423Y3315047D01*
X1786050D01*
Y3358674D01*
D02*
G37*
G36*
X3086100Y3358327D02*
Y3314700D01*
X3129727D01*
X3121637Y3334231D01*
X3105631Y3350237D01*
X3086100Y3358327D01*
D02*
G37*
G36*
X3060700D02*
X3041169Y3350237D01*
X3025163Y3334231D01*
X3017073Y3314700D01*
X3060700D01*
Y3358327D01*
D02*
G37*
G36*
X2209800D02*
X2190269Y3350237D01*
X2174263Y3334231D01*
X2166173Y3314700D01*
X2209800D01*
Y3358327D01*
D02*
G37*
G36*
X1282700Y3320227D02*
Y3276600D01*
X1326327D01*
X1318237Y3296131D01*
X1302231Y3312137D01*
X1282700Y3320227D01*
D02*
G37*
G36*
X1257300D02*
X1237769Y3312137D01*
X1221763Y3296131D01*
X1213673Y3276600D01*
X1257300D01*
Y3320227D01*
D02*
G37*
G36*
X2941955Y3348400D02*
X2925445D01*
X2910192Y3342082D01*
X2898518Y3330408D01*
X2892200Y3315155D01*
Y3298645D01*
X2898518Y3283392D01*
X2910192Y3271718D01*
X2925445Y3265400D01*
X2941955D01*
X2957208Y3271718D01*
X2968882Y3283392D01*
X2975200Y3298645D01*
Y3315155D01*
X2968882Y3330408D01*
X2957208Y3342082D01*
X2941955Y3348400D01*
D02*
G37*
G36*
X1811450Y3358674D02*
Y3302347D01*
X1798750D01*
Y3289647D01*
X1742423D01*
X1750513Y3270116D01*
X1761759Y3258869D01*
X1756125Y3253235D01*
X1749807Y3237982D01*
Y3221472D01*
X1756125Y3206219D01*
X1767799Y3194545D01*
X1783052Y3188227D01*
X1799562D01*
X1814815Y3194545D01*
X1826489Y3206219D01*
X1832807Y3221472D01*
Y3237982D01*
X1826838Y3252393D01*
X1830981Y3254109D01*
X1845966Y3269094D01*
X1848241Y3266818D01*
X1863494Y3260500D01*
X1880004D01*
X1895257Y3266818D01*
X1906931Y3278492D01*
X1913249Y3293745D01*
Y3310255D01*
X1906931Y3325508D01*
X1895257Y3337182D01*
X1880004Y3343500D01*
X1863494D01*
X1848241Y3337182D01*
X1846313Y3335253D01*
X1830981Y3350584D01*
X1811450Y3358674D01*
D02*
G37*
G36*
X3129727Y3289300D02*
X3086100D01*
Y3245673D01*
X3105631Y3253763D01*
X3121637Y3269769D01*
X3129727Y3289300D01*
D02*
G37*
G36*
X3060700D02*
X3017073D01*
X3025163Y3269769D01*
X3041169Y3253763D01*
X3060700Y3245673D01*
Y3289300D01*
D02*
G37*
G36*
X2209800D02*
X2166173D01*
X2174263Y3269769D01*
X2190269Y3253763D01*
X2209800Y3245673D01*
Y3289300D01*
D02*
G37*
G36*
X2033455Y3318100D02*
X2016945D01*
X2001692Y3311782D01*
X1990018Y3300108D01*
X1983700Y3284855D01*
Y3268345D01*
X1990018Y3253092D01*
X2001692Y3241418D01*
X2016945Y3235100D01*
X2033455D01*
X2048708Y3241418D01*
X2060382Y3253092D01*
X2066700Y3268345D01*
Y3284855D01*
X2060382Y3300108D01*
X2048708Y3311782D01*
X2033455Y3318100D01*
D02*
G37*
G36*
X3928610Y3259823D02*
Y3216195D01*
X3972238D01*
X3964148Y3235726D01*
X3948141Y3251733D01*
X3928610Y3259823D01*
D02*
G37*
G36*
X3903210D02*
X3883679Y3251733D01*
X3867673Y3235726D01*
X3859583Y3216195D01*
X3903210D01*
Y3259823D01*
D02*
G37*
G36*
X1637318Y3318275D02*
X1620808D01*
X1605555Y3311957D01*
X1593881Y3300283D01*
X1587563Y3285030D01*
Y3268521D01*
X1587752Y3268063D01*
X1583735Y3263963D01*
Y3216100D01*
X1627362D01*
X1623561Y3225275D01*
X1630243Y3235276D01*
X1637318D01*
X1652570Y3241594D01*
X1664245Y3253268D01*
X1670563Y3268521D01*
Y3285030D01*
X1664245Y3300283D01*
X1652570Y3311957D01*
X1637318Y3318275D01*
D02*
G37*
G36*
X1558335Y3259727D02*
X1538804Y3251637D01*
X1522797Y3235631D01*
X1514707Y3216100D01*
X1558335D01*
Y3259727D01*
D02*
G37*
G36*
X2235200Y3358327D02*
Y3302000D01*
Y3245673D01*
X2246664Y3250421D01*
X2250818Y3240392D01*
X2262492Y3228718D01*
X2277745Y3222400D01*
X2283064Y3214439D01*
X2282681Y3213515D01*
X2395336D01*
X2387246Y3233046D01*
X2371240Y3249052D01*
X2350327Y3257715D01*
X2327691D01*
X2327500Y3257842D01*
Y3272155D01*
X2321182Y3287408D01*
X2309508Y3299082D01*
X2294255Y3305400D01*
X2279400D01*
Y3313318D01*
X2270737Y3334231D01*
X2254731Y3350237D01*
X2235200Y3358327D01*
D02*
G37*
G36*
X1447312Y3382244D02*
X1430802D01*
X1415549Y3375926D01*
X1403875Y3364252D01*
X1397557Y3348999D01*
Y3332490D01*
X1403875Y3317237D01*
X1412585Y3308527D01*
X1405533Y3301474D01*
X1397443Y3281943D01*
X1453771D01*
Y3269243D01*
X1466471D01*
Y3212916D01*
X1486002Y3221006D01*
X1502008Y3237012D01*
X1510670Y3257925D01*
Y3268200D01*
X1522789D01*
X1538042Y3274518D01*
X1549716Y3286192D01*
X1556034Y3301445D01*
Y3317954D01*
X1549716Y3333207D01*
X1538042Y3344881D01*
X1522789Y3351199D01*
X1506280D01*
X1491027Y3344881D01*
X1489796Y3343650D01*
X1480557Y3347477D01*
Y3348999D01*
X1474239Y3364252D01*
X1462565Y3375926D01*
X1447312Y3382244D01*
D02*
G37*
G36*
X1441071Y3256543D02*
X1397443D01*
X1405533Y3237012D01*
X1421539Y3221006D01*
X1441071Y3212916D01*
Y3256543D01*
D02*
G37*
G36*
X1326327Y3251200D02*
X1282700D01*
Y3207573D01*
X1302231Y3215663D01*
X1318237Y3231669D01*
X1326327Y3251200D01*
D02*
G37*
G36*
X1257300D02*
X1213673D01*
X1221763Y3231669D01*
X1237769Y3215663D01*
X1257300Y3207573D01*
Y3251200D01*
D02*
G37*
G36*
X663100Y3231423D02*
Y3187796D01*
X706727D01*
X698637Y3207327D01*
X682631Y3223333D01*
X663100Y3231423D01*
D02*
G37*
G36*
X637700D02*
X618168Y3223333D01*
X602162Y3207327D01*
X594072Y3187796D01*
X637700D01*
Y3231423D01*
D02*
G37*
G36*
X2937789Y3218327D02*
Y3174700D01*
X2981416D01*
X2973326Y3194231D01*
X2957320Y3210237D01*
X2937789Y3218327D01*
D02*
G37*
G36*
X2912389D02*
X2892858Y3210237D01*
X2876851Y3194231D01*
X2868762Y3174700D01*
X2912389D01*
Y3218327D01*
D02*
G37*
G36*
X2447389Y3350224D02*
X2430880D01*
X2415627Y3343906D01*
X2403953Y3332232D01*
X2397635Y3316979D01*
Y3300469D01*
X2403953Y3285216D01*
X2415627Y3273542D01*
X2430880Y3267224D01*
X2447389D01*
X2462642Y3273542D01*
X2467406Y3278306D01*
X2467679Y3278398D01*
X2469561Y3276585D01*
X2469477Y3263135D01*
X2460888Y3254545D01*
X2452798Y3235014D01*
X2509125D01*
Y3222314D01*
X2521825D01*
Y3165987D01*
X2541356Y3174077D01*
X2557362Y3190083D01*
X2566025Y3210996D01*
Y3220019D01*
X2578959D01*
X2594212Y3226337D01*
X2605886Y3238011D01*
X2612204Y3253264D01*
Y3269774D01*
X2605886Y3285027D01*
X2594212Y3296701D01*
X2578959Y3303019D01*
X2562450D01*
X2561897Y3302790D01*
X2553582Y3308346D01*
Y3313277D01*
X2547264Y3328530D01*
X2535590Y3340204D01*
X2520337Y3346522D01*
X2503828D01*
X2488575Y3340204D01*
X2483811Y3335440D01*
X2474316Y3332232D01*
X2462642Y3343906D01*
X2447389Y3350224D01*
D02*
G37*
G36*
X2496425Y3209614D02*
X2452798D01*
X2460888Y3190083D01*
X2476894Y3174077D01*
X2496425Y3165987D01*
Y3209614D01*
D02*
G37*
G36*
X1760855Y3178400D02*
X1744345D01*
X1729092Y3172082D01*
X1720945Y3163934D01*
X1714500Y3161507D01*
X1708055Y3163934D01*
X1699908Y3172082D01*
X1684655Y3178400D01*
X1668145D01*
X1652892Y3172082D01*
X1641218Y3160408D01*
X1634900Y3145155D01*
Y3128645D01*
X1641218Y3113392D01*
X1652892Y3101718D01*
X1668145Y3095400D01*
X1684655D01*
X1699908Y3101718D01*
X1708055Y3109866D01*
X1714500Y3112293D01*
X1720945Y3109866D01*
X1729092Y3101718D01*
X1744345Y3095400D01*
X1760855D01*
X1776108Y3101718D01*
X1787782Y3113392D01*
X1794100Y3128645D01*
Y3145155D01*
X1787782Y3160408D01*
X1776108Y3172082D01*
X1760855Y3178400D01*
D02*
G37*
G36*
X3972238Y3190795D02*
X3928610D01*
Y3147168D01*
X3948141Y3155258D01*
X3964148Y3171264D01*
X3972238Y3190795D01*
D02*
G37*
G36*
X3903210D02*
X3859583D01*
X3867673Y3171264D01*
X3883679Y3155258D01*
X3903210Y3147168D01*
Y3190795D01*
D02*
G37*
G36*
X1627362Y3190700D02*
X1583735D01*
Y3147073D01*
X1603266Y3155163D01*
X1619272Y3171169D01*
X1627362Y3190700D01*
D02*
G37*
G36*
X1558335D02*
X1514707D01*
X1522797Y3171169D01*
X1538804Y3155163D01*
X1558335Y3147073D01*
Y3190700D01*
D02*
G37*
G36*
X2395336Y3188115D02*
X2351709D01*
Y3144487D01*
X2371240Y3152577D01*
X2387246Y3168584D01*
X2395336Y3188115D01*
D02*
G37*
G36*
X2326309D02*
X2282681D01*
X2290771Y3168584D01*
X2306778Y3152577D01*
X2326309Y3144487D01*
Y3188115D01*
D02*
G37*
G36*
X2044700Y3167827D02*
Y3124200D01*
X2088327D01*
X2080237Y3143731D01*
X2064231Y3159737D01*
X2044700Y3167827D01*
D02*
G37*
G36*
X2019300D02*
X1999769Y3159737D01*
X1983763Y3143731D01*
X1975673Y3124200D01*
X2019300D01*
Y3167827D01*
D02*
G37*
G36*
X706727Y3162396D02*
X663100D01*
Y3118769D01*
X682631Y3126859D01*
X698637Y3142865D01*
X706727Y3162396D01*
D02*
G37*
G36*
X637700D02*
X594072D01*
X602162Y3142865D01*
X618168Y3126859D01*
X637700Y3118769D01*
Y3162396D01*
D02*
G37*
G36*
X2981416Y3149300D02*
X2937789D01*
Y3105672D01*
X2957320Y3113762D01*
X2973326Y3129769D01*
X2981416Y3149300D01*
D02*
G37*
G36*
X2912389D02*
X2868762D01*
X2876851Y3129769D01*
X2892858Y3113762D01*
X2912389Y3105672D01*
Y3149300D01*
D02*
G37*
G36*
X3374201Y3187785D02*
X3357691D01*
X3342438Y3181467D01*
X3330764Y3169792D01*
X3324446Y3154540D01*
Y3138030D01*
X3330764Y3122777D01*
X3342438Y3111103D01*
X3357691Y3104785D01*
X3374201D01*
X3389454Y3111103D01*
X3401128Y3122777D01*
X3407446Y3138030D01*
Y3154540D01*
X3401128Y3169792D01*
X3389454Y3181467D01*
X3374201Y3187785D01*
D02*
G37*
G36*
X1145575Y3185372D02*
X1129066D01*
X1113813Y3179054D01*
X1102139Y3167379D01*
X1095821Y3152127D01*
Y3135617D01*
X1102139Y3120364D01*
X1113813Y3108690D01*
X1129066Y3102372D01*
X1145575D01*
X1160828Y3108690D01*
X1172502Y3120364D01*
X1178820Y3135617D01*
Y3152127D01*
X1172502Y3167379D01*
X1160828Y3179054D01*
X1145575Y3185372D01*
D02*
G37*
G36*
X3589655Y3156400D02*
X3573145D01*
X3557892Y3150082D01*
X3546218Y3138408D01*
X3539900Y3123155D01*
Y3106645D01*
X3546218Y3091392D01*
X3557892Y3079718D01*
X3573145Y3073400D01*
X3589655D01*
X3604908Y3079718D01*
X3616582Y3091392D01*
X3622900Y3106645D01*
Y3123155D01*
X3616582Y3138408D01*
X3604908Y3150082D01*
X3589655Y3156400D01*
D02*
G37*
G36*
X3488055D02*
X3471545D01*
X3456292Y3150082D01*
X3444618Y3138408D01*
X3438300Y3123155D01*
Y3106645D01*
X3444618Y3091392D01*
X3456292Y3079718D01*
X3471545Y3073400D01*
X3488055D01*
X3503308Y3079718D01*
X3514982Y3091392D01*
X3521300Y3106645D01*
Y3123155D01*
X3514982Y3138408D01*
X3503308Y3150082D01*
X3488055Y3156400D01*
D02*
G37*
G36*
X190500Y3104327D02*
Y3060700D01*
X234127D01*
X226037Y3080231D01*
X210031Y3096237D01*
X190500Y3104327D01*
D02*
G37*
G36*
X165100D02*
X145569Y3096237D01*
X129563Y3080231D01*
X121473Y3060700D01*
X165100D01*
Y3104327D01*
D02*
G37*
G36*
X2088327Y3098800D02*
X2044700D01*
Y3055173D01*
X2064231Y3063263D01*
X2080237Y3079269D01*
X2088327Y3098800D01*
D02*
G37*
G36*
X2019300D02*
X1975673D01*
X1983763Y3079269D01*
X1999769Y3063263D01*
X2019300Y3055173D01*
Y3098800D01*
D02*
G37*
G36*
X2672656Y3124254D02*
X2656147D01*
X2640894Y3117936D01*
X2629220Y3106262D01*
X2622902Y3091009D01*
Y3074500D01*
X2629220Y3059247D01*
X2640894Y3047573D01*
X2656147Y3041255D01*
X2672656D01*
X2687909Y3047573D01*
X2699583Y3059247D01*
X2705901Y3074500D01*
Y3091009D01*
X2699583Y3106262D01*
X2687909Y3117936D01*
X2672656Y3124254D01*
D02*
G37*
G36*
X3085779Y3069627D02*
Y3026000D01*
X3129406D01*
X3121316Y3045531D01*
X3105310Y3061537D01*
X3085779Y3069627D01*
D02*
G37*
G36*
X3060379D02*
X3040848Y3061537D01*
X3024841Y3045531D01*
X3016751Y3026000D01*
X3060379D01*
Y3069627D01*
D02*
G37*
G36*
X3777596Y3052625D02*
Y3008998D01*
X3821224D01*
X3813134Y3028529D01*
X3797128Y3044535D01*
X3777596Y3052625D01*
D02*
G37*
G36*
X3752196D02*
X3732665Y3044535D01*
X3716659Y3028529D01*
X3708569Y3008998D01*
X3752196D01*
Y3052625D01*
D02*
G37*
G36*
X617855Y3089500D02*
X601345D01*
X586092Y3083182D01*
X574418Y3071508D01*
X568100Y3056255D01*
Y3039745D01*
X574418Y3024492D01*
X586092Y3012818D01*
X601345Y3006500D01*
X617855D01*
X633108Y3012818D01*
X644782Y3024492D01*
X651100Y3039745D01*
Y3056255D01*
X644782Y3071508D01*
X633108Y3083182D01*
X617855Y3089500D01*
D02*
G37*
G36*
X3937000Y3040827D02*
Y2997200D01*
X3980627D01*
X3972537Y3016731D01*
X3956531Y3032737D01*
X3937000Y3040827D01*
D02*
G37*
G36*
X3911600D02*
X3892069Y3032737D01*
X3876063Y3016731D01*
X3867973Y2997200D01*
X3911600D01*
Y3040827D01*
D02*
G37*
G36*
X234127Y3035300D02*
X190500D01*
Y2991673D01*
X210031Y2999763D01*
X226037Y3015769D01*
X234127Y3035300D01*
D02*
G37*
G36*
X165100D02*
X121473D01*
X129563Y3015769D01*
X145569Y2999763D01*
X165100Y2991673D01*
Y3035300D01*
D02*
G37*
G36*
X943330Y3069275D02*
X926820D01*
X911567Y3062957D01*
X899893Y3051283D01*
X893575Y3036030D01*
Y3019520D01*
X899893Y3004267D01*
X911567Y2992593D01*
X926820Y2986275D01*
X943330D01*
X958583Y2992593D01*
X970257Y3004267D01*
X976575Y3019520D01*
Y3036030D01*
X970257Y3051283D01*
X958583Y3062957D01*
X943330Y3069275D01*
D02*
G37*
G36*
X1811655Y3064100D02*
X1795145D01*
X1779892Y3057782D01*
X1768218Y3046108D01*
X1761900Y3030855D01*
Y3014345D01*
X1768218Y2999092D01*
X1779892Y2987418D01*
X1795145Y2981100D01*
X1811655D01*
X1826908Y2987418D01*
X1838582Y2999092D01*
X1844900Y3014345D01*
Y3030855D01*
X1838582Y3046108D01*
X1826908Y3057782D01*
X1811655Y3064100D01*
D02*
G37*
G36*
X3129406Y3000600D02*
X3085779D01*
Y2956973D01*
X3105310Y2965063D01*
X3121316Y2981069D01*
X3129406Y3000600D01*
D02*
G37*
G36*
X3060379D02*
X3016751D01*
X3024841Y2981069D01*
X3040848Y2965063D01*
X3060379Y2956973D01*
Y3000600D01*
D02*
G37*
G36*
X3821224Y2983598D02*
X3777596D01*
Y2939970D01*
X3797128Y2948060D01*
X3813134Y2964067D01*
X3821224Y2983598D01*
D02*
G37*
G36*
X3752196D02*
X3708569D01*
X3716659Y2964067D01*
X3732665Y2948060D01*
X3752196Y2939970D01*
Y2983598D01*
D02*
G37*
G36*
X3619500Y2977327D02*
Y2933700D01*
X3663127D01*
X3655037Y2953231D01*
X3639031Y2969237D01*
X3619500Y2977327D01*
D02*
G37*
G36*
X3594100D02*
X3574569Y2969237D01*
X3558563Y2953231D01*
X3550473Y2933700D01*
X3594100D01*
Y2977327D01*
D02*
G37*
G36*
X3980627Y2971800D02*
X3937000D01*
Y2928173D01*
X3956531Y2936263D01*
X3972537Y2952269D01*
X3980627Y2971800D01*
D02*
G37*
G36*
X3911600D02*
X3867973D01*
X3876063Y2952269D01*
X3892069Y2936263D01*
X3911600Y2928173D01*
Y2971800D01*
D02*
G37*
G36*
X1841500Y2964627D02*
Y2921000D01*
X1885127D01*
X1877037Y2940531D01*
X1861031Y2956537D01*
X1841500Y2964627D01*
D02*
G37*
G36*
X1816100D02*
X1796569Y2956537D01*
X1780563Y2940531D01*
X1772473Y2921000D01*
X1816100D01*
Y2964627D01*
D02*
G37*
G36*
X1625600Y2939227D02*
Y2895600D01*
X1669227D01*
X1661137Y2915131D01*
X1645131Y2931137D01*
X1625600Y2939227D01*
D02*
G37*
G36*
X1600200D02*
X1580669Y2931137D01*
X1564663Y2915131D01*
X1556573Y2895600D01*
X1600200D01*
Y2939227D01*
D02*
G37*
G36*
X2064445Y2936227D02*
Y2892600D01*
X2108072D01*
X2099982Y2912131D01*
X2083976Y2928137D01*
X2064445Y2936227D01*
D02*
G37*
G36*
X2039045D02*
X2019514Y2928137D01*
X2003507Y2912131D01*
X1995417Y2892600D01*
X2039045D01*
Y2936227D01*
D02*
G37*
G36*
X1138555Y2949800D02*
X1122045D01*
X1106792Y2943482D01*
X1095118Y2931808D01*
X1088800Y2916555D01*
Y2900045D01*
X1095118Y2884792D01*
X1106792Y2873118D01*
X1122045Y2866800D01*
X1138555D01*
X1153808Y2873118D01*
X1165482Y2884792D01*
X1171800Y2900045D01*
Y2916555D01*
X1165482Y2931808D01*
X1153808Y2943482D01*
X1138555Y2949800D01*
D02*
G37*
G36*
X3663127Y2908300D02*
X3619500D01*
Y2864673D01*
X3639031Y2872763D01*
X3655037Y2888769D01*
X3663127Y2908300D01*
D02*
G37*
G36*
X3594100D02*
X3550473D01*
X3558563Y2888769D01*
X3574569Y2872763D01*
X3594100Y2864673D01*
Y2908300D01*
D02*
G37*
G36*
X2497537Y2907460D02*
X2478006Y2899370D01*
X2462000Y2883364D01*
X2453910Y2863832D01*
X2497537D01*
Y2907460D01*
D02*
G37*
G36*
X1885127Y2895600D02*
X1841500D01*
Y2851973D01*
X1861031Y2860063D01*
X1877037Y2876069D01*
X1885127Y2895600D01*
D02*
G37*
G36*
X1816100D02*
X1772473D01*
X1780563Y2876069D01*
X1796569Y2860063D01*
X1816100Y2851973D01*
Y2895600D01*
D02*
G37*
G36*
X3494630Y2930975D02*
X3478120D01*
X3462867Y2924657D01*
X3451193Y2912983D01*
X3444875Y2897730D01*
Y2881220D01*
X3451193Y2865967D01*
X3462867Y2854293D01*
X3478120Y2847975D01*
X3494630D01*
X3509883Y2854293D01*
X3521557Y2865967D01*
X3527875Y2881220D01*
Y2897730D01*
X3521557Y2912983D01*
X3509883Y2924657D01*
X3494630Y2930975D01*
D02*
G37*
G36*
X190500Y2888427D02*
Y2844800D01*
X234127D01*
X226037Y2864331D01*
X210031Y2880337D01*
X190500Y2888427D01*
D02*
G37*
G36*
X165100D02*
X145569Y2880337D01*
X129563Y2864331D01*
X121473Y2844800D01*
X165100D01*
Y2888427D01*
D02*
G37*
G36*
X1669227Y2870200D02*
X1625600D01*
Y2826573D01*
X1645131Y2834663D01*
X1661137Y2850669D01*
X1669227Y2870200D01*
D02*
G37*
G36*
X1600200D02*
X1556573D01*
X1564663Y2850669D01*
X1580669Y2834663D01*
X1600200Y2826573D01*
Y2870200D01*
D02*
G37*
G36*
X3719307Y2857574D02*
X3699776Y2849484D01*
X3683769Y2833477D01*
X3675679Y2813946D01*
X3719307D01*
Y2857574D01*
D02*
G37*
G36*
X2522937Y2907460D02*
Y2851132D01*
Y2794805D01*
X2542468Y2802895D01*
X2542759Y2803186D01*
X2549766Y2801792D01*
X2561439Y2790118D01*
X2576692Y2783800D01*
X2593202D01*
X2608455Y2790118D01*
X2620129Y2801792D01*
X2626447Y2817045D01*
Y2833554D01*
X2620129Y2848807D01*
X2608455Y2860481D01*
X2593202Y2866799D01*
X2576692D01*
X2566999Y2862784D01*
X2558474Y2883364D01*
X2542468Y2899370D01*
X2522937Y2907460D01*
D02*
G37*
G36*
X3482500Y2825023D02*
Y2781396D01*
X3526127D01*
X3518037Y2800927D01*
X3502031Y2816933D01*
X3482500Y2825023D01*
D02*
G37*
G36*
X3457100D02*
X3437568Y2816933D01*
X3421562Y2800927D01*
X3413472Y2781396D01*
X3457100D01*
Y2825023D01*
D02*
G37*
G36*
X605155Y2860900D02*
X588645D01*
X573392Y2854582D01*
X561718Y2842908D01*
X555400Y2827655D01*
Y2811145D01*
X561718Y2795892D01*
X573392Y2784218D01*
X588645Y2777900D01*
X605155D01*
X620408Y2784218D01*
X632082Y2795892D01*
X638400Y2811145D01*
Y2827655D01*
X632082Y2842908D01*
X620408Y2854582D01*
X605155Y2860900D01*
D02*
G37*
G36*
X234127Y2819400D02*
X190500D01*
Y2775773D01*
X210031Y2783863D01*
X226037Y2799869D01*
X234127Y2819400D01*
D02*
G37*
G36*
X165100D02*
X121473D01*
X129563Y2799869D01*
X145569Y2783863D01*
X165100Y2775773D01*
Y2819400D01*
D02*
G37*
G36*
X2726055Y2856000D02*
X2709545D01*
X2694292Y2849682D01*
X2682618Y2838008D01*
X2676300Y2822755D01*
Y2806245D01*
X2682618Y2790992D01*
X2694292Y2779318D01*
X2709545Y2773000D01*
X2726055D01*
X2741308Y2779318D01*
X2752982Y2790992D01*
X2759300Y2806245D01*
Y2822755D01*
X2752982Y2838008D01*
X2741308Y2849682D01*
X2726055Y2856000D01*
D02*
G37*
G36*
X3187700Y2812227D02*
Y2768600D01*
X3231327D01*
X3223237Y2788131D01*
X3207231Y2804137D01*
X3187700Y2812227D01*
D02*
G37*
G36*
X3162300D02*
X3142769Y2804137D01*
X3126763Y2788131D01*
X3118673Y2768600D01*
X3162300D01*
Y2812227D01*
D02*
G37*
G36*
X2997200Y2786827D02*
X2977669Y2778737D01*
X2963361Y2764429D01*
X2957208Y2770582D01*
X2941955Y2776900D01*
X2925445D01*
X2910192Y2770582D01*
X2898518Y2758908D01*
X2892200Y2743655D01*
Y2727145D01*
X2898518Y2711892D01*
X2909034Y2701376D01*
X2909140Y2694894D01*
X2908216Y2690213D01*
X2904535Y2688688D01*
X2892861Y2677014D01*
X2886543Y2661761D01*
Y2645252D01*
X2892861Y2629999D01*
X2904535Y2618325D01*
X2919788Y2612007D01*
X2936298D01*
X2951551Y2618325D01*
X2963225Y2629999D01*
X2969543Y2645252D01*
Y2661761D01*
X2963225Y2677014D01*
X2954712Y2685527D01*
X2956520Y2695952D01*
X2962937Y2696994D01*
X2977669Y2682263D01*
X2997200Y2674173D01*
Y2730500D01*
Y2786827D01*
D02*
G37*
G36*
X2497537Y2838432D02*
X2452414D01*
X2452313Y2838282D01*
X2446364D01*
X2431111Y2831964D01*
X2419437Y2820290D01*
X2413119Y2805037D01*
Y2788528D01*
X2419437Y2773275D01*
X2431111Y2761601D01*
X2446364Y2755283D01*
X2462874D01*
X2478127Y2761601D01*
X2489801Y2773275D01*
X2496119Y2788528D01*
Y2792361D01*
X2497537Y2793309D01*
Y2838432D01*
D02*
G37*
G36*
X3719307Y2788546D02*
X3675679D01*
X3683769Y2769015D01*
X3699776Y2753009D01*
X3719307Y2744919D01*
Y2788546D01*
D02*
G37*
G36*
X3022600Y2786827D02*
Y2743200D01*
X3066227D01*
X3058137Y2762731D01*
X3042131Y2778737D01*
X3022600Y2786827D01*
D02*
G37*
G36*
X2260600Y2837627D02*
Y2781300D01*
Y2724973D01*
X2280131Y2733063D01*
X2295252Y2748183D01*
X2306617Y2736818D01*
X2321870Y2730500D01*
X2338380D01*
X2353633Y2736818D01*
X2365307Y2748492D01*
X2371625Y2763745D01*
Y2780255D01*
X2365307Y2795508D01*
X2353633Y2807182D01*
X2338380Y2813500D01*
X2321870D01*
X2309156Y2808233D01*
X2297378Y2810535D01*
X2296137Y2813531D01*
X2280131Y2829537D01*
X2260600Y2837627D01*
D02*
G37*
G36*
X3744707Y2857574D02*
Y2801246D01*
Y2744919D01*
X3759630Y2751100D01*
X3762118Y2745092D01*
X3773792Y2733418D01*
X3789045Y2727100D01*
X3805555D01*
X3820808Y2733418D01*
X3832482Y2745092D01*
X3838800Y2760345D01*
Y2776855D01*
X3832482Y2792108D01*
X3820808Y2803782D01*
X3805555Y2810100D01*
X3798727D01*
X3788907Y2812565D01*
X3786101Y2819339D01*
X3780244Y2833477D01*
X3764238Y2849484D01*
X3744707Y2857574D01*
D02*
G37*
G36*
X2108072Y2867200D02*
X1995417D01*
X1998073Y2860787D01*
X1983092Y2854582D01*
X1971418Y2842908D01*
X1965100Y2827655D01*
Y2811145D01*
X1971418Y2795892D01*
X1983092Y2784218D01*
X1998345Y2777900D01*
X2014855D01*
X2030108Y2784218D01*
X2034924Y2789034D01*
X2046720Y2786688D01*
X2047618Y2784519D01*
X2059292Y2772845D01*
X2074545Y2766527D01*
X2091055D01*
X2106308Y2772845D01*
X2117982Y2784519D01*
X2122607Y2795686D01*
X2133431D01*
X2137533Y2785782D01*
X2149208Y2774108D01*
X2164460Y2767790D01*
X2180970D01*
X2181761Y2768118D01*
X2194133Y2762418D01*
X2199663Y2749069D01*
X2215669Y2733063D01*
X2235200Y2724973D01*
Y2781300D01*
Y2837627D01*
X2215669Y2829537D01*
X2208671Y2830930D01*
X2207897Y2832797D01*
X2196223Y2844472D01*
X2180970Y2850790D01*
X2164460D01*
X2149208Y2844472D01*
X2137533Y2832797D01*
X2132908Y2821631D01*
X2122084D01*
X2117982Y2831535D01*
X2106308Y2843209D01*
X2105380Y2843593D01*
X2099982Y2847669D01*
X2108072Y2867200D01*
D02*
G37*
G36*
X777400Y2761523D02*
Y2717896D01*
X821027D01*
X812937Y2737427D01*
X796931Y2753433D01*
X777400Y2761523D01*
D02*
G37*
G36*
X752000D02*
X732468Y2753433D01*
X716462Y2737427D01*
X708372Y2717896D01*
X752000D01*
Y2761523D01*
D02*
G37*
G36*
X3526127Y2755996D02*
X3482500D01*
Y2712369D01*
X3502031Y2720459D01*
X3518037Y2736465D01*
X3526127Y2755996D01*
D02*
G37*
G36*
X3457100D02*
X3413472D01*
X3421562Y2736465D01*
X3437568Y2720459D01*
X3457100Y2712369D01*
Y2755996D01*
D02*
G37*
G36*
X3231327Y2743200D02*
X3187700D01*
Y2699573D01*
X3207231Y2707663D01*
X3223237Y2723669D01*
X3231327Y2743200D01*
D02*
G37*
G36*
X3162300D02*
X3118673D01*
X3126763Y2723669D01*
X3142769Y2707663D01*
X3162300Y2699573D01*
Y2743200D01*
D02*
G37*
G36*
X2586355Y2758399D02*
X2569845D01*
X2554592Y2752081D01*
X2542918Y2740407D01*
X2536600Y2725154D01*
Y2708645D01*
X2542918Y2693392D01*
X2554592Y2681718D01*
X2569845Y2675400D01*
X2586355D01*
X2601608Y2681718D01*
X2613282Y2693392D01*
X2619600Y2708645D01*
Y2725154D01*
X2613282Y2740407D01*
X2601608Y2752081D01*
X2586355Y2758399D01*
D02*
G37*
G36*
X3066227Y2717800D02*
X3022600D01*
Y2674173D01*
X3042131Y2682263D01*
X3058137Y2698269D01*
X3066227Y2717800D01*
D02*
G37*
G36*
X821027Y2692496D02*
X777400D01*
Y2648869D01*
X796931Y2656959D01*
X812937Y2672965D01*
X821027Y2692496D01*
D02*
G37*
G36*
X752000D02*
X708372D01*
X716462Y2672965D01*
X732468Y2656959D01*
X752000Y2648869D01*
Y2692496D01*
D02*
G37*
G36*
X190500Y2672527D02*
Y2628900D01*
X234127D01*
X226037Y2648431D01*
X210031Y2664437D01*
X190500Y2672527D01*
D02*
G37*
G36*
X165100D02*
X145569Y2664437D01*
X129563Y2648431D01*
X121473Y2628900D01*
X165100D01*
Y2672527D01*
D02*
G37*
G36*
X3107505Y2708049D02*
X3090996D01*
X3075743Y2701731D01*
X3064069Y2690057D01*
X3057751Y2674804D01*
Y2658295D01*
X3064069Y2643042D01*
X3075743Y2631368D01*
X3090996Y2625050D01*
X3107505D01*
X3122758Y2631368D01*
X3134432Y2643042D01*
X3140750Y2658295D01*
Y2674804D01*
X3134432Y2690057D01*
X3122758Y2701731D01*
X3107505Y2708049D01*
D02*
G37*
G36*
X2070100Y2659827D02*
Y2616200D01*
X2113727D01*
X2105637Y2635731D01*
X2089631Y2651737D01*
X2070100Y2659827D01*
D02*
G37*
G36*
X2044700D02*
X2025169Y2651737D01*
X2009163Y2635731D01*
X2001073Y2616200D01*
X2044700D01*
Y2659827D01*
D02*
G37*
G36*
X2551648Y2652922D02*
Y2609294D01*
X2595276D01*
X2587186Y2628825D01*
X2571180Y2644832D01*
X2551648Y2652922D01*
D02*
G37*
G36*
X2526248D02*
X2506717Y2644832D01*
X2490711Y2628825D01*
X2482621Y2609294D01*
X2526248D01*
Y2652922D01*
D02*
G37*
G36*
X3162924Y2643727D02*
X3143392Y2635637D01*
X3127386Y2619631D01*
X3119296Y2600100D01*
X3162924D01*
Y2643727D01*
D02*
G37*
G36*
X1550542Y2633397D02*
Y2589770D01*
X1594169D01*
X1586079Y2609301D01*
X1570073Y2625307D01*
X1550542Y2633397D01*
D02*
G37*
G36*
X1525142D02*
X1505611Y2625307D01*
X1489604Y2609301D01*
X1481514Y2589770D01*
X1525142D01*
Y2633397D01*
D02*
G37*
G36*
X605155Y2657700D02*
X588645D01*
X573392Y2651382D01*
X561718Y2639708D01*
X555400Y2624455D01*
Y2607945D01*
X561718Y2592692D01*
X573392Y2581018D01*
X588645Y2574700D01*
X605155D01*
X620408Y2581018D01*
X632082Y2592692D01*
X638400Y2607945D01*
Y2624455D01*
X632082Y2639708D01*
X620408Y2651382D01*
X605155Y2657700D01*
D02*
G37*
G36*
X234127Y2603500D02*
X190500D01*
Y2559873D01*
X210031Y2567963D01*
X226037Y2583969D01*
X234127Y2603500D01*
D02*
G37*
G36*
X165100D02*
X121473D01*
X129563Y2583969D01*
X145569Y2567963D01*
X165100Y2559873D01*
Y2603500D01*
D02*
G37*
G36*
X2714549Y2641512D02*
X2698039D01*
X2682786Y2635194D01*
X2671112Y2623520D01*
X2664794Y2608267D01*
Y2591757D01*
X2671112Y2576504D01*
X2682786Y2564830D01*
X2698039Y2558512D01*
X2714549D01*
X2729801Y2564830D01*
X2741476Y2576504D01*
X2747794Y2591757D01*
Y2608267D01*
X2741476Y2623520D01*
X2729801Y2635194D01*
X2714549Y2641512D01*
D02*
G37*
G36*
X2113727Y2590800D02*
X2070100D01*
Y2547173D01*
X2089631Y2555263D01*
X2105637Y2571269D01*
X2113727Y2590800D01*
D02*
G37*
G36*
X2044700D02*
X2001073D01*
X2009163Y2571269D01*
X2025169Y2555263D01*
X2044700Y2547173D01*
Y2590800D01*
D02*
G37*
G36*
X2595276Y2583894D02*
X2551648D01*
Y2540267D01*
X2571180Y2548357D01*
X2587186Y2564363D01*
X2595276Y2583894D01*
D02*
G37*
G36*
X2526248D02*
X2482621D01*
X2490711Y2564363D01*
X2506717Y2548357D01*
X2526248Y2540267D01*
Y2583894D01*
D02*
G37*
G36*
X3162924Y2574700D02*
X3119296D01*
X3127386Y2555169D01*
X3143392Y2539163D01*
X3162924Y2531073D01*
Y2574700D01*
D02*
G37*
G36*
X3188324Y2643727D02*
Y2587400D01*
Y2531073D01*
X3207855Y2539163D01*
X3223861Y2555169D01*
X3226949Y2562624D01*
X3237773D01*
X3241193Y2554367D01*
X3252867Y2542693D01*
X3263008Y2538492D01*
X3258373Y2527300D01*
X3371027D01*
X3362937Y2546831D01*
X3346931Y2562837D01*
X3326018Y2571500D01*
X3317874D01*
Y2586129D01*
X3311556Y2601382D01*
X3299882Y2613056D01*
X3284629Y2619374D01*
X3268120D01*
X3252867Y2613056D01*
X3241762Y2601952D01*
X3237540Y2601832D01*
X3230894Y2602651D01*
X3223861Y2619631D01*
X3207855Y2635637D01*
X3188324Y2643727D01*
D02*
G37*
G36*
X1594169Y2564370D02*
X1550542D01*
Y2520742D01*
X1570073Y2528832D01*
X1586079Y2544839D01*
X1594169Y2564370D01*
D02*
G37*
G36*
X1525142D02*
X1481514D01*
X1489604Y2544839D01*
X1505611Y2528832D01*
X1525142Y2520742D01*
Y2564370D01*
D02*
G37*
G36*
X2403403Y2619600D02*
X2386894D01*
X2371641Y2613282D01*
X2359967Y2601608D01*
X2353649Y2586355D01*
Y2569845D01*
X2357042Y2561654D01*
X2355369Y2550137D01*
X2339363Y2534131D01*
X2331273Y2514600D01*
X2443927D01*
X2435837Y2534131D01*
X2422853Y2547115D01*
X2430330Y2554592D01*
X2436648Y2569845D01*
Y2586355D01*
X2430330Y2601608D01*
X2418656Y2613282D01*
X2403403Y2619600D01*
D02*
G37*
G36*
X2677133Y2551534D02*
Y2507907D01*
X2720760D01*
X2712670Y2527438D01*
X2696664Y2543444D01*
X2677133Y2551534D01*
D02*
G37*
G36*
X2651733D02*
X2632201Y2543444D01*
X2616195Y2527438D01*
X2608105Y2507907D01*
X2651733D01*
Y2551534D01*
D02*
G37*
G36*
X3086100Y2532827D02*
Y2489200D01*
X3129727D01*
X3121637Y2508731D01*
X3105631Y2524737D01*
X3086100Y2532827D01*
D02*
G37*
G36*
X3060700D02*
X3041169Y2524737D01*
X3025163Y2508731D01*
X3017073Y2489200D01*
X3060700D01*
Y2532827D01*
D02*
G37*
G36*
X1189355Y2581500D02*
X1172845D01*
X1157592Y2575182D01*
X1145918Y2563508D01*
X1139600Y2548255D01*
Y2531745D01*
X1143550Y2522209D01*
X1131677Y2517291D01*
X1115670Y2501285D01*
X1107580Y2481753D01*
X1220235D01*
X1212145Y2501285D01*
X1206610Y2506820D01*
X1216282Y2516492D01*
X1222600Y2531745D01*
Y2548255D01*
X1216282Y2563508D01*
X1204608Y2575182D01*
X1189355Y2581500D01*
D02*
G37*
G36*
X3371027Y2501900D02*
X3327400D01*
Y2458273D01*
X3346931Y2466363D01*
X3362937Y2482369D01*
X3371027Y2501900D01*
D02*
G37*
G36*
X3302000D02*
X3258373D01*
X3266463Y2482369D01*
X3282469Y2466363D01*
X3302000Y2458273D01*
Y2501900D01*
D02*
G37*
G36*
X2443927Y2489200D02*
X2400300D01*
Y2445573D01*
X2419831Y2453663D01*
X2435837Y2469669D01*
X2443927Y2489200D01*
D02*
G37*
G36*
X2374900D02*
X2331273D01*
X2339363Y2469669D01*
X2355369Y2453663D01*
X2374900Y2445573D01*
Y2489200D01*
D02*
G37*
G36*
X2720760Y2482507D02*
X2677133D01*
Y2438879D01*
X2696664Y2446969D01*
X2712670Y2462976D01*
X2720760Y2482507D01*
D02*
G37*
G36*
X2651733D02*
X2608105D01*
X2616195Y2462976D01*
X2632201Y2446969D01*
X2651733Y2438879D01*
Y2482507D01*
D02*
G37*
G36*
X3129727Y2463800D02*
X3086100D01*
Y2420173D01*
X3105631Y2428263D01*
X3121637Y2444269D01*
X3129727Y2463800D01*
D02*
G37*
G36*
X3060700D02*
X3017073D01*
X3025163Y2444269D01*
X3041169Y2428263D01*
X3060700Y2420173D01*
Y2463800D01*
D02*
G37*
G36*
X190500Y2456627D02*
Y2413000D01*
X234127D01*
X226037Y2432531D01*
X210031Y2448537D01*
X190500Y2456627D01*
D02*
G37*
G36*
X165100D02*
X145569Y2448537D01*
X129563Y2432531D01*
X121473Y2413000D01*
X165100D01*
Y2456627D01*
D02*
G37*
G36*
X1220235Y2456353D02*
X1176608D01*
Y2412726D01*
X1196139Y2420816D01*
X1212145Y2436822D01*
X1220235Y2456353D01*
D02*
G37*
G36*
X1151208D02*
X1107580D01*
X1115670Y2436822D01*
X1131677Y2420816D01*
X1151208Y2412726D01*
Y2456353D01*
D02*
G37*
G36*
X2284469Y2492600D02*
X2267960D01*
X2252707Y2486282D01*
X2241033Y2474608D01*
X2234715Y2459355D01*
Y2442845D01*
X2241033Y2427592D01*
X2252707Y2415918D01*
X2267960Y2409600D01*
X2284469D01*
X2299722Y2415918D01*
X2311396Y2427592D01*
X2317714Y2442845D01*
Y2459355D01*
X2311396Y2474608D01*
X2299722Y2486282D01*
X2284469Y2492600D01*
D02*
G37*
G36*
X1977597Y2452625D02*
Y2408998D01*
X2021224D01*
X2013134Y2428529D01*
X1997128Y2444535D01*
X1977597Y2452625D01*
D02*
G37*
G36*
X1442700Y2436927D02*
Y2393300D01*
X1486327D01*
X1478237Y2412831D01*
X1462231Y2428837D01*
X1442700Y2436927D01*
D02*
G37*
G36*
X1952197Y2452625D02*
X1932666Y2444535D01*
X1916660Y2428529D01*
X1907997Y2407616D01*
Y2388790D01*
X1898232Y2384413D01*
X1888308Y2394337D01*
X1868777Y2402427D01*
Y2346100D01*
Y2289773D01*
X1888308Y2297863D01*
X1904314Y2313869D01*
X1912977Y2334782D01*
Y2353608D01*
X1922742Y2357985D01*
X1932666Y2348061D01*
X1952197Y2339971D01*
Y2396298D01*
Y2452625D01*
D02*
G37*
G36*
X605155Y2441800D02*
X588645D01*
X573392Y2435482D01*
X561718Y2423808D01*
X555400Y2408555D01*
Y2392045D01*
X561718Y2376792D01*
X573392Y2365118D01*
X588645Y2358800D01*
X605155D01*
X620408Y2365118D01*
X632082Y2376792D01*
X638400Y2392045D01*
Y2408555D01*
X632082Y2423808D01*
X620408Y2435482D01*
X605155Y2441800D01*
D02*
G37*
G36*
X1843377Y2402427D02*
X1823846Y2394337D01*
X1807839Y2378331D01*
X1799750Y2358800D01*
X1843377D01*
Y2402427D01*
D02*
G37*
G36*
X234127Y2387600D02*
X190500D01*
Y2343973D01*
X210031Y2352063D01*
X226037Y2368069D01*
X234127Y2387600D01*
D02*
G37*
G36*
X165100D02*
X121473D01*
X129563Y2368069D01*
X145569Y2352063D01*
X165100Y2343973D01*
Y2387600D01*
D02*
G37*
G36*
X2021224Y2383598D02*
X1977597D01*
Y2339971D01*
X1997128Y2348061D01*
X2013134Y2364067D01*
X2021224Y2383598D01*
D02*
G37*
G36*
X2107648Y2373927D02*
Y2330300D01*
X2151275D01*
X2143185Y2349831D01*
X2127179Y2365837D01*
X2107648Y2373927D01*
D02*
G37*
G36*
X2082248D02*
X2062716Y2365837D01*
X2046710Y2349831D01*
X2038620Y2330300D01*
X2082248D01*
Y2373927D01*
D02*
G37*
G36*
X1486327Y2367900D02*
X1442700D01*
Y2324272D01*
X1462231Y2332362D01*
X1478237Y2348369D01*
X1486327Y2367900D01*
D02*
G37*
G36*
X1381473Y2471664D02*
X1364964D01*
X1349711Y2465346D01*
X1338037Y2453671D01*
X1331719Y2438419D01*
Y2421909D01*
X1338037Y2406656D01*
X1349711Y2394982D01*
X1364964Y2388664D01*
X1373100D01*
Y2378300D01*
X1363345D01*
X1348092Y2371982D01*
X1336418Y2360308D01*
X1330100Y2345055D01*
Y2328545D01*
X1336418Y2313292D01*
X1348092Y2301618D01*
X1363345Y2295300D01*
X1379855D01*
X1395108Y2301618D01*
X1406782Y2313292D01*
X1412204Y2326383D01*
X1417300Y2324272D01*
Y2380600D01*
Y2436927D01*
X1417084Y2436838D01*
X1414718Y2438419D01*
X1408400Y2453671D01*
X1396726Y2465346D01*
X1381473Y2471664D01*
D02*
G37*
G36*
X4038600Y2355027D02*
Y2311400D01*
X4082227D01*
X4074137Y2330931D01*
X4058131Y2346937D01*
X4038600Y2355027D01*
D02*
G37*
G36*
X4013200D02*
X3993669Y2346937D01*
X3977663Y2330931D01*
X3969573Y2311400D01*
X4013200D01*
Y2355027D01*
D02*
G37*
G36*
X764700Y2342423D02*
Y2298796D01*
X808327D01*
X800237Y2318327D01*
X784231Y2334333D01*
X764700Y2342423D01*
D02*
G37*
G36*
X739300D02*
X719768Y2334333D01*
X703762Y2318327D01*
X695672Y2298796D01*
X739300D01*
Y2342423D01*
D02*
G37*
G36*
X3241900Y2340729D02*
Y2297102D01*
X3285527D01*
X3277437Y2316633D01*
X3261431Y2332639D01*
X3241900Y2340729D01*
D02*
G37*
G36*
X3216500D02*
X3196969Y2332639D01*
X3180963Y2316633D01*
X3172873Y2297102D01*
X3216500D01*
Y2340729D01*
D02*
G37*
G36*
X1843377Y2333400D02*
X1799750D01*
X1807839Y2313869D01*
X1823846Y2297863D01*
X1843377Y2289773D01*
Y2333400D01*
D02*
G37*
G36*
X2627855Y2353786D02*
X2611345D01*
X2596092Y2347468D01*
X2584418Y2335794D01*
X2578100Y2320541D01*
Y2304031D01*
X2584418Y2288778D01*
X2596092Y2277104D01*
X2611345Y2270786D01*
X2627855D01*
X2643108Y2277104D01*
X2654782Y2288778D01*
X2661100Y2304031D01*
Y2320541D01*
X2654782Y2335794D01*
X2643108Y2347468D01*
X2627855Y2353786D01*
D02*
G37*
G36*
X1087755Y2352900D02*
X1071245D01*
X1055992Y2346582D01*
X1044318Y2334908D01*
X1038000Y2319655D01*
Y2303145D01*
X1044318Y2287892D01*
X1055992Y2276218D01*
X1071245Y2269900D01*
X1087755D01*
X1103008Y2276218D01*
X1114682Y2287892D01*
X1121000Y2303145D01*
Y2319655D01*
X1114682Y2334908D01*
X1103008Y2346582D01*
X1087755Y2352900D01*
D02*
G37*
G36*
X3490367Y2352171D02*
X3473858D01*
X3458605Y2345853D01*
X3446931Y2334179D01*
X3440613Y2318926D01*
Y2302417D01*
X3446931Y2287164D01*
X3458605Y2275490D01*
X3473858Y2269172D01*
X3490367D01*
X3505620Y2275490D01*
X3517294Y2287164D01*
X3523612Y2302417D01*
Y2318926D01*
X3517294Y2334179D01*
X3505620Y2345853D01*
X3490367Y2352171D01*
D02*
G37*
G36*
X2082248Y2304900D02*
X2038620D01*
X2046710Y2285369D01*
X2062716Y2269362D01*
X2082248Y2261273D01*
Y2304900D01*
D02*
G37*
G36*
X4082227Y2286000D02*
X4038600D01*
Y2242373D01*
X4058131Y2250463D01*
X4074137Y2266469D01*
X4082227Y2286000D01*
D02*
G37*
G36*
X4013200D02*
X3969573D01*
X3977663Y2266469D01*
X3993669Y2250463D01*
X4013200Y2242373D01*
Y2286000D01*
D02*
G37*
G36*
X808327Y2273396D02*
X764700D01*
Y2229769D01*
X784231Y2237859D01*
X800237Y2253865D01*
X808327Y2273396D01*
D02*
G37*
G36*
X739300D02*
X695672D01*
X703762Y2253865D01*
X719768Y2237859D01*
X739300Y2229769D01*
Y2273396D01*
D02*
G37*
G36*
X3285527Y2271702D02*
X3241900D01*
Y2228075D01*
X3261431Y2236164D01*
X3277437Y2252171D01*
X3285527Y2271702D01*
D02*
G37*
G36*
X3216500D02*
X3172873D01*
X3180963Y2252171D01*
X3196969Y2236164D01*
X3216500Y2228075D01*
Y2271702D01*
D02*
G37*
G36*
X1443355Y2264000D02*
X1426845D01*
X1411592Y2257682D01*
X1399918Y2246008D01*
X1393600Y2230755D01*
Y2219710D01*
X1384209Y2212776D01*
X1375219Y2216500D01*
X1358710D01*
X1343457Y2210182D01*
X1331783Y2198508D01*
X1325465Y2183255D01*
Y2166745D01*
X1331783Y2151492D01*
X1340815Y2142460D01*
X1339941Y2131274D01*
X1339369Y2131037D01*
X1323363Y2115031D01*
X1315273Y2095500D01*
X1371600D01*
Y2082800D01*
X1384300D01*
Y2026473D01*
X1403831Y2034563D01*
X1419837Y2050569D01*
X1428500Y2071482D01*
Y2089797D01*
X1445572D01*
X1466485Y2098460D01*
X1482492Y2114466D01*
X1490581Y2133997D01*
X1434254D01*
Y2159397D01*
X1490581D01*
X1482492Y2178928D01*
X1473134Y2188285D01*
X1470282Y2198992D01*
X1471808Y2202677D01*
X1476600Y2214245D01*
Y2230755D01*
X1470282Y2246008D01*
X1458608Y2257682D01*
X1443355Y2264000D01*
D02*
G37*
G36*
X190500Y2240727D02*
Y2197100D01*
X234127D01*
X226037Y2216631D01*
X210031Y2232637D01*
X190500Y2240727D01*
D02*
G37*
G36*
X165100D02*
X145569Y2232637D01*
X129563Y2216631D01*
X121473Y2197100D01*
X165100D01*
Y2240727D01*
D02*
G37*
G36*
X1025700Y2237654D02*
Y2194026D01*
X1069327D01*
X1061237Y2213557D01*
X1045231Y2229564D01*
X1025700Y2237654D01*
D02*
G37*
G36*
X1000300D02*
X980769Y2229564D01*
X964763Y2213557D01*
X956673Y2194026D01*
X1000300D01*
Y2237654D01*
D02*
G37*
G36*
X2151275Y2304900D02*
X2107648D01*
Y2261273D01*
X2115489Y2264520D01*
X2121153Y2256043D01*
X2111118Y2246008D01*
X2104800Y2230755D01*
Y2214245D01*
X2111118Y2198992D01*
X2122792Y2187318D01*
X2138045Y2181000D01*
X2154555D01*
X2169808Y2187318D01*
X2181482Y2198992D01*
X2187800Y2214245D01*
Y2230755D01*
X2181482Y2246008D01*
X2169808Y2257682D01*
X2154555Y2264000D01*
X2138045D01*
X2134482Y2262524D01*
X2128818Y2271002D01*
X2143185Y2285369D01*
X2151275Y2304900D01*
D02*
G37*
G36*
X3612369Y2249827D02*
X3595859D01*
X3580607Y2243509D01*
X3568932Y2231835D01*
X3562614Y2216582D01*
Y2200073D01*
X3568932Y2184820D01*
X3580607Y2173146D01*
X3595859Y2166828D01*
X3612369D01*
X3627622Y2173146D01*
X3639296Y2184820D01*
X3645614Y2200073D01*
Y2216582D01*
X3639296Y2231835D01*
X3627622Y2243509D01*
X3612369Y2249827D01*
D02*
G37*
G36*
X2960904Y2257549D02*
X2944394D01*
X2929141Y2251231D01*
X2917467Y2239557D01*
X2911149Y2224304D01*
Y2207794D01*
X2917467Y2192541D01*
X2929141Y2180867D01*
X2933881Y2178904D01*
X2934216Y2177218D01*
X2929559Y2165976D01*
X2918154Y2170700D01*
X2901644D01*
X2886391Y2164382D01*
X2874717Y2152708D01*
X2868399Y2137455D01*
Y2120945D01*
X2874717Y2105692D01*
X2886391Y2094018D01*
X2901644Y2087700D01*
X2918154D01*
X2933407Y2094018D01*
X2943181Y2103792D01*
X2950222Y2096750D01*
X2969754Y2088660D01*
Y2144987D01*
X2995154D01*
Y2088660D01*
X3014685Y2096750D01*
X3030691Y2112756D01*
X3039353Y2133669D01*
Y2142900D01*
X3052154D01*
X3067407Y2149218D01*
X3079081Y2160892D01*
X3085399Y2176145D01*
Y2192655D01*
X3079081Y2207908D01*
X3067407Y2219582D01*
X3052154Y2225900D01*
X3035645D01*
X3020392Y2219582D01*
X3008718Y2207908D01*
X3008054Y2206306D01*
X3003258Y2205643D01*
X2994149Y2214006D01*
Y2224304D01*
X2987831Y2239557D01*
X2976157Y2251231D01*
X2960904Y2257549D01*
D02*
G37*
G36*
X605155Y2225900D02*
X588645D01*
X573392Y2219582D01*
X561718Y2207908D01*
X555400Y2192655D01*
Y2176145D01*
X561718Y2160892D01*
X573392Y2149218D01*
X588645Y2142900D01*
X605155D01*
X620408Y2149218D01*
X632082Y2160892D01*
X638400Y2176145D01*
Y2192655D01*
X632082Y2207908D01*
X620408Y2219582D01*
X605155Y2225900D01*
D02*
G37*
G36*
X234127Y2171700D02*
X190500D01*
Y2128073D01*
X210031Y2136163D01*
X226037Y2152169D01*
X234127Y2171700D01*
D02*
G37*
G36*
X165100D02*
X121473D01*
X129563Y2152169D01*
X145569Y2136163D01*
X165100Y2128073D01*
Y2171700D01*
D02*
G37*
G36*
X1069327Y2168626D02*
X1025700D01*
Y2124999D01*
X1045231Y2133089D01*
X1061237Y2149095D01*
X1069327Y2168626D01*
D02*
G37*
G36*
X1000300D02*
X956673D01*
X964763Y2149095D01*
X980769Y2133089D01*
X1000300Y2124999D01*
Y2168626D01*
D02*
G37*
G36*
X1572533Y2209967D02*
X1556024D01*
X1540771Y2203649D01*
X1529097Y2191975D01*
X1522779Y2176722D01*
Y2160212D01*
X1529097Y2144959D01*
X1523264Y2137132D01*
X1513863Y2127731D01*
X1505773Y2108200D01*
X1618427D01*
X1610337Y2127731D01*
X1596285Y2141784D01*
X1599460Y2144959D01*
X1605778Y2160212D01*
Y2176722D01*
X1599460Y2191975D01*
X1587786Y2203649D01*
X1572533Y2209967D01*
D02*
G37*
G36*
X2610414Y2169021D02*
X2593904D01*
X2578651Y2162703D01*
X2566977Y2151028D01*
X2560659Y2135776D01*
Y2119266D01*
X2566977Y2104013D01*
X2578651Y2092339D01*
X2593904Y2086021D01*
X2610414D01*
X2625667Y2092339D01*
X2637341Y2104013D01*
X2643659Y2119266D01*
Y2135776D01*
X2637341Y2151028D01*
X2625667Y2162703D01*
X2610414Y2169021D01*
D02*
G37*
G36*
X1956942Y2087297D02*
Y2043670D01*
X2000569D01*
X1992479Y2063201D01*
X1976473Y2079207D01*
X1956942Y2087297D01*
D02*
G37*
G36*
X1931542D02*
X1912011Y2079207D01*
X1896004Y2063201D01*
X1887914Y2043670D01*
X1931542D01*
Y2087297D01*
D02*
G37*
G36*
X1358900Y2070100D02*
X1315273D01*
X1323363Y2050569D01*
X1339369Y2034563D01*
X1358900Y2026473D01*
Y2070100D01*
D02*
G37*
G36*
X1025700Y2043652D02*
Y2000025D01*
X1069327D01*
X1061237Y2019556D01*
X1045231Y2035562D01*
X1025700Y2043652D01*
D02*
G37*
G36*
X1000300D02*
X980769Y2035562D01*
X964763Y2019556D01*
X956673Y2000025D01*
X1000300D01*
Y2043652D01*
D02*
G37*
G36*
X706755Y2073500D02*
X690245D01*
X674992Y2067182D01*
X663318Y2055508D01*
X657000Y2040255D01*
Y2023745D01*
X663318Y2008492D01*
X674992Y1996818D01*
X690245Y1990500D01*
X706755D01*
X722008Y1996818D01*
X733682Y2008492D01*
X740000Y2023745D01*
Y2040255D01*
X733682Y2055508D01*
X722008Y2067182D01*
X706755Y2073500D01*
D02*
G37*
G36*
X577659D02*
X561149D01*
X545896Y2067182D01*
X534222Y2055508D01*
X527904Y2040255D01*
Y2023745D01*
X534222Y2008492D01*
X545896Y1996818D01*
X561149Y1990500D01*
X577659D01*
X592912Y1996818D01*
X604586Y2008492D01*
X610904Y2023745D01*
Y2040255D01*
X604586Y2055508D01*
X592912Y2067182D01*
X577659Y2073500D01*
D02*
G37*
G36*
X1618427Y2082800D02*
X1505773D01*
X1513863Y2063269D01*
X1529021Y2048111D01*
X1526918Y2046008D01*
X1520600Y2030755D01*
Y2014245D01*
X1526918Y1998992D01*
X1538592Y1987318D01*
X1553845Y1981000D01*
X1570355D01*
X1585608Y1987318D01*
X1597282Y1998992D01*
X1603600Y2014245D01*
Y2030755D01*
X1597282Y2046008D01*
X1595179Y2048111D01*
X1610337Y2063269D01*
X1618427Y2082800D01*
D02*
G37*
G36*
X3246755Y2060800D02*
X3230245D01*
X3214992Y2054482D01*
X3203318Y2042808D01*
X3197000Y2027555D01*
Y2011045D01*
X3203318Y1995792D01*
X3214992Y1984118D01*
X3230245Y1977800D01*
X3246755D01*
X3262008Y1984118D01*
X3273682Y1995792D01*
X3280000Y2011045D01*
Y2027555D01*
X3273682Y2042808D01*
X3262008Y2054482D01*
X3246755Y2060800D01*
D02*
G37*
G36*
X2000569Y2018270D02*
X1956942D01*
Y1974642D01*
X1976473Y1982732D01*
X1992479Y1998739D01*
X2000569Y2018270D01*
D02*
G37*
G36*
X1931542D02*
X1887914D01*
X1896004Y1998739D01*
X1912011Y1982732D01*
X1931542Y1974642D01*
Y2018270D01*
D02*
G37*
G36*
X2996902Y2017556D02*
Y1973929D01*
X3040529D01*
X3032439Y1993460D01*
X3016433Y2009466D01*
X2996902Y2017556D01*
D02*
G37*
G36*
X3887003Y2017235D02*
X3869702D01*
Y1943799D01*
X3971467D01*
X3970204Y1953392D01*
X3961599Y1974167D01*
X3947911Y1992006D01*
X3930071Y2005695D01*
X3909296Y2014300D01*
X3887003Y2017235D01*
D02*
G37*
G36*
X3481988Y2012192D02*
X3449688D01*
Y1943799D01*
X3561410D01*
X3560319Y1952087D01*
X3552217Y1971645D01*
X3539330Y1988440D01*
X3522535Y2001327D01*
X3502977Y2009429D01*
X3481988Y2012192D01*
D02*
G37*
G36*
X3844302Y2017235D02*
X3827003D01*
X3804709Y2014300D01*
X3783935Y2005695D01*
X3766095Y1992006D01*
X3752406Y1974167D01*
X3743801Y1953392D01*
X3742538Y1943799D01*
X3844302D01*
Y2017235D01*
D02*
G37*
G36*
X3386455Y2086200D02*
X3369945D01*
X3354692Y2079882D01*
X3343018Y2068208D01*
X3336700Y2052955D01*
Y2036445D01*
X3343018Y2021192D01*
X3351878Y2012332D01*
X3351511Y2003085D01*
X3351359Y2002407D01*
X3350522Y2000622D01*
X3334647Y1988440D01*
X3321759Y1971645D01*
X3313658Y1952087D01*
X3312567Y1943799D01*
X3424288D01*
Y2012192D01*
X3417447D01*
X3413796Y2022192D01*
X3419700Y2036445D01*
Y2052955D01*
X3413382Y2068208D01*
X3401708Y2079882D01*
X3386455Y2086200D01*
D02*
G37*
G36*
X1069327Y1974625D02*
X1025700D01*
Y1930997D01*
X1045231Y1939087D01*
X1061237Y1955094D01*
X1069327Y1974625D01*
D02*
G37*
G36*
X1000300D02*
X956673D01*
X964763Y1955094D01*
X980769Y1939087D01*
X1000300Y1930997D01*
Y1974625D01*
D02*
G37*
G36*
X181658Y1950913D02*
Y1907285D01*
X225285D01*
X217195Y1926816D01*
X201189Y1942823D01*
X181658Y1950913D01*
D02*
G37*
G36*
X156258D02*
X136727Y1942823D01*
X120721Y1926816D01*
X112631Y1907285D01*
X156258D01*
Y1950913D01*
D02*
G37*
G36*
X444500Y1948627D02*
Y1905000D01*
X488127D01*
X480037Y1924531D01*
X464031Y1940537D01*
X444500Y1948627D01*
D02*
G37*
G36*
X419100D02*
X399569Y1940537D01*
X383563Y1924531D01*
X375473Y1905000D01*
X419100D01*
Y1948627D01*
D02*
G37*
G36*
X2648927Y1934625D02*
X2605300D01*
Y1890997D01*
X2624831Y1899087D01*
X2640837Y1915094D01*
X2648927Y1934625D01*
D02*
G37*
G36*
X2511060Y2110694D02*
X2494551D01*
X2479298Y2104376D01*
X2467624Y2092702D01*
X2461306Y2077449D01*
Y2060939D01*
X2467624Y2045687D01*
X2479298Y2034012D01*
X2494551Y2027694D01*
X2497411D01*
X2501140Y2017694D01*
X2495291Y2003575D01*
Y1987065D01*
X2501609Y1971812D01*
X2513284Y1960138D01*
X2528536Y1953820D01*
X2535700D01*
Y1936007D01*
X2544362Y1915094D01*
X2560369Y1899087D01*
X2579900Y1890997D01*
Y1947325D01*
X2592600D01*
Y1960025D01*
X2648927D01*
X2640837Y1979556D01*
X2632882Y1987511D01*
X2640984Y1995613D01*
X2647302Y2010866D01*
Y2027375D01*
X2640984Y2042628D01*
X2629310Y2054302D01*
X2614057Y2060620D01*
X2597548D01*
X2582295Y2054302D01*
X2570620Y2042628D01*
X2568188Y2036755D01*
X2560299Y2030502D01*
X2556286Y2032164D01*
X2545046Y2036820D01*
X2542186D01*
X2538457Y2046820D01*
X2544305Y2060939D01*
Y2077449D01*
X2537987Y2092702D01*
X2526313Y2104376D01*
X2511060Y2110694D01*
D02*
G37*
G36*
X3424288Y1918399D02*
X3312567D01*
X3313658Y1910110D01*
X3321759Y1890552D01*
X3334647Y1873757D01*
X3351442Y1860870D01*
X3371000Y1852768D01*
X3391988Y1850005D01*
X3424288D01*
Y1918399D01*
D02*
G37*
G36*
X2971502Y2017556D02*
X2951971Y2009466D01*
X2935965Y1993460D01*
X2927302Y1972547D01*
Y1959200D01*
X2917345D01*
X2902092Y1952882D01*
X2890418Y1941208D01*
X2884100Y1925955D01*
Y1909445D01*
X2890418Y1894192D01*
X2902092Y1882518D01*
X2917345Y1876200D01*
X2933855D01*
X2941356Y1879307D01*
X2950492Y1879885D01*
X2953427Y1874307D01*
X2957418Y1864671D01*
X2969092Y1852997D01*
X2984345Y1846679D01*
X3000855D01*
X3016108Y1852997D01*
X3027782Y1864671D01*
X3034100Y1879924D01*
Y1896433D01*
X3027782Y1911686D01*
X3021455Y1918013D01*
X3032439Y1928998D01*
X3040529Y1948529D01*
X2984202D01*
Y1961229D01*
X2971502D01*
Y2017556D01*
D02*
G37*
G36*
X3971468Y1918399D02*
X3869702D01*
Y1844962D01*
X3887003D01*
X3909296Y1847897D01*
X3930071Y1856502D01*
X3947911Y1870191D01*
X3961599Y1888030D01*
X3970204Y1908805D01*
X3971468Y1918399D01*
D02*
G37*
G36*
X3844302D02*
X3742538D01*
X3743801Y1908805D01*
X3752406Y1888030D01*
X3766095Y1870191D01*
X3775208Y1863198D01*
X3771813Y1853198D01*
X3753578D01*
X3732665Y1844536D01*
X3716659Y1828529D01*
X3708569Y1808998D01*
X3821224D01*
X3813134Y1828529D01*
X3803723Y1837940D01*
X3808394Y1847412D01*
X3827003Y1844962D01*
X3844302D01*
Y1918399D01*
D02*
G37*
G36*
X225285Y1881885D02*
X181658D01*
Y1838258D01*
X201189Y1846348D01*
X217195Y1862354D01*
X225285Y1881885D01*
D02*
G37*
G36*
X156258D02*
X112631D01*
X120721Y1862354D01*
X136727Y1846348D01*
X156258Y1838258D01*
Y1881885D01*
D02*
G37*
G36*
X488127Y1879600D02*
X444500D01*
Y1835973D01*
X464031Y1844063D01*
X480037Y1860069D01*
X488127Y1879600D01*
D02*
G37*
G36*
X419100D02*
X375473D01*
X383563Y1860069D01*
X399569Y1844063D01*
X419100Y1835973D01*
Y1879600D01*
D02*
G37*
G36*
X1463155Y1801650D02*
X1446645D01*
X1431392Y1795332D01*
X1419718Y1783658D01*
X1413400Y1768405D01*
Y1766234D01*
X1404161Y1762407D01*
X1403831Y1762737D01*
X1384300Y1770827D01*
Y1714500D01*
Y1658173D01*
X1403831Y1666263D01*
X1419837Y1682269D01*
X1428500Y1703182D01*
Y1715342D01*
X1438500Y1722024D01*
X1446645Y1718650D01*
X1463155D01*
X1478408Y1724968D01*
X1490082Y1736642D01*
X1496400Y1751895D01*
Y1768405D01*
X1490082Y1783658D01*
X1478408Y1795332D01*
X1463155Y1801650D01*
D02*
G37*
G36*
X3170555Y1832200D02*
X3154045D01*
X3138792Y1825882D01*
X3127118Y1814208D01*
X3120800Y1798955D01*
Y1782445D01*
X3127118Y1767192D01*
X3138792Y1755518D01*
X3154045Y1749200D01*
X3170555D01*
X3185808Y1755518D01*
X3197482Y1767192D01*
X3203800Y1782445D01*
Y1798955D01*
X3197482Y1814208D01*
X3185808Y1825882D01*
X3170555Y1832200D01*
D02*
G37*
G36*
X3821224Y1783598D02*
X3777596D01*
Y1739971D01*
X3797128Y1748061D01*
X3813134Y1764067D01*
X3821224Y1783598D01*
D02*
G37*
G36*
X3752196D02*
X3708569D01*
X3716659Y1764067D01*
X3732665Y1748061D01*
X3752196Y1739971D01*
Y1783598D01*
D02*
G37*
G36*
X3987800Y1783527D02*
Y1739900D01*
X4031427D01*
X4023337Y1759431D01*
X4007331Y1775437D01*
X3987800Y1783527D01*
D02*
G37*
G36*
X3962400D02*
X3942869Y1775437D01*
X3926863Y1759431D01*
X3918773Y1739900D01*
X3962400D01*
Y1783527D01*
D02*
G37*
G36*
X1727200D02*
Y1739900D01*
X1770827D01*
X1762737Y1759431D01*
X1746731Y1775437D01*
X1727200Y1783527D01*
D02*
G37*
G36*
X1701800D02*
X1682269Y1775437D01*
X1666263Y1759431D01*
X1658173Y1739900D01*
X1701800D01*
Y1783527D01*
D02*
G37*
G36*
X3561410Y1918399D02*
X3449688D01*
Y1850005D01*
X3468752D01*
X3470741Y1840005D01*
X3461377Y1836126D01*
X3454762Y1831706D01*
X3444916Y1821860D01*
X3440495Y1815244D01*
X3435167Y1802380D01*
X3433614Y1794576D01*
Y1780652D01*
X3435167Y1772848D01*
X3440495Y1759984D01*
X3444916Y1753368D01*
X3454762Y1743522D01*
X3461377Y1739101D01*
X3474242Y1733773D01*
X3482045Y1732221D01*
X3495970D01*
X3503774Y1733773D01*
X3516638Y1739101D01*
X3523253Y1743522D01*
X3533100Y1753368D01*
X3537520Y1759984D01*
X3542848Y1772848D01*
X3544401Y1780652D01*
Y1794576D01*
X3542848Y1802380D01*
X3537520Y1815244D01*
X3533100Y1821859D01*
X3523254Y1831706D01*
X3516638Y1836126D01*
X3503774Y1841455D01*
X3499744Y1842256D01*
X3500076Y1852386D01*
X3502977Y1852768D01*
X3522535Y1860870D01*
X3539330Y1873757D01*
X3552217Y1890552D01*
X3560319Y1910110D01*
X3561410Y1918399D01*
D02*
G37*
G36*
X1358900Y1770827D02*
X1339369Y1762737D01*
X1323363Y1746731D01*
X1315273Y1727200D01*
X1358900D01*
Y1770827D01*
D02*
G37*
G36*
X2823258Y1735013D02*
Y1691385D01*
X2866885D01*
X2858795Y1710916D01*
X2842789Y1726923D01*
X2823258Y1735013D01*
D02*
G37*
G36*
X2797858D02*
X2778327Y1726923D01*
X2762321Y1710916D01*
X2754231Y1691385D01*
X2797858D01*
Y1735013D01*
D02*
G37*
G36*
X2311400Y1720027D02*
Y1676400D01*
X2355027D01*
X2346937Y1695931D01*
X2330931Y1711937D01*
X2311400Y1720027D01*
D02*
G37*
G36*
X2286000D02*
X2266469Y1711937D01*
X2250463Y1695931D01*
X2242373Y1676400D01*
X2286000D01*
Y1720027D01*
D02*
G37*
G36*
X4031427Y1714500D02*
X3987800D01*
Y1670873D01*
X4007331Y1678963D01*
X4023337Y1694969D01*
X4031427Y1714500D01*
D02*
G37*
G36*
X3962400D02*
X3918773D01*
X3926863Y1694969D01*
X3942869Y1678963D01*
X3962400Y1670873D01*
Y1714500D01*
D02*
G37*
G36*
X1770827D02*
X1727200D01*
Y1670873D01*
X1746731Y1678963D01*
X1762737Y1694969D01*
X1770827Y1714500D01*
D02*
G37*
G36*
X1701800D02*
X1658173D01*
X1666263Y1694969D01*
X1682269Y1678963D01*
X1701800Y1670873D01*
Y1714500D01*
D02*
G37*
G36*
X1358900Y1701800D02*
X1315273D01*
X1323363Y1682269D01*
X1339369Y1666263D01*
X1358900Y1658173D01*
Y1701800D01*
D02*
G37*
G36*
X168958Y1696913D02*
Y1653285D01*
X212585D01*
X204495Y1672816D01*
X188489Y1688823D01*
X168958Y1696913D01*
D02*
G37*
G36*
X143558D02*
X124027Y1688823D01*
X108021Y1672816D01*
X99931Y1653285D01*
X143558D01*
Y1696913D01*
D02*
G37*
G36*
X3149597Y1694627D02*
Y1651000D01*
X3193225D01*
X3185135Y1670531D01*
X3169128Y1686537D01*
X3149597Y1694627D01*
D02*
G37*
G36*
X3124197D02*
X3104666Y1686537D01*
X3088660Y1670531D01*
X3080570Y1651000D01*
X3124197D01*
Y1694627D01*
D02*
G37*
G36*
X406400Y1681927D02*
Y1638300D01*
X450027D01*
X441937Y1657831D01*
X425931Y1673837D01*
X406400Y1681927D01*
D02*
G37*
G36*
X381000D02*
X361469Y1673837D01*
X345463Y1657831D01*
X337373Y1638300D01*
X381000D01*
Y1681927D01*
D02*
G37*
G36*
X2552676Y1669163D02*
Y1625535D01*
X2596303D01*
X2588214Y1645067D01*
X2572207Y1661073D01*
X2552676Y1669163D01*
D02*
G37*
G36*
X2527276D02*
X2507745Y1661073D01*
X2491739Y1645067D01*
X2483649Y1625535D01*
X2527276D01*
Y1669163D01*
D02*
G37*
G36*
X2355027Y1651000D02*
X2311400D01*
Y1607373D01*
X2330931Y1615463D01*
X2346937Y1631469D01*
X2355027Y1651000D01*
D02*
G37*
G36*
X2286000D02*
X2242373D01*
X2250463Y1631469D01*
X2266469Y1615463D01*
X2286000Y1607373D01*
Y1651000D01*
D02*
G37*
G36*
X1609047Y1642743D02*
X1592538D01*
X1577285Y1636425D01*
X1565611Y1624751D01*
X1559293Y1609498D01*
X1552024Y1604641D01*
X1549400Y1605727D01*
Y1549400D01*
Y1493073D01*
X1568931Y1501163D01*
X1584937Y1517169D01*
X1593600Y1538082D01*
Y1559743D01*
X1609047D01*
X1624300Y1566061D01*
X1635974Y1577735D01*
X1642292Y1592988D01*
Y1609498D01*
X1635974Y1624751D01*
X1624300Y1636425D01*
X1609047Y1642743D01*
D02*
G37*
G36*
X212585Y1627885D02*
X168958D01*
Y1584258D01*
X188489Y1592348D01*
X204495Y1608354D01*
X212585Y1627885D01*
D02*
G37*
G36*
X143558D02*
X99931D01*
X108021Y1608354D01*
X124027Y1592348D01*
X143558Y1584258D01*
Y1627885D01*
D02*
G37*
G36*
X3193225Y1625600D02*
X3149597D01*
Y1581973D01*
X3169128Y1590063D01*
X3185135Y1606069D01*
X3193225Y1625600D01*
D02*
G37*
G36*
X3124197D02*
X3080570D01*
X3088660Y1606069D01*
X3104666Y1590063D01*
X3124197Y1581973D01*
Y1625600D01*
D02*
G37*
G36*
X450027Y1612900D02*
X406400D01*
Y1569273D01*
X425931Y1577363D01*
X441937Y1593369D01*
X450027Y1612900D01*
D02*
G37*
G36*
X381000D02*
X337373D01*
X345463Y1593369D01*
X361469Y1577363D01*
X381000Y1569273D01*
Y1612900D01*
D02*
G37*
G36*
X1524000Y1605727D02*
X1504469Y1597637D01*
X1488463Y1581631D01*
X1480373Y1562100D01*
X1524000D01*
Y1605727D01*
D02*
G37*
G36*
X2596303Y1600135D02*
X2552676D01*
Y1556508D01*
X2572207Y1564598D01*
X2588214Y1580604D01*
X2596303Y1600135D01*
D02*
G37*
G36*
X2527276D02*
X2483649D01*
X2491739Y1580604D01*
X2507745Y1564598D01*
X2527276Y1556508D01*
Y1600135D01*
D02*
G37*
G36*
X2866885Y1665985D02*
X2754231D01*
X2762321Y1646454D01*
X2774631Y1634143D01*
X2773095Y1622701D01*
X2773060Y1622649D01*
X2761418Y1611008D01*
X2755100Y1595755D01*
Y1579245D01*
X2761418Y1563992D01*
X2773092Y1552318D01*
X2788345Y1546000D01*
X2804855D01*
X2820108Y1552318D01*
X2831782Y1563992D01*
X2838100Y1579245D01*
Y1595755D01*
X2831782Y1611008D01*
X2828913Y1613876D01*
X2831260Y1625672D01*
X2842789Y1630448D01*
X2858795Y1646454D01*
X2866885Y1665985D01*
D02*
G37*
G36*
X1524000Y1536700D02*
X1480373D01*
X1488463Y1517169D01*
X1504469Y1501163D01*
X1524000Y1493073D01*
Y1536700D01*
D02*
G37*
G36*
X2931030Y1453327D02*
X2911499Y1445237D01*
X2904457Y1438196D01*
X2895740Y1446914D01*
X2880487Y1453232D01*
X2863977D01*
X2848724Y1446914D01*
X2837050Y1435240D01*
X2830732Y1419987D01*
Y1403477D01*
X2837050Y1388224D01*
X2848724Y1376550D01*
X2863977Y1370232D01*
X2880487D01*
X2891363Y1374737D01*
X2895492Y1364769D01*
X2911499Y1348763D01*
X2931030Y1340673D01*
Y1397000D01*
Y1453327D01*
D02*
G37*
G36*
X2956430D02*
Y1409700D01*
X3000057D01*
X2991967Y1429231D01*
X2975961Y1445237D01*
X2956430Y1453327D01*
D02*
G37*
G36*
X660400Y1427927D02*
Y1384300D01*
X704027D01*
X695937Y1403831D01*
X679931Y1419837D01*
X660400Y1427927D01*
D02*
G37*
G36*
X635000D02*
X615469Y1419837D01*
X599463Y1403831D01*
X591373Y1384300D01*
X635000D01*
Y1427927D01*
D02*
G37*
G36*
X952500Y1415227D02*
Y1371600D01*
X996127D01*
X988037Y1391131D01*
X972031Y1407137D01*
X952500Y1415227D01*
D02*
G37*
G36*
X927100D02*
X907569Y1407137D01*
X891563Y1391131D01*
X883473Y1371600D01*
X927100D01*
Y1415227D01*
D02*
G37*
G36*
X3000057Y1384300D02*
X2956430D01*
Y1340673D01*
X2975961Y1348763D01*
X2991967Y1364769D01*
X3000057Y1384300D01*
D02*
G37*
G36*
X704027Y1358900D02*
X660400D01*
Y1315273D01*
X679931Y1323363D01*
X695937Y1339369D01*
X704027Y1358900D01*
D02*
G37*
G36*
X635000D02*
X591373D01*
X599463Y1339369D01*
X615469Y1323363D01*
X635000Y1315273D01*
Y1358900D01*
D02*
G37*
G36*
X3090620Y1391884D02*
X3074111D01*
X3058858Y1385566D01*
X3047184Y1373892D01*
X3040866Y1358639D01*
Y1342130D01*
X3047184Y1326877D01*
X3058858Y1315203D01*
X3074111Y1308885D01*
X3090620D01*
X3105873Y1315203D01*
X3117547Y1326877D01*
X3123865Y1342130D01*
Y1358639D01*
X3117547Y1373892D01*
X3105873Y1385566D01*
X3090620Y1391884D01*
D02*
G37*
G36*
X4013200Y1351727D02*
Y1308100D01*
X4056827D01*
X4048737Y1327631D01*
X4032731Y1343637D01*
X4013200Y1351727D01*
D02*
G37*
G36*
X3987800D02*
X3968269Y1343637D01*
X3952263Y1327631D01*
X3944173Y1308100D01*
X3987800D01*
Y1351727D01*
D02*
G37*
G36*
X2520127Y1346200D02*
X2476500D01*
Y1302573D01*
X2496031Y1310663D01*
X2512037Y1326669D01*
X2520127Y1346200D01*
D02*
G37*
G36*
X2421030Y1463675D02*
X2404520D01*
X2389267Y1457357D01*
X2377593Y1445683D01*
X2371275Y1430430D01*
Y1413920D01*
X2377593Y1398667D01*
X2389267Y1386993D01*
X2404520Y1380675D01*
X2408663Y1374475D01*
X2406900Y1370218D01*
Y1362300D01*
X2392045D01*
X2376792Y1355982D01*
X2365118Y1344308D01*
X2358800Y1329055D01*
Y1312545D01*
X2365118Y1297292D01*
X2376792Y1285618D01*
X2392045Y1279300D01*
X2408555D01*
X2423808Y1285618D01*
X2435482Y1297292D01*
X2439636Y1307321D01*
X2451100Y1302573D01*
Y1358900D01*
X2463800D01*
Y1371600D01*
X2520127D01*
X2512037Y1391131D01*
X2496031Y1407137D01*
X2475118Y1415800D01*
X2454275D01*
Y1430430D01*
X2447957Y1445683D01*
X2436283Y1457357D01*
X2421030Y1463675D01*
D02*
G37*
G36*
X996127Y1346200D02*
X952500D01*
Y1302573D01*
X972031Y1310663D01*
X988037Y1326669D01*
X996127Y1346200D01*
D02*
G37*
G36*
X927100D02*
X883473D01*
X891563Y1326669D01*
X907569Y1310663D01*
X927100Y1302573D01*
Y1346200D01*
D02*
G37*
G36*
X2675255Y1349600D02*
X2658745D01*
X2643492Y1343282D01*
X2631818Y1331608D01*
X2625500Y1316355D01*
Y1299845D01*
X2631818Y1284592D01*
X2643492Y1272918D01*
X2653521Y1268764D01*
X2648773Y1257300D01*
X2761427D01*
X2753337Y1276831D01*
X2737331Y1292837D01*
X2716418Y1301500D01*
X2708500D01*
Y1316355D01*
X2702182Y1331608D01*
X2690508Y1343282D01*
X2675255Y1349600D01*
D02*
G37*
G36*
X4056827Y1282700D02*
X4013200D01*
Y1239073D01*
X4032731Y1247163D01*
X4048737Y1263169D01*
X4056827Y1282700D01*
D02*
G37*
G36*
X3987800D02*
X3944173D01*
X3952263Y1263169D01*
X3968269Y1247163D01*
X3987800Y1239073D01*
Y1282700D01*
D02*
G37*
G36*
X3187700Y1275527D02*
Y1231900D01*
X3231327D01*
X3223237Y1251431D01*
X3207231Y1267437D01*
X3187700Y1275527D01*
D02*
G37*
G36*
X3162300D02*
X3142769Y1267437D01*
X3126763Y1251431D01*
X3118673Y1231900D01*
X3162300D01*
Y1275527D01*
D02*
G37*
G36*
X2535329Y1286325D02*
X2518820D01*
X2503567Y1280007D01*
X2491893Y1268333D01*
X2485575Y1253080D01*
Y1236570D01*
X2491893Y1221317D01*
X2503567Y1209643D01*
X2518820Y1203325D01*
X2535329D01*
X2550582Y1209643D01*
X2562256Y1221317D01*
X2568574Y1236570D01*
Y1253080D01*
X2562256Y1268333D01*
X2550582Y1280007D01*
X2535329Y1286325D01*
D02*
G37*
G36*
X2761427Y1231900D02*
X2717800D01*
Y1188273D01*
X2737331Y1196363D01*
X2753337Y1212369D01*
X2761427Y1231900D01*
D02*
G37*
G36*
X2692400D02*
X2648773D01*
X2656863Y1212369D01*
X2672869Y1196363D01*
X2692400Y1188273D01*
Y1231900D01*
D02*
G37*
G36*
X3231327Y1206500D02*
X3187700D01*
Y1162873D01*
X3207231Y1170963D01*
X3223237Y1186969D01*
X3231327Y1206500D01*
D02*
G37*
G36*
X3162300D02*
X3118673D01*
X3126763Y1186969D01*
X3142769Y1170963D01*
X3162300Y1162873D01*
Y1206500D01*
D02*
G37*
G36*
X3887003Y1152238D02*
X3869702D01*
Y1078802D01*
X3971467D01*
X3970204Y1088395D01*
X3961599Y1109170D01*
X3947911Y1127009D01*
X3930071Y1140698D01*
X3909296Y1149303D01*
X3887003Y1152238D01*
D02*
G37*
G36*
X3495970Y1265005D02*
X3482045D01*
X3474242Y1263452D01*
X3461377Y1258124D01*
X3454762Y1253703D01*
X3444916Y1243857D01*
X3440495Y1237242D01*
X3435167Y1224377D01*
X3433614Y1216574D01*
Y1202649D01*
X3435167Y1194845D01*
X3440495Y1181981D01*
X3444916Y1175366D01*
X3454762Y1165519D01*
X3461377Y1161099D01*
X3470803Y1157195D01*
X3468814Y1147195D01*
X3449688D01*
Y1078802D01*
X3561410D01*
X3560319Y1087090D01*
X3552217Y1106648D01*
X3539330Y1123443D01*
X3522535Y1136330D01*
X3502977Y1144432D01*
X3499999Y1144824D01*
X3499667Y1154954D01*
X3503774Y1155771D01*
X3516638Y1161099D01*
X3523253Y1165519D01*
X3533100Y1175365D01*
X3537520Y1181981D01*
X3542848Y1194845D01*
X3544401Y1202649D01*
Y1216574D01*
X3542848Y1224377D01*
X3537520Y1237242D01*
X3533100Y1243857D01*
X3523254Y1253703D01*
X3516638Y1258124D01*
X3503774Y1263452D01*
X3495970Y1265005D01*
D02*
G37*
G36*
X3844302Y1152238D02*
X3827003D01*
X3804709Y1149303D01*
X3783935Y1140698D01*
X3766095Y1127009D01*
X3752406Y1109170D01*
X3743801Y1088395D01*
X3742538Y1078802D01*
X3844302D01*
Y1152238D01*
D02*
G37*
G36*
X3424288Y1147195D02*
X3391988D01*
X3371000Y1144432D01*
X3351442Y1136330D01*
X3334647Y1123443D01*
X3321759Y1106648D01*
X3313658Y1087090D01*
X3312567Y1078802D01*
X3424288D01*
Y1147195D01*
D02*
G37*
G36*
X2954655Y1146400D02*
X2938145D01*
X2922892Y1140082D01*
X2911218Y1128408D01*
X2904900Y1113155D01*
Y1096645D01*
X2911218Y1081392D01*
X2922892Y1069718D01*
X2938145Y1063400D01*
X2954655D01*
X2969908Y1069718D01*
X2981582Y1081392D01*
X2987900Y1096645D01*
Y1113155D01*
X2981582Y1128408D01*
X2969908Y1140082D01*
X2954655Y1146400D01*
D02*
G37*
G36*
X3561410Y1053402D02*
X3449688D01*
Y985008D01*
X3481988D01*
X3502977Y987771D01*
X3522535Y995873D01*
X3539330Y1008760D01*
X3552217Y1025555D01*
X3560319Y1045113D01*
X3561410Y1053402D01*
D02*
G37*
G36*
X3424288D02*
X3312567D01*
X3313658Y1045113D01*
X3321759Y1025555D01*
X3334647Y1008760D01*
X3351442Y995873D01*
X3371000Y987771D01*
X3391988Y985008D01*
X3424288D01*
Y1053402D01*
D02*
G37*
G36*
X3971468D02*
X3869702D01*
Y979965D01*
X3887003D01*
X3909296Y982900D01*
X3930071Y991505D01*
X3947911Y1005194D01*
X3961599Y1023033D01*
X3970204Y1043808D01*
X3971468Y1053402D01*
D02*
G37*
G36*
X3844302D02*
X3742538D01*
X3743801Y1043808D01*
X3752406Y1023033D01*
X3766095Y1005194D01*
X3783935Y991505D01*
X3804709Y982900D01*
X3827003Y979965D01*
X3844302D01*
Y1053402D01*
D02*
G37*
G36*
X3927596Y952626D02*
Y908998D01*
X3971224D01*
X3963134Y928530D01*
X3947127Y944536D01*
X3927596Y952626D01*
D02*
G37*
G36*
X3902196D02*
X3882665Y944536D01*
X3866659Y928530D01*
X3858569Y908998D01*
X3902196D01*
Y952626D01*
D02*
G37*
G36*
X1227597D02*
Y908998D01*
X1271225D01*
X1263135Y928530D01*
X1247128Y944536D01*
X1227597Y952626D01*
D02*
G37*
G36*
X1202197D02*
X1182666Y944536D01*
X1166660Y928530D01*
X1158570Y908998D01*
X1202197D01*
Y952626D01*
D02*
G37*
G36*
X327598D02*
Y908998D01*
X371225D01*
X363135Y928530D01*
X347129Y944536D01*
X327598Y952626D01*
D02*
G37*
G36*
X302198D02*
X282666Y944536D01*
X266660Y928530D01*
X258570Y908998D01*
X302198D01*
Y952626D01*
D02*
G37*
G36*
X2627582Y1077054D02*
X2604818D01*
X2582830Y1071162D01*
X2563116Y1059780D01*
X2547020Y1043684D01*
X2535638Y1023970D01*
X2529746Y1001982D01*
Y979218D01*
X2535638Y957230D01*
X2547020Y937516D01*
X2563116Y921420D01*
X2582830Y910038D01*
X2604818Y904146D01*
X2627582D01*
X2649570Y910038D01*
X2669284Y921420D01*
X2685380Y937516D01*
X2696762Y957230D01*
X2702654Y979218D01*
Y1001982D01*
X2696762Y1023970D01*
X2685380Y1043684D01*
X2669284Y1059780D01*
X2649570Y1071162D01*
X2627582Y1077054D01*
D02*
G37*
G36*
X2373582D02*
X2350818D01*
X2328830Y1071162D01*
X2309116Y1059780D01*
X2293020Y1043684D01*
X2281638Y1023970D01*
X2275746Y1001982D01*
Y979218D01*
X2281638Y957230D01*
X2293020Y937516D01*
X2309116Y921420D01*
X2328830Y910038D01*
X2350818Y904146D01*
X2373582D01*
X2395570Y910038D01*
X2415284Y921420D01*
X2431380Y937516D01*
X2442762Y957230D01*
X2448654Y979218D01*
Y1001982D01*
X2442762Y1023970D01*
X2431380Y1043684D01*
X2415284Y1059780D01*
X2395570Y1071162D01*
X2373582Y1077054D01*
D02*
G37*
G36*
X2119582D02*
X2096818D01*
X2074830Y1071162D01*
X2055116Y1059780D01*
X2039020Y1043684D01*
X2027638Y1023970D01*
X2021746Y1001982D01*
Y979218D01*
X2027638Y957230D01*
X2039020Y937516D01*
X2055116Y921420D01*
X2074830Y910038D01*
X2096818Y904146D01*
X2119582D01*
X2141570Y910038D01*
X2161284Y921420D01*
X2177380Y937516D01*
X2188762Y957230D01*
X2194654Y979218D01*
Y1001982D01*
X2188762Y1023970D01*
X2177380Y1043684D01*
X2161284Y1059780D01*
X2141570Y1071162D01*
X2119582Y1077054D01*
D02*
G37*
G36*
X1865582D02*
X1842818D01*
X1820830Y1071162D01*
X1801116Y1059780D01*
X1785020Y1043684D01*
X1773638Y1023970D01*
X1767746Y1001982D01*
Y979218D01*
X1773638Y957230D01*
X1785020Y937516D01*
X1801116Y921420D01*
X1820830Y910038D01*
X1842818Y904146D01*
X1865582D01*
X1887570Y910038D01*
X1907284Y921420D01*
X1923380Y937516D01*
X1934762Y957230D01*
X1940654Y979218D01*
Y1001982D01*
X1934762Y1023970D01*
X1923380Y1043684D01*
X1907284Y1059780D01*
X1887570Y1071162D01*
X1865582Y1077054D01*
D02*
G37*
G36*
X1611582D02*
X1588818D01*
X1566830Y1071162D01*
X1547116Y1059780D01*
X1531020Y1043684D01*
X1519638Y1023970D01*
X1513746Y1001982D01*
Y979218D01*
X1519638Y957230D01*
X1531020Y937516D01*
X1547116Y921420D01*
X1566830Y910038D01*
X1588818Y904146D01*
X1611582D01*
X1633570Y910038D01*
X1653284Y921420D01*
X1669380Y937516D01*
X1680762Y957230D01*
X1686654Y979218D01*
Y1001982D01*
X1680762Y1023970D01*
X1669380Y1043684D01*
X1653284Y1059780D01*
X1633570Y1071162D01*
X1611582Y1077054D01*
D02*
G37*
G36*
X1357582D02*
X1334818D01*
X1312830Y1071162D01*
X1293116Y1059780D01*
X1277020Y1043684D01*
X1265638Y1023970D01*
X1259746Y1001982D01*
Y979218D01*
X1265638Y957230D01*
X1277020Y937516D01*
X1293116Y921420D01*
X1312830Y910038D01*
X1334818Y904146D01*
X1357582D01*
X1379570Y910038D01*
X1399284Y921420D01*
X1415380Y937516D01*
X1426762Y957230D01*
X1432654Y979218D01*
Y1001982D01*
X1426762Y1023970D01*
X1415380Y1043684D01*
X1399284Y1059780D01*
X1379570Y1071162D01*
X1357582Y1077054D01*
D02*
G37*
G36*
X1103582D02*
X1080818D01*
X1058830Y1071162D01*
X1039116Y1059780D01*
X1023020Y1043684D01*
X1011638Y1023970D01*
X1005746Y1001982D01*
Y979218D01*
X1011638Y957230D01*
X1023020Y937516D01*
X1039116Y921420D01*
X1058830Y910038D01*
X1080818Y904146D01*
X1103582D01*
X1125570Y910038D01*
X1145284Y921420D01*
X1161380Y937516D01*
X1172762Y957230D01*
X1178654Y979218D01*
Y1001982D01*
X1172762Y1023970D01*
X1161380Y1043684D01*
X1145284Y1059780D01*
X1125570Y1071162D01*
X1103582Y1077054D01*
D02*
G37*
G36*
X849582D02*
X826818D01*
X804830Y1071162D01*
X785116Y1059780D01*
X769020Y1043684D01*
X757638Y1023970D01*
X751746Y1001982D01*
Y979218D01*
X757638Y957230D01*
X769020Y937516D01*
X785116Y921420D01*
X804830Y910038D01*
X826818Y904146D01*
X849582D01*
X871570Y910038D01*
X891284Y921420D01*
X907380Y937516D01*
X918762Y957230D01*
X924654Y979218D01*
Y1001982D01*
X918762Y1023970D01*
X907380Y1043684D01*
X891284Y1059780D01*
X871570Y1071162D01*
X849582Y1077054D01*
D02*
G37*
G36*
X2936198Y953643D02*
X2933700D01*
Y850900D01*
X3036443D01*
Y853398D01*
X3028576Y882759D01*
X3013378Y909084D01*
X2991884Y930578D01*
X2965559Y945776D01*
X2936198Y953643D01*
D02*
G37*
G36*
X2908300D02*
X2905802D01*
X2876441Y945776D01*
X2850116Y930578D01*
X2828622Y909084D01*
X2813424Y882759D01*
X2805557Y853398D01*
Y850900D01*
X2908300D01*
Y953643D01*
D02*
G37*
G36*
X3971224Y883598D02*
X3927596D01*
Y839971D01*
X3947127Y848061D01*
X3963134Y864067D01*
X3971224Y883598D01*
D02*
G37*
G36*
X3902196D02*
X3858569D01*
X3866659Y864067D01*
X3882665Y848061D01*
X3902196Y839971D01*
Y883598D01*
D02*
G37*
G36*
X1271225D02*
X1227597D01*
Y839971D01*
X1247128Y848061D01*
X1263135Y864067D01*
X1271225Y883598D01*
D02*
G37*
G36*
X1202197D02*
X1158570D01*
X1166660Y864067D01*
X1182666Y848061D01*
X1202197Y839971D01*
Y883598D01*
D02*
G37*
G36*
X371225D02*
X327598D01*
Y839971D01*
X347129Y848061D01*
X363135Y864067D01*
X371225Y883598D01*
D02*
G37*
G36*
X302198D02*
X258570D01*
X266660Y864067D01*
X282666Y848061D01*
X302198Y839971D01*
Y883598D01*
D02*
G37*
G36*
X3442171Y938243D02*
X3415829D01*
X3390385Y931425D01*
X3367572Y918254D01*
X3348946Y899628D01*
X3335775Y876815D01*
X3328957Y851371D01*
Y825029D01*
X3335775Y799585D01*
X3348946Y776772D01*
X3367572Y758146D01*
X3390385Y744975D01*
X3415829Y738157D01*
X3442171D01*
X3467615Y744975D01*
X3490428Y758146D01*
X3509054Y776772D01*
X3522225Y799585D01*
X3529043Y825029D01*
Y851371D01*
X3522225Y876815D01*
X3509054Y899628D01*
X3490428Y918254D01*
X3467615Y931425D01*
X3442171Y938243D01*
D02*
G37*
G36*
X3188171D02*
X3161829D01*
X3136385Y931425D01*
X3113572Y918254D01*
X3094946Y899628D01*
X3081775Y876815D01*
X3074957Y851371D01*
Y825029D01*
X3081775Y799585D01*
X3094946Y776772D01*
X3113572Y758146D01*
X3136385Y744975D01*
X3161829Y738157D01*
X3188171D01*
X3213615Y744975D01*
X3236428Y758146D01*
X3255054Y776772D01*
X3268225Y799585D01*
X3275043Y825029D01*
Y851371D01*
X3268225Y876815D01*
X3255054Y899628D01*
X3236428Y918254D01*
X3213615Y931425D01*
X3188171Y938243D01*
D02*
G37*
G36*
X3975100Y780227D02*
Y736600D01*
X4018727D01*
X4010637Y756131D01*
X3994631Y772137D01*
X3975100Y780227D01*
D02*
G37*
G36*
X3949700D02*
X3930169Y772137D01*
X3914163Y756131D01*
X3906073Y736600D01*
X3949700D01*
Y780227D01*
D02*
G37*
G36*
X203911Y766820D02*
Y723193D01*
X247538D01*
X239448Y742724D01*
X223442Y758731D01*
X203911Y766820D01*
D02*
G37*
G36*
X178511D02*
X158980Y758731D01*
X142974Y742724D01*
X134884Y723193D01*
X178511D01*
Y766820D01*
D02*
G37*
G36*
X3036443Y825500D02*
X2933700D01*
Y722757D01*
X2936198D01*
X2965559Y730624D01*
X2991884Y745822D01*
X3013378Y767316D01*
X3028576Y793641D01*
X3036443Y823002D01*
Y825500D01*
D02*
G37*
G36*
X2908300D02*
X2805557D01*
Y823002D01*
X2813424Y793641D01*
X2828622Y767316D01*
X2850116Y745822D01*
X2876441Y730624D01*
X2905802Y722757D01*
X2908300D01*
Y825500D01*
D02*
G37*
G36*
X4018727Y711200D02*
X3975100D01*
Y667573D01*
X3994631Y675663D01*
X4010637Y691669D01*
X4018727Y711200D01*
D02*
G37*
G36*
X3949700D02*
X3906073D01*
X3914163Y691669D01*
X3930169Y675663D01*
X3949700Y667573D01*
Y711200D01*
D02*
G37*
G36*
X247538Y697793D02*
X203911D01*
Y654166D01*
X223442Y662256D01*
X239448Y678262D01*
X247538Y697793D01*
D02*
G37*
G36*
X178511D02*
X134884D01*
X142974Y678262D01*
X158980Y662256D01*
X178511Y654166D01*
Y697793D01*
D02*
G37*
G36*
X2627582Y823054D02*
X2604818D01*
X2582830Y817162D01*
X2563116Y805780D01*
X2547020Y789684D01*
X2535638Y769970D01*
X2529746Y747982D01*
Y725218D01*
X2535638Y703230D01*
X2547020Y683516D01*
X2563116Y667420D01*
X2582830Y656038D01*
X2604818Y650146D01*
X2627582D01*
X2649570Y656038D01*
X2669284Y667420D01*
X2685380Y683516D01*
X2696762Y703230D01*
X2702654Y725218D01*
Y747982D01*
X2696762Y769970D01*
X2685380Y789684D01*
X2669284Y805780D01*
X2649570Y817162D01*
X2627582Y823054D01*
D02*
G37*
G36*
X2373582D02*
X2350818D01*
X2328830Y817162D01*
X2309116Y805780D01*
X2293020Y789684D01*
X2281638Y769970D01*
X2275746Y747982D01*
Y725218D01*
X2281638Y703230D01*
X2293020Y683516D01*
X2309116Y667420D01*
X2328830Y656038D01*
X2350818Y650146D01*
X2373582D01*
X2395570Y656038D01*
X2415284Y667420D01*
X2431380Y683516D01*
X2442762Y703230D01*
X2448654Y725218D01*
Y747982D01*
X2442762Y769970D01*
X2431380Y789684D01*
X2415284Y805780D01*
X2395570Y817162D01*
X2373582Y823054D01*
D02*
G37*
G36*
X2119582D02*
X2096818D01*
X2074830Y817162D01*
X2055116Y805780D01*
X2039020Y789684D01*
X2027638Y769970D01*
X2021746Y747982D01*
Y725218D01*
X2027638Y703230D01*
X2039020Y683516D01*
X2055116Y667420D01*
X2074830Y656038D01*
X2096818Y650146D01*
X2119582D01*
X2141570Y656038D01*
X2161284Y667420D01*
X2177380Y683516D01*
X2188762Y703230D01*
X2194654Y725218D01*
Y747982D01*
X2188762Y769970D01*
X2177380Y789684D01*
X2161284Y805780D01*
X2141570Y817162D01*
X2119582Y823054D01*
D02*
G37*
G36*
X1865582D02*
X1842818D01*
X1820830Y817162D01*
X1801116Y805780D01*
X1785020Y789684D01*
X1773638Y769970D01*
X1767746Y747982D01*
Y725218D01*
X1773638Y703230D01*
X1785020Y683516D01*
X1801116Y667420D01*
X1820830Y656038D01*
X1842818Y650146D01*
X1865582D01*
X1887570Y656038D01*
X1907284Y667420D01*
X1923380Y683516D01*
X1934762Y703230D01*
X1940654Y725218D01*
Y747982D01*
X1934762Y769970D01*
X1923380Y789684D01*
X1907284Y805780D01*
X1887570Y817162D01*
X1865582Y823054D01*
D02*
G37*
G36*
X1611582D02*
X1588818D01*
X1566830Y817162D01*
X1547116Y805780D01*
X1531020Y789684D01*
X1519638Y769970D01*
X1513746Y747982D01*
Y725218D01*
X1519638Y703230D01*
X1531020Y683516D01*
X1547116Y667420D01*
X1566830Y656038D01*
X1588818Y650146D01*
X1611582D01*
X1633570Y656038D01*
X1653284Y667420D01*
X1669380Y683516D01*
X1680762Y703230D01*
X1686654Y725218D01*
Y747982D01*
X1680762Y769970D01*
X1669380Y789684D01*
X1653284Y805780D01*
X1633570Y817162D01*
X1611582Y823054D01*
D02*
G37*
G36*
X1357582D02*
X1334818D01*
X1312830Y817162D01*
X1293116Y805780D01*
X1277020Y789684D01*
X1265638Y769970D01*
X1259746Y747982D01*
Y725218D01*
X1265638Y703230D01*
X1277020Y683516D01*
X1293116Y667420D01*
X1312830Y656038D01*
X1334818Y650146D01*
X1357582D01*
X1379570Y656038D01*
X1399284Y667420D01*
X1415380Y683516D01*
X1426762Y703230D01*
X1432654Y725218D01*
Y747982D01*
X1426762Y769970D01*
X1415380Y789684D01*
X1399284Y805780D01*
X1379570Y817162D01*
X1357582Y823054D01*
D02*
G37*
G36*
X1103582D02*
X1080818D01*
X1058830Y817162D01*
X1039116Y805780D01*
X1023020Y789684D01*
X1011638Y769970D01*
X1005746Y747982D01*
Y725218D01*
X1011638Y703230D01*
X1023020Y683516D01*
X1039116Y667420D01*
X1058830Y656038D01*
X1080818Y650146D01*
X1103582D01*
X1125570Y656038D01*
X1145284Y667420D01*
X1161380Y683516D01*
X1172762Y703230D01*
X1178654Y725218D01*
Y747982D01*
X1172762Y769970D01*
X1161380Y789684D01*
X1145284Y805780D01*
X1125570Y817162D01*
X1103582Y823054D01*
D02*
G37*
G36*
X849582D02*
X826818D01*
X804830Y817162D01*
X785116Y805780D01*
X769020Y789684D01*
X757638Y769970D01*
X751746Y747982D01*
Y725218D01*
X757638Y703230D01*
X769020Y683516D01*
X785116Y667420D01*
X804830Y656038D01*
X826818Y650146D01*
X849582D01*
X871570Y656038D01*
X891284Y667420D01*
X907380Y683516D01*
X918762Y703230D01*
X924654Y725218D01*
Y747982D01*
X918762Y769970D01*
X907380Y789684D01*
X891284Y805780D01*
X871570Y817162D01*
X849582Y823054D01*
D02*
G37*
G36*
X2629609Y584454D02*
X2628900D01*
Y495300D01*
X2718054D01*
Y496009D01*
X2711113Y521914D01*
X2697704Y545140D01*
X2678740Y564104D01*
X2655514Y577513D01*
X2629609Y584454D01*
D02*
G37*
G36*
X2603500D02*
X2602791D01*
X2576886Y577513D01*
X2553660Y564104D01*
X2534696Y545140D01*
X2521287Y521914D01*
X2514346Y496009D01*
Y495300D01*
X2603500D01*
Y584454D01*
D02*
G37*
G36*
X2375609D02*
X2374900D01*
Y495300D01*
X2464054D01*
Y496009D01*
X2457113Y521914D01*
X2443704Y545140D01*
X2424740Y564104D01*
X2401514Y577513D01*
X2375609Y584454D01*
D02*
G37*
G36*
X2349500D02*
X2348791D01*
X2322886Y577513D01*
X2299660Y564104D01*
X2280696Y545140D01*
X2267287Y521914D01*
X2260346Y496009D01*
Y495300D01*
X2349500D01*
Y584454D01*
D02*
G37*
G36*
X2121609D02*
X2120900D01*
Y495300D01*
X2210054D01*
Y496009D01*
X2203113Y521914D01*
X2189704Y545140D01*
X2170740Y564104D01*
X2147514Y577513D01*
X2121609Y584454D01*
D02*
G37*
G36*
X2095500D02*
X2094791D01*
X2068886Y577513D01*
X2045660Y564104D01*
X2026696Y545140D01*
X2013287Y521914D01*
X2006346Y496009D01*
Y495300D01*
X2095500D01*
Y584454D01*
D02*
G37*
G36*
X1867609D02*
X1866900D01*
Y495300D01*
X1956054D01*
Y496009D01*
X1949113Y521914D01*
X1935704Y545140D01*
X1916740Y564104D01*
X1893514Y577513D01*
X1867609Y584454D01*
D02*
G37*
G36*
X1841500D02*
X1840791D01*
X1814886Y577513D01*
X1791660Y564104D01*
X1772696Y545140D01*
X1759287Y521914D01*
X1752346Y496009D01*
Y495300D01*
X1841500D01*
Y584454D01*
D02*
G37*
G36*
X1613609D02*
X1612900D01*
Y495300D01*
X1702054D01*
Y496009D01*
X1695113Y521914D01*
X1681704Y545140D01*
X1662740Y564104D01*
X1639514Y577513D01*
X1613609Y584454D01*
D02*
G37*
G36*
X1587500D02*
X1586791D01*
X1560886Y577513D01*
X1537660Y564104D01*
X1518696Y545140D01*
X1505287Y521914D01*
X1498346Y496009D01*
Y495300D01*
X1587500D01*
Y584454D01*
D02*
G37*
G36*
X1359609D02*
X1358900D01*
Y495300D01*
X1448054D01*
Y496009D01*
X1441113Y521914D01*
X1427704Y545140D01*
X1408740Y564104D01*
X1385514Y577513D01*
X1359609Y584454D01*
D02*
G37*
G36*
X1333500D02*
X1332791D01*
X1306886Y577513D01*
X1283660Y564104D01*
X1264696Y545140D01*
X1251287Y521914D01*
X1244346Y496009D01*
Y495300D01*
X1333500D01*
Y584454D01*
D02*
G37*
G36*
X1105609D02*
X1104900D01*
Y495300D01*
X1194054D01*
Y496009D01*
X1187113Y521914D01*
X1173704Y545140D01*
X1154740Y564104D01*
X1131514Y577513D01*
X1105609Y584454D01*
D02*
G37*
G36*
X1079500D02*
X1078791D01*
X1052886Y577513D01*
X1029660Y564104D01*
X1010696Y545140D01*
X997287Y521914D01*
X990346Y496009D01*
Y495300D01*
X1079500D01*
Y584454D01*
D02*
G37*
G36*
X940054D02*
X850900D01*
Y495300D01*
X940054D01*
Y584454D01*
D02*
G37*
G36*
X825500D02*
X736346D01*
Y495300D01*
X825500D01*
Y584454D01*
D02*
G37*
G36*
X3442171Y684243D02*
X3415829D01*
X3390385Y677425D01*
X3367572Y664254D01*
X3348946Y645628D01*
X3335775Y622815D01*
X3328957Y597371D01*
Y571029D01*
X3335775Y545585D01*
X3348946Y522772D01*
X3367572Y504146D01*
X3390385Y490975D01*
X3415829Y484157D01*
X3442171D01*
X3467615Y490975D01*
X3490428Y504146D01*
X3509054Y522772D01*
X3522225Y545585D01*
X3529043Y571029D01*
Y597371D01*
X3522225Y622815D01*
X3509054Y645628D01*
X3490428Y664254D01*
X3467615Y677425D01*
X3442171Y684243D01*
D02*
G37*
G36*
X3188171D02*
X3161829D01*
X3136385Y677425D01*
X3113572Y664254D01*
X3094946Y645628D01*
X3081775Y622815D01*
X3074957Y597371D01*
Y571029D01*
X3081775Y545585D01*
X3094946Y522772D01*
X3113572Y504146D01*
X3136385Y490975D01*
X3161829Y484157D01*
X3188171D01*
X3213615Y490975D01*
X3236428Y504146D01*
X3255054Y522772D01*
X3268225Y545585D01*
X3275043Y571029D01*
Y597371D01*
X3268225Y622815D01*
X3255054Y645628D01*
X3236428Y664254D01*
X3213615Y677425D01*
X3188171Y684243D01*
D02*
G37*
G36*
X3021043D02*
X2820957D01*
Y484157D01*
X3021043D01*
Y684243D01*
D02*
G37*
G36*
X2718054Y469900D02*
X2628900D01*
Y380746D01*
X2629609D01*
X2655514Y387687D01*
X2678740Y401096D01*
X2697704Y420060D01*
X2711113Y443286D01*
X2718054Y469191D01*
Y469900D01*
D02*
G37*
G36*
X2603500D02*
X2514346D01*
Y469191D01*
X2521287Y443286D01*
X2534696Y420060D01*
X2553660Y401096D01*
X2576886Y387687D01*
X2602791Y380746D01*
X2603500D01*
Y469900D01*
D02*
G37*
G36*
X2464054D02*
X2374900D01*
Y380746D01*
X2375609D01*
X2401514Y387687D01*
X2424740Y401096D01*
X2443704Y420060D01*
X2457113Y443286D01*
X2464054Y469191D01*
Y469900D01*
D02*
G37*
G36*
X2349500D02*
X2260346D01*
Y469191D01*
X2267287Y443286D01*
X2280696Y420060D01*
X2299660Y401096D01*
X2322886Y387687D01*
X2348791Y380746D01*
X2349500D01*
Y469900D01*
D02*
G37*
G36*
X2210054D02*
X2120900D01*
Y380746D01*
X2121609D01*
X2147514Y387687D01*
X2170740Y401096D01*
X2189704Y420060D01*
X2203113Y443286D01*
X2210054Y469191D01*
Y469900D01*
D02*
G37*
G36*
X2095500D02*
X2006346D01*
Y469191D01*
X2013287Y443286D01*
X2026696Y420060D01*
X2045660Y401096D01*
X2068886Y387687D01*
X2094791Y380746D01*
X2095500D01*
Y469900D01*
D02*
G37*
G36*
X1956054D02*
X1866900D01*
Y380746D01*
X1867609D01*
X1893514Y387687D01*
X1916740Y401096D01*
X1935704Y420060D01*
X1949113Y443286D01*
X1956054Y469191D01*
Y469900D01*
D02*
G37*
G36*
X1841500D02*
X1752346D01*
Y469191D01*
X1759287Y443286D01*
X1772696Y420060D01*
X1791660Y401096D01*
X1814886Y387687D01*
X1840791Y380746D01*
X1841500D01*
Y469900D01*
D02*
G37*
G36*
X1702054D02*
X1612900D01*
Y380746D01*
X1613609D01*
X1639514Y387687D01*
X1662740Y401096D01*
X1681704Y420060D01*
X1695113Y443286D01*
X1702054Y469191D01*
Y469900D01*
D02*
G37*
G36*
X1587500D02*
X1498346D01*
Y469191D01*
X1505287Y443286D01*
X1518696Y420060D01*
X1537660Y401096D01*
X1560886Y387687D01*
X1586791Y380746D01*
X1587500D01*
Y469900D01*
D02*
G37*
G36*
X1448054D02*
X1358900D01*
Y380746D01*
X1359609D01*
X1385514Y387687D01*
X1408740Y401096D01*
X1427704Y420060D01*
X1441113Y443286D01*
X1448054Y469191D01*
Y469900D01*
D02*
G37*
G36*
X1333500D02*
X1244346D01*
Y469191D01*
X1251287Y443286D01*
X1264696Y420060D01*
X1283660Y401096D01*
X1306886Y387687D01*
X1332791Y380746D01*
X1333500D01*
Y469900D01*
D02*
G37*
G36*
X1194054D02*
X1104900D01*
Y380746D01*
X1105609D01*
X1131514Y387687D01*
X1154740Y401096D01*
X1173704Y420060D01*
X1187113Y443286D01*
X1194054Y469191D01*
Y469900D01*
D02*
G37*
G36*
X1079500D02*
X990346D01*
Y469191D01*
X997287Y443286D01*
X1010696Y420060D01*
X1029660Y401096D01*
X1052886Y387687D01*
X1078791Y380746D01*
X1079500D01*
Y469900D01*
D02*
G37*
G36*
X940054D02*
X850900D01*
Y380746D01*
X940054D01*
Y469900D01*
D02*
G37*
G36*
X825500D02*
X736346D01*
Y380746D01*
X825500D01*
Y469900D01*
D02*
G37*
G36*
X3327597Y352626D02*
Y308999D01*
X3371224D01*
X3363134Y328530D01*
X3347128Y344536D01*
X3327597Y352626D01*
D02*
G37*
G36*
X3302197D02*
X3282666Y344536D01*
X3266659Y328530D01*
X3258569Y308999D01*
X3302197D01*
Y352626D01*
D02*
G37*
G36*
X3027597D02*
Y308999D01*
X3071224D01*
X3063134Y328530D01*
X3047128Y344536D01*
X3027597Y352626D01*
D02*
G37*
G36*
X3002197D02*
X2982666Y344536D01*
X2966659Y328530D01*
X2958569Y308999D01*
X3002197D01*
Y352626D01*
D02*
G37*
G36*
X3371224Y283599D02*
X3327597D01*
Y239971D01*
X3347128Y248061D01*
X3363134Y264068D01*
X3371224Y283599D01*
D02*
G37*
G36*
X3302197D02*
X3258569D01*
X3266659Y264068D01*
X3282666Y248061D01*
X3302197Y239971D01*
Y283599D01*
D02*
G37*
G36*
X3071224D02*
X3027597D01*
Y239971D01*
X3047128Y248061D01*
X3063134Y264068D01*
X3071224Y283599D01*
D02*
G37*
G36*
X3002197D02*
X2958569D01*
X2966659Y264068D01*
X2982666Y248061D01*
X3002197Y239971D01*
Y283599D01*
D02*
G37*
G36*
X3200400Y221427D02*
Y177800D01*
X3244027D01*
X3235937Y197331D01*
X3219931Y213337D01*
X3200400Y221427D01*
D02*
G37*
G36*
X3175000D02*
X3155469Y213337D01*
X3139463Y197331D01*
X3131373Y177800D01*
X3175000D01*
Y221427D01*
D02*
G37*
G36*
X3848308Y641000D02*
X3797092D01*
X3746861Y631008D01*
X3699544Y611409D01*
X3656960Y582955D01*
X3620745Y546740D01*
X3592291Y504156D01*
X3572692Y456839D01*
X3562700Y406608D01*
Y355392D01*
X3572692Y305161D01*
X3592291Y257844D01*
X3620745Y215260D01*
X3656960Y179045D01*
X3699544Y150591D01*
X3746861Y130992D01*
X3797092Y121000D01*
X3848308D01*
X3898539Y130992D01*
X3945856Y150591D01*
X3988440Y179045D01*
X4024655Y215260D01*
X4053109Y257844D01*
X4072708Y305161D01*
X4082700Y355392D01*
Y406608D01*
X4072708Y456839D01*
X4053109Y504156D01*
X4024655Y546740D01*
X3988440Y582955D01*
X3945856Y611409D01*
X3898539Y631008D01*
X3848308Y641000D01*
D02*
G37*
G36*
X381208D02*
X329992D01*
X279761Y631008D01*
X232444Y611409D01*
X189860Y582955D01*
X153645Y546740D01*
X125191Y504156D01*
X105592Y456839D01*
X95600Y406608D01*
Y355392D01*
X105592Y305161D01*
X125191Y257844D01*
X153645Y215260D01*
X189860Y179045D01*
X232444Y150591D01*
X279761Y130992D01*
X329992Y121000D01*
X381208D01*
X431439Y130992D01*
X478756Y150591D01*
X521340Y179045D01*
X557555Y215260D01*
X586009Y257844D01*
X605608Y305161D01*
X615600Y355392D01*
Y406608D01*
X605608Y456839D01*
X586009Y504156D01*
X557555Y546740D01*
X521340Y582955D01*
X478756Y611409D01*
X431439Y631008D01*
X381208Y641000D01*
D02*
G37*
G36*
X3244027Y152400D02*
X3200400D01*
Y108773D01*
X3219931Y116863D01*
X3235937Y132869D01*
X3244027Y152400D01*
D02*
G37*
G36*
X3175000D02*
X3131373D01*
X3139463Y132869D01*
X3155469Y116863D01*
X3175000Y108773D01*
Y152400D01*
D02*
G37*
%LPD*%
D43*
X2921000Y838200D02*
D03*
D44*
X838200Y482600D02*
D03*
D45*
X1092200D02*
D03*
X1346200D02*
D03*
X1600200D02*
D03*
X2108200D02*
D03*
X1854200D02*
D03*
X2362200D02*
D03*
X2616200D02*
D03*
D46*
X3436988Y1066101D02*
D03*
Y1931099D02*
D03*
D47*
X3857003Y1066101D02*
D03*
Y1931099D02*
D03*
D50*
X2810558Y1678685D02*
D03*
X1406500Y3644900D02*
D03*
X1163908Y2469053D02*
D03*
X990601Y3393500D02*
D03*
X1013000Y2181326D02*
D03*
Y1987325D02*
D03*
X431800Y1892300D02*
D03*
X3924300Y2984500D02*
D03*
X3915910Y3203495D02*
D03*
X2094948Y2317600D02*
D03*
X1856077Y2346100D02*
D03*
X3470808Y4431388D02*
D03*
X614897Y4496297D02*
D03*
X314898D02*
D03*
X3614897D02*
D03*
X1964897Y4196297D02*
D03*
X3314897Y296299D02*
D03*
X3914896Y896298D02*
D03*
X3014897Y296299D02*
D03*
X314898Y896298D02*
D03*
X3914896Y4496297D02*
D03*
X3764896Y1796298D02*
D03*
X764897Y4196297D02*
D03*
X3764896D02*
D03*
X1964897Y4796297D02*
D03*
X1214897Y896298D02*
D03*
X464897Y4196297D02*
D03*
X1964897Y2396298D02*
D03*
X4064896Y3596298D02*
D03*
X764897Y4796297D02*
D03*
X914897Y4496297D02*
D03*
X764897Y3596298D02*
D03*
X3503767Y4329239D02*
D03*
X2414897Y4496297D02*
D03*
X3764896Y2996298D02*
D03*
X609600Y3378200D02*
D03*
X650400Y3175096D02*
D03*
X177800Y2400300D02*
D03*
Y2832100D02*
D03*
Y2616200D02*
D03*
Y3048000D02*
D03*
X191211Y710493D02*
D03*
X156258Y1640585D02*
D03*
X393700Y1625600D02*
D03*
X168958Y1894585D02*
D03*
X647700Y1371600D02*
D03*
X939800Y1358900D02*
D03*
X177800Y2184400D02*
D03*
X752000Y2286096D02*
D03*
X764700Y2705196D02*
D03*
X1371600Y2082800D02*
D03*
Y1714500D02*
D03*
X1536700Y1549400D02*
D03*
X1562100Y2095500D02*
D03*
X1430000Y2380600D02*
D03*
X1434254Y2146697D02*
D03*
X2298700Y1663700D02*
D03*
X1714500Y1727200D02*
D03*
X1944242Y2030970D02*
D03*
X1537842Y2577070D02*
D03*
X1612900Y2882900D02*
D03*
X1828800Y2908300D02*
D03*
X2032000Y3111500D02*
D03*
X1571035Y3203400D02*
D03*
X2057400Y2603500D02*
D03*
X2247900Y2781300D02*
D03*
X2051745Y2879900D02*
D03*
X2339009Y3200815D02*
D03*
X203200Y3670300D02*
D03*
Y3441700D02*
D03*
X929800Y3759296D02*
D03*
X1270000Y3263900D02*
D03*
X1453771Y3269243D02*
D03*
X1525293Y3642610D02*
D03*
X1286100Y4584700D02*
D03*
X1247163Y5112231D02*
D03*
X1298100Y3873596D02*
D03*
X1736639Y3692066D02*
D03*
X1798750Y3302347D02*
D03*
X2222500Y3302000D02*
D03*
X1962375Y3562575D02*
D03*
X1993900Y4076700D02*
D03*
X2146300Y3784600D02*
D03*
X2057400Y3937000D02*
D03*
X1612900Y5118100D02*
D03*
X2208674Y4005424D02*
D03*
X2247900Y5080000D02*
D03*
Y4864100D02*
D03*
Y4673600D02*
D03*
X2379980D02*
D03*
X2463800Y1358900D02*
D03*
X2539976Y1612835D02*
D03*
X2705100Y1244600D02*
D03*
X2943730Y1397000D02*
D03*
X3136897Y1638300D02*
D03*
X2592600Y1947325D02*
D03*
X2387600Y2501900D02*
D03*
X2664433Y2495207D02*
D03*
X2538948Y2596594D02*
D03*
X2510237Y2851132D02*
D03*
X2984202Y1961229D02*
D03*
X2982454Y2144987D02*
D03*
X3009900Y2730500D02*
D03*
X3073400Y2476500D02*
D03*
X3187700Y165100D02*
D03*
X3175000Y1219200D02*
D03*
X3962400Y723900D02*
D03*
X4000500Y1295400D02*
D03*
X3975100Y1727200D02*
D03*
X3229200Y2284402D02*
D03*
X3175000Y2755900D02*
D03*
X3175624Y2587400D02*
D03*
X3314700Y2514600D02*
D03*
X3469800Y2768696D02*
D03*
X4025900Y2298700D02*
D03*
X3732007Y2801246D02*
D03*
X2925089Y3162000D02*
D03*
X2509125Y3222314D02*
D03*
X3073079Y3013300D02*
D03*
X2970700Y3439876D02*
D03*
X3073400Y3302000D02*
D03*
X2400300Y3784600D02*
D03*
X2501900Y5080000D02*
D03*
Y4864100D02*
D03*
Y4673600D02*
D03*
X2859000Y4099100D02*
D03*
X2906008Y3792608D02*
D03*
X2729000Y4099100D02*
D03*
Y4359100D02*
D03*
Y4229100D02*
D03*
X2859000D02*
D03*
Y4359100D02*
D03*
X3606800Y2921000D02*
D03*
X3107097Y3706299D02*
D03*
X3151108Y3885624D02*
D03*
X4025900Y3949700D02*
D03*
X3543300Y3962400D02*
D03*
X3479800Y3657600D02*
D03*
X3270750Y3718694D02*
D03*
X1651000Y4013200D02*
D03*
X1842677Y4462696D02*
D03*
X1737876Y4606297D02*
D03*
X2830076Y4796797D02*
D03*
X2817376Y5076197D02*
D03*
%TF.MD5,5a94070941a86f769163290d8845217a*%
M02*
